<svg width="56" height="55" viewBox="0 0 56 55" fill="none" xmlns="http://www.w3.org/2000/svg">
<path d="M32.3739 1.89341C30.7932 1.85485 29.148 1.24053 27.5863 0.971268C25.8947 0.679627 24.0199 0.887437 22.3049 0.887437C18.5584 0.887437 14.3599 2.33407 11.2485 4.40834C8.18828 6.4485 5.24176 9.21995 3.88073 12.7076C2.1967 17.0229 0.905313 21.7671 0.313253 26.372C-0.763153 34.7441 3.77369 43.1905 10.2053 48.3358C13.3485 50.8503 17.3765 51.2167 21.0568 52.4435C22.3449 52.8729 23.609 53.2338 24.9223 53.5705C26.8184 54.0567 28.7037 54.0552 30.6228 54.3343C36.5175 55.1917 43.022 52.5344 47.0909 48.373C48.1751 47.2642 48.8503 45.7498 49.5593 44.3864C50.3404 42.8843 51.5068 41.554 52.2326 40.0365C52.8137 38.8214 53.3493 37.6618 53.8347 36.3945C54.4422 34.8083 54.6189 33.0407 55.176 31.4392C55.7457 29.801 55.8466 28.0053 55.8466 26.2882C55.8466 24.5572 55.9625 22.8674 55.2505 21.249C53.5279 17.3342 51.3137 13.5883 48.3391 10.4814C46.0922 8.13464 43.6025 5.82171 40.5149 4.65051C37.8798 3.651 35.1954 2.61033 32.5416 1.72575" stroke="white" stroke-width="0.25" stroke-linecap="round" stroke-linejoin="round"/>
<path d="M30.1943 26.875C31.7395 26.875 32.8237 27.8021 34.2182 28.3002C35.0889 28.6111 36.2604 29.1875 37.1988 29.2223C38.0069 29.2522 39.3966 29.7359 40.1702 29.3061C41.1153 28.7811 42.0666 28.3869 43.0111 27.8717C43.5643 27.57 44.1695 26.7371 44.4828 26.2044C44.876 25.536 45.822 25.1603 46.4575 24.8258C47.7378 24.152 49.2971 22.8292 49.8107 21.4167C50.2134 20.3095 50.8144 16.983 49.047 16.983C46.8695 16.983 44.58 16.8692 42.6013 17.8585C42.1052 18.1066 41.4608 18.3728 40.9247 18.4919C40.3031 18.6301 39.8355 19.1811 39.2387 19.3302C38.0044 19.6388 36.7643 20.3251 35.5595 20.7554C33.9928 21.3149 32.6912 22.0128 31.0326 22.0128" stroke="white" stroke-width="0.25" stroke-linecap="round" stroke-linejoin="round"/>
<path d="M21.9789 23.0188C19.4372 23.0188 17.6362 21.5498 15.3097 20.8019C14.2443 20.4595 13.0579 20.1685 11.9285 20.1685C10.7763 20.1685 9.35551 19.9487 8.23061 20.2058C6.79373 20.5342 4.43396 20.6213 3.74099 22.1805C3.05457 23.7249 3.91262 25.4719 5.38035 26.1671C6.72769 26.8053 8.60895 26.2636 9.70231 27.2476C10.233 27.7252 10.4614 28.4351 10.997 28.9708C11.6231 29.5968 12.305 30.0085 13.0928 30.3587C14.8343 31.1326 16.678 29.8619 17.955 28.7193C18.5177 28.2158 19.5184 27.8568 20.2184 27.5457C21.0071 27.1951 21.592 26.7074 22.4819 26.7074" stroke="white" stroke-width="0.25" stroke-linecap="round" stroke-linejoin="round"/>
<path d="M22.6495 27.881C21.7912 29.014 20.3736 29.7034 19.1286 30.3587C17.9837 30.9612 18 31.8436 17.7035 32.9108C17.4097 33.9685 17.4412 35.1367 16.1852 35.5934C15.3785 35.8868 13.8203 36.8211 13.4281 37.6054" stroke="white" stroke-width="0.25" stroke-linecap="round" stroke-linejoin="round"/>
<path d="M23.4879 29.39C22.5265 31.005 22.2683 32.6948 21.6808 34.4571C21.3594 35.4214 20.8053 35.9704 20.8053 37.0186C20.8053 38.1933 20.6795 38.5881 19.7061 39.2075C19.1605 39.5547 18.5289 39.7956 18.0295 40.2041C17.7018 40.4723 17.2174 41.1598 16.949 41.2939" stroke="white" stroke-width="0.25" stroke-linecap="round" stroke-linejoin="round"/>
<path d="M32.0386 28.384C33.9617 28.384 36.0388 29.832 36.7704 31.5695C37.1082 32.3719 37.227 32.9561 38.2421 33.2462C39.2381 33.5307 40.3755 33.6624 41.26 34.2521" stroke="white" stroke-width="0.25" stroke-linecap="round" stroke-linejoin="round"/>
<path d="M32.3739 32.4079C33.4399 33.1917 34.3315 34.2367 34.9261 35.4258C35.2669 36.1074 34.9047 36.9457 35.0658 37.6706C35.4863 39.5628 38.6167 38.5223 39.2481 39.785" stroke="white" stroke-width="0.25" stroke-linecap="round" stroke-linejoin="round"/>
<path d="M31.2003 21.1745C31.7321 19.8608 32.5697 18.4121 34.0505 17.989C34.5889 17.8352 35.3952 17.4833 35.811 17.1507C36.0695 16.9438 36.0988 16.4932 36.3047 16.2285C36.5842 15.8691 36.898 15.476 37.1616 15.1015C37.6452 14.4143 38.5041 13.6664 39.2481 13.2944" stroke="white" stroke-width="0.25" stroke-linecap="round" stroke-linejoin="round"/>
<path d="M20.9729 22.1805C19.1214 21.0966 18.4676 19.31 17.6197 17.4021C17.3749 16.8514 16.2758 16.3825 15.7754 16.0608C15.2105 15.6976 13.8887 15.3892 13.5958 14.8033" stroke="white" stroke-width="0.25" stroke-linecap="round" stroke-linejoin="round"/>
<path d="M22.9849 27.0427C22.9849 30.5701 22.8721 33.9485 24.6242 37.1024C25.7083 39.0538 27.5804 40.1203 29.7752 40.1203C30.9089 40.1203 31.8409 38.3937 32.169 37.475C32.6536 36.1181 32.7093 34.5957 32.7093 33.1623C32.7093 31.1367 31.8146 27.8528 29.859 26.875" stroke="white" stroke-width="0.25" stroke-linecap="round" stroke-linejoin="round"/>
<path d="M25.1645 27.881C24.2302 27.2015 23.2225 26.4575 23.1525 25.1984C23.1085 24.4055 22.9993 23.3997 23.3574 22.6835C24.1704 21.0575 26.7753 21.1745 28.3128 21.1745C28.9014 21.1745 29.9813 21.4633 30.3247 22.0128C30.8967 22.9279 30.289 23.7926 29.9894 24.6582C29.4846 26.1164 27.7402 27.378 26.1704 27.378" stroke="white" stroke-width="0.25" stroke-linecap="round" stroke-linejoin="round"/>
<path d="M24.6615 21.0069C22.8048 20.9616 20.7554 17.9162 23.404 17.3276C24.2577 17.1379 24.9483 17.3986 25.3694 18.1566C25.6326 18.6303 26.011 19.8291 25.3321 20.1686" stroke="white" stroke-width="0.25" stroke-linecap="round" stroke-linejoin="round"/>
<path d="M28.853 19.6655C28.3116 18.9211 27.8977 17.8152 28.3873 16.983C28.7498 16.3668 29.9414 16.3298 30.4458 16.7221C31.6502 17.6589 30.3381 19.6655 29.0207 19.6655" stroke="white" stroke-width="0.25" stroke-linecap="round" stroke-linejoin="round"/>
<path d="M24.3261 16.6477C24.7959 16.0334 25.9778 14.864 26.9249 15.3902C27.3455 15.6239 28.35 15.7372 28.35 16.3124" stroke="white" stroke-width="0.25" stroke-linecap="round" stroke-linejoin="round"/>
<path d="M28.5177 16.48C29.7439 16.2408 30.9604 15.819 31.9548 15.0456C32.544 14.5873 32.7647 13.4343 33.3799 13.1268" stroke="white" stroke-width="0.25" stroke-linecap="round" stroke-linejoin="round"/>
<path d="M23.3202 16.983C21.9309 16.407 19.5176 15.7491 18.7933 14.3004" stroke="white" stroke-width="0.25" stroke-linecap="round" stroke-linejoin="round"/>
<path d="M22.9849 29.7253C24.9259 30.4828 26.5171 31.4019 28.6015 31.4019C29.4957 31.4019 29.7275 31.1981 30.362 30.5636C30.7289 30.1967 30.9381 29.4372 31.368 29.2223" stroke="white" stroke-width="0.25" stroke-linecap="round" stroke-linejoin="round"/>
<path d="M22.6495 32.5756C24.76 33.8109 26.4902 34.7552 28.9369 34.7552C29.4736 34.7552 30.7278 34.0632 30.9954 33.5815C31.2315 33.1565 31.8857 32.0726 32.3739 32.0726" stroke="white" stroke-width="0.25" stroke-linecap="round" stroke-linejoin="round"/>
<path d="M24.3261 37.1024C26.0523 37.1435 27.3059 38.4437 29.0579 38.4437C30.4375 38.4437 31.7787 37.2868 32.3739 36.0964" stroke="white" stroke-width="0.25" stroke-linecap="round" stroke-linejoin="round"/>
<path d="M31.0326 23.5218C33.2988 24.0074 35.1411 25.5522 37.0685 26.7912C38.3862 27.6383 39.2803 28.384 40.9247 28.384" stroke="white" stroke-width="0.25" stroke-linecap="round" stroke-linejoin="round"/>
<path d="M31.8709 22.1805C33.6579 22.1805 35.6139 21.9435 37.32 22.5996C37.8995 22.8226 38.5242 22.9627 39.0711 23.2703C39.4797 23.5001 39.7741 24.0164 40.1702 24.1924C40.9702 24.548 41.4796 25.4333 42.4336 25.5337C43.2102 25.6155 43.9643 25.7014 44.7809 25.7014" stroke="white" stroke-width="0.25" stroke-linecap="round" stroke-linejoin="round"/>
<path d="M10.2426 28.0487C11.4359 28.0487 12.8454 28.2934 13.9311 27.7506C14.7849 27.3237 15.7662 26.791 16.446 26.1112C17.0902 25.4671 17.9459 24.9654 18.5884 24.3228C19.0946 23.8166 20.3091 23.8434 20.6376 23.1865" stroke="white" stroke-width="0.25" stroke-linecap="round" stroke-linejoin="round"/>
<path d="M6.55399 26.0367C7.87898 26.0367 9.23624 26.2884 10.3264 25.4406C11.2136 24.7505 12.291 24.2653 13.2605 23.7267C14.0613 23.2818 14.906 22.8684 15.6916 22.432C15.9869 22.2679 17.382 22.2082 17.452 22.3481" stroke="white" stroke-width="0.25" stroke-linecap="round" stroke-linejoin="round"/>
</svg>
