<svg width="123" height="145" viewBox="0 0 123 145" fill="none" xmlns="http://www.w3.org/2000/svg">
<path d="M98.5427 19.3004C94.1006 23.7424 89.5183 28.2114 86.4037 33.7219C84.9297 36.3297 83.7862 39.0351 82.5188 41.7107C81.6512 43.5423 81.1386 45.5387 80.0749 47.2672C79.276 48.5654 79.0374 49.8791 79.0374 51.3597C79.0374 53.5474 81.0057 54.8203 81.9539 56.5588C84.3648 60.9788 86.6632 65.602 88.79 70.2309C89.4022 71.5633 89.995 72.6388 90.7498 73.8738C91.5034 75.107 92.3484 76.4055 92.9516 77.7126C93.9963 79.9762 95.6934 81.6828 97.6089 83.3037C98.698 84.2252 99.6036 85.3276 100.572 86.3701C101.608 87.4863 102.88 88.738 103.73 90.013C104.545 91.2349 105.421 92.3897 106.22 93.6327C106.614 94.2455 107.975 95.1917 108.088 95.8692C108.157 96.2844 109.083 97.4537 109.437 97.7367C110.019 98.2023 110.484 98.8284 111.097 99.3045C112.358 100.286 113.376 101.389 114.832 102.198C115.458 102.546 115.958 103.067 116.595 103.385C117.149 103.662 117.872 104.515 118.463 104.584C119.708 104.731 122.094 106.658 122.613 107.697" stroke="white" stroke-width="0.25" stroke-linecap="round" stroke-linejoin="round"/>
<path d="M79.0374 54.3684C79.0374 56.7278 78.8299 59.0955 78.8299 61.4235C78.8299 62.633 78.4149 63.8906 78.4149 65.0548C78.4149 65.4909 78.0894 65.9008 78.3111 66.2999C78.564 66.755 79.0387 67.0811 79.2449 67.5449C79.7698 68.726 80.5785 69.8689 81.3199 70.9226C83.3623 73.8249 86.0764 76.2825 88.2597 79.0613C89.166 80.2147 90.0321 81.3409 91.0726 82.3814C92.1201 83.4289 93.6895 84.2388 94.4964 85.4939C95.2269 86.6303 96.2391 87.6515 96.9864 88.814C97.773 90.0375 99.1166 91.1294 99.5341 92.5491C99.8688 93.6871 100.636 95.2202 101.448 96.0766C101.815 96.4638 102.053 97.0687 102.324 97.5291C102.545 97.9048 103.069 98.076 103.327 98.4629C103.814 99.194 105.302 100.28 106.117 100.642C107.074 101.067 107.852 101.763 108.872 102.14C109.932 102.533 111.185 103.132 112.342 103.132C113.068 103.132 115.247 103.132 114.52 103.132" stroke="white" stroke-width="0.25" stroke-linecap="round" stroke-linejoin="round"/>
<path d="M98.9577 24.0729C98.1904 25.3006 97.0475 26.279 96.4215 27.6005C95.9059 28.689 95.3433 29.8054 94.6923 30.8283C93.3001 33.0161 93.8737 36.2058 94.8076 38.4368C95.3855 39.8173 96.1238 41.1903 96.5137 42.633C96.9999 44.4319 97.0901 46.2962 97.0901 48.1664C97.0901 49.3137 97.0043 51.1816 97.4014 52.2934C97.5217 52.6302 98.2093 54.7835 98.1276 54.7835" stroke="white" stroke-width="0.25" stroke-linecap="round" stroke-linejoin="round"/>
<path d="M100.618 31.9581C99.0723 33.9381 97.689 36.3603 96.629 38.5982C95.8738 40.1925 96.598 42.4372 97.6665 43.6244C98.7953 44.8786 98.8546 46.9994 100.041 48.3047C101.62 50.0408 103.959 51.0339 105.851 52.3856C107.77 53.756 109.489 55.341 111.454 56.651C112.356 57.2521 112.93 58.2027 113.898 58.7721C114.427 59.0833 114.755 59.702 115.35 60.0172C116.551 60.6525 118.412 61.4133 119.039 62.6686C119.879 64.3487 120.962 65.5782 122.613 66.4037" stroke="white" stroke-width="0.25" stroke-linecap="round" stroke-linejoin="round"/>
<path d="M102.9 1.04004C102.9 3.54824 102.714 5.9985 101.655 8.30266C101.044 9.63276 100.41 11.7935 100.41 13.2827C100.41 16.672 100.41 20.0612 100.41 23.4504C100.41 26.8751 101.863 30.0491 101.863 33.4567C101.863 35.2718 102.344 37.1918 102.739 38.9671C103.059 40.4056 103.73 41.492 103.73 42.9327C103.73 43.7377 104.035 44.4383 104.134 45.2268C104.225 45.9582 104.192 46.9127 104.457 47.6015C104.774 48.4269 104.769 50.6334 105.921 50.6334C106.967 50.6334 107.43 50.6688 108.192 49.9071C108.941 49.1577 109.416 48.2942 109.84 47.3249C110.632 45.515 111.904 43.7722 114.002 43.5898C115.785 43.4348 117.731 45.0529 118.763 46.3796C119.732 47.626 119.501 49.3585 119.501 50.8294C119.501 53.6483 118.878 56.3086 118.878 59.141" stroke="white" stroke-width="0.25" stroke-linecap="round" stroke-linejoin="round"/>
<path d="M108.088 1.45502C108.056 3.86837 107.589 6.40479 106.543 8.59083C106.318 9.06196 105.699 10.1577 105.817 10.6889C106.145 12.1646 108.307 9.69126 108.503 9.34015C109.397 7.73982 111.126 6.49257 112.33 5.17855C112.924 4.53022 113.678 4.13169 114.313 3.53005C114.676 3.18567 115.108 2.64269 115.558 2.49253" stroke="white" stroke-width="0.25" stroke-linecap="round" stroke-linejoin="round"/>
<path d="M91.2801 0.83252C90.3783 4.10152 89.3069 7.30801 88.4211 10.5852C87.7133 13.2043 87.3881 15.754 86.911 18.3781C86.5025 20.6248 85.8238 23.0138 86.8187 25.2027C87.1288 25.8848 87.545 27.159 87.545 27.9117C87.545 28.2733 87.8798 29.5316 88.1675 29.6755" stroke="white" stroke-width="0.25" stroke-linecap="round" stroke-linejoin="round"/>
<path d="M85.8849 22.8279C84.8385 23.2362 83.7623 23.5318 82.7724 24.0268C82.1006 24.3627 81.1877 24.6328 80.5821 25.0182C79.0571 25.9887 76.9784 25.7931 75.406 26.6667C73.6904 27.6198 73.0197 29.4739 73.0197 31.4969C73.0197 34.9269 72.9355 38.288 73.5961 41.6646C74.2562 45.0383 75.2531 48.3242 75.9248 51.6824C76.2932 53.5244 76.2973 55.2449 76.3398 57.1121C76.3591 57.9612 76.45 59.7544 76.8585 60.4898C77.2792 61.247 77.176 62.4099 77.4234 63.245C77.6735 64.089 77.7923 65.2102 77.7923 66.0924C77.7923 67.7067 78.7661 69.5083 79.0834 71.1301C79.4129 72.8142 79.6675 74.4773 79.8789 76.1678C80.0512 77.5467 80.4015 79.1718 80.7896 80.5023C81.3284 82.3496 81.5427 84.5302 81.8963 86.4393C82.2569 88.3867 82.7469 90.3238 83.2796 92.2263C83.8414 94.2329 83.9088 96.368 84.271 98.4053C84.6341 100.448 85.091 102.435 85.6774 104.423C86.2108 106.23 86.213 108.204 86.8302 109.968C87.5015 111.886 87.8399 113.978 88.375 115.951C88.8513 117.707 89.3315 119.474 89.62 121.277C89.8672 122.822 90.2425 124.162 90.2425 125.738C90.2425 126.726 90.2425 127.713 90.2425 128.701C90.2425 130.564 89.9638 132.512 91.9025 133.589C93.599 134.531 95.9639 135.221 97.874 135.295C99.4162 135.354 104.028 135.71 102.485 135.71" stroke="white" stroke-width="0.25" stroke-linecap="round" stroke-linejoin="round"/>
<path d="M73.2272 27.808C71.2662 26.3817 68.1967 26.7705 65.8609 26.7705C64.8449 26.7705 63.6355 26.5834 62.6446 26.8166C61.6653 27.047 60.7228 27.4008 59.7395 27.6466C57.4448 28.2203 55.0124 29.1313 52.7881 29.9868C50.0403 31.0436 46.6058 31.8656 43.6465 32.1771C37.6516 32.8081 31.7876 34.5026 25.8703 35.5317C23.8332 35.886 21.973 36.3156 19.8988 36.3156C17.5072 36.3156 14.9877 36.4809 12.6362 36.7422C10.6965 36.9577 8.9175 37.8327 6.9875 37.9756C5.47726 38.0875 4.20351 39.0362 2.79131 39.4397C1.32797 39.8578 0.748904 42.0396 1.06212 43.3707C1.78515 46.4436 3.16106 49.3009 3.92105 52.3856C4.57976 55.0592 4.2454 58.5216 5.48886 61.0085C6.04934 62.1295 6.00797 63.608 6.72235 64.6399C7.15875 65.2702 7.24111 66.2699 7.24111 67.0261C7.24111 68.8196 7.77484 70.4382 7.86362 72.2137C7.96786 74.2984 8.99227 76.3442 9.10864 78.4388C9.2281 80.5891 10.0351 82.8525 10.3652 84.9983C10.7783 87.6836 11.4992 90.3356 12.1751 92.9641C13.4012 97.7325 14.5751 102.67 15.5413 107.501C15.7276 108.433 16.1638 109.279 16.1638 110.187C16.1638 111.288 16.4839 112.507 16.8324 113.553C17.4862 115.515 18.3142 117.521 18.8152 119.525C19.9162 123.928 20.8584 128.43 21.5473 132.909C21.869 134.999 23.066 137.012 23.2189 139.076C23.2505 139.503 23.804 140.788 23.5301 141.116C23.1781 141.539 23.4767 143.304 23.6454 143.895C24.0105 145.172 26.3537 144.666 27.3228 144.379C28.1617 144.13 29.0794 143.918 29.859 143.549C30.6326 143.182 31.6734 143.382 32.5104 143.134C36.5259 141.944 40.6312 140.903 44.6955 139.652C47.8856 138.671 51.2144 137.577 54.5519 137.577" stroke="white" stroke-width="0.25" stroke-linecap="round" stroke-linejoin="round"/>
<path d="M64.5121 134.672C66.0629 134.672 67.5424 134.257 69.0656 134.257C69.7821 134.257 70.7594 134.195 71.4635 134.038C73.8414 133.51 76.3096 133.147 78.7146 132.597C82.5474 131.721 86.3709 131.236 89.62 129.07" stroke="white" stroke-width="0.25" stroke-linecap="round" stroke-linejoin="round"/>
</svg>
