<svg width="230" height="231" viewBox="0 0 230 231" fill="none" xmlns="http://www.w3.org/2000/svg">
<path d="M36.6746 0.905518C38.3643 3.13595 40.286 5.26537 42.2219 7.27574C44.4661 9.60626 46.622 12.2317 49.0188 14.3622C52.1365 17.1335 54.9836 20.2855 58.3456 22.7136C61.7605 25.18 65.011 28.3351 67.9466 31.3546C70.7101 34.197 73.0247 37.2347 76.1152 39.7365C78.3656 41.5583 80.5703 43.7039 82.6225 45.7562C84.483 47.6166 86.2145 49.6225 88.0936 51.5016C89.8762 53.2841 91.4327 55.6721 93.519 57.1403C95.3877 58.4553 97.0068 60.5071 98.67 62.078C99.9244 63.2626 102.072 64.4523 102.785 66.0556C103.913 68.5935 106.867 70.8236 108.82 72.7763C110.16 74.1164 111.543 75.2987 112.934 76.6167C113.793 77.4303 114.545 78.2725 115.403 79.0856C116.325 79.9589 117.378 81.2955 118.421 81.9659C119.561 82.699 120.304 83.9243 121.423 84.6938C122.278 85.2818 123.389 86.0811 124.029 86.9036C124.929 88.0602 125.747 89.0754 126.376 90.3325" stroke="white" stroke-width="0.25" stroke-linecap="round" stroke-linejoin="round"/>
<path d="M1.01355 3.10004C3.61598 4.93969 5.63211 7.29372 8.14576 9.19595C9.95857 10.5678 11.9342 11.8868 13.5711 13.4631C16.5421 16.324 20.4413 18.1387 23.3703 21.0677C24.5434 22.2409 26.1338 22.8754 27.485 23.8109C28.9874 24.851 30.3962 26.1349 32.0113 26.9655C33.3877 27.6734 34.4698 28.6594 35.5774 29.7087C36.6331 30.7089 37.9644 31.2728 39.0063 32.3147C41.0081 34.3165 43.4093 36.0044 45.6051 37.801C46.7035 38.6997 47.8203 39.4828 48.8664 40.5289C49.9046 41.567 51.17 42.0981 52.3106 42.9368C53.7562 43.9997 55.1592 45.1265 56.6387 46.1676C57.479 46.759 58.8151 47.4403 59.4428 48.225C60.0777 49.0186 61.4421 48.8143 61.9117 49.8709C62.416 51.0056 64.0491 51.8711 64.9292 52.7512C67.2492 55.0713 70.1425 56.6559 72.8234 58.5119C75.1895 60.15 77.3869 61.9689 79.6051 63.8458C82.0364 65.9031 84.6341 67.9043 87.2097 69.7588C89.3006 71.2642 91.1402 73.1966 93.3056 74.5746C94.1514 75.1128 94.7838 76.2966 95.5154 77.0282C96.4234 77.9362 97.3134 79.0756 98.3957 79.7713C100.629 81.2073 102.568 83.8068 104.431 85.6691C106.349 87.5876 108.69 89.1363 110.588 91.0335C111.932 92.3782 113.25 94.2001 114.855 95.2702" stroke="white" stroke-width="0.25" stroke-linecap="round" stroke-linejoin="round"/>
<path d="M120.89 0.356873C122.278 2.74442 123.365 5.30774 124.593 7.7634C125.126 8.8303 125.869 9.77929 126.513 10.7809C127.222 11.8836 127.713 13.169 128.433 14.2098C129.158 15.2562 129.499 16.7532 130.079 17.9131C130.691 19.136 131.53 20.4083 131.862 21.7383C132.472 24.1771 134.838 26.2633 135.703 28.6419C137.474 33.5141 140.057 37.7367 142.286 42.3272C142.952 43.6974 143.494 45.6201 144.42 46.7772C145.095 47.6216 145.088 49.2143 146.127 49.7337" stroke="white" stroke-width="0.25" stroke-linecap="round" stroke-linejoin="round"/>
<path d="M145.578 0.905518C146.244 2.86472 146.523 5.11272 147.437 6.94047C148.326 8.71811 149.218 10.63 149.906 12.4877C150.477 14.0294 151.794 15.6865 151.887 17.3645C151.949 18.4676 153.259 21.4868 153.259 20.382" stroke="white" stroke-width="0.25" stroke-linecap="round" stroke-linejoin="round"/>
<path d="M155.728 27.7885C156.206 28.9993 156.612 30.0941 157.237 31.2174C157.5 31.6921 158.071 32.6396 158.181 33.1376C158.435 34.2792 159.564 35.2435 159.827 36.4294C160.274 38.441 161.75 40.9363 162.86 42.6015" stroke="white" stroke-width="0.25" stroke-linecap="round" stroke-linejoin="round"/>
<path d="M221.015 0.631226C221.015 10.9437 221.068 21.4109 219.933 31.6289C219.442 36.0511 219.095 40.5815 219.095 45.0552C219.095 46.506 218.693 47.9816 218.561 49.429C218.475 50.3753 218.535 51.4745 218.135 52.355C217.749 53.2035 218.089 54.3223 217.86 55.2353C217.626 56.1709 217.583 57.3015 217.464 58.2528C217.249 59.9715 217.175 61.9496 217.175 63.6629C217.175 65.3255 216.9 66.875 216.9 68.6006C216.9 71.8995 216.156 75.033 216.077 78.3236C216.01 81.1433 215.291 84.1573 214.37 86.8274C213.458 89.4732 212.511 92.7491 212.511 95.5445" stroke="white" stroke-width="0.25" stroke-linecap="round" stroke-linejoin="round"/>
<path d="M221.838 102.951C224.218 99.9042 226.441 96.5691 227.309 92.6642C227.483 91.8792 227.351 90.6141 227.736 89.9211C228.147 89.1813 227.599 88.192 228.01 87.4522C228.264 86.9954 228.421 85.765 228.421 85.2577C228.421 84.422 228.97 83.9548 228.97 83.2003" stroke="white" stroke-width="0.25" stroke-linecap="round" stroke-linejoin="round"/>
<path d="M0.739258 26.9655C1.40981 28.111 1.96637 29.4118 2.87283 30.3183C3.56489 31.0103 4.37544 31.5466 5.06735 32.2385C6.65873 33.8299 9.1607 34.564 10.7518 36.1551C11.4503 36.8536 12.6012 37.8153 13.4949 38.2125C14.3205 38.5794 16.1681 39.8447 16.6343 40.5442C16.9618 41.0354 17.7029 41.186 18.1583 41.6414C18.7197 42.2028 19.3332 42.6313 19.9261 43.1502C20.9752 44.068 22.0201 45.0957 23.1722 45.8933C24.3959 46.7405 25.6641 48.0897 26.7383 49.1241C27.799 50.1456 29.5075 51.0128 30.3654 52.1416C31.4368 53.5515 33.6722 54.067 35.0288 55.2201C36.361 56.3525 38.8345 57.6723 40.4846 58.2223C42.0726 58.7516 43.3149 60.0464 44.767 60.8283C46.1415 61.5685 47.7078 62.1124 49.1408 62.7637C50.0773 63.1894 50.8253 64.0468 51.6249 64.6687C52.2833 65.1809 53.4593 65.3193 54.2309 65.705C56.0528 66.616 57.935 68.6939 59.9915 68.9359C60.8012 69.0311 62.2426 69.7311 63.009 70.0941C64.123 70.6218 65.3713 71.1319 66.4227 71.8009C67.2637 72.3361 68.328 72.4395 69.1811 72.9134C70.0038 73.3705 70.9777 74.1966 71.9242 74.4069C73.5311 74.764 74.9875 75.9055 76.4505 76.5557C78.5941 77.5085 80.8609 78.1686 83.034 79.1465C84.3774 79.751 85.687 80.4445 87.0878 80.9448C88.1046 81.3079 89.5242 81.6675 90.4406 82.2402C92.3758 83.4497 94.9769 83.0992 96.887 84.1604C98.3282 84.9611 100.567 84.5719 102.236 84.5719" stroke="white" stroke-width="0.25" stroke-linecap="round" stroke-linejoin="round"/>
<path d="M126.376 91.1555C127.891 91.7468 129.797 92.1723 131.177 92.9385C132.838 93.8615 134.806 93.6031 136.587 94.112C138.642 94.6994 141.255 94.9509 143.384 95.255C144.764 95.4522 146.467 95.4939 147.834 95.5445C150.828 95.6554 153.888 95.8188 156.825 95.8188C159.204 95.8188 161.493 96.3675 163.957 96.3675" stroke="white" stroke-width="0.25" stroke-linecap="round" stroke-linejoin="round"/>
<path d="M183.434 97.1904C188.446 97.1904 193.418 97.4647 198.46 97.4647C200.451 97.4647 203.502 98.0198 205.242 97.0532C206.174 96.5355 207.181 96.329 208.183 96.0322C208.798 95.85 210.617 96.0417 210.865 95.5445" stroke="white" stroke-width="0.25" stroke-linecap="round" stroke-linejoin="round"/>
<path d="M176.85 80.4572C176.85 81.7381 177.149 82.6925 177.414 83.8861C177.559 84.5408 178.186 85.3372 178.222 85.9435C178.325 87.6937 180.23 88.9331 180.416 90.6068C180.592 92.1857 182.247 93.6566 182.336 95.2702C182.384 96.1198 182.885 96.7385 182.885 97.6019C182.885 98.5605 184.004 100.303 182.611 98.562" stroke="white" stroke-width="0.25" stroke-linecap="round" stroke-linejoin="round"/>
<path d="M166.7 91.7041C168.051 94.0264 169.041 96.335 170.541 98.501C171.508 99.8985 172.799 101.158 173.558 102.677" stroke="white" stroke-width="0.25" stroke-linecap="round" stroke-linejoin="round"/>
<path d="M0.190613 116.393C1.417 116.678 2.08404 117.202 3.08617 117.749C3.36748 117.902 4.00595 118.278 4.30535 118.313C4.95957 118.39 5.79846 118.684 6.28652 119.075C6.78971 119.477 8.13026 119.068 8.63345 119.471C9.27578 119.985 10.2996 119.759 11.0413 120.096C14.9251 121.861 19.3324 121.852 23.2332 123.586C24.5819 124.185 26.6377 124.779 28.1099 124.896C29.9553 125.044 31.9793 126.124 33.7943 126.527C35.9942 127.016 38.3341 127.09 40.5303 127.639C43.2298 128.314 46.244 129.285 49.0189 129.285C51.5254 129.285 54.2889 129.684 56.6997 130.322C59.2465 130.996 61.7968 132.498 64.3805 132.867C66.8255 133.216 69.0942 134.483 71.528 134.787C74.2251 135.124 77.343 135.034 79.9556 135.808C82.0041 136.415 84.6709 136.418 86.8135 136.418C89.9365 136.418 93.0555 136.401 96.0793 136.951C101.13 137.869 106.367 138.612 111.563 138.612C121.692 138.612 131.382 141.904 141.463 141.904C143.4 141.904 146.014 141.884 147.773 142.666C148.178 142.846 149.506 142.926 149.54 142.788C149.659 142.315 154.008 143.001 154.341 143.001C160.401 143.001 166.462 143.001 172.522 143.001C177.969 143.001 183.332 142.453 188.783 142.453C193.668 142.453 198.575 142.317 203.459 142.453C204.822 142.49 206.224 143.001 207.573 143.001C208.416 143.001 210.11 143.001 210.865 143.336C212.406 144.021 215.108 143.55 216.778 143.55C218.555 143.55 227.887 145.414 228.421 143.275" stroke="white" stroke-width="0.25" stroke-linecap="round" stroke-linejoin="round"/>
<path d="M147.224 151.505C146.248 149.151 143.993 147.39 141.326 147.39C140.387 147.39 139.224 147.202 138.309 147.405C137.002 147.696 136.226 149.236 135.428 150.133C132.263 153.695 132.137 161.899 135.596 165.358C137.457 167.219 139.15 167.964 141.799 167.964C144.095 167.964 146.297 165.687 147.62 163.986C149.182 161.978 149.418 159.778 149.418 157.327C149.418 156.323 149.698 154.769 149.281 153.852C148.828 152.854 148.248 151.907 147.773 150.956" stroke="white" stroke-width="0.25" stroke-linecap="round" stroke-linejoin="round"/>
<path d="M101.413 157.54C93.7027 160.737 94.2884 169.492 94.8297 176.529C95.0868 179.872 97.2048 182.589 100.453 183.31C102.721 183.814 106.885 184.195 109.094 183.265C110.459 182.69 111.636 181.834 112.935 181.07C113.419 180.785 114.151 179.816 114.458 179.333C114.856 178.709 115.781 177.581 115.937 176.879C116.65 173.67 116.501 170.261 116.501 166.867C116.501 165.199 115.544 163.735 114.58 162.417C113.809 161.361 112.475 159.035 111.136 158.652C109.625 158.221 108.155 156.991 106.488 156.991C105.071 156.991 103.653 156.991 102.236 156.991" stroke="white" stroke-width="0.25" stroke-linecap="round" stroke-linejoin="round"/>
<path d="M179.593 160.009C176.038 160.009 172.452 160.14 169.779 162.813C167.025 165.567 166.975 168.642 166.975 172.353C166.975 175.535 169.542 178.558 171.15 181.131C171.8 182.17 174.349 183.263 175.479 183.326C177.112 183.416 178.779 183.326 180.416 183.326C186.47 183.326 190.84 177.258 190.84 171.469C190.84 170.353 191.24 168.12 190.505 167.202C189.715 166.215 188.983 164.926 188.31 163.849C187.55 162.632 185.79 162.53 184.805 161.655C183.675 160.65 181.79 160.467 180.416 160.009" stroke="white" stroke-width="0.25" stroke-linecap="round" stroke-linejoin="round"/>
<path d="M80.5652 229.959C83.7332 224.637 88.2956 220.596 94.22 218.773C95.3154 218.436 96.9233 218.712 98.0604 218.712C99.1455 218.712 100.491 218.492 101.55 218.728C104.434 219.368 106.85 221.033 109.521 222.004C112.062 222.928 114.116 224.776 116.501 225.906C117.467 226.363 118.442 227.322 119.518 227.475C120.41 227.603 121.436 228.008 122.261 228.374C123.978 229.137 126.574 229.411 128.433 229.411C130.539 229.411 133.117 229.178 135.154 228.451C137.291 227.688 139.452 227.389 141.189 225.845C142.16 224.982 143.57 224.835 144.481 223.924C145.327 223.078 146.233 222.446 147.087 221.593C150.599 218.081 154.904 214.598 160.056 214.598C161.532 214.598 163.033 214.516 164.506 214.598C165.682 214.663 166.647 215.641 167.798 215.969C169.965 216.588 171.947 218.298 173.695 219.657C176.89 222.142 178.77 225.044 178.77 229.136" stroke="white" stroke-width="0.25" stroke-linecap="round" stroke-linejoin="round"/>
<path d="M26.42 63.4741C26.42 67.9224 25.8546 72.0996 25.8546 76.6187C25.8546 82.3893 25.2284 88.0175 25.0066 93.7836C24.9108 96.2728 24.7239 98.8106 24.7239 101.353C24.7239 104.244 23.8759 107.103 23.8759 109.959C23.8759 112.298 23.3105 114.634 23.3105 117.042C23.3105 117.984 23.3105 118.926 23.3105 119.869C23.3105 120.885 23.7102 121.989 22.4625 121.989" stroke="white" stroke-width="0.25" stroke-linecap="round" stroke-linejoin="round"/>
<path d="M61.1896 80.7175C61.1896 85.0729 61.1896 89.4283 61.1896 93.7836C61.1896 98.3713 60.0589 102.887 60.0589 107.446C60.0589 109.819 59.4936 112.21 59.4936 114.639C59.4936 116.846 59.2109 119.042 59.2109 121.282C59.2109 124.533 59.2109 127.784 59.2109 131.035" stroke="white" stroke-width="0.25" stroke-linecap="round" stroke-linejoin="round"/>
<path d="M91.719 92.3074C91.719 99.7094 91.719 107.111 91.719 114.513C91.719 121.467 91.1537 128.544 91.1537 135.557" stroke="white" stroke-width="0.25" stroke-linecap="round" stroke-linejoin="round"/>
<path d="M121.118 103.332C121.118 106.965 120.552 110.521 120.552 114.137C120.552 117.341 120.764 120.562 120.05 123.685C119.523 125.99 119.855 129.221 119.987 131.6C120.115 133.895 120.27 136.289 120.27 138.667" stroke="white" stroke-width="0.25" stroke-linecap="round" stroke-linejoin="round"/>
<path d="M149.668 103.615C149.668 107.201 150.234 110.699 150.234 114.294C150.234 117.26 149.951 120.213 149.951 123.119C149.951 126.375 149.386 129.678 149.386 133.013C149.386 135.865 150.234 138.606 150.234 141.494" stroke="white" stroke-width="0.25" stroke-linecap="round" stroke-linejoin="round"/>
<path d="M180.481 108.42C180.481 111.691 181.329 114.809 181.329 118.094C181.329 120.994 181.329 123.894 181.329 126.794C181.329 129.762 181.329 132.731 181.329 135.699C181.329 136.939 181.611 138.032 181.611 139.232C181.611 140.412 182.177 141.483 182.177 142.624" stroke="white" stroke-width="0.25" stroke-linecap="round" stroke-linejoin="round"/>
<path d="M216.381 106.159C215.959 108.372 216.381 110.238 216.381 112.378C216.381 113.566 216.418 114.848 216.883 115.895C217.389 117.033 217.167 118.77 217.229 120.01C217.328 121.984 217.794 123.855 217.794 125.883C217.794 127.607 218.013 129.301 218.077 130.972C218.121 132.11 217.699 133.944 218.14 134.992C218.562 135.995 218.642 137.557 218.642 138.667C218.642 139.87 219.208 141.138 219.208 142.342" stroke="white" stroke-width="0.25" stroke-linecap="round" stroke-linejoin="round"/>
<path d="M213.271 108.42C213.413 114.371 214.685 119.818 214.685 125.805C214.685 131.15 215.533 136.2 215.533 141.494" stroke="white" stroke-width="0.25" stroke-linecap="round" stroke-linejoin="round"/>
<path d="M183.025 107.572C183.025 114.162 182.937 120.636 183.857 127.077C184.498 131.563 184.438 136.355 184.438 140.928" stroke="white" stroke-width="0.25" stroke-linecap="round" stroke-linejoin="round"/>
<path d="M152.495 104.18C152.495 110.446 152.213 116.734 152.213 123.057C152.213 126.307 152.684 129.428 152.778 132.605C152.819 134.007 153.27 135.501 153.343 136.971C153.388 137.872 153.407 139.893 153.909 140.646" stroke="white" stroke-width="0.25" stroke-linecap="round" stroke-linejoin="round"/>
<path d="M123.662 99.657C123.662 111.764 123.379 123.73 123.379 135.84" stroke="white" stroke-width="0.25" stroke-linecap="round" stroke-linejoin="round"/>
<path d="M94.2632 93.1554C94.2632 101.053 95.1112 108.789 95.1112 116.681C95.1112 119.873 94.8285 123.045 94.8285 126.166C94.8285 127.705 94.5459 129.334 94.5459 130.972C94.5459 131.676 94.2632 132.276 94.2632 133.013C94.2632 133.427 94.2632 133.84 94.2632 134.254C94.2632 134.398 94.4739 134.056 94.5773 133.956C95.1108 133.435 95.6847 132.943 96.2419 132.448" stroke="white" stroke-width="0.25" stroke-linecap="round" stroke-linejoin="round"/>
<path d="M64.2991 81.8482C64.2991 98.3158 62.603 114.547 62.603 131.034" stroke="white" stroke-width="0.25" stroke-linecap="round" stroke-linejoin="round"/>
<path d="M30.0949 65.1701C30.0949 70.0745 28.3988 74.6384 28.3988 79.4454C28.3988 81.3559 28.1161 83.0969 28.1161 85.0205C28.1161 86.3693 27.8819 87.6695 27.8334 88.978C27.7826 90.3499 27.8631 92.3448 27.4879 93.658C26.7849 96.1187 27.2681 99.3519 27.2681 101.918C27.2681 104.493 26.7027 106.85 26.7027 109.41C26.7027 114.168 26.7027 118.926 26.7027 123.685" stroke="white" stroke-width="0.25" stroke-linecap="round" stroke-linejoin="round"/>
</svg>
