<svg width="161" height="157" viewBox="0 0 161 157" fill="none" xmlns="http://www.w3.org/2000/svg">
<path d="M40.3618 22.1334C36.8317 24.2859 35.2655 25.9669 34.5521 29.891C34.0851 32.4591 33.4907 37.4015 35.4837 39.5117C36.6487 40.7453 37.2802 41.9326 38.8374 42.7977C40.1997 43.5546 41.9814 44.3899 43.563 44.3899C45.4344 44.3899 47.5813 44.749 49.2034 43.8478C50.7332 42.998 52.1892 42.3429 53.4717 41.1886C54.6425 40.1349 55.5334 38.861 56.0632 37.3776C56.6952 35.6081 56.3646 33.6753 56.8932 31.9574C57.9021 28.6784 56.224 26.3132 54.5388 23.6917C51.5122 18.9835 44.9684 19.6776 40.6667 21.8285" stroke="white" stroke-width="0.25" stroke-linecap="round" stroke-linejoin="round"/>
<path d="M1.03198 53.5363C3.31326 53.5363 5.12786 53.5203 7.26514 52.9096C8.80006 52.4711 10.7877 51.1808 12.1433 50.3181C13.3258 49.5656 15.8344 48.5229 17.1908 48.3533C17.8034 48.2767 18.8492 47.5641 19.4605 47.2862C20.4116 46.8539 21.433 46.705 22.3738 46.2869C25.9989 44.6757 30.9612 44.9996 34.874 44.9996C38.9659 44.9996 42.8774 45.6094 46.9168 45.6094C48.91 45.6094 51.4131 44.9916 53.1669 44.0172C55.1936 42.8913 57.1421 42.4437 59.3323 41.7136C63.1974 40.4253 67.1475 38.902 71.3075 38.902C72.8908 38.902 75.0308 38.4639 76.2703 39.5795C77.2904 40.4976 80.0302 39.5776 81.2161 39.5117C83.5505 39.382 82.7426 41.6556 83.8923 42.9332C84.9475 44.1056 85.4359 45.9143 87.3138 45.9143" stroke="white" stroke-width="0.25" stroke-linecap="round" stroke-linejoin="round"/>
<path d="M96.7651 43.7801C99.4429 41.8326 102.917 40.533 106.064 39.8335C108.884 39.2068 110.643 41.9508 113.229 41.9508C114.628 41.9508 115.691 42.0736 116.887 41.4088C118.156 40.704 119.429 40.0648 120.698 39.3593C122.792 38.1961 126.114 36.5315 128.625 37.0896C129.784 37.347 130.864 38.3002 131.962 38.614C133.15 38.9533 134.454 38.9019 135.79 38.9019C138.803 38.9019 141.446 38.6773 144.174 37.2082C148.785 34.7256 154.436 34.3287 159.571 34.3287" stroke="white" stroke-width="0.25" stroke-linecap="round" stroke-linejoin="round"/>
<path d="M106.826 37.6824C109.893 33.6341 115.46 28.6587 120.851 31.2121C123.227 32.3378 125.27 34.0221 127.406 35.6838C128.137 36.2526 129.99 36.158 130.912 36.158C132.132 36.158 133.351 36.158 134.571 36.158C137.617 36.158 139.266 33.4374 141.43 31.7542C143.75 29.9503 145.373 27.9122 147.376 25.792C148.483 24.62 150.076 23.8554 151.356 22.8956C152.416 22.1008 153.336 20.5345 154.54 19.9992C155.316 19.6545 157.222 19.35 158.047 19.7621C158.506 19.992 159.86 22.166 160.181 21.5236" stroke="white" stroke-width="0.25" stroke-linecap="round" stroke-linejoin="round"/>
<path d="M115.058 30.0604C117.127 27.9269 118.982 26.0969 122.07 26.0969C123.377 26.0969 124.13 26.0207 125.119 26.6389C126.109 27.2578 126.437 28.4232 127.118 29.2981C128.805 31.4677 131.54 30.6534 133.791 31.2968C134.836 31.5952 136.768 35.3696 136.705 35.2434" stroke="white" stroke-width="0.25" stroke-linecap="round" stroke-linejoin="round"/>
<path d="M128.473 29.4506C129.279 28.1278 130.128 26.4987 131.522 25.7242C132.036 25.4386 133.056 24.649 133.351 24.1321C133.789 23.3657 136.745 22.7936 137.315 23.5054C138.377 24.8332 139.11 26.7423 140.363 27.9262C141.224 28.7391 143.491 27.6213 144.632 27.6213" stroke="white" stroke-width="0.25" stroke-linecap="round" stroke-linejoin="round"/>
<path d="M83.6552 41.341C84.4921 40.7324 86.3272 39.8186 86.3991 38.5971C86.4456 37.806 87.3137 37.3191 87.3137 36.6153C87.3137 33.6814 90.6505 35.2434 91.7176 33.8714C93.0476 32.1614 94.4932 30.6701 96.9176 30.6701C99.2234 30.6701 98.9763 32.9826 100.576 33.8714C102.798 35.1057 103.33 31.3402 103.473 30.0604C103.73 27.7388 106.012 26.7823 107.978 26.7067C110.001 26.6288 112.066 27.0508 113.839 26.1646C114.71 25.7291 115.524 25.2801 116.43 24.8774C117.918 24.2161 117.373 23.5565 117.87 22.4383C118.654 20.6733 118.512 18.7405 121.003 18.1869C123.165 17.7066 125.473 17.5426 127.558 16.798C128.674 16.3996 130.107 16.5724 131.047 15.7309C132.068 14.8179 133.152 14.1007 134.113 13.1394C135.935 11.3176 137.925 10.243 140.516 10.243C142.363 10.243 143.915 8.39488 144.022 6.58439C144.141 4.56751 146.316 2.95111 147.985 2.24828C151.585 0.732605 156.181 0.0110834 159.571 1.70627" stroke="white" stroke-width="0.25" stroke-linecap="round" stroke-linejoin="round"/>
<path d="M1.94666 61.1584C5.31418 61.1584 8.56225 61.7682 12.0078 61.7682C13.8832 61.7682 15.8467 61.4721 17.6651 61.1415C19.5697 60.7951 21.4675 60.8535 23.424 60.8535C26.5469 60.8535 29.8482 59.7176 32.8923 59.0412C36.3343 58.2762 39.9798 56.89 43.5462 56.89C49.9662 56.89 56.1165 58.4144 62.4659 58.4144C63.8887 58.4144 65.3115 58.4144 66.7342 58.4144C67.7389 58.4144 70.6753 58.292 71.443 57.6522C72.5291 56.7472 74.8596 56.7229 76.1687 56.1278C77.7118 55.4264 79.4724 55.7023 81.0637 55.3487C84.4774 54.5901 87.9494 55.7567 91.2773 56.5174C94.3802 57.2266 97.8417 56.89 101.034 56.89C103.981 56.89 106.928 56.89 109.875 56.89C111.197 56.89 112.421 57.1949 113.839 57.1949C114.877 57.1949 117.079 56.7997 117.87 57.432C120.262 59.3458 125.522 58.4605 128.168 57.8724C130.086 57.4463 132.352 57.4998 134.334 57.4998C136.14 57.4998 137.947 57.4998 139.754 57.4998C143.155 57.4998 146.257 56.2803 149.578 56.2803C151.031 56.2803 152.553 55.9754 154.083 55.9754C155.817 55.9754 157.246 55.3656 158.961 55.3656" stroke="white" stroke-width="0.25" stroke-linecap="round" stroke-linejoin="round"/>
<path d="M56.5206 57.4998C57.9657 57.4646 61.6315 56.4466 62.6183 55.2132C63.6236 53.9565 66.0746 51.4981 67.8013 51.4022C68.7415 51.3499 69.6574 51.045 70.5452 51.0973C71.4675 51.1515 71.9394 52.4565 72.527 52.9266C72.996 53.3018 73.12 54.2502 73.7634 54.434C74.2346 54.5687 75.5563 55.0218 75.7282 55.3656" stroke="white" stroke-width="0.25" stroke-linecap="round" stroke-linejoin="round"/>
<path d="M144.632 11.4625C146.725 12.9847 149.998 14.7161 152.423 15.4091C153.606 15.7471 155.118 15.9197 156.217 16.4084C156.958 16.7378 159.629 16.7621 159.876 17.2553" stroke="white" stroke-width="0.25" stroke-linecap="round" stroke-linejoin="round"/>
<path d="M158.961 4.14531C157.636 3.88671 155.197 3.0129 153.931 3.85736C152.836 4.5872 151.715 6.58794 152.864 7.8039C153.188 8.14718 155.744 10.8079 153.914 11.1407C152.806 11.342 151.564 11.6234 151.034 12.682" stroke="white" stroke-width="0.25" stroke-linecap="round" stroke-linejoin="round"/>
<path d="M142.498 14.8162C140.46 14.8162 140.058 15.4552 140.058 17.4077C140.058 18.5023 140.542 19.2083 141.346 19.9315C141.868 20.4016 143.497 21.4201 141.735 21.8116C140.755 22.0294 140.762 23.3059 140.058 23.6578" stroke="white" stroke-width="0.25" stroke-linecap="round" stroke-linejoin="round"/>
<path d="M137.619 45.3045C135.616 46.0677 134.179 46.7765 132.589 48.0484C131.532 48.894 132.112 50.1746 131.81 51.2328C131.653 51.7821 129.264 51.9833 128.778 52.0119C127.959 52.0601 126.796 53.4835 126.407 54.1461C125.238 56.1332 120.227 53.8525 118.581 53.5533C116.239 53.1275 113.077 53.6886 111.4 55.3656" stroke="white" stroke-width="0.25" stroke-linecap="round" stroke-linejoin="round"/>
<path d="M87.9236 46.8289C88.6952 45.8103 89.1892 44.8536 89.8206 43.7801C90.0523 43.3863 91.5809 43.2892 92.0395 43.1873C92.6698 43.0472 96.6164 42.4679 95.1053 43.7632C94.6895 44.1195 94.1572 45.2264 94.0382 45.7618C93.8747 46.4975 92.854 46.2192 92.1919 46.2192C91.5464 46.2192 88.1158 46.7494 87.9236 47.1338" stroke="white" stroke-width="0.25" stroke-linecap="round" stroke-linejoin="round"/>
<path d="M88.8382 47.4387C88.8382 49.042 88.4656 49.5729 90.0577 49.5729C90.8199 49.5729 91.5821 49.5729 92.3443 49.5729C94.5204 49.5729 93.1065 48.8341 93.1065 47.4387" stroke="white" stroke-width="0.25" stroke-linecap="round" stroke-linejoin="round"/>
<path d="M71.155 43.1703C72.5562 43.1703 75.1755 42.7335 76.4735 43.4752C77.5639 44.0983 77.2936 45.8698 77.5406 46.9814C77.8122 48.2036 78.2551 49.5729 79.6917 49.5729C81.0129 49.5729 82.3341 49.5729 83.6552 49.5729" stroke="white" stroke-width="0.25" stroke-linecap="round" stroke-linejoin="round"/>
<path d="M68.411 45.6094C71.2962 45.6094 72.7091 45.7848 74.0513 48.2009C74.3758 48.7849 74.4883 49.478 74.8135 50.0471C75.2338 50.7825 76.0999 50.926 76.338 51.4021" stroke="white" stroke-width="0.25" stroke-linecap="round" stroke-linejoin="round"/>
<path d="M64.4476 46.2191C64.1978 47.5306 64.2042 49.3519 65.972 49.5729C66.9139 49.6906 67.6656 50.1074 68.716 49.6406C70.4382 48.8752 72.5281 49.8799 73.2892 51.4022" stroke="white" stroke-width="0.25" stroke-linecap="round" stroke-linejoin="round"/>
<path d="M72.6794 40.7313C74.5049 41.0875 76.48 41.9508 78.3198 41.9508C80.3762 41.9508 79.9951 43.7019 80.8435 44.7625C81.2086 45.2188 80.9311 45.7647 81.4533 46.2869C82.0533 46.8869 82.7018 46.8289 83.5028 46.8289C84.5652 46.8289 85.8794 47.3138 86.3992 48.3533" stroke="white" stroke-width="0.25" stroke-linecap="round" stroke-linejoin="round"/>
<path d="M22.0688 58.7193C23.3479 57.7201 24.2629 56.6947 25.3548 55.6027C26.2075 54.7501 27.5508 54.9774 28.6238 54.7389C29.7549 54.4876 30.8945 54.1289 31.9606 53.8243C32.5562 53.6541 34.4451 52.2146 33.5866 54.1461C32.4548 56.6926 30.5608 57.5267 28.0141 58.0926C26.7228 58.3796 22.9341 60.7547 22.0688 59.0242" stroke="white" stroke-width="0.25" stroke-linecap="round" stroke-linejoin="round"/>
<path d="M33.6544 53.2314C35.1266 53.806 36.3496 54.3717 37.7534 54.7728C37.8112 54.7893 38.4043 56.6336 38.5325 56.89" stroke="white" stroke-width="0.25" stroke-linecap="round" stroke-linejoin="round"/>
<path d="M30.3007 59.634C30.3007 59.3959 30.3007 57.4799 30.3007 57.8047" stroke="white" stroke-width="0.25" stroke-linecap="round" stroke-linejoin="round"/>
<path d="M21.4591 60.8535C21.2297 59.6779 20.7942 59.0242 22.0688 59.0242" stroke="white" stroke-width="0.25" stroke-linecap="round" stroke-linejoin="round"/>
<path d="M2.5564 148.965C5.1091 148.467 7.27669 147.359 9.5687 146.153C11.5381 145.116 13.6602 144.344 15.6664 143.341C16.8962 142.726 18.4691 142.521 19.7823 142.122C20.869 141.791 22.2279 141.118 23.3562 141.038C25.3575 140.895 28.7946 140.329 30.4532 139.039C34.7712 135.681 35.7464 130.451 38.0752 125.794C39.4871 122.97 42.089 120.521 44.698 118.781C47.4212 116.966 50.8724 116.422 53.7767 114.97C58.4837 112.617 63.0961 110.986 66.8867 107.196C68.3913 105.691 69.8184 103.55 71.0026 101.708C71.9964 100.162 74.2877 98.2368 75.796 97.1346C79.7199 94.2671 83.5065 93.7809 88.2285 93.7809C89.8276 93.7809 91.2396 94.8143 92.6323 95.6101C94.782 96.8385 95.3086 94.9821 96.528 93.3405C97.8617 91.5452 99.1121 89.2147 100.729 87.6832C102.399 86.1012 106.536 87.0308 107.436 89.0552C108.137 90.6321 108.256 92.2358 109.028 93.7809C109.984 95.6921 111.553 96.017 113.381 96.8297C116.431 98.1851 115.296 103.255 115.685 105.976C116.335 110.524 120.761 111.39 124.357 112.988C126.154 113.787 125.729 115.441 125.729 117.104C125.729 118.442 126.249 118.386 127.406 118.934C128.952 119.666 130.575 120.137 132.132 120.915C134.778 122.239 136.714 123.842 138.382 126.251C139.474 127.829 141.509 130.944 141.583 132.874C141.767 137.656 141.856 142.43 145.546 145.916C146.924 147.217 149.083 147.986 150.272 149.439C151.492 150.93 152.559 153.451 152.559 155.367" stroke="white" stroke-width="0.25" stroke-linecap="round" stroke-linejoin="round"/>
<path d="M45.5449 80.9758C43.6757 82.4052 41.3252 85.9026 43.5631 88.1405C44.8086 89.386 47.3246 89.5125 49.051 89.5125C50.6598 89.5125 51.9798 89.8174 53.6243 89.8174C55.2947 89.8174 58.6707 89.9499 59.8744 88.4454C60.5036 87.6589 61.5902 87.153 62.2965 86.4467C63.1085 85.6347 63.5433 84.7641 64.6 84.177C65.3785 83.7445 66.7686 84.0246 67.6489 84.0246C68.9576 84.0246 68.9217 84.395 69.4782 85.3966C69.8903 86.1385 70.017 86.8704 70.5453 87.5307C70.9683 88.0595 73.2272 88.293 73.882 88.293C75.971 88.293 78.06 88.293 80.1491 88.293C82.5504 88.293 82.8359 90.6143 80.5386 91.4095C78.3762 92.1581 76.4253 92.2564 74.1361 92.2564C72.8946 92.2564 71.6528 92.1319 70.4775 92.4936C69.6674 92.7428 68.72 92.3027 68.0384 92.7984C67.9817 92.8397 65.6437 93.2676 66.0398 93.7131C66.6538 94.4039 67.9074 94.9449 68.716 95.373C70.5515 96.3448 69.1436 98.5675 67.4964 98.659C66.4312 98.7181 64.8143 98.9025 63.8378 99.3365C63.0708 99.6774 62.0351 99.3128 61.3988 99.8785C60.8469 100.369 59.6353 100.938 58.9597 101.335C58.3176 101.713 58.6548 103.447 58.6548 104.147C58.6548 105.407 58.4532 105.717 59.5695 106.213C60.241 106.512 61.1254 106.796 61.3988 105.976" stroke="white" stroke-width="0.25" stroke-linecap="round" stroke-linejoin="round"/>
<path d="M59.8744 97.1346C57.6114 97.9966 55.5129 98.9036 53.3194 99.8785C51.5684 100.657 50.217 101.653 48.5937 102.555C46.0425 103.972 44.4788 109.467 45.782 112.074C46.0051 112.52 48.5296 114.661 48.8816 113.429C49.2473 112.149 48.5808 110.878 49.2712 109.635C50.4474 107.518 51.4822 110.621 51.6256 111.481C51.9199 113.247 53.0094 113.598 54.6914 113.598" stroke="white" stroke-width="0.25" stroke-linecap="round" stroke-linejoin="round"/>
<path d="M100.729 84.9393C101.993 83.9812 103.5 82.1953 105.149 82.1953C107.14 82.1953 107.922 83.1326 109.418 84.3295C110.062 84.8451 109.988 85.3199 110.942 85.5321C111.341 85.6207 112.842 85.7365 113.161 85.4813C114.88 84.1064 115.399 84.3337 114.211 82.1953C113.571 81.0432 112.614 79.461 113.381 78.0794C114.604 75.8777 111.356 75.7928 110.028 75.7928C105.54 75.7928 101.251 77.4927 99.2042 81.5856" stroke="white" stroke-width="0.25" stroke-linecap="round" stroke-linejoin="round"/>
<path d="M24.8128 107.196C23.4268 109.081 22.3588 114.208 26.1848 114.208C29.1289 114.208 30.2896 113.192 32.4349 111.159C33.5885 110.066 37.5671 106.089 39.5996 107.67C41.7632 109.353 41.8862 109.902 41.8862 112.684" stroke="white" stroke-width="0.25" stroke-linecap="round" stroke-linejoin="round"/>
<path d="M87.9236 122.745C87.5193 125.08 86.0529 129.971 88.8382 131.519C90.5031 132.444 92.3706 131.787 94.0212 132.569C95.8959 133.457 96.4603 136.223 96.4603 138.057C96.4603 139.971 96.6463 140.763 97.9847 141.952C99.155 142.993 100.95 142.919 102.118 144.087C103.192 145.161 103.654 146.645 104.692 147.745C106.712 149.884 110.077 151.139 113.076 150.472C117.184 149.559 117.041 143.158 116.278 140.106C115.717 137.864 113.748 135.951 112.755 133.873C112.239 132.795 111.199 131.174 110.18 130.519C109.15 129.857 108.676 128.647 107.876 127.741C104.334 123.727 102.997 117.759 106.064 112.988C107.278 111.1 108.507 109.216 109.706 107.331C110.473 106.126 110.18 104.296 110.18 102.927" stroke="white" stroke-width="0.25" stroke-linecap="round" stroke-linejoin="round"/>
<path d="M69.3257 114.208C68.6588 118.96 65.9259 122.754 63.0587 126.403C61.6419 128.206 58.3499 129.73 58.3499 132.382C58.3499 133.636 58.045 134.872 58.045 136.16C58.045 137.318 58.8932 138.356 59.2646 139.378C59.7559 140.729 62.2109 142.867 63.6854 142.867C64.784 142.867 67.0441 144.488 67.869 145.238C69.5139 146.734 69.1586 149.11 70.613 150.726C71.9575 152.22 73.8319 152.013 75.7282 152.013C77.6732 152.013 79.5458 154.466 80.3015 155.977" stroke="white" stroke-width="0.25" stroke-linecap="round" stroke-linejoin="round"/>
<path d="M71.7647 141.952C74.2618 138.656 76.3852 133.196 74.1361 129.147C72.7624 126.675 70.8501 125.444 70.8501 122.44" stroke="white" stroke-width="0.25" stroke-linecap="round" stroke-linejoin="round"/>
<path d="M99.2042 145.001C99.0097 145.573 97.5026 148.823 98.442 149.574C99.1068 150.106 100.304 150.492 100.729 151.234C101.176 152.018 101.643 152.192 101.643 153.233C101.643 153.88 101.373 155.385 101.948 155.672" stroke="white" stroke-width="0.25" stroke-linecap="round" stroke-linejoin="round"/>
<path d="M112.619 127.013C114.346 130.83 118.591 130.977 122.206 130.977C125.522 130.977 127.373 131.852 129.93 133.72C131.46 134.839 132.132 137.388 132.132 139.208C132.132 140.428 131.573 143.562 132.436 144.527C133.766 146.013 135.42 146.403 136.874 147.593C138.445 148.878 139.219 149.489 140.126 151.404C140.694 152.603 141.771 154.148 143.277 154.148C143.905 154.148 144.876 154.219 145.394 154.622C145.959 155.061 146.29 156.044 146.766 156.282" stroke="white" stroke-width="0.25" stroke-linecap="round" stroke-linejoin="round"/>
</svg>
