<svg width="148" height="104" viewBox="0 0 148 104" fill="none" xmlns="http://www.w3.org/2000/svg">
<path d="M33.8192 51.9672C33.8991 50.2903 35.5599 48.7689 37.2574 48.7689C37.9356 48.7689 38.4583 48.52 39.0964 48.4491C39.6284 48.39 40.5356 47.5265 40.5356 47.0099" stroke="white" stroke-width="0.25" stroke-linecap="round" stroke-linejoin="round"/>
<path d="M35.4183 52.2871C36.4464 52.2871 38.3219 52.3143 38.9364 51.2388C39.1742 50.8227 39.4703 50.5087 39.7005 50.0483C39.9532 49.5429 39.9244 48.8862 40.2158 48.4492" stroke="white" stroke-width="0.25" stroke-linecap="round" stroke-linejoin="round"/>
<path d="M21.9856 52.2871C21.5414 50.2636 20.625 49.8884 18.7518 49.8884C17.3073 49.8884 15.9326 50.2082 14.4696 50.2082" stroke="white" stroke-width="0.25" stroke-linecap="round" stroke-linejoin="round"/>
<path d="M22.4653 52.7668C20.968 52.7668 19.7614 53.4065 18.2276 53.4065C17.0142 53.4065 16.8871 51.3338 15.9088 51.0078" stroke="white" stroke-width="0.25" stroke-linecap="round" stroke-linejoin="round"/>
<path d="M25.1838 66.8393C23.5221 65.5804 24.7041 62.5755 24.7041 60.7981C24.7041 59.7201 24.7041 58.6422 24.7041 57.5642C24.7041 56.6948 24.8793 55.7481 24.3842 55.0056" stroke="white" stroke-width="0.25" stroke-linecap="round" stroke-linejoin="round"/>
<path d="M32.2201 54.6858C32.2201 57.107 31.7367 59.9593 33.5793 61.802C34.5932 62.8159 35.6256 64.8815 33.7392 65.7199C32.7261 66.1702 31.2702 68.496 29.9813 67.9231C29.209 67.5799 28.4339 67.319 27.5825 67.319C26.8348 67.319 26.1353 67.315 25.5037 66.9992" stroke="white" stroke-width="0.25" stroke-linecap="round" stroke-linejoin="round"/>
<path d="M13.0303 54.2061C15.6033 55.2475 17.032 58.7569 17.8988 61.2334C18.9038 64.1049 19.7111 66.5993 21.5768 68.9981C22.3709 70.019 24.4106 70.6772 25.6635 70.6772C26.3992 70.6772 27.0931 70.7452 27.7779 70.4818C28.5085 70.2008 29.0186 69.2442 29.3415 68.5983" stroke="white" stroke-width="0.25" stroke-linecap="round" stroke-linejoin="round"/>
<path d="M44.8532 48.769C44.8532 50.6971 45.1098 53.1418 44.0537 54.8813C43.3514 56.038 42.8038 57.005 41.8149 57.8841C39.8506 59.6301 40.5355 62.279 40.5355 64.636C40.5355 67.1743 37.7918 68.5364 35.898 69.4335C34.2671 70.206 31.6524 69.8337 30.1411 69.0781" stroke="white" stroke-width="0.25" stroke-linecap="round" stroke-linejoin="round"/>
<path d="M27.7424 70.8372C28.5696 71.1801 29.0235 71.4768 29.9013 71.4768C30.381 71.4768 30.8608 71.4768 31.3405 71.4768C32.4396 71.4768 33.1274 70.7833 33.9791 70.3574" stroke="white" stroke-width="0.25" stroke-linecap="round" stroke-linejoin="round"/>
<path d="M12.5505 53.8862C12.1948 53.0283 11.7305 52.2202 11.2712 51.4164C11.0604 51.0474 10.7909 50.2713 10.4006 50.0483C10.1821 49.9234 9.85724 48.7017 9.83199 48.4491C9.76684 47.7977 9.43192 46.9469 9.22787 46.3347C8.35754 43.7237 8.62026 39.9043 9.9919 37.5039C10.4682 36.6704 12.1471 35.8866 13.0658 35.8159C13.7233 35.7653 14.6527 35.3271 15.2691 35.0874C16.0487 34.7842 17.0279 34.6967 17.7477 34.2967C18.2045 34.043 18.695 33.9434 19.107 33.5771C19.4737 33.2512 20.0452 32.6383 20.5818 32.6176C22.1464 32.5575 23.2221 34.0865 24.5441 34.8209C25.8929 35.5703 27.072 35.3434 28.5331 34.8564C29.8282 34.4247 31.1298 33.2031 32.5043 33.0974C33.8406 32.9946 34.6716 32.7565 35.8181 33.6482C36.8854 34.4783 37.8998 35.419 38.8564 36.3756C39.8154 37.3346 40.4224 38.4335 41.6549 39.0497C42.5657 39.5051 43.8343 40.6257 44.0625 41.6528C44.5595 43.889 44.5334 46.1042 44.5334 48.4491" stroke="white" stroke-width="0.25" stroke-linecap="round" stroke-linejoin="round"/>
<path d="M14.6295 59.9629C13.0578 59.9629 11.967 59.8591 10.8271 58.7192C10.0377 57.9298 9.17605 57.2281 8.39282 56.4448C7.1336 55.1856 6.1392 53.9002 5.35444 52.2871C4.47931 50.4882 4.18614 47.7425 4.59041 45.7661C4.90028 44.2512 6.45374 42.5323 8.07299 42.5323" stroke="white" stroke-width="0.25" stroke-linecap="round" stroke-linejoin="round"/>
<path d="M3.43547 44.2914C2.49289 43.5487 2.28318 42.2441 2.31607 41.0931C2.34576 40.054 3.26139 37.9084 4.11066 37.2551C5.0049 36.5673 5.57698 35.8738 6.79367 35.8159C7.47888 35.7833 9.59086 35.1736 9.99196 35.9758" stroke="white" stroke-width="0.25" stroke-linecap="round" stroke-linejoin="round"/>
<path d="M2.47593 37.4151C1.75292 35.5624 0.898814 31.3383 4.07507 31.3383" stroke="white" stroke-width="0.25" stroke-linecap="round" stroke-linejoin="round"/>
<path d="M4.87468 31.3383C3.46287 31.3383 2.84775 31.3139 1.67639 30.6631C0.805818 30.1795 0.689993 29.7217 0.716906 28.7797C0.773787 26.7889 2.83011 24.3992 4.87468 25.4215" stroke="white" stroke-width="0.25" stroke-linecap="round" stroke-linejoin="round"/>
<path d="M12.3907 35.1762C11.1733 35.1762 9.9133 35.2856 8.87259 34.6165C8.32153 34.2623 8.04326 33.7073 7.59327 33.2573C6.64916 32.3132 6.36469 31.0778 5.75426 29.979C5.36384 29.2763 5.6743 27.6625 5.6743 26.8696C5.6743 25.4811 4.5933 25.4133 3.75533 24.6219C2.73246 23.6559 3.03388 22.2136 4.5549 21.779C6.14646 21.3243 7.5546 21.6582 8.6416 22.9428C9.77653 24.2841 10.8833 26.381 12.8704 26.381" stroke="white" stroke-width="0.25" stroke-linecap="round" stroke-linejoin="round"/>
<path d="M18.9471 32.9375C18.9063 31.2231 18.0367 29.8473 16.5484 29.064C15.5908 28.56 14.8926 27.7139 13.7944 27.376C13.024 27.139 9.83464 27.8254 9.51221 27.1805" stroke="white" stroke-width="0.25" stroke-linecap="round" stroke-linejoin="round"/>
<path d="M15.5889 35.1763C15.5399 33.1663 14.038 31.7591 12.2663 31.2139C11.4297 30.9565 10.2555 31.514 9.51221 31.0185" stroke="white" stroke-width="0.25" stroke-linecap="round" stroke-linejoin="round"/>
<path d="M28.0623 34.5366C28.6987 31.1156 29.1511 27.0946 26.0633 24.693C25.5568 24.2991 24.9022 23.7023 24.2243 23.6624C23.8266 23.639 22.8876 23.4529 22.5452 23.2626C21.9915 22.955 21.1616 23.012 20.5463 22.7385C20.1819 22.5765 19.2839 22.7367 19.1071 22.3831" stroke="white" stroke-width="0.25" stroke-linecap="round" stroke-linejoin="round"/>
<path d="M13.3501 26.8607C15.4798 25.7533 17.1881 23.6776 17.1881 21.2637C17.1881 20.5531 15.9865 19.7831 15.429 19.4247C14.7931 19.0159 14.3186 18.8801 13.6344 18.6695C12.3812 18.2839 12.0394 18.5551 10.8803 19.096C10.1267 19.4477 9.2405 20.0551 8.39277 20.1443C6.77537 20.3146 5.28621 21.4236 3.59534 21.4236" stroke="white" stroke-width="0.25" stroke-linecap="round" stroke-linejoin="round"/>
<path d="M6.47388 19.8245C6.47388 18.0514 6.88771 16.6921 8.15298 15.4269C9.04381 14.536 9.92609 13.7993 11.1469 13.3924C12.1245 13.0665 13.2092 12.6284 14.2386 12.6284C14.6441 12.6284 16.6777 12.7268 16.5485 12.4684" stroke="white" stroke-width="0.25" stroke-linecap="round" stroke-linejoin="round"/>
<path d="M10.3118 18.7051C11.9306 16.169 14.5656 14.0996 17.5079 13.4635C18.2576 13.3014 19.3262 13.3619 20.0665 13.5523C20.4077 13.64 21.9077 14.4284 20.8661 13.9077" stroke="white" stroke-width="0.25" stroke-linecap="round" stroke-linejoin="round"/>
<path d="M14.9493 19.0249C15.6619 17.9561 16.276 17.1598 17.3658 16.4663C18.2009 15.9348 19.2774 15.8454 20.2087 15.5867C21.0583 15.3507 22.146 15.5068 23.025 15.5068C23.9101 15.5068 24.315 15.8955 25.0239 16.2708C25.5125 16.5295 25.8781 17.3731 26.3033 17.5857" stroke="white" stroke-width="0.25" stroke-linecap="round" stroke-linejoin="round"/>
<path d="M16.5485 20.3042C17.642 19.7686 19.2304 19.3988 20.4664 19.6734C21.0567 19.8046 21.528 20.2249 22.1455 20.3131C22.822 20.4097 23.7329 20.6664 24.4198 20.4286C25.0717 20.2029 25.6637 19.3446 26.1433 18.865" stroke="white" stroke-width="0.25" stroke-linecap="round" stroke-linejoin="round"/>
<path d="M26.1433 23.8223C26.1433 22.2706 25.9834 20.7436 25.9834 19.1848C25.9834 18.5452 26.3007 18.0063 26.703 17.5146C26.9005 17.2732 27.5825 16.6452 27.5825 16.3863C27.5825 15.3832 27.3072 13.9519 27.6625 13.0281C28.2901 11.3964 28.9699 10.3347 30.4965 9.43003C31.3082 8.94904 32.1041 8.95029 33.0196 8.95029C34.0561 8.95029 35.0851 7.70373 35.8092 7.11127C36.8174 6.28638 38.0737 5.50751 38.8565 4.4638C39.6467 3.41014 39.6088 3.09893 39.0964 2.07397" stroke="white" stroke-width="0.25" stroke-linecap="round" stroke-linejoin="round"/>
<path d="M32.0602 16.1464C32.0602 15.0468 32.0706 14.2522 32.7887 13.3746C33.1055 12.9873 33.5798 12.6949 33.9436 12.344C34.3814 11.9218 34.8586 11.9887 35.4184 11.9887" stroke="white" stroke-width="0.25" stroke-linecap="round" stroke-linejoin="round"/>
<path d="M35.8981 11.6689C38.1241 10.7149 41.6113 9.76843 42.5789 7.15574C42.9115 6.2577 43.4721 3.95903 42.1347 3.51324" stroke="white" stroke-width="0.25" stroke-linecap="round" stroke-linejoin="round"/>
<path d="M41.4951 15.9866C42.51 15.9866 44.4216 15.5548 45.2531 16.3863C45.7708 16.904 46.5822 17.7238 46.6124 18.5096C46.6335 19.0595 46.722 19.9234 46.3636 20.3842C46.116 20.7026 45.5019 21.9167 45.1731 21.4236" stroke="white" stroke-width="0.25" stroke-linecap="round" stroke-linejoin="round"/>
<path d="M38.4567 14.3874C38.5139 11.4674 41.3225 10.3895 43.8138 10.3895C45.9614 10.3895 47.6678 11.1292 49.0021 12.7971C50.091 14.1582 50.4541 17.3028 49.6507 18.865C49.2298 19.6834 48.5044 20.7397 47.8561 21.3881C47.2938 21.9504 46.5418 22.2937 45.9726 22.8628" stroke="white" stroke-width="0.25" stroke-linecap="round" stroke-linejoin="round"/>
<path d="M35.7382 13.9076C37.187 13.9076 39.2663 13.5051 40.5267 14.3874C41.3175 14.9409 42.2284 15.5229 42.7744 16.3419C43.9615 18.1226 44.0537 19.669 44.0537 21.7434" stroke="white" stroke-width="0.25" stroke-linecap="round" stroke-linejoin="round"/>
<path d="M32.38 16.6262C33.8653 16.6262 35.3867 16.5629 36.138 18.0654C36.5728 18.9351 36.7886 19.8291 37.1774 20.704C37.4369 21.2879 37.4425 21.9028 37.6216 22.5075C37.7336 22.8852 37.8934 24.7237 37.3373 23.9822" stroke="white" stroke-width="0.25" stroke-linecap="round" stroke-linejoin="round"/>
<path d="M34.139 15.3469C35.2517 15.3469 36.9404 14.9986 37.8171 15.8266C38.6584 16.6212 39.3678 17.329 39.896 18.3852C40.5508 19.6949 41.0154 20.9243 41.0154 22.3831" stroke="white" stroke-width="0.25" stroke-linecap="round" stroke-linejoin="round"/>
<path d="M33.8192 32.1379C35.3382 29.6256 38.3048 25.6678 34.0146 24.0178C32.7941 23.5484 31.7551 23.5025 30.461 23.5025C29.5377 23.5025 28.3752 24.1627 28.0623 25.1016" stroke="white" stroke-width="0.25" stroke-linecap="round" stroke-linejoin="round"/>
<path d="M17.348 25.2615C17.9955 26.7268 19.3149 27.6842 20.7062 28.3799C21.6923 28.8729 22.7886 28.9066 23.7091 29.5792C24.4638 30.1308 25.0566 31.3329 25.1927 32.2178C25.2472 32.5722 25.2677 33.9388 25.5037 34.0568" stroke="white" stroke-width="0.25" stroke-linecap="round" stroke-linejoin="round"/>
<path d="M22.6252 14.5473C21.19 12.3727 21.6815 10.7797 22.7852 8.63047C23.5204 7.1987 25.1728 5.40202 26.783 4.98798C28.0397 4.66483 30.0688 4.48577 31.2606 5.14789C31.8758 5.48965 32.1648 5.9423 32.5399 6.51605C32.7126 6.78007 32.9495 7.7412 33.0197 7.67098" stroke="white" stroke-width="0.25" stroke-linecap="round" stroke-linejoin="round"/>
<path d="M25.3437 15.6667C24.9259 13.6703 24.8564 11.8827 26.1788 10.2296C26.9424 9.27522 28.6626 8.95032 29.8213 8.95032" stroke="white" stroke-width="0.25" stroke-linecap="round" stroke-linejoin="round"/>
<path d="M17.1881 12.7883C16.5944 11.2865 16.3972 10.852 17.1082 9.43008C17.5553 8.53576 18.1039 7.5908 18.7873 6.87145C19.8292 5.77468 20.5971 4.04757 21.9856 3.35333" stroke="white" stroke-width="0.25" stroke-linecap="round" stroke-linejoin="round"/>
<path d="M18.7872 12.4684C18.7872 9.77079 19.6702 7.5296 21.5058 5.5921C21.8174 5.26321 22.1767 4.80302 22.2965 4.38386C22.4293 3.91881 22.0952 3.27675 22.6341 2.9624C23.8287 2.26553 27.9023 1.60498 27.9023 3.83304" stroke="white" stroke-width="0.25" stroke-linecap="round" stroke-linejoin="round"/>
<path d="M37.9769 35.1763C38.0922 32.8327 39.8464 32.1668 41.8149 31.4983C42.6467 31.2157 43.4121 30.7723 44.2491 30.5032C45.0987 30.2302 46.2141 29.8991 47.092 29.8991" stroke="white" stroke-width="0.25" stroke-linecap="round" stroke-linejoin="round"/>
<path d="M35.0985 33.5771C35.0985 30.8172 35.8891 29.1642 37.8171 27.3404C38.4096 26.7799 39.1841 26.648 39.8959 26.2921C40.5806 25.9498 41.2271 25.5529 41.9393 25.2616C42.8531 24.8877 44.1994 24.4809 45.2086 24.8174C45.7186 24.9874 45.9723 25.3412 46.3725 25.6525C46.4868 25.7414 46.7723 26.0374 46.7723 25.9012" stroke="white" stroke-width="0.25" stroke-linecap="round" stroke-linejoin="round"/>
<path d="M35.8981 28.6198C35.8981 27.0444 36.0063 25.8526 37.3373 24.8174C38.2446 24.1117 39.2788 23.627 40.3401 23.1827C41.7067 22.6106 44.8593 22.3892 46.0526 23.5825C46.4999 24.0298 46.7509 24.3073 46.9322 24.9418C47.088 25.4872 47.4119 26.2155 47.4119 26.7808C47.4119 27.2681 48.3459 29.7392 47.5718 29.7392" stroke="white" stroke-width="0.25" stroke-linecap="round" stroke-linejoin="round"/>
<path d="M36.5377 34.5366C36.6251 31.4339 38.381 29.7884 40.5978 27.9001C41.7179 26.9459 42.6561 27.0206 44.0537 27.0206C45.1834 27.0206 46.9095 28.2545 47.4119 29.2594" stroke="white" stroke-width="0.25" stroke-linecap="round" stroke-linejoin="round"/>
<path d="M47.5718 11.8287C48.2097 10.6021 49.0174 9.46668 49.8905 8.39947C50.2808 7.92245 50.7701 7.67619 50.7701 7.03131" stroke="white" stroke-width="0.25" stroke-linecap="round" stroke-linejoin="round"/>
<path d="M43.2541 10.3895C43.2541 8.9453 42.8286 6.58722 44.1425 5.51216C44.7652 5.00272 45.1419 4.63263 45.9727 4.63263C46.5116 4.63263 47.2767 4.77603 47.7317 4.47272" stroke="white" stroke-width="0.25" stroke-linecap="round" stroke-linejoin="round"/>
<path d="M44.5334 10.0697C46.4097 9.6728 47.3846 8.60353 48.1315 6.96026C48.2952 6.60015 47.9846 5.09053 48.1226 4.95245C48.5706 4.50445 49.6957 5.32849 49.9705 5.67207C50.1966 5.95464 50.5604 6.76658 50.7701 6.87142" stroke="white" stroke-width="0.25" stroke-linecap="round" stroke-linejoin="round"/>
<path d="M40.5355 3.67316C40.7218 2.74162 41.7051 1.17548 42.6144 0.67033C43.8439 -0.0127383 45.1763 0.155051 46.5412 0.155051C47.5674 0.155051 49.002 0.625839 49.7306 1.35441C50.1868 1.81062 50.93 3.51878 50.93 2.87359" stroke="white" stroke-width="0.25" stroke-linecap="round" stroke-linejoin="round"/>
<path d="M50.1305 5.27225C51.3494 3.37624 54.6994 2.71362 56.838 2.71362C58.7162 2.71362 60.481 3.58528 61.3245 5.27225" stroke="white" stroke-width="0.25" stroke-linecap="round" stroke-linejoin="round"/>
<path d="M60.2051 12.3085C60.1744 10.7108 59.6054 8.92333 60.0096 7.35116C60.1763 6.70319 60.889 5.5921 61.6443 5.5921" stroke="white" stroke-width="0.25" stroke-linecap="round" stroke-linejoin="round"/>
<path d="M57.4865 12.7883C56.298 11.1754 55.4076 9.64953 55.4076 7.59106C55.4076 6.23374 55.3778 5.46194 56.3671 4.47273C57.152 3.68779 58.5139 3.67316 59.5653 3.67316" stroke="white" stroke-width="0.25" stroke-linecap="round" stroke-linejoin="round"/>
<path d="M48.2114 11.5089C49.7306 11.2811 51.8762 10.6413 53.0888 11.9887C53.8729 12.8599 54.9673 13.4076 55.4076 14.6184C55.7949 15.6836 55.8298 16.624 54.9278 17.4258C54.3348 17.9529 53.6037 18.1998 53.3287 19.0249" stroke="white" stroke-width="0.25" stroke-linecap="round" stroke-linejoin="round"/>
<path d="M50.2904 15.5068C51.6428 15.4792 52.6708 15.0658 53.3288 16.5462C53.5863 17.1256 53.6014 17.9999 53.3288 18.5452" stroke="white" stroke-width="0.25" stroke-linecap="round" stroke-linejoin="round"/>
<path d="M60.6847 6.39171C61.4065 6.39171 62.2592 6.25498 62.9235 6.58716C63.3819 6.81636 63.8263 7.05969 64.2917 7.27123C65.288 7.72409 66.1288 8.29681 67.0813 8.82596C67.9104 9.28659 68.1913 10.3624 68.7782 10.9493C69.8543 12.0254 71.1376 12.5428 72.6783 12.6284C75.7233 12.7975 74.8665 17.1734 75.841 19.0249C76.107 19.5303 76.564 19.8327 77.0315 20.1443C77.5329 20.4786 77.6863 20.7235 78.0443 21.1838C79.1054 22.548 78.915 24.416 78.915 26.0434C78.915 28.2468 76.013 29.9135 76.5251 32.2179C76.6379 32.7252 77.0451 33.3211 77.2359 33.817C77.4883 34.4733 77.4757 35.1258 77.4757 35.8159C77.4757 37.0272 76.2561 37.2445 75.3968 37.6994C74.6492 38.0952 74.9171 39.1699 74.9171 39.8937C74.9171 41.3691 73.6776 41.9944 72.4828 42.408C71.4028 42.7818 71.0573 43.2885 70.7504 44.3625C70.4043 45.5739 71.3764 46.3337 72.1186 47.2409C73.4777 48.9021 73.3579 50.6381 72.5184 52.527C72.2054 53.2313 72.4009 54.0821 72.3585 54.8457C72.3072 55.7688 70.5323 56.125 69.8087 56.125C69.082 56.125 67.93 56.0613 67.3656 56.5693C66.6863 57.1806 66.4342 58.0556 66.1218 58.9147C65.9057 59.5089 64.7459 60.2512 64.2028 60.5227C63.4202 60.914 62.6237 60.9225 61.7686 60.9225C59.8801 60.9225 60.3167 57.9657 58.7658 57.8841C57.8185 57.8342 56.5448 57.6755 55.6474 57.3244C53.903 56.6418 53.6485 55.2228 53.6485 53.5664C53.6485 52.1279 53.5074 51.4875 51.8894 51.4875C51.2162 51.4875 50.8984 51.3521 50.5746 51.9673C50.2371 52.6085 49.8983 53.1067 49.8194 53.8951C49.6699 55.3909 49.3905 57.8647 47.5362 58.3283C46.7187 58.5327 46.0591 58.6837 45.2086 58.6837C44.9399 58.6837 44.0118 58.5382 43.8227 58.7814C43.1743 59.6149 44.0144 61.0824 42.4545 61.0824C41.6619 61.0824 40.9528 61.2423 40.2157 61.2423" stroke="white" stroke-width="0.25" stroke-linecap="round" stroke-linejoin="round"/>
<path d="M49.3308 57.4043C50.163 57.4043 51.1075 57.2475 51.8539 57.6886C52.4544 58.0434 52.3925 58.5838 52.6179 59.1634C52.9246 59.9518 53.1505 60.1801 53.6485 59.4477C54.2659 58.5397 54.6507 57.8841 55.8873 57.8841" stroke="white" stroke-width="0.25" stroke-linecap="round" stroke-linejoin="round"/>
<path d="M40.6956 38.5344C40.6956 36.436 41.3815 34.02 43.654 33.3283C44.3175 33.1264 44.8624 32.6176 45.5729 32.6176C46.1035 32.6176 45.7467 33.7258 45.5729 33.9769C45.4638 34.1345 44.8291 34.9947 45.3686 35.0163C45.9811 35.0408 46.095 35.3795 45.9372 35.9758C45.6573 37.0331 43.7055 38.8685 42.7744 39.334" stroke="white" stroke-width="0.25" stroke-linecap="round" stroke-linejoin="round"/>
<path d="M46.7722 22.3831C48.315 22.3831 49.9132 22.2863 50.6812 23.8223C51.1847 24.8293 50.5002 26.296 51.0899 27.1805" stroke="white" stroke-width="0.25" stroke-linecap="round" stroke-linejoin="round"/>
<path d="M47.5718 28.14C49.2366 28.14 50.2259 28.1264 51.4453 29.2239C52.8105 30.4526 53.221 32.5072 54.688 33.6482C56.2327 34.8496 55.9079 36.6035 54.8479 38.1347C54.2517 38.9957 53.4526 39.2101 52.769 39.8937C52.444 40.2187 51.2254 42.0038 51.0899 41.7327" stroke="white" stroke-width="0.25" stroke-linecap="round" stroke-linejoin="round"/>
<path d="M45.1731 37.415C47.1819 37.415 48.2129 37.7363 49.5707 39.0941C50.3441 39.8675 51.2498 41.1005 51.2498 42.2125" stroke="white" stroke-width="0.25" stroke-linecap="round" stroke-linejoin="round"/>
<path d="M45.6528 34.5366C47.2212 34.5058 48.6567 34.1093 50.1393 34.7765C50.8378 35.0908 52.0847 35.7347 52.4048 36.4911C52.781 37.3804 52.849 38.0271 52.849 39.0053C52.849 39.6746 52.3208 39.9105 52.0494 40.4534" stroke="white" stroke-width="0.25" stroke-linecap="round" stroke-linejoin="round"/>
<path d="M41.8149 34.0569C41.8685 32.9059 42.7963 31.5033 44.0449 31.3472C44.7481 31.2593 45.5988 30.932 46.2126 31.4094C47.0038 32.0248 47.7655 35.5073 49.0999 33.7281C49.7089 32.9161 52.3693 29.5378 52.3693 32.2978C52.3693 33.2168 52.8199 34.5963 53.4887 35.2651C53.9106 35.687 55.0251 35.8504 55.2477 36.2957" stroke="white" stroke-width="0.25" stroke-linecap="round" stroke-linejoin="round"/>
<path d="M49.9706 19.8245C51.4061 19.8245 52.3254 19.4991 53.0978 20.7129C53.6318 21.552 53.6971 22.6923 53.6486 23.6624C53.6173 24.2892 52.5081 25.7585 51.9784 26.0611C51.2963 26.4509 50.6102 28.7657 50.6102 27.9801" stroke="white" stroke-width="0.25" stroke-linecap="round" stroke-linejoin="round"/>
<path d="M53.9684 21.2637C55.3269 21.2637 56.6869 21.4264 56.6869 23.0939C56.6869 23.9626 56.2072 24.5785 56.2072 25.4215C56.2072 26.3367 56.8089 27.7711 55.4076 27.9712C54.2643 28.1346 53.0774 27.9572 52.5292 26.8607" stroke="white" stroke-width="0.25" stroke-linecap="round" stroke-linejoin="round"/>
<path d="M55.5675 17.4258C56.9563 17.4597 57.0067 18.476 57.0067 19.629C57.0067 20.0448 57.1325 20.6535 56.9268 21.0239C56.75 21.3421 56.527 21.6954 56.527 22.0633" stroke="white" stroke-width="0.25" stroke-linecap="round" stroke-linejoin="round"/>
<path d="M55.5675 14.7072C56.3718 13.788 58.0297 13.5073 58.8902 14.5828C59.0666 14.8034 59.0856 15.6916 59.0856 15.9865C59.0856 16.5693 59.3102 16.48 59.6897 16.8216C61.363 18.3276 59.3796 20.1443 57.6464 20.1443" stroke="white" stroke-width="0.25" stroke-linecap="round" stroke-linejoin="round"/>
<path d="M57.6464 13.4279C58.2286 12.6594 59.5618 11.809 60.6048 12.3885C61.3674 12.8121 61.678 13.1081 62.6037 13.1081C63.2023 13.1081 63.6124 14.348 63.1634 14.7072C62.6012 15.157 61.9667 15.9582 62.1329 16.7061C62.3592 17.7246 62.8922 18.5309 62.3194 19.5046C61.9492 20.134 60.7681 20.3934 60.1339 20.624C59.2448 20.9474 58.8848 21.6213 58.4815 22.3831C58.1118 23.0814 57.0574 23.1827 56.3671 23.1827" stroke="white" stroke-width="0.25" stroke-linecap="round" stroke-linejoin="round"/>
<path d="M59.7253 7.67098C61.3684 7.67098 63.2346 6.78678 64.5228 8.15073C65.132 8.79582 64.9232 10.0512 64.4428 10.6383C63.8051 11.4178 62.6038 12.3045 62.6038 13.4279" stroke="white" stroke-width="0.25" stroke-linecap="round" stroke-linejoin="round"/>
<path d="M67.5611 10.2296C67.9097 12.0598 67.0862 14.1413 65.5178 15.187C64.5728 15.8169 63.2754 16.4023 62.7637 17.4258" stroke="white" stroke-width="0.25" stroke-linecap="round" stroke-linejoin="round"/>
<path d="M50.93 42.8521C51.4643 43.5508 51.8396 43.8957 52.6535 44.167C52.8643 44.2372 53.3189 44.2405 53.3287 44.4868C53.3701 45.5222 52.9631 46.1711 52.2093 46.8411C51.1368 47.7944 49.6826 47.8175 49.0466 49.2487C48.5804 50.2976 49.0784 51.9092 48.2204 52.6957C47.2222 53.6107 46.212 53.4065 44.8533 53.4065" stroke="white" stroke-width="0.25" stroke-linecap="round" stroke-linejoin="round"/>
<path d="M44.3735 41.7327C45.0796 41.5982 47.6252 40.7556 48.247 41.3774C48.7748 41.9052 48.5313 43.3493 48.5313 44.0515C48.5313 45.0473 49.7368 44.8725 49.9617 45.6595C50.2132 46.5399 50.1114 47.2269 49.8106 48.1293" stroke="white" stroke-width="0.25" stroke-linecap="round" stroke-linejoin="round"/>
<path d="M52.2094 47.0099C53.3931 47.0099 55.4076 46.6217 55.4076 48.2892C55.4076 49.2784 55.1078 49.8128 54.6791 50.6701C54.3008 51.4267 55.2514 51.388 55.9229 51.6119C57.2121 52.0416 57.2463 53.7068 56.527 54.6058C56.213 54.9983 55.7636 55.2306 56.1273 55.8851C56.3034 56.2022 56.6094 57.0433 56.2072 57.2444" stroke="white" stroke-width="0.25" stroke-linecap="round" stroke-linejoin="round"/>
<path d="M68.8404 55.8052C69.5975 53.8902 69.9916 51.4469 68.716 49.6929C68.5179 49.4204 68.8226 48.7106 68.8226 48.7867C68.8226 49.4147 67.8675 49.8535 67.5966 50.3681C67.1453 51.2256 66.8238 51.7851 65.9619 52.216C64.2811 53.0565 66.1578 55.0797 65.7931 56.356C65.5887 57.0714 64.2234 56.9523 64.0341 57.8041C63.9381 58.2361 63.7231 58.5482 63.7231 59.0035C63.7231 59.4077 63.8831 59.7401 63.8831 60.1229" stroke="white" stroke-width="0.25" stroke-linecap="round" stroke-linejoin="round"/>
<path d="M69.64 52.447C69.9815 51.6503 70.7813 50.0901 71.559 49.6041C72.1191 49.254 72.1986 48.7355 72.1986 48.1293" stroke="white" stroke-width="0.25" stroke-linecap="round" stroke-linejoin="round"/>
<path d="M68.5206 49.2487C68.5206 48.6732 68.566 47.7063 68.1653 47.2054C67.9585 46.947 67.9369 46.0446 68.0764 45.7306C68.5334 44.7024 69.3971 44.6112 70.4396 44.6112" stroke="white" stroke-width="0.25" stroke-linecap="round" stroke-linejoin="round"/>
<path d="M74.9171 37.575C73.5826 36.7612 73.4779 36.0081 73.4779 34.5366C73.4779 33.677 75.0207 32.2978 75.8766 32.2978" stroke="white" stroke-width="0.25" stroke-linecap="round" stroke-linejoin="round"/>
<path d="M56.3671 26.7008C56.9854 27.517 57.5495 27.8438 58.286 27.0206C58.5571 26.7177 59.2732 25.9359 58.8902 25.457C58.498 24.9669 58.286 24.8346 58.286 24.1422C58.286 23.654 58.1114 22.7902 58.6059 22.543" stroke="white" stroke-width="0.25" stroke-linecap="round" stroke-linejoin="round"/>
<path d="M56.527 27.5004C56.7218 28.3878 56.8329 30.2189 58.0462 30.2189C59.4633 30.2189 60.2405 29.3952 60.6492 28.0156C60.9487 27.0049 60.3111 26.0481 59.4943 25.5814C58.6213 25.0826 58.286 23.7676 58.286 22.8629" stroke="white" stroke-width="0.25" stroke-linecap="round" stroke-linejoin="round"/>
<path d="M60.5249 28.9396C62.7227 28.4686 64.2119 25.4655 64.8781 23.467C65.1169 22.7506 64.7549 20.2464 63.5277 21.2282C63.1239 21.5513 62.6541 21.9442 62.204 22.2943C61.7247 22.6671 61.7471 23.1513 61.5199 23.6624C61.3169 24.1193 61.3782 24.7009 61.1646 25.1816C60.974 25.6104 60.6717 25.9405 60.5249 26.381" stroke="white" stroke-width="0.25" stroke-linecap="round" stroke-linejoin="round"/>
<path d="M63.7232 21.1038C63.2405 20.3426 62.902 20.0838 62.124 19.8245" stroke="white" stroke-width="0.25" stroke-linecap="round" stroke-linejoin="round"/>
<path d="M63.2434 21.2637C64.1868 20.6933 64.8724 20.2084 65.962 20.1443C66.4238 20.1172 66.3582 18.9978 66.1219 18.7851C64.7123 17.5164 67.6035 15.2738 68.9115 15.036C69.4542 14.9373 69.9598 14.9609 69.9598 15.5868C69.9598 16.4426 70.673 15.7262 70.8838 15.3469C71.5511 14.1457 70.2796 13.7671 70.2796 12.6284" stroke="white" stroke-width="0.25" stroke-linecap="round" stroke-linejoin="round"/>
<path d="M28.3821 28.2999C29.4208 28.2999 29.9524 28.3133 30.4254 29.2594C30.638 29.6846 30.839 30.2771 31.1806 30.6187C31.938 31.3761 32.935 30.8586 33.8192 30.8586" stroke="white" stroke-width="0.25" stroke-linecap="round" stroke-linejoin="round"/>
<path d="M28.0623 26.7008C29.1387 26.7008 30.5894 26.9299 31.6603 26.6919C32.006 26.6151 33.1402 26.2852 33.4638 26.5764C33.9535 27.0172 34.1562 28.0976 34.29 28.6997C34.4018 29.2028 34.2245 29.9418 34.7787 30.2189" stroke="white" stroke-width="0.25" stroke-linecap="round" stroke-linejoin="round"/>
<path d="M28.3821 18.5452C29.0156 18.5452 31.2149 18.1631 31.8202 18.634C32.4181 19.099 32.8706 19.8378 32.3 20.5352C31.8317 21.1075 31.0182 21.4121 30.6564 22.0633C30.4164 22.4952 30.3011 23.9967 30.3011 23.5025" stroke="white" stroke-width="0.25" stroke-linecap="round" stroke-linejoin="round"/>
<path d="M33.8192 24.1422C33.8192 22.6044 33.868 21.4375 35.3384 20.784C36.1798 20.41 35.6433 19.1523 36.2179 18.865" stroke="white" stroke-width="0.25" stroke-linecap="round" stroke-linejoin="round"/>
<path d="M55.2477 34.2168C56.6902 34.2168 58.0716 33.9851 59.3166 34.6965C59.7602 34.95 59.5764 36.1484 59.5654 36.5444C59.5503 37.0864 58.9509 37.7952 58.5259 38.1258C58.152 38.4166 57.6589 38.5453 57.2466 38.7743C56.609 39.1286 56.3994 39.8513 56.1716 40.489C55.9085 41.2258 54.9974 42.3204 56.0473 42.9765C56.625 43.3376 57.4865 44.1161 57.4865 44.8511C57.4865 45.2509 57.4865 45.6506 57.4865 46.0504C57.4865 46.507 58.0413 46.6863 58.366 46.9388C58.7708 47.2537 58.7658 47.7396 58.7658 48.2004C58.7658 48.7633 58.2613 48.8258 57.8063 49.0533C56.8273 49.5428 55.9168 49.1897 55.4076 50.2082" stroke="white" stroke-width="0.25" stroke-linecap="round" stroke-linejoin="round"/>
<path d="M58.606 30.2189C59.4463 30.2189 60.0975 30.2507 60.7648 30.7697C61.1244 31.0494 61.6263 31.0185 62.053 31.0185C63.4322 31.0185 63.6624 29.2709 63.892 28.2377C64.0563 27.4986 65.7474 27.5259 65.8021 26.5409C65.8565 25.5625 65.3603 25.0786 64.8426 24.3021" stroke="white" stroke-width="0.25" stroke-linecap="round" stroke-linejoin="round"/>
<path d="M64.5227 22.7029C66.0963 22.3736 67.5308 21.4236 69.1691 21.4236C69.7651 21.4236 70.7594 21.2204 70.7594 22.0721C70.7594 22.848 69.4968 23.5079 68.8404 23.7424C67.5494 24.2034 68.7221 25.2264 69.56 25.4126C70.8535 25.7 70.5994 26.7485 70.5994 27.9001C70.5994 28.3598 71.0932 29.2569 71.5589 28.5842C72.0424 27.8859 72.4934 26.9131 72.5184 26.0611C72.5403 25.3171 73.5267 24.1825 74.2419 24.9773C75.0943 25.9243 74.6567 27.2315 74.5973 28.2999C74.533 29.4571 75.8467 28.9246 76.5163 29.2594" stroke="white" stroke-width="0.25" stroke-linecap="round" stroke-linejoin="round"/>
<path d="M65.802 17.7456C66.5171 16.8654 67.3084 17.0191 68.2363 17.3902C68.7825 17.6088 68.9013 18.2025 69.1247 18.7051C69.286 19.0681 69.1123 19.6646 69.6399 19.6646C70.1608 19.6646 70.617 19.5047 71.1591 19.5047C71.6972 19.5047 72.3048 19.4007 72.7583 19.7534C73.1883 20.0879 73.4087 20.595 74.0376 20.4553C74.7047 20.307 74.9223 19.0224 75.5568 18.7051" stroke="white" stroke-width="0.25" stroke-linecap="round" stroke-linejoin="round"/>
<path d="M57.9662 34.6965C58.791 34.548 59.6058 34.2168 60.4449 34.2168C60.8887 34.2168 61.2428 34.5366 61.7242 34.5366C62.7809 34.5366 63.2155 33.6272 63.6431 32.8575C63.9398 32.3236 64.157 31.8742 64.5227 31.3738C64.7739 31.0301 65.615 30.6798 65.6421 30.2189C65.6935 29.3451 65.1623 28.6424 65.1623 27.8202" stroke="white" stroke-width="0.25" stroke-linecap="round" stroke-linejoin="round"/>
<path d="M70.2797 43.1719C70.1178 42.302 69.8543 40.6811 70.1553 39.7782C70.4036 39.0333 71.3812 38.575 71.5501 37.8148C71.6401 37.4101 70.3042 36.727 70.0309 36.3756C69.5142 35.7112 69.4801 34.991 69.4801 34.1812C69.4801 33.1688 70.0291 32.6183 70.9549 32.2622C71.3387 32.1146 72.4769 31.401 71.7989 30.8585C71.1506 30.3399 69.1134 29.6638 70.4396 28.7797" stroke="white" stroke-width="0.25" stroke-linecap="round" stroke-linejoin="round"/>
<path d="M58.606 48.1293C59.6501 48.1293 61.058 48.3958 61.8842 47.5696C62.2933 47.1605 63.0492 46.3484 63.0836 45.7306C63.1291 44.9102 62.6211 44.4891 62.4528 43.7317C62.25 42.819 63.6391 41.9767 64.203 41.4129C64.6372 40.9787 65.0921 39.6065 64.5228 39.0941C63.9096 38.5422 63.1734 38.4058 62.4084 38.1791C61.3634 37.8695 61.4513 38.4411 60.596 38.6855C59.965 38.8658 59.26 38.704 58.7659 38.3745" stroke="white" stroke-width="0.25" stroke-linecap="round" stroke-linejoin="round"/>
<path d="M67.4012 26.0612C67.4192 26.7995 67.5256 27.8158 67.7299 28.5309C67.8472 28.9414 68.1209 29.8761 67.7921 30.2989C67.3084 30.9208 66.9215 31.1359 66.9215 31.978C66.9215 32.928 66.7336 33.8764 66.7616 34.8564C66.7833 35.6184 67.3502 36.5842 67.8099 37.1752C68.2937 37.7972 68.2008 38.4931 68.2008 39.2452C68.2008 39.8549 67.746 40.9083 67.3213 41.333C66.6882 41.9661 66.6016 42.2017 66.6016 43.0831C66.6016 44.3437 66.875 44.9775 65.8021 46.0504C64.7645 47.088 65.32 48.5477 65.1535 49.8795C65.0403 50.7854 63.9701 50.9805 63.4034 51.4875C63.2002 51.6693 62.7378 51.7371 62.6393 52.0028C62.4242 52.5837 62.284 53.1972 62.284 53.8152C62.284 54.6467 62.4843 55.7731 62.2484 56.5692C61.9157 57.6921 60.5992 57.4157 60.2051 58.2039" stroke="white" stroke-width="0.25" stroke-linecap="round" stroke-linejoin="round"/>
<path d="M61.1645 35.656C62.4409 35.656 65.8356 35.0618 66.3173 36.9353C66.7467 38.6052 66.3728 40.194 65.4822 41.6083C65.1614 42.1178 64.6827 42.4395 64.6827 43.092C64.6827 43.5984 64.6827 44.1048 64.6827 44.6112C64.6827 46.0941 63.736 46.7312 62.7637 47.6495C61.608 48.741 62.0163 49.8276 61.6088 51.2032C61.4012 51.9037 61.1765 52.3521 60.5249 52.678C59.7224 53.0792 59.4036 52.4451 58.9257 51.9672C57.7661 50.8076 58.0282 52.6348 58.6059 53.2465C59.3939 54.0809 59.0725 55.0451 58.7658 55.9651" stroke="white" stroke-width="0.25" stroke-linecap="round" stroke-linejoin="round"/>
<path d="M72.8383 54.6858C76.124 54.6858 78.8708 53.8277 81.3137 51.6563C82.2994 50.7802 83.4949 50.0767 84.512 49.2132C85.7131 48.1934 86.746 47.1697 88.1101 46.3614C89.9182 45.2899 91.2101 43.8335 93.3073 43.3674C94.9127 43.0107 96.4221 43.8018 97.3051 45.1265C98.0594 46.2579 98.4245 48.0613 98.4245 49.4086C98.4245 50.277 98.3452 50.9647 98.1402 51.8073C97.9064 52.7685 97.337 53.3427 96.9054 54.206C96.4809 55.0549 95.7564 55.7739 95.2263 56.5692C94.659 57.4202 94.1626 58.4123 93.7071 59.3233C92.7914 61.1547 91.4385 62.7587 90.5177 64.6005C89.7463 66.1431 88.4621 66.1957 87.1062 66.9992C85.7119 67.8254 83.635 67.0059 82.4331 68.2785C82.0678 68.6653 81.9534 69.4318 81.9534 69.9487C81.9534 70.4203 82.2844 71.0117 82.0777 71.4768C81.7064 72.3123 80.9346 72.4956 80.3542 73.0759C79.6669 73.7633 79.0525 74.0803 78.5952 74.9949C77.9577 76.2699 77.3148 78.8141 78.5152 80.0144C78.9429 80.4421 80.5149 80.4211 80.9939 80.201C81.6741 79.8884 82.2186 79.4725 82.9928 79.4725C84.3854 79.4725 85.3098 80.6043 86.7597 80.4231C87.6054 80.3174 88.2005 78.9704 88.6342 78.3531C88.9492 77.9049 89.112 77.1038 89.5493 76.754C89.8978 76.4752 89.97 75.5806 90.109 75.1637C90.2921 74.6143 90.6748 74.3591 91.1929 74.1598C92.7687 73.5537 92.6214 72.3307 93.1829 70.997C93.4206 70.4325 93.2282 69.8175 93.5027 69.238C93.8059 68.598 94.3682 68.0732 95.0575 67.8876C96.6372 67.4623 97.127 66.8989 97.4739 65.3379C97.5902 64.8145 98.9721 63.743 99.3929 63.4011C100.158 62.7793 100.654 61.837 101.427 61.2423C102.534 60.3913 103.515 59.1902 104.501 58.2039C105.065 57.6404 105.476 56.9266 106.029 56.3738C106.519 55.8843 107.135 55.3849 107.54 54.8102C108.384 53.6107 108.567 52.4263 108.055 51.0433C107.208 48.7571 106.42 46.8177 106.42 44.3002C106.42 43.0151 106.05 41.0145 106.74 39.8493C107.293 38.9159 107.772 37.9473 108.339 37.0153C109.154 35.6771 110.58 34.8826 112.097 34.5455C112.937 34.359 114.366 34.1302 115.144 34.6254C118.074 36.4895 119.643 39.5116 122.092 41.8926C123.307 43.0744 124.595 44.6112 126.41 44.6112C127.496 44.6112 128.526 44.6727 129.599 44.78C130.247 44.8448 130.892 45.2508 131.527 45.2508" stroke="white" stroke-width="0.25" stroke-linecap="round" stroke-linejoin="round"/>
<path d="M68.5205 58.6837C68.7848 60.2956 69.6399 61.8459 69.6399 63.49C69.6399 65.4003 66.9515 67.0712 65.5621 67.9676C64.3154 68.7719 63.0736 69.6939 61.893 70.5884C60.8692 71.364 59.6885 71.8739 58.6769 72.6762C57.6024 73.5284 56.384 74.3736 55.2477 75.1548C54.2308 75.8539 53.3098 76.6926 52.2892 77.4025C50.2192 78.8425 48.0143 80.6538 46.4879 82.6708C45.488 83.9921 44.3419 85.1753 43.5739 86.6687C43.0051 87.7746 42.8397 88.926 42.49 90.0624C41.9615 91.7801 41.4853 93.5279 40.8909 95.2685C40.4233 96.638 40.0555 98.0545 39.5761 99.373C39.4407 99.7451 38.1368 100.785 38.1368 99.9415C38.1368 98.8315 38.2967 97.7706 38.2967 96.6722C38.2967 96.5065 37.7597 97.7799 37.586 98.1025C37.2962 98.6407 36.9778 99.1638 36.5288 99.6128C35.2477 100.894 33.8409 101.93 32.22 102.74C31.1747 103.263 30.0561 103.903 28.8618 103.771C28.3381 103.712 27.6778 103.449 27.3337 103.042C27.1464 102.821 26.8501 102.12 26.5342 102.029C25.897 101.847 24.9752 102.02 24.3042 102.02C23.5177 102.02 23.5846 100.132 23.5846 99.6217C23.5846 98.92 23.5927 98.4862 23.9045 97.8627C24.092 97.4876 24.2243 97.1591 24.2243 96.7433C24.2243 96.2943 23.8733 96.0885 23.5846 95.7838C23.2265 95.4057 23.0574 94.9015 22.7851 94.4689C22.1284 93.426 22.0299 91.6142 22.9094 90.702C23.8384 89.7387 24.4802 88.5531 25.2637 87.4682C26.1412 86.2533 27.3339 85.2025 28.1422 83.959C28.916 82.7685 30.105 81.3465 31.2605 80.512C32.2897 79.7686 33.3301 79.1619 34.2189 78.2732C34.4813 78.0108 34.9231 77.5414 35.0629 77.1982C35.3128 76.5848 35.949 76.2766 36.1823 75.6701C36.5358 74.7511 37.322 74.5364 38.1013 74.0354C41.0589 72.1341 44.1412 70.4167 47.0565 68.4384C48.9087 67.1816 50.8252 66.0244 52.7246 64.8848C53.1822 64.6102 53.7568 64.295 54.0039 63.8009C54.1227 63.5633 53.2711 63.6293 53.0444 63.4811C52.5784 63.1764 52.4066 60.9837 52.8489 60.7625" stroke="white" stroke-width="0.25" stroke-linecap="round" stroke-linejoin="round"/>
<path d="M78.915 27.0206C81.8395 27.0206 84.7993 27.1842 87.7103 26.8963C89.6508 26.7044 91.3349 25.9512 93.2185 25.5103C95.1631 25.0552 96.9199 23.8224 98.9399 23.8224C99.7113 23.8224 99.9051 23.6454 100.059 22.9517C100.309 21.8276 100.405 21.2026 101.232 20.3753C102.553 19.054 104.503 17.6598 106.198 16.8839C107.676 16.2077 109.315 15.8011 110.898 15.4713C111.96 15.25 112.972 14.7424 114.061 14.7072C115.476 14.6616 116.854 14.3874 118.289 14.3874C119.262 14.3874 120.739 14.6725 121.612 14.1387C123.131 13.2108 124.011 12.5555 124.011 10.6739C124.011 8.78417 121.853 7.21088 121.044 5.59213C120.674 4.85385 120.021 3.61712 121.292 3.19342" stroke="white" stroke-width="0.25" stroke-linecap="round" stroke-linejoin="round"/>
<path d="M75.2369 11.1891C77.7625 11.1226 79.8911 10.6353 82.1932 9.66991C83.5707 9.09225 84.9794 8.61255 86.4221 8.23068C88.5116 7.67756 90.3987 6.43005 92.3833 5.59209C94.7663 4.58592 96.9932 3.02949 99.2241 1.91406" stroke="white" stroke-width="0.25" stroke-linecap="round" stroke-linejoin="round"/>
<path d="M130.088 3.83306C132.131 3.83306 135.603 3.03132 136.875 5.11237C137.559 6.23124 137.444 7.72949 137.444 8.98585C137.444 11.0149 136.804 12.9266 136.804 14.9382C136.804 16.4501 136.514 18.1253 137.204 19.5047C137.74 20.5766 138.482 21.5799 138.687 22.7918C138.889 23.9802 138.723 25.3354 138.723 26.5409C138.723 28.4696 138.078 30.0796 137.799 31.9424C137.734 32.3767 137.764 32.8281 137.764 33.2662C137.764 33.912 138.424 34.1672 138.847 34.5721C139.594 35.286 140.653 35.6626 141.619 35.9847C142.32 36.2184 144.056 36.7542 144.444 37.4151C144.742 37.9204 145.876 37.6853 146.319 38.3745C146.878 39.2436 146.879 39.8773 146.879 40.9243C146.879 43.4954 144.369 45.4371 144.32 47.9694C144.271 50.5065 143.84 53.0017 143.84 55.5564C143.84 58.0859 143.1 60.0669 142.161 62.3617C141.287 64.4986 139.734 65.7761 137.604 66.324C136.681 66.5612 135.839 66.7508 134.876 66.6705C133.519 66.5574 132.934 65.3398 131.847 64.7959C131.454 64.5994 130.842 65.0617 130.567 65.2757C130.027 65.6959 129.352 66.1126 128.648 66.1907C127.878 66.2763 126.599 66.3902 126.099 65.6399C125.562 64.8354 125.818 63.9779 125.575 63.1257C125.335 62.2891 125.333 61.2846 125.939 60.6026C126.621 59.8349 127.378 59.6185 127.724 58.6481C128.075 57.6673 128.993 57.3238 129.679 56.6936C130.531 55.9111 131.879 55.4102 132.877 54.7746C133.595 54.3177 133.856 52.8155 134.414 52.1183C135.593 50.6442 135.353 48.1865 137.444 47.4897" stroke="white" stroke-width="0.25" stroke-linecap="round" stroke-linejoin="round"/>
<path d="M126.409 25.5814C126.409 27.9881 125.746 31.6367 127.724 33.5416C128.327 34.1216 129.543 34.4306 130.327 34.6077C131.173 34.7987 132.361 34.5311 133.126 34.9808C133.974 35.4798 132.526 38.4895 132.246 39.0853C131.874 39.8789 131.207 40.6676 131.207 41.5728C131.207 42.8273 131.991 43.8116 133.366 43.8116C134.668 43.8116 136.082 43.6485 137.373 43.8205C138.773 44.0073 139.043 45.5508 139.043 46.6901C139.043 48.2359 139.043 49.7818 139.043 51.3276C139.043 52.5774 140.642 52.861 140.642 54.0462" stroke="white" stroke-width="0.25" stroke-linecap="round" stroke-linejoin="round"/>
<path d="M76.8362 43.8116C78.2712 43.5332 79.5769 42.9003 80.9762 42.4968C82.342 42.103 83.7213 41.773 85.1162 41.5018C86.707 41.1924 88.4927 40.955 90.1091 40.9332C92.0802 40.9065 94.4944 41.3262 96.3813 40.6134C98.5948 39.7771 99.8029 37.5401 100.948 35.6027C101.112 35.3249 101.558 34.9139 101.614 34.6077C101.768 33.7627 100.515 33.8968 100.352 33.3284C100.168 32.6844 100.943 32.5957 101.108 32.1024C101.347 31.383 101.079 30.29 100.903 29.5882C100.788 29.1264 100.857 28.6742 100.503 28.3C100.305 28.0902 99.5667 27.4258 100.273 27.8291C101.001 28.2456 101.857 28.7517 102.351 29.4549C102.641 29.8666 103.078 30.2189 103.622 30.2189C104.939 30.2189 106.334 28.579 107.184 27.6958C107.715 27.1452 108.25 26.9465 108.979 26.7808C109.599 26.6398 110.72 26.6691 111.218 26.2211C112.576 24.999 113.283 23.4523 114.736 22.2587C116.249 21.0161 117.9 20.3557 119.853 20.4642C120.527 20.5016 121.512 21.2454 122.172 21.5036C123.024 21.8371 123.658 21.9034 124.571 21.9034C126.367 21.9034 128.009 19.1816 128.009 17.5146C128.009 16.4581 128.601 15.6437 128.48 14.5473C128.364 13.5104 127.049 13.1716 127.049 12.2197C127.049 10.8725 127.689 9.6284 127.689 8.31067" stroke="white" stroke-width="0.25" stroke-linecap="round" stroke-linejoin="round"/>
<path d="M22.6251 46.85C21.0458 44.4517 18.2211 45.4262 15.9798 44.6112C14.8692 44.2074 13.9721 44.6437 13.2702 45.5796C13.0429 45.8826 12.7833 46.1593 12.5505 46.4502C12.3342 46.7207 11.9078 46.6962 11.751 47.0099" stroke="white" stroke-width="0.25" stroke-linecap="round" stroke-linejoin="round"/>
<path d="M27.7424 47.1698C27.8718 44.8842 29.8655 43.6517 31.9802 43.6517C32.6373 43.6517 34.0504 44.1944 34.5388 43.6517C35.2342 42.8791 36.8732 43.1223 37.817 43.172C38.7036 43.2186 39.3182 44.2914 40.2157 44.2914" stroke="white" stroke-width="0.25" stroke-linecap="round" stroke-linejoin="round"/>
<path d="M27.7425 52.447C26.7047 52.4244 23.9255 52.5551 23.7535 51.0078C23.6548 50.1195 23.7969 50.0124 22.9451 49.7285" stroke="white" stroke-width="0.25" stroke-linecap="round" stroke-linejoin="round"/>
<path d="M27.4226 52.2871C28.4725 52.2626 29.0218 52.1943 29.0218 51.1588C29.0218 50.6015 28.9121 50.1353 29.3416 49.7284C30.1184 48.9925 30.9407 48.5118 30.9407 47.3297" stroke="white" stroke-width="0.25" stroke-linecap="round" stroke-linejoin="round"/>
<path d="M34.9386 36.1357C34.9386 36.9702 35.2642 38.0547 34.1746 38.0547C33.6546 38.0547 33.0599 38.1676 32.6288 37.8148C32.3444 37.5822 32.0292 37.0261 31.6604 36.9442C30.9054 36.7764 30.1548 37.4851 29.7325 38.0192C29.0693 38.858 29.7987 40.2664 28.3733 40.4445C26.9994 40.6163 25.7636 39.4928 24.5442 40.3735C23.9227 40.8224 23.6997 41.4579 23.1849 41.9726C22.6843 42.4733 22.0267 42.5195 21.3815 42.7633C20.3124 43.1672 18.0988 43.7805 17.5879 42.4524C17.2297 41.521 17.6719 40.5886 17.1526 39.6539C16.5517 38.5722 14.9506 38.5363 14.3097 37.575" stroke="white" stroke-width="0.25" stroke-linecap="round" stroke-linejoin="round"/>
</svg>
