<svg width="151" height="110" viewBox="0 0 151 110" fill="none" xmlns="http://www.w3.org/2000/svg">
<path d="M70.9981 33.3026C68.3784 33.365 67.7044 35.4762 66.2583 37.3354C64.9274 39.0466 66.1029 41.206 67.4134 42.4436C68.0862 43.0791 69.1163 43.3562 69.9227 43.7381C70.9225 44.2117 72.0358 44.8026 73.1589 44.943C75.6218 45.2508 78.844 45.1032 81.1747 44.236C82.8718 43.6045 85.5787 42.7613 86.502 41.0994C87.1971 39.8482 86.8393 37.2485 85.8747 36.1704C83.8345 33.8902 79.9245 33.1671 77.0125 32.9342C75.4252 32.8072 73.8558 32.7649 72.2527 32.7649C71.8203 32.7649 70.1621 33.2438 70.1019 33.1234" stroke="white" stroke-width="0.25" stroke-linecap="round" stroke-linejoin="round"/>
<path d="M60.7816 43.8775C61.501 45.5702 62.1324 45.8491 63.8287 45.8491C64.3289 45.8491 67.0549 45.2352 67.0549 44.5944C67.0549 43.1031 62.1243 43.6983 61.1401 43.6983" stroke="white" stroke-width="0.25" stroke-linecap="round" stroke-linejoin="round"/>
<path d="M63.291 46.0283C64.5896 47.8139 65.7787 47.696 67.6822 47.273C69.4623 46.8775 67.9881 45.1445 66.8757 44.7737" stroke="white" stroke-width="0.25" stroke-linecap="round" stroke-linejoin="round"/>
<path d="M67.5926 47.8207C67.5926 49.6452 68.4794 49.9715 70.0621 49.9715C70.865 49.9715 72.5051 49.0805 72.9299 48.3584C73.6875 47.0704 72.9226 47.4969 71.8943 47.0639C70.9415 46.6627 69.5234 46.9245 68.4888 46.9245" stroke="white" stroke-width="0.25" stroke-linecap="round" stroke-linejoin="round"/>
<path d="M71.3566 50.33C72.481 50.33 73.5027 50.6885 74.5828 50.6885C74.9394 50.6885 75.8713 51.1839 76.1959 50.7781C76.514 50.3805 77.245 50.234 77.5402 49.7027C77.7963 49.2418 77.9883 48.3397 77.9883 47.8207C77.9883 46.713 77.4702 45.8491 76.2856 45.8491C74.8387 45.8491 73.6794 47.828 72.7905 48.7169" stroke="white" stroke-width="0.25" stroke-linecap="round" stroke-linejoin="round"/>
<path d="M77.8091 49.4338C79.3576 49.4338 80.5314 48.7636 81.3042 47.3726C81.8402 46.4078 82.665 45.918 83.3255 45.0923C83.7682 44.5391 82.7245 44.4152 82.4692 44.4152C81.7791 44.4152 81.2278 44.8247 80.5773 44.943C80.0602 45.037 79.6356 45.2142 79.1533 45.3214C78.6567 45.4317 78.0616 45.454 77.6298 45.6699" stroke="white" stroke-width="0.25" stroke-linecap="round" stroke-linejoin="round"/>
<path d="M80.8561 48.7169C82.8276 48.7169 84.4408 48.1537 84.4408 46.0283C84.4408 45.4529 84.2616 44.9715 84.2616 44.4152C84.2616 43.5525 83.6386 44.0567 83.1861 44.0567" stroke="white" stroke-width="0.25" stroke-linecap="round" stroke-linejoin="round"/>
<path d="M84.2616 46.2076C85.3523 46.2076 87.6292 46.6039 88.4736 45.7595C89.5741 44.659 89.9971 43.1475 89.9971 41.6371C89.9971 40.4212 88.9217 39.8508 88.9217 38.7195C88.9217 37.3971 87.5857 36.7081 86.4124 36.7081" stroke="white" stroke-width="0.25" stroke-linecap="round" stroke-linejoin="round"/>
<path d="M72.2527 31.1518C72.7082 28.2165 74.3831 25.4432 75.3894 22.648C76.1554 20.52 77.0065 18.4395 77.8091 16.315C78.2591 15.1238 78.519 13.679 78.7052 12.4216C78.9081 11.052 79.5152 9.80947 79.8603 8.47841C80.1936 7.19275 80.4976 5.91749 80.4976 4.58501C80.4976 3.93832 80.6768 2.00655 80.6768 2.65324" stroke="white" stroke-width="0.25" stroke-linecap="round" stroke-linejoin="round"/>
<path d="M75.479 30.9725C76.5278 28.1409 78.052 25.4376 79.3824 22.7277C80.0107 21.4478 80.9046 20.24 81.4834 18.9538C82.4241 16.8633 82.9685 14.7772 83.1961 12.5013C83.3961 10.5012 83.8458 8.50086 83.9031 6.49686C83.9212 5.86292 85.339 1.66845 85.5162 1.75706" stroke="white" stroke-width="0.25" stroke-linecap="round" stroke-linejoin="round"/>
<path d="M77.8091 32.0479C82.18 30.2809 86.2124 27.7671 89.5391 24.4404C91.6026 22.3768 94.214 20.9452 96.3102 18.9239C97.6728 17.6099 99.2968 16.6232 100.562 15.1998C101.857 13.7433 103.642 12.6588 104.784 11.0773C105.935 9.48378 107.465 8.29093 108.677 6.77566C109.3 5.99689 110.043 5.29871 110.689 4.53521C110.917 4.26545 111.406 3.66752 111.505 3.37018" stroke="white" stroke-width="0.25" stroke-linecap="round" stroke-linejoin="round"/>
<path d="M84.0823 34.1988C86.8028 34.1988 89.1451 34.2267 91.2119 32.3666C92.8248 30.915 94.7376 29.6071 96.1309 27.9255C97.7955 25.9166 100.72 24.5818 102.942 23.2654C104.372 22.4178 105.663 21.536 106.945 20.4872C111.251 16.9642 116.428 14.675 120.995 11.5354C122.539 10.474 123.656 8.85589 125.127 7.71169C126.247 6.84058 127.359 6.00022 128.443 5.08289C129.354 4.31245 130.336 3.3647 131.401 2.83248C132.142 2.46171 133.084 1.21936 133.91 1.21936" stroke="white" stroke-width="0.25" stroke-linecap="round" stroke-linejoin="round"/>
<path d="M100.931 21.6523C105.596 18.5711 108.854 13.9991 112.8 10.1413C114.342 8.63368 116.135 6.68394 117.241 4.80408C117.867 3.73962 119.22 3.17612 119.75 2.11554" stroke="white" stroke-width="0.25" stroke-linecap="round" stroke-linejoin="round"/>
<path d="M98.4212 27.3878C100.859 27.3311 103.38 25.8004 105.372 24.52C106.238 23.9633 107.187 23.5033 108.09 23.0065C109.023 22.4934 109.853 21.7876 110.788 21.2938C111.736 20.7937 112.654 20.1702 113.656 19.7802C114.56 19.4289 115.573 18.8244 116.524 18.6451C119.096 18.1598 121.687 17.0752 124.062 16.0063C125.241 15.4759 126.412 15.2199 127.637 14.8413C128.754 14.4959 129.975 14.5682 131.042 14.0347C132.743 13.1845 134.721 12.531 136.519 11.8839C137.563 11.5078 138.74 11.3861 139.745 10.8981C140.388 10.5859 140.821 10.191 141.517 9.99195C142.321 9.76241 144.376 10.0353 143.947 8.74725" stroke="white" stroke-width="0.25" stroke-linecap="round" stroke-linejoin="round"/>
<path d="M106.487 26.4916C110.364 26.437 113.655 24.7232 117.151 23.355C118.828 22.699 120.643 22.4304 122.349 21.9111C124.128 21.3698 125.815 20.6231 127.637 20.2184C129.072 19.8993 130.397 19.1686 131.859 18.9737C134.606 18.6074 137.403 18.1316 140.044 17.1714C142.041 16.4453 144.332 16.564 146.317 15.8769C147.292 15.5395 148.194 14.979 149.145 14.662" stroke="white" stroke-width="0.25" stroke-linecap="round" stroke-linejoin="round"/>
<path d="M132.118 18.6052C133.409 17.8058 134.529 16.8063 135.802 15.9964C136.475 15.5681 137.233 14.7982 137.943 14.4828C138.712 14.141 139.207 13.2462 139.924 12.79C140.614 12.3512 141.338 11.8459 142.055 11.4358C142.698 11.0683 142.885 10.0744 143.589 9.68328C144.413 9.2251 145.265 8.81154 146.098 8.34897C146.888 7.91027 147.91 7.54188 148.607 6.95491C149.092 6.54702 150.011 5.98439 150.579 5.70026" stroke="white" stroke-width="0.25" stroke-linecap="round" stroke-linejoin="round"/>
<path d="M92.1479 33.1234C94.2988 33.1234 96.4496 33.1234 98.6004 33.1234C99.9677 33.1234 101.311 32.7649 102.633 32.7649C104.088 32.7649 105.578 32.4064 107.025 32.4064C108.506 32.4064 110.072 32.3565 111.505 31.9583C113.471 31.4124 115.456 31.5035 117.42 31.0124C120.234 30.309 123.098 29.7123 125.804 28.6425C126.301 28.4463 126.887 28.4085 127.358 28.1944C127.638 28.0669 128.165 27.818 128.443 27.7562C129.214 27.5849 130.291 27.5925 130.962 27.2086C131.709 26.7823 132.541 26.4947 133.293 26.0435C133.905 25.6759 134.601 25.5779 135.254 25.3266C135.889 25.0824 136.413 24.6782 137.047 24.4304C139.157 23.6044 141.465 23.1842 143.509 22.19C144.58 21.6691 145.575 20.8605 146.676 20.4374C147.497 20.1216 148.333 19.9512 149.145 19.6807" stroke="white" stroke-width="0.25" stroke-linecap="round" stroke-linejoin="round"/>
<path d="M115.449 30.7933C118.084 28.5717 120.87 26.6551 123.554 24.52C124.897 23.4518 126.638 22.9663 127.915 21.9211C128.895 21.1193 130.31 20.8232 131.48 20.3976C132.269 20.1107 133.086 19.5014 133.91 19.5014" stroke="white" stroke-width="0.25" stroke-linecap="round" stroke-linejoin="round"/>
<path d="M88.9217 37.425C91.6321 37.425 94.1695 37.3974 96.8081 36.7977C97.8324 36.5649 99.1594 36.4517 100.124 36.0807C101.847 35.4179 103.825 35.6657 105.551 35.1348C106.449 34.8585 107.403 34.6774 108.269 34.2983C109.065 33.9504 110.058 33.9678 110.798 33.5515C111.361 33.2349 111.86 32.8324 112.402 32.5458C112.809 32.3304 113.636 32.0876 113.835 31.6895" stroke="white" stroke-width="0.25" stroke-linecap="round" stroke-linejoin="round"/>
<path d="M98.0627 38.6797C100.646 38.5976 103.313 37.6632 105.77 36.8873C107.32 36.3977 108.901 36.0453 110.43 35.4932C112.766 34.6495 115.209 33.9855 117.599 33.3026C119.925 32.638 122.258 31.9858 124.629 31.4704C126.898 30.9773 129.273 30.4924 131.49 29.8174C134.872 28.7881 138.058 28.1618 141.438 27.2484C142.936 26.8434 144.339 25.8475 145.739 25.1473C146.603 24.7158 148.017 23.6238 148.966 23.6238" stroke="white" stroke-width="0.25" stroke-linecap="round" stroke-linejoin="round"/>
<path d="M108.638 37.7835C110.221 37.7835 111.71 37.8013 113.258 37.4649C114.354 37.2265 115.375 36.7526 116.454 36.4392C118.763 35.7689 121.167 35.1803 123.514 34.6469C127.278 33.7915 131.13 32.8685 134.806 31.6895C136.197 31.2433 137.584 31.1071 138.938 30.5145C140.42 29.8664 142.224 29.5544 143.499 28.5628C144.406 27.8576 146.05 27.6234 147.134 27.2484C147.927 26.9739 148.834 26.4916 149.683 26.4916" stroke="white" stroke-width="0.25" stroke-linecap="round" stroke-linejoin="round"/>
<path d="M115.449 38.6797C117.868 38.6797 120.288 38.6797 122.708 38.6797C124.921 38.6797 127.003 38.1593 129.15 37.7038C132.096 37.079 135.008 36.3602 137.943 35.7223C140.24 35.2229 142.484 34.62 144.704 33.8801C146.46 33.2949 148.12 32.4492 149.862 31.8687" stroke="white" stroke-width="0.25" stroke-linecap="round" stroke-linejoin="round"/>
<path d="M91.431 39.5759C94.3434 39.5759 97.2829 40.1043 99.9945 41.189C102.314 42.1169 104.663 43.2548 107.025 44.0568C110.021 45.0745 112.931 46.0489 116.026 46.7453C119.339 47.4907 122.983 48.3584 126.392 48.3584C127.888 48.3584 129.341 48.6847 130.823 48.7169C131.978 48.742 132.976 48.8009 134.089 49.155C135.658 49.6543 137.265 49.6888 138.829 50.0612C140.871 50.5473 142.568 51.9431 144.754 51.9431C146.098 51.9431 147.442 51.9431 148.787 51.9431" stroke="white" stroke-width="0.25" stroke-linecap="round" stroke-linejoin="round"/>
<path d="M108.1 41.9059C112.82 41.9059 117.54 41.9059 122.26 41.9059C123.781 41.9059 125.42 42.0542 126.92 42.3042C128.171 42.5127 129.371 43.0757 130.644 43.1605C131.851 43.241 133.063 43.5476 134.268 43.6982C136.088 43.9257 137.921 43.9251 139.735 44.1463C142.636 44.5 145.684 44.236 148.607 44.236" stroke="white" stroke-width="0.25" stroke-linecap="round" stroke-linejoin="round"/>
<path d="M90.5348 41.3682C94.4759 43.0925 97.5347 46.2313 100.841 48.8762C103.856 51.2884 107.279 52.517 110.798 53.9247C113.867 55.1521 116.926 56.4372 120.069 57.4596C121.292 57.8574 122.608 58.2217 123.873 58.4355C124.911 58.6109 125.865 59.1363 126.92 59.3317C127.907 59.5144 128.81 60.0333 129.787 60.2776C130.838 60.5403 131.88 60.8528 132.914 61.1738C134.77 61.7499 136.459 62.7105 138.301 63.3246C141.201 64.2911 144.289 64.6035 147.173 65.5651" stroke="white" stroke-width="0.25" stroke-linecap="round" stroke-linejoin="round"/>
<path d="M89.6386 48.1792C93.1806 51.7212 95.6748 56.1112 98.5606 60.188C99.4591 61.4573 100.336 62.828 101.369 63.9918C102.485 65.2497 103.878 66.2502 104.963 67.5367C106.926 69.8634 109.486 71.5826 111.505 73.8498C113.767 76.3892 116.557 78.4829 118.964 80.8898C121.266 83.1924 123.789 85.8568 126.551 87.6012C129.118 89.2225 131.136 91.609 133.551 93.4462C135.784 95.1441 138.053 96.7773 140.362 98.3653C141.26 98.9825 142.134 99.5738 143.051 100.158C143.271 100.298 144.394 100.875 144.306 100.875" stroke="white" stroke-width="0.25" stroke-linecap="round" stroke-linejoin="round"/>
<path d="M107.025 60.3672C116.266 67.4762 125.656 74.6386 134.049 82.7319C136.301 84.903 139.103 86.8263 141.796 88.4176C142.693 88.9477 143.547 89.6262 144.495 90.0407C144.991 90.2577 145.443 90.547 145.919 90.7975C146.474 91.0895 146.389 91.0165 145.74 91.0165" stroke="white" stroke-width="0.25" stroke-linecap="round" stroke-linejoin="round"/>
<path d="M112.222 57.3202C113.611 57.4069 114.643 57.9862 115.827 58.6744C117.482 59.6364 119.238 60.4775 120.706 61.7214C122.636 63.3563 124.674 64.88 126.651 66.4612C128.446 67.8973 130.129 69.4311 131.938 70.8525C133.477 72.0617 134.886 73.3749 136.28 74.7459C138.656 77.0842 141.358 79.358 144.226 81.0789C145.098 81.6019 145.914 82.1812 146.805 82.6821C147.789 83.2356 147.694 83.1413 146.456 82.9509" stroke="white" stroke-width="0.25" stroke-linecap="round" stroke-linejoin="round"/>
<path d="M124.231 62.6973C129.497 65.2909 135.133 67.0521 139.914 70.5936C141.64 71.8722 143.492 72.7815 145.341 73.8497C146.376 74.4475 147.588 74.7341 148.607 75.2438" stroke="white" stroke-width="0.25" stroke-linecap="round" stroke-linejoin="round"/>
<path d="M91.7895 60.3672C95.1572 65.6434 98.5773 70.9177 102.544 75.7417C104.854 78.5519 107.236 81.144 110.241 83.2098C112.169 84.5356 114.424 85.3676 116.345 86.7547C118.89 88.5926 121.065 91.0592 123.076 93.4362C124.541 95.1674 126.589 96.2424 128.174 97.8275C129.205 98.8583 130.459 99.574 131.49 100.606C132.177 101.293 132.685 102.226 133.551 102.707C135.27 103.661 136.844 104.736 138.749 105.266C140.185 105.665 141.56 105.893 143.051 105.893C143.743 105.893 145.172 105.655 145.56 106.431" stroke="white" stroke-width="0.25" stroke-linecap="round" stroke-linejoin="round"/>
<path d="M110.788 85.6395C113.426 87.5417 115.394 89.5411 117.231 92.1816C118.26 93.6613 118.952 95.5229 119.84 97.1006C120.552 98.3672 121.311 99.1281 122.618 99.7991C123.116 100.055 124.982 101.121 124.948 101.054" stroke="white" stroke-width="0.25" stroke-linecap="round" stroke-linejoin="round"/>
<path d="M93.0441 70.4044C94.2238 73.2605 95.6793 76.0355 96.9873 78.8385C98.0522 81.1204 99.0985 83.3825 100.383 85.5499C100.977 86.5529 101.358 87.6484 101.966 88.6467C102.508 89.5368 103.024 90.4838 103.36 91.4746C103.918 93.1174 104.453 94.6568 105.232 96.2144C105.837 97.4238 106.809 98.3437 107.662 99.351C108.761 100.65 109.829 101.949 110.968 103.215C112.111 104.485 113.21 105.905 114.413 107.108C114.984 107.679 115.708 108.314 116.345 108.801C116.489 108.911 117.241 109.456 117.241 109.299" stroke="white" stroke-width="0.25" stroke-linecap="round" stroke-linejoin="round"/>
<path d="M92.3272 80.2624C93.1009 81.6277 93.9803 83.1107 94.478 84.6039C94.8685 85.7754 95.4127 86.9215 96.1808 87.8899C97.8613 90.0088 99.3507 92.3127 101.11 94.3822C102.298 95.7807 103.65 97.1141 104.774 98.5445C105.076 98.9288 105.347 99.356 105.69 99.6995C106.265 100.275 106.296 100.172 105.232 99.9783" stroke="white" stroke-width="0.25" stroke-linecap="round" stroke-linejoin="round"/>
<path d="M87.1293 84.3848C88.3982 87.5905 89.5088 90.9115 91.431 93.7947C92.5714 95.5053 93.6306 97.453 95.0555 98.9428C96.2655 100.208 97.2211 101.823 98.5905 102.936C99.0094 103.276 99.3619 103.755 99.8551 104.001C100.163 104.155 100.685 104.729 100.214 104.101" stroke="white" stroke-width="0.25" stroke-linecap="round" stroke-linejoin="round"/>
<path d="M17.765 107.865C20.8384 105.835 24.0785 103.462 26.5376 100.695C27.277 99.8635 28.1149 99.0245 29.0171 98.3652C29.7886 97.8014 30.2836 96.7381 31.0384 96.1248C33.4461 94.1686 35.448 91.7949 37.6503 89.5926C38.5503 88.6926 39.4868 87.8358 40.3886 86.934C40.8577 86.4648 41.3996 86.0628 41.9619 85.7192C42.6949 85.2712 43.109 84.4844 43.7542 83.9467C44.748 83.1186 45.7045 82.0761 46.622 81.1586C47.5971 80.1835 48.5747 79.2427 49.5296 78.251C50.4016 77.3454 51.1581 76.3475 51.9991 75.4131C52.894 74.4188 53.9277 73.4339 54.6876 72.3362C55.2097 71.5821 55.742 70.9632 56.3904 70.3148C57.2273 69.4779 57.7945 68.7049 58.4516 67.7557C59.1454 66.7535 60.0691 65.7355 60.6024 64.6689" stroke="white" stroke-width="0.25" stroke-linecap="round" stroke-linejoin="round"/>
<path d="M69.0265 51.2262C67.7251 54.3352 65.227 56.6745 63.7391 59.6503C62.6813 61.7658 61.2177 63.5014 59.8855 65.4257C58.5719 67.323 56.8543 68.7755 55.2253 70.4044C54.0226 71.6072 52.6588 72.6125 51.4614 73.8099C50.3217 74.9496 49.245 76.1363 48.0459 77.2154C46.8025 78.3346 45.669 79.6023 44.4811 80.7902C42.8198 82.4515 40.7167 83.6401 38.9149 85.1416C36.3069 87.3149 33.4423 89.2306 31.1181 91.7335C29.9523 92.989 28.3897 94.1234 27.0753 95.2187C26.267 95.8923 25.5015 96.5435 24.7552 97.2898C23.9859 98.0592 23.4273 99.0607 22.6044 99.7593C20.8773 101.226 18.1441 102.846 15.7934 102.846" stroke="white" stroke-width="0.25" stroke-linecap="round" stroke-linejoin="round"/>
<path d="M1.45453 98.9029C4.23507 98.006 6.33223 95.8788 8.6638 94.203C10.2538 93.0602 11.9329 92.0048 13.4235 90.7377C16.2614 88.3256 19.6362 86.4911 22.5148 84.106C25.7596 81.4175 28.8649 78.5546 32.1835 75.9607C34.5153 74.1382 36.994 72.5077 39.3629 70.7529C41.6484 69.06 43.9677 67.3627 46.1739 65.5651C48.4504 63.7102 50.9328 62.1038 53.0347 60.0486C53.9997 59.105 55.1788 58.2624 56.2609 57.4596C57.5569 56.4981 58.6559 55.1443 59.7958 54.0043C60.8565 52.9437 62.0046 52.0733 63.0221 50.9673C63.4595 50.4918 63.9875 49.5336 64.5456 49.2546" stroke="white" stroke-width="0.25" stroke-linecap="round" stroke-linejoin="round"/>
<path d="M1.09607 85.4603C5.60446 83.1434 9.58389 79.9253 13.9612 77.3946C16.5389 75.9045 19.3348 74.8873 21.9273 73.4514C24.7598 71.8827 27.4572 70.1013 30.2717 68.5125C32.7791 67.097 35.3502 65.8913 37.9191 64.5892C40.025 63.5218 42.0709 62.3392 44.0131 60.9945C45.4121 60.026 46.7204 58.8772 48.2351 58.077C50.5488 56.8546 52.9606 55.6762 55.0461 54.0541C56.7763 52.7084 58.463 51.2948 60.2041 49.9715C60.7123 49.5853 61.3996 48.5563 61.6778 47.9999" stroke="white" stroke-width="0.25" stroke-linecap="round" stroke-linejoin="round"/>
<path d="M1.45453 90.8374C3.40591 90.2276 5.152 89.2264 6.89135 88.1687C8.09739 87.4353 9.43623 86.9043 10.5856 86.0876C11.9275 85.1342 13.3692 84.3054 14.6782 83.3094C16.841 81.6638 19.24 80.2203 21.519 78.7389C23.6077 77.3813 25.731 76.0995 27.8022 74.7061C30.9825 72.5667 33.9785 70.1475 37.2021 68.0843C41.3929 65.4023 45.7159 62.9215 49.8881 60.188C51.2958 59.2657 52.9127 58.6789 54.3291 57.7683C54.7618 57.4902 56.8484 56.3394 56.6592 56.2448" stroke="white" stroke-width="0.25" stroke-linecap="round" stroke-linejoin="round"/>
<path d="M1.2753 48.8961C3.84435 48.8961 6.4134 48.8961 8.98245 48.8961C10.1906 48.8961 11.3988 48.8961 12.607 48.8961C14.0358 48.8961 15.4572 48.5376 16.8788 48.5376C19.6298 48.5376 22.4221 47.7723 25.1137 47.283C26.5645 47.0192 28.6808 47.2349 29.9531 46.3868" stroke="white" stroke-width="0.25" stroke-linecap="round" stroke-linejoin="round"/>
<path d="M1.63376 53.0185C5.01009 53.0185 8.17362 52.7922 11.4917 52.2219C13.6999 51.8424 15.7214 51.216 17.8845 50.6885C20.8826 49.9572 23.7979 48.6221 26.8264 48.0398C28.8918 47.6426 30.9403 47.0636 33.0001 46.6059C33.9422 46.3965 34.9348 46.5092 35.8678 46.2972C36.8874 46.0654 37.8838 45.821 38.9148 45.63C40.063 45.4174 41.1568 44.9816 42.3004 44.7737C43.1873 44.6124 44.1418 44.5681 45.0089 44.3754C46.7261 43.9938 48.5069 43.9068 50.2465 43.5589C52.0478 43.1986 53.8062 42.5882 55.6236 42.3042C56.6445 42.1447 59.6366 41.9355 60.0647 40.6512" stroke="white" stroke-width="0.25" stroke-linecap="round" stroke-linejoin="round"/>
<path d="M1.09607 43.1606C8.19103 43.1606 15.3054 42.9813 22.3853 42.9813C27.2867 42.9813 32.1456 43.3398 37.0329 43.3398C40.1264 43.3398 43.0461 43.2151 46.0843 42.6627C48.0283 42.3092 50.0386 41.59 51.8995 40.9201C54.1747 40.101 56.4409 39.3452 58.7702 38.6797C60.0917 38.3021 61.0775 37.6355 62.2155 37.0665" stroke="white" stroke-width="0.25" stroke-linecap="round" stroke-linejoin="round"/>
<path d="M0.37912 71.3006C2.66355 71.2176 4.86284 70.2394 6.99094 69.4884C9.1507 68.7261 11.4478 68.1753 13.543 67.2479C17.1452 65.6535 20.6059 63.7154 24.2573 62.2393C28.9341 60.3486 33.6166 58.2666 38.1083 55.966C39.8891 55.0539 41.6864 54.1407 43.5352 53.377C45.1643 52.7041 46.9267 51.9107 48.4741 51.0569C49.6242 50.4224 50.7144 49.7137 51.8597 49.0754C53.5577 48.1289 55.4592 47.6142 57.1969 46.7453" stroke="white" stroke-width="0.25" stroke-linecap="round" stroke-linejoin="round"/>
<path d="M1.2753 77.0361C3.88652 76.6532 6.51182 76.0011 8.88287 74.8156C10.7434 73.8853 12.5634 72.5543 14.3496 71.4699C17.0339 69.8401 19.824 68.4242 22.5148 66.8296C24.6915 65.5397 27.0626 64.5198 29.2759 63.2748C30.9557 62.3299 32.6638 61.4278 34.2547 60.3672" stroke="white" stroke-width="0.25" stroke-linecap="round" stroke-linejoin="round"/>
<path d="M1.09607 63.5935C4.50043 63.5002 8.64756 62.7779 11.7507 61.2734C14.4324 59.9731 17.1725 58.5629 19.9158 57.4198C22.5419 56.3256 25.3639 54.7706 28.2005 54.313C30.7697 53.8986 33.2631 52.7261 35.6886 51.8037C38.0345 50.9116 40.4655 50.2925 42.8581 49.5234C45.0539 48.8176 47.1894 47.8963 49.3902 47.2133C51.0339 46.7032 52.5745 46.1227 54.1898 45.4906C55.6875 44.9046 57.1427 44.0151 58.6308 43.519" stroke="white" stroke-width="0.25" stroke-linecap="round" stroke-linejoin="round"/>
<path d="M2.35071 25.4162C10.8678 25.4162 19.0683 28.0881 27.1649 30.3551C29.7227 31.0713 32.2392 32.0149 34.882 32.4064C37.7668 32.8338 40.8937 33.6611 43.794 33.6611C45.6432 33.6611 47.7624 34.2449 49.5694 34.6966C51.8293 35.2616 54.1556 35.1261 56.3904 35.6227C57.4369 35.8552 59.4663 35.8552 60.5128 35.6227C61.8135 35.3337 63.368 34.9157 64.7248 34.9157" stroke="white" stroke-width="0.25" stroke-linecap="round" stroke-linejoin="round"/>
<path d="M1.63376 32.0479C3.63088 32.0479 5.31079 32.2962 7.2299 32.8445C8.41119 33.182 9.56386 33.7512 10.7748 33.9797C12.6855 34.3402 14.4786 35.0494 16.3311 35.6326C18.5994 36.3467 21.0001 36.614 23.2815 37.2458C26.2932 38.0798 29.3855 38.8312 32.5022 39.1775C37.3054 39.7112 42.2419 40.1722 47.0203 39.2572C50.3305 38.6233 53.6315 38.1355 56.8384 37.0665" stroke="white" stroke-width="0.25" stroke-linecap="round" stroke-linejoin="round"/>
<path d="M5.57697 7.49261C8.45295 8.93061 10.8865 11.0577 13.5032 12.9095C16.0282 14.6964 18.687 16.2475 21.3896 17.7489C23.4735 18.9066 25.5783 20.4384 27.8022 21.2938C29.2476 21.8497 30.8835 22.4431 32.2831 23.0861C34.3928 24.0555 36.5509 24.8695 38.5166 26.1332C39.3978 26.6997 40.4872 26.8866 41.464 27.2484C42.5183 27.6389 43.5391 28.1879 44.6404 28.4632C45.1688 28.5953 46.0893 29.1729 46.1839 29.1901C46.9521 29.3298 48.0273 29.8016 48.6832 30.166C50.3124 31.0711 52.3638 31.1133 54.1499 31.5102C58.0107 32.3682 62.3765 31.8687 66.338 31.8687" stroke="white" stroke-width="0.25" stroke-linecap="round" stroke-linejoin="round"/>
<path d="M11.3125 0.860901C13.7748 0.997695 16.1721 2.77965 18.0836 4.26638C19.7773 5.5837 21.5543 6.80996 23.2217 8.14983C26.3621 10.6733 29.6041 13.0889 32.9104 15.389C37.4668 18.5586 42.7672 20.6211 47.6974 23.0862C49.648 24.0614 51.6532 24.8069 53.6122 25.7349C54.7004 26.2504 55.6708 26.8785 56.7488 27.4774C59.9609 29.2619 63.8676 30.7933 67.5926 30.7933" stroke="white" stroke-width="0.25" stroke-linecap="round" stroke-linejoin="round"/>
<path d="M32.1039 1.39856C34.5487 2.42196 36.2086 4.7515 38.0187 6.5964C39.7074 8.31762 41.5551 9.93396 43.1369 11.7544C44.87 13.7491 46.7398 15.517 48.7728 17.2112C50.5068 18.6561 52.0988 20.3808 53.9707 21.6522C56.7915 23.5683 59.7415 25.0654 62.7532 26.5713C64.477 27.4331 66.1112 28.5669 67.9511 29.1801" stroke="white" stroke-width="0.25" stroke-linecap="round" stroke-linejoin="round"/>
<path d="M70.2811 1.57782C70.2811 5.87746 69.6984 11.5077 72.2527 15.3392C73.2978 16.9067 74.9109 22.3237 73.8659 20.7561" stroke="white" stroke-width="0.25" stroke-linecap="round" stroke-linejoin="round"/>
<path d="M74.5828 1.39856C74.6344 3.71752 75.2468 6.01848 75.2998 8.34893C75.3323 9.77955 75.6582 11.2051 75.6582 12.6506C75.6582 13.6572 76.865 17.8226 75.6582 18.426" stroke="white" stroke-width="0.25" stroke-linecap="round" stroke-linejoin="round"/>
<path d="M41.2449 1.75708C44.2699 3.32559 46.6986 5.90893 49.3504 8.03034C51.1773 9.49191 53.0513 11.1262 54.608 12.8697C56.4806 14.967 58.5231 17.1671 60.8215 18.7845C62.7779 20.1612 63.3847 22.3956 64.6352 24.3408C66.0024 26.4675 69.0915 27.2242 69.9227 29.7179" stroke="white" stroke-width="0.25" stroke-linecap="round" stroke-linejoin="round"/>
<path d="M54.5084 106.789C54.5837 103.25 56.648 100.415 57.9139 97.25C59.0172 94.4918 59.6183 91.2247 60.0249 88.2882C60.267 86.5392 60.3445 84.5498 61.1003 82.9509C61.7067 81.6682 62.0537 80.198 62.574 78.8683C63.0334 77.6944 63.5631 76.4655 63.8685 75.2438C64.1764 74.0121 63.8788 72.7313 64.0179 71.4798C64.2475 69.4127 64.888 66.959 65.8799 65.1169C66.4943 63.9759 66.3142 62.2495 66.5072 60.9945C66.703 59.7218 67.2412 58.555 67.6822 57.3202C67.8916 56.734 68.2413 56.3008 68.5685 55.7867C68.8466 55.3496 68.8606 54.5917 69.0265 54.0939" stroke="white" stroke-width="0.25" stroke-linecap="round" stroke-linejoin="round"/>
<path d="M29.0569 109.119C34.1377 106.216 38.6248 102.613 43.0373 98.8134C43.9113 98.0607 44.73 97.2755 45.5566 96.4733C46.6119 95.449 47.3545 94.1449 48.4542 93.1674C50.0409 91.757 51.2892 90.2946 52.5468 88.5969C54.7538 85.6174 56.5693 82.9228 57.5554 79.3264C58.2623 76.7485 59.5967 74.4971 60.4232 72.0176" stroke="white" stroke-width="0.25" stroke-linecap="round" stroke-linejoin="round"/>
<path d="M150.579 59.8295C147.067 59.8295 143.555 59.8295 140.044 59.8295C138.613 59.8295 137.201 59.6766 135.782 59.6503C135.387 59.643 134.28 59.674 134.089 59.2918" stroke="white" stroke-width="0.25" stroke-linecap="round" stroke-linejoin="round"/>
<path d="M97.7043 43.519C101.276 43.6538 104.191 46.4097 107.204 47.9999C108.878 48.8836 111.013 49.4338 112.899 49.4338C114.889 49.4338 117.641 49.2804 119.432 50.33C120.226 50.7956 121.08 51.2539 121.901 51.6643C122.065 51.7461 122.995 52.3016 122.797 52.3016" stroke="white" stroke-width="0.25" stroke-linecap="round" stroke-linejoin="round"/>
<path d="M139.108 8.74726C141.561 8.63318 144.343 5.95963 146.058 4.30619C146.808 3.58337 147.634 2.87399 148.338 2.11553C148.774 1.6467 149.588 1.22945 149.862 0.681641" stroke="white" stroke-width="0.25" stroke-linecap="round" stroke-linejoin="round"/>
</svg>
