<svg width="266" height="166" viewBox="0 0 266 166" fill="none" xmlns="http://www.w3.org/2000/svg">
<path d="M84.896 148.307C84.896 143.947 84.6318 139.518 84.6318 135.214C84.6318 132.833 83.9037 130.466 83.5896 128.11C83.2711 125.721 83.3011 123.214 83.0612 120.815C82.7927 118.13 82.7823 115.405 82.7823 112.698C82.7823 109.936 82.2539 107.245 82.2539 104.508C82.2539 101.2 82.5181 97.942 82.5181 94.6736" stroke="white" stroke-width="0.25" stroke-linecap="round" stroke-linejoin="round"/>
<path d="M173.405 147.779C173.405 138.145 173.669 128.623 173.669 118.981C173.669 110.743 174.198 102.321 174.198 94.1452" stroke="white" stroke-width="0.25" stroke-linecap="round" stroke-linejoin="round"/>
<path d="M164.158 140.117C164.158 135.162 164.725 129.665 164.099 124.734C163.487 119.915 163.893 115.252 163.893 110.409C163.893 107.497 163.893 104.586 163.893 101.675C163.893 99.7594 164.448 96.5622 163.365 94.9378" stroke="white" stroke-width="0.25" stroke-linecap="round" stroke-linejoin="round"/>
<path d="M94.9358 141.438C94.9358 136.667 94.6716 131.958 94.6716 127.171C94.6716 122.725 94.1432 118.382 94.1432 113.975C94.1432 110.648 93.879 107.331 93.879 103.979C93.879 101.047 94.1432 98.3277 94.1432 95.4662" stroke="white" stroke-width="0.25" stroke-linecap="round" stroke-linejoin="round"/>
<path d="M48.4355 91.5031C55.3102 91.5031 62.1195 91.4723 68.9262 92.0169C75.5354 92.5456 82.267 92.2957 88.9177 92.2957C95.8735 92.2957 103.065 91.7673 109.878 91.7673C112.919 91.7673 115.582 91.9794 118.582 91.5178C121.542 91.0624 124.914 91.5031 127.903 91.5031C131.634 91.5031 135.476 91.2397 139.176 91.7086C143.721 92.2848 148.35 92.8242 152.929 92.8242C155.973 92.8242 158.977 93.0884 162.044 93.0884C163.751 93.0884 165.407 92.8242 167.093 92.8242C168.795 92.8242 171.178 92.9536 172.818 92.5012C175.066 91.8811 177.881 92.2957 180.186 92.2957C182.069 92.2957 182.759 91.5031 184.56 91.5031C187.635 91.5031 190.445 91.1033 193.47 90.7252C196.167 90.388 198.78 89.6537 201.528 89.6537C202.088 89.6537 205.374 89.6722 205.374 89.6537" stroke="white" stroke-width="0.25" stroke-linecap="round" stroke-linejoin="round"/>
<path d="M48.6998 85.4264C53.7025 85.4264 59.1226 85.5996 64.0237 86.6887C64.6027 86.8174 65.2264 86.7343 65.8144 86.7474C66.7058 86.7672 67.4989 87.1956 68.3831 87.2611C69.9441 87.3768 71.4331 87.54 73.0067 87.54C81.5494 87.54 90.092 87.54 98.6347 87.54C106.762 87.54 114.824 85.6906 122.942 85.6906C128.318 85.6906 133.559 85.1622 138.926 85.1622C144.567 85.1622 150.209 85.1622 155.85 85.1622C159.236 85.1622 162.621 85.1622 166.007 85.1622C169.369 85.1622 172.71 85.6906 176.032 85.6906C181.938 85.6906 187.843 85.6906 193.749 85.6906C197.33 85.6906 201.013 85.1622 204.581 85.1622" stroke="white" stroke-width="0.25" stroke-linecap="round" stroke-linejoin="round"/>
<path d="M47.1145 81.4633C68.4574 81.4633 89.7011 83.3936 111.038 82.2706C115.364 82.0429 119.673 81.9917 124.013 81.9917C125.662 81.9917 127.311 81.9917 128.96 81.9917C129.783 81.9917 130.33 81.6605 131.147 81.7422C137.008 82.3283 142.923 81.7183 148.775 82.4614C154.315 83.1649 160.138 82.2559 165.684 82.2559C172.304 82.2559 178.793 81.7275 185.412 81.7275C189.688 81.7275 193.964 81.7275 198.24 81.7275C199.355 81.7275 201.601 82.1502 202.6 81.5954C203.092 81.3219 204.295 81.228 204.845 81.1991C205.489 81.1652 205.902 81.9295 205.902 81.1991" stroke="white" stroke-width="0.25" stroke-linecap="round" stroke-linejoin="round"/>
<path d="M47.6429 77.7644C66.0854 77.7644 84.4307 78.8212 102.877 78.8212C109.862 78.8212 116.912 78.557 123.852 78.557C124.661 78.557 124.665 78.0286 125.642 78.0286C127.208 78.0286 128.774 78.0286 130.339 78.0286C132.782 78.0286 135.396 77.9855 137.796 77.5589C139.202 77.309 140.691 77.5991 142.111 77.4855C143.92 77.3408 145.673 77.236 147.498 77.236C150.553 77.236 154.008 76.7921 157.024 77.2947C160.77 77.919 164.675 78.8212 168.502 78.8212C171.981 78.8212 175.46 78.8212 178.939 78.8212C184.757 78.8212 190.489 78.7409 196.273 78.2782C198.786 78.0772 201.339 77.5002 203.847 77.5002C204.883 77.5002 207.766 77.9696 208.016 76.9718" stroke="white" stroke-width="0.25" stroke-linecap="round" stroke-linejoin="round"/>
<path d="M180.803 94.4094C180.842 96.042 181.295 97.8525 183.063 98.3578C184.546 98.7813 184.821 99.1649 185.045 100.618C185.811 105.6 185.294 110.991 185.294 116.06C185.294 119.964 185.03 123.801 185.03 127.699C185.03 129.392 185.03 131.085 185.03 132.778C185.03 133.481 185.103 136.8 185.294 136.418" stroke="white" stroke-width="0.25" stroke-linecap="round" stroke-linejoin="round"/>
<path d="M76.7056 94.4094C76.7056 96.1593 76.572 98.1846 74.8561 99.1651C74.1227 99.5842 72.9207 100.469 72.537 101.279C71.988 102.438 72.2141 103.997 72.2141 105.242C72.2141 106.733 72.1396 108.244 72.2141 109.733C72.4632 114.715 72.4783 119.763 72.4783 124.793" stroke="white" stroke-width="0.25" stroke-linecap="round" stroke-linejoin="round"/>
<path d="M131.396 55.8353C131.396 59.6223 131.396 63.4092 131.396 67.1962C131.396 69.574 131.396 71.9519 131.396 74.3297C131.396 75.7712 131.279 80.0311 131.675 78.6451C132.189 76.8478 133.634 72.0927 136.02 73.9481C136.549 74.3597 136.832 75.3866 137.605 75.3866C138.951 75.3866 139.301 73.7531 140.379 73.2142C141.183 72.8122 142.43 73.4394 143.021 74.0655C143.95 75.0492 144.114 75.3758 144.665 74.0655C145.513 72.0512 145.135 69.6009 145.135 67.431C145.135 63.0922 145.663 58.8772 145.663 54.5143" stroke="white" stroke-width="0.25" stroke-linecap="round" stroke-linejoin="round"/>
<path d="M185.294 45.7955C185.294 48.6578 185.294 51.52 185.294 54.3822C185.294 55.5981 185.823 56.7734 185.823 58.0077C185.823 59.3141 185.823 60.6204 185.823 61.9268C185.823 62.9347 185.823 63.9426 185.823 64.9505C185.823 65.1029 185.825 67.2882 186.292 66.8733C187.337 65.9447 187.97 64.5626 189.11 63.6294C190.404 62.5709 190.262 62.6079 191.899 63.556C192.783 64.0674 193.556 65.1537 194.277 65.8752C195.153 66.7515 196.316 67.9284 196.112 65.8899C195.968 64.4499 195.598 63.1925 195.598 61.7066C195.598 60.4981 195.598 59.2896 195.598 58.0811C195.598 55.743 195.862 53.3707 195.862 51.0796C195.862 49.3541 195.383 46.7546 196.127 45.2671" stroke="white" stroke-width="0.25" stroke-linecap="round" stroke-linejoin="round"/>
<path d="M112.902 56.0996C112.902 62.3956 112.532 68.8324 112.902 75.1224C112.976 76.3903 117.296 72.2509 117.922 72.2161C120.187 72.0902 121.699 73.1443 123.455 74.4619C123.912 74.8047 124.969 75.7121 125.261 76.1792C125.865 77.1454 125.976 75.7998 126.097 75.2545C126.286 74.4067 126.088 73.3415 126.112 72.4803C126.15 71.1238 126.376 69.7729 126.376 68.3851C126.376 64.0706 126.905 59.6257 126.905 55.3069" stroke="white" stroke-width="0.25" stroke-linecap="round" stroke-linejoin="round"/>
<path d="M65.8731 54.2501C65.8731 59.5514 67.9878 64.2647 69.2491 69.3099C69.6901 71.0741 69.3774 73.2037 69.9683 74.8582C70.3184 75.8384 69.8402 77.5002 71.4214 77.5002C73.2593 77.5002 74.6291 76.1678 76.3092 75.6508C77.7596 75.2045 78.843 74.8582 80.4044 74.8582C81.5388 74.8582 82.7641 74.594 83.9712 74.594C85.3516 74.594 85.3676 72.8196 85.1455 71.8198C84.3627 68.2975 82.7189 64.9718 82.2685 61.369C81.9247 58.6179 82.0739 55.752 81.4759 53.0612C81.1692 51.6809 80.7765 51.6081 79.3476 51.6081C77.945 51.6081 76.2124 52.1135 74.8708 52.5328C73.3299 53.0143 72.0573 53.9389 70.3646 53.9859C69.655 54.0056 67.0102 54.9391 66.6657 54.2501" stroke="white" stroke-width="0.25" stroke-linecap="round" stroke-linejoin="round"/>
<path d="M48.9639 45.0029C48.9639 51.1286 48.9639 57.2542 48.9639 63.3799C48.9639 66.2372 48.9639 69.0946 48.9639 71.9519C48.9639 72.7332 48.5396 76.3633 49.2281 76.7076" stroke="white" stroke-width="0.25" stroke-linecap="round" stroke-linejoin="round"/>
<path d="M206.695 46.5881C206.695 53.2063 206.959 59.8447 206.959 66.4182C206.959 68.8988 206.959 71.3794 206.959 73.86C206.959 74.5774 206.711 75.8666 207.223 76.4434C207.661 76.9363 208.28 77.7387 208.28 78.4249C208.28 79.1679 208.427 80.0752 208.265 80.8028C208.114 81.4858 206.891 81.9443 206.563 82.6669C206.111 83.6609 206.167 84.3556 206.695 85.2796C207.003 85.8187 207.832 85.8886 208.221 86.2777C208.635 86.6914 208.279 88.6652 208.075 89.1253C207.704 89.958 207.15 90.5604 206.695 91.3563C205.835 92.8601 206.738 94.3311 207.693 95.5249C208.95 97.0957 207.422 98.8321 206.225 99.6935C205.247 100.398 204.581 101.881 204.581 103.011C204.581 104.717 205.732 105.842 204.111 106.944C202.91 107.762 202.989 110.43 203.275 111.715C204.171 115.746 203.908 120.354 203.789 124.529C203.735 126.398 202.995 128.119 203.275 130.077C203.513 131.747 203.524 133.387 203.524 135.097" stroke="white" stroke-width="0.25" stroke-linecap="round" stroke-linejoin="round"/>
<path d="M52.1344 109.469C51.6247 107.147 49.528 106.879 50.5492 104.581C50.8523 103.899 51.3418 103.406 51.3418 102.6C51.3418 101.911 50.8822 101.6 50.8134 101.015C50.7209 100.228 49.8094 99.482 49.4924 98.7688C49.1789 98.0636 48.94 97.3254 48.5676 96.6551C47.8414 95.3479 48.9639 93.5246 48.9639 92.1637C48.9639 90.5564 47.7345 89.8901 47.6429 88.3327C47.611 87.7905 47.2417 87.2978 47.3934 86.6153C47.488 86.1895 48.0635 86.1342 48.1567 85.808C48.244 85.5022 48.1713 85.0832 48.1713 84.7659C48.1713 84.0833 48.4355 83.3985 48.4355 82.7843C48.4355 82.4202 47.3558 81.8221 47.0558 81.522C46.6304 81.0967 46.6327 78.0054 47.1145 77.7644" stroke="white" stroke-width="0.25" stroke-linecap="round" stroke-linejoin="round"/>
<path d="M48.6998 45.0029C52.7488 45.0029 56.8906 44.7094 60.8532 45.59C64.0783 46.3067 67.3082 47.1166 70.6288 47.1166C74.4717 47.1166 78.2856 47.1306 82.1071 46.867C86.8464 46.5402 91.5446 46.0597 96.3155 46.0597C103.515 46.0597 110.6 45.5313 117.79 45.5313C119.703 45.5313 121.616 45.5313 123.529 45.5313C125.916 45.5313 128.233 46.0597 130.604 46.0597C133.185 46.0597 135.685 46.5404 138.266 46.5882C140.923 46.6374 143.759 46.9817 146.397 47.3221C151.46 47.9753 156.759 47.7479 161.78 46.9111C165.501 46.2909 169.173 46.4169 172.891 46.0451C174.747 45.8595 176.564 45.8935 178.425 45.7955C178.963 45.7672 178.75 45.3239 178.806 45.2671C178.954 45.1193 179.924 45.2671 180.157 45.2671C181.837 45.2671 183.537 44.7387 185.294 44.7387C187.278 44.7387 189.115 44.6281 191.107 44.7387C192.563 44.8196 195.223 45.2057 196.523 45.9276C197.834 46.6558 200.06 45.7955 201.411 45.7955C202.848 45.7955 204.931 45.442 206.166 46.0597" stroke="white" stroke-width="0.25" stroke-linecap="round" stroke-linejoin="round"/>
<path d="M179.482 12.2414C179.482 14.8773 179.144 16.3663 180.949 18.1713C181.951 19.1732 183.824 19.7814 185.03 20.4905C187.598 22.001 188.2 25.0023 188.2 27.6974C188.2 30.5311 185.954 32.4829 184.12 34.3173C183.857 34.5805 183.709 36.1454 183.709 36.5483C183.709 37.3409 183.709 38.1336 183.709 38.9262C183.709 39.8864 183.973 40.7603 183.973 41.7003C183.973 42.3092 184.411 43.2812 183.973 42.6251" stroke="white" stroke-width="0.25" stroke-linecap="round" stroke-linejoin="round"/>
<path d="M198.24 12.2414C198.24 14.8444 198.412 16.6368 197.242 18.8465C196.803 19.6765 194.767 20.6882 193.866 20.9455C191.329 21.6703 191.168 25.0667 191.694 27.3011C192.031 28.7351 191.701 30.1936 192.486 31.5284C192.771 32.0125 193.505 32.2533 193.866 32.7173C194.344 33.3319 194.277 34.1013 194.277 34.831C194.277 36.0802 194.513 38.2665 194.938 39.4546C195.147 40.0396 195.07 40.6896 195.07 41.304C195.07 41.9619 195.284 43.0297 194.806 41.8324" stroke="white" stroke-width="0.25" stroke-linecap="round" stroke-linejoin="round"/>
<path d="M185.823 35.4915C188.006 35.4915 190.011 35.7557 192.164 35.7557" stroke="white" stroke-width="0.25" stroke-linecap="round" stroke-linejoin="round"/>
<path d="M181.067 14.355C183.29 14.355 185.499 14.6192 187.672 14.6192C188.774 14.6192 190.646 14.5028 191.635 14.9422C193.31 15.6865 195.945 15.1062 197.448 14.355" stroke="white" stroke-width="0.25" stroke-linecap="round" stroke-linejoin="round"/>
<path d="M182.388 16.9971C184.164 16.9971 186.691 16.7458 188.333 17.6576C188.857 17.9489 190.102 18.3181 190.71 18.3181C192.705 18.3181 194.518 18.1499 196.391 17.5255" stroke="white" stroke-width="0.25" stroke-linecap="round" stroke-linejoin="round"/>
<path d="M179.746 11.713C183.303 11.1323 187.204 11.3223 190.784 11.1846C193.137 11.094 195.563 10.9203 197.976 10.9203" stroke="white" stroke-width="0.25" stroke-linecap="round" stroke-linejoin="round"/>
<path d="M197.976 10.6561C198.24 10.0351 198.613 8.70824 199.561 9.12963C200.148 9.39024 200.618 9.83152 200.618 10.524C200.618 11.7892 200.882 13.0322 200.882 14.355C200.882 16.9513 198.592 18.759 196.919 20.4318" stroke="white" stroke-width="0.25" stroke-linecap="round" stroke-linejoin="round"/>
<path d="M179.746 10.1277C178.841 9.75249 177.708 8.49019 177.368 9.84885C177.192 10.5508 177.163 11.3143 176.898 11.9772C176.552 12.8427 176.84 14.4154 176.84 15.3531C176.84 16.6566 177.189 17.4002 178.161 18.3181C178.669 18.798 180.075 18.9763 180.274 19.3749" stroke="white" stroke-width="0.25" stroke-linecap="round" stroke-linejoin="round"/>
<path d="M69.572 2.20157C69.572 7.14989 69.8362 12.0465 69.8362 16.9971C69.8362 22.8031 69.1929 28.4925 68.7647 34.2732C68.5809 36.7539 68.4147 39.118 68.7647 41.5682C68.9746 43.0375 69.3078 44.6434 69.3078 46.0597" stroke="white" stroke-width="0.25" stroke-linecap="round" stroke-linejoin="round"/>
<path d="M54.2481 1.67316C54.2481 15.4336 53.7197 29.1604 53.7197 42.8893" stroke="white" stroke-width="0.25" stroke-linecap="round" stroke-linejoin="round"/>
<path d="M43.6799 1.67316C43.6799 12.1729 43.6799 22.6726 43.6799 33.1724C43.6799 36.4819 43.4157 39.8126 43.4157 43.1535C43.4157 46.7339 42.8873 50.2129 42.8873 53.7804C42.8873 60.3737 42.2151 66.8665 42.3588 73.4784C42.4398 77.204 43.2778 80.9112 43.4157 84.6338C43.4963 86.8118 44.2083 88.905 44.2083 90.9747" stroke="white" stroke-width="0.25" stroke-linecap="round" stroke-linejoin="round"/>
<path d="M186.615 1.93738C186.615 4.57944 186.615 7.22149 186.615 9.86355" stroke="white" stroke-width="0.25" stroke-linecap="round" stroke-linejoin="round"/>
<path d="M185.823 20.9602C185.823 24.5548 185.558 28.2849 185.558 31.7926" stroke="white" stroke-width="0.25" stroke-linecap="round" stroke-linejoin="round"/>
<path d="M200.882 2.20157C200.882 5.01976 200.882 7.83796 200.882 10.6562" stroke="white" stroke-width="0.25" stroke-linecap="round" stroke-linejoin="round"/>
<path d="M200.618 18.3181C200.618 22.1291 201.095 26.2991 200.486 30.0753C200.169 32.0388 200.09 34.2354 200.09 36.2254C200.09 38.7913 199.825 41.4506 199.825 43.9461" stroke="white" stroke-width="0.25" stroke-linecap="round" stroke-linejoin="round"/>
<path d="M210.394 1.93738C210.394 11.2973 210.658 20.5825 210.658 29.9432C210.658 35.6792 210.619 41.398 210.937 47.1166C211.229 52.3814 211.45 57.5961 211.45 62.8808C211.45 71.1614 210.922 79.3765 210.922 87.6575C210.922 90.7888 210.922 93.9201 210.922 97.0515C210.922 99.3425 211.45 101.628 211.45 103.921" stroke="white" stroke-width="0.25" stroke-linecap="round" stroke-linejoin="round"/>
<path d="M205.11 108.941C208.147 108.305 211.483 106.559 214.151 104.978C215.395 104.241 216.824 103.785 218.188 103.26C218.939 102.971 219.901 102.336 220.698 102.336" stroke="white" stroke-width="0.25" stroke-linecap="round" stroke-linejoin="round"/>
<path d="M206.959 108.941C210.95 108.854 214.932 108.506 218.848 108.941C221.743 109.262 224.542 110.595 227.435 111.04C230.692 111.541 234.171 112.111 237.475 112.111C238.545 112.111 244.305 111.503 244.74 112.375" stroke="white" stroke-width="0.25" stroke-linecap="round" stroke-linejoin="round"/>
<path d="M204.581 109.205C204.581 110.095 204.164 111.989 204.977 112.64C205.594 113.133 206.346 112.753 207.091 112.918C207.91 113.101 208.596 113.168 209.469 113.168C210.285 113.168 211.061 113.801 211.847 113.975C213.426 114.326 215.241 114.598 216.793 115.076C218.586 115.628 220.547 115.231 222.283 115.81" stroke="white" stroke-width="0.25" stroke-linecap="round" stroke-linejoin="round"/>
<path d="M253.195 97.0515C249.284 97.0515 245.922 98.9681 242.495 100.618C240.45 101.603 238.719 103.28 236.682 104.185C235.782 104.585 235.073 105.683 234.304 106.299C233.064 107.291 235.522 108.132 236.154 108.412C238.501 109.456 240.39 111.766 243.155 111.847C245.661 111.921 248.453 111.587 250.817 112.375" stroke="white" stroke-width="0.25" stroke-linecap="round" stroke-linejoin="round"/>
<path d="M252.667 1.40897C252.667 9.06829 252.402 16.7819 252.402 24.4095C252.402 29.8063 252.138 35.2431 252.138 40.6729C252.138 43.8727 252.138 47.0725 252.138 50.2724C252.138 53.2753 252.931 56.2268 252.931 59.2113C252.931 64.0819 253.195 69.125 253.195 74.0656C253.195 76.7137 252.931 79.3792 252.931 81.9917C252.931 83.8192 252.595 85.3909 252.916 87.1584C253.45 90.0944 252.931 93.6566 252.931 96.6405C252.931 100.15 253.195 103.692 253.195 107.15C253.195 108.677 253.195 110.203 253.195 111.73C253.195 112.429 253.195 113.129 253.195 113.829C253.195 115.186 253.277 115.912 252.138 114.489" stroke="white" stroke-width="0.25" stroke-linecap="round" stroke-linejoin="round"/>
<path d="M1.93533 0.616333C1.93533 12.3136 2.19954 24.0208 2.19954 35.697C2.19954 41.2845 2.19954 46.8719 2.19954 52.4594C2.19954 56.7239 2.15788 60.8101 1.40692 65.0238C0.831839 68.2507 0.350098 71.6766 0.350098 74.9609C0.350098 77.7198 1.14272 80.4809 1.14272 83.2981C1.14272 85.9118 1.40692 88.6015 1.40692 91.2536C1.40692 93.0052 1.40692 94.7568 1.40692 96.5084C1.40692 97.9212 1.43073 99.9197 1.01061 101.264C0.456109 103.038 0.614303 108.686 0.614303 106.827" stroke="white" stroke-width="0.25" stroke-linecap="round" stroke-linejoin="round"/>
<path d="M1.40692 107.091C3.94487 107.152 6.23475 109.499 7.21945 111.715C8.14874 113.806 11.6498 112.697 13.1641 112.361C14.3505 112.097 15.4195 111.331 16.5988 111.069C17.6867 110.827 18.7742 110.649 19.8426 110.32C21.6698 109.758 23.6392 109.808 25.4496 109.205" stroke="white" stroke-width="0.25" stroke-linecap="round" stroke-linejoin="round"/>
<path d="M1.67114 106.563C7.50601 106.563 12.8425 106.01 18.3161 104.185" stroke="white" stroke-width="0.25" stroke-linecap="round" stroke-linejoin="round"/>
<path d="M35.2253 90.4463C37.0259 90.4463 38.7719 90.3224 40.5094 90.7692C41.4486 91.0107 42.3566 91.3118 43.2835 91.5178C44.3123 91.7464 46.2969 92.7282 47.0558 93.4113C47.4415 93.7584 48.3945 93.6698 48.4356 94.4094C48.4671 94.9777 48.583 95.8878 48.3035 96.3909C47.5438 97.7584 47.3787 99.1226 47.3787 100.75C47.3787 101.435 47.3787 102.12 47.3787 102.805C47.3787 104.084 46.1575 103.846 45.5146 104.596C44.629 105.629 42.4606 105.889 41.2433 106.357C39.6779 106.959 38.503 108.676 36.6784 108.676C34.9415 108.676 33.2046 108.676 31.4677 108.676C28.5903 108.676 24.0537 109.54 21.6921 107.414C20.6723 106.496 19.3485 105.718 18.8445 104.332C18.4138 103.147 17.7641 100.948 18.9032 100.016C20.0409 99.0856 21.845 99.4293 23.2186 99.4293C23.6842 99.4293 24.9403 99.6451 25.3029 99.2825C25.887 98.6984 26.4434 97.94 27.0349 97.3156C29.3139 94.91 32.0133 91.7812 35.2253 90.7105" stroke="white" stroke-width="0.25" stroke-linecap="round" stroke-linejoin="round"/>
<path d="M20.1655 101.807C22.4333 101.807 24.7091 102.039 26.7707 103.069C27.8933 103.631 29.3842 104.475 30.6163 104.699C32.308 105.006 36.2821 104.248 36.2821 106.827" stroke="white" stroke-width="0.25" stroke-linecap="round" stroke-linejoin="round"/>
<path d="M31.2621 100.486C32.8776 100.486 33.7579 100.485 34.5647 99.033C35.0292 98.1968 35.4591 97.4065 35.7536 96.523" stroke="white" stroke-width="0.25" stroke-linecap="round" stroke-linejoin="round"/>
<path d="M0.878528 108.941C0.878528 109.232 0.62048 113.302 1.02531 113.418C1.77595 113.632 2.50612 114.259 3.12428 114.753C4.34828 115.732 5.29316 116.996 6.42685 118.071C6.73594 118.363 10.6541 121.75 10.6541 119.905C10.6541 118.989 10.9183 118.097 10.9183 117.131C10.9183 116.027 10.6541 115.041 10.6541 113.961" stroke="white" stroke-width="0.25" stroke-linecap="round" stroke-linejoin="round"/>
<path d="M11.7109 121.094C13.7658 121.094 15.6626 120.302 17.5235 120.302" stroke="white" stroke-width="0.25" stroke-linecap="round" stroke-linejoin="round"/>
<path d="M88.3306 53.9859C96.1811 53.9859 103.979 54.2501 111.845 54.2501" stroke="white" stroke-width="0.25" stroke-linecap="round" stroke-linejoin="round"/>
<path d="M113.959 53.7217C114.927 53.7217 115.896 53.7217 116.865 53.7217" stroke="white" stroke-width="0.25" stroke-linecap="round" stroke-linejoin="round"/>
<path d="M118.714 53.7217C119.419 53.7217 120.123 53.7217 120.828 53.7217" stroke="white" stroke-width="0.25" stroke-linecap="round" stroke-linejoin="round"/>
<path d="M122.677 53.9859C123.558 53.9859 124.439 53.9859 125.319 53.9859" stroke="white" stroke-width="0.25" stroke-linecap="round" stroke-linejoin="round"/>
<path d="M127.169 53.1933C128.226 53.1933 129.283 53.1933 130.339 53.1933" stroke="white" stroke-width="0.25" stroke-linecap="round" stroke-linejoin="round"/>
<path d="M132.981 53.4575C133.51 53.4575 134.038 53.4575 134.567 53.4575" stroke="white" stroke-width="0.25" stroke-linecap="round" stroke-linejoin="round"/>
<path d="M136.68 53.4575C137.473 53.4575 138.266 53.4575 139.058 53.4575" stroke="white" stroke-width="0.25" stroke-linecap="round" stroke-linejoin="round"/>
<path d="M141.7 53.4575C142.383 53.4575 142.984 53.5702 143.55 53.1933" stroke="white" stroke-width="0.25" stroke-linecap="round" stroke-linejoin="round"/>
<path d="M145.663 53.4575C147.921 53.4575 151.878 52.4034 154.118 53.3988C155.05 53.813 156.356 53.102 157.288 53.5162C158.221 53.9308 159.385 53.6841 160.4 53.7217C164.867 53.8871 169.413 53.9859 173.933 53.9859" stroke="white" stroke-width="0.25" stroke-linecap="round" stroke-linejoin="round"/>
<path d="M112.432 52.619C112.432 53.0027 112.266 54.0249 112.471 54.3943C112.601 54.6279 112.59 55.3452 112.59 55.6173C112.59 55.9658 112.826 56.2674 112.826 56.643C112.826 56.7958 112.789 57.0047 112.831 57.1515C112.869 57.2853 112.984 57.3539 112.984 57.5109" stroke="white" stroke-width="0.25" stroke-linecap="round" stroke-linejoin="round"/>
<path d="M126.713 52.3823C126.713 53.058 126.792 53.7497 126.792 54.3943C126.792 54.7624 126.95 55.0869 126.95 55.4595" stroke="white" stroke-width="0.25" stroke-linecap="round" stroke-linejoin="round"/>
<path d="M130.895 52.5401C130.895 53.1286 130.974 53.7077 130.974 54.2935C130.974 54.4841 130.914 54.7737 131.035 54.9247C131.122 55.0332 131.21 55.6334 131.21 55.7751" stroke="white" stroke-width="0.25" stroke-linecap="round" stroke-linejoin="round"/>
<path d="M145.334 52.1456C145.334 52.7496 145.381 53.3184 145.413 53.8815C145.419 53.9929 145.489 54.2131 145.553 54.2935C145.65 54.4152 145.571 54.8326 145.571 54.9861" stroke="white" stroke-width="0.25" stroke-linecap="round" stroke-linejoin="round"/>
<path d="M20.9244 120.816C19.7434 120.816 18.1838 120.958 17.4965 119.721C17.0308 118.882 16.4871 117.656 16.9488 116.617C17.1288 116.212 17.0972 115.357 17.5472 115.157C18.1118 114.906 18.3342 114.312 18.9164 114.021C19.7794 113.589 22.1604 113.13 23.1151 113.554C24.1906 114.032 25.3669 114.224 26.259 115.116C27.1313 115.989 27.9169 117.086 28.5917 118.118C29.2755 119.164 29.9528 120.248 30.7823 121.181C31.26 121.719 31.8484 124.847 31.1474 125.197" stroke="white" stroke-width="0.25" stroke-linecap="round" stroke-linejoin="round"/>
<path d="M19.464 119.721C18.8485 118.067 19.6635 117.84 20.823 116.891C21.3979 116.421 22.0584 116.252 22.7905 116.252C24.4265 116.252 25.3391 117.4 26.1272 118.625C26.9802 119.952 27.4109 121.578 27.689 123.108C27.7465 123.424 28.3829 125.38 28.2266 125.38" stroke="white" stroke-width="0.25" stroke-linecap="round" stroke-linejoin="round"/>
<path d="M20.9244 120.086C22.3641 120.964 23.4716 121.626 24.4741 122.915C24.949 123.526 24.6992 125.442 25.3057 125.745" stroke="white" stroke-width="0.25" stroke-linecap="round" stroke-linejoin="round"/>
<path d="M17.4559 114.792C19.5121 113.323 21.9932 112.961 24.1191 111.78C24.7774 111.414 26.1112 111.134 26.8574 110.968C27.9506 110.725 29.0933 110.102 30.2346 110.045C31.3468 109.99 32.4403 109.538 33.5612 109.498C34.9966 109.446 36.3826 109.514 37.8004 109.325C40.1415 109.013 42.4346 108.95 44.8287 108.95C45.918 108.95 46.9633 108.93 48.0234 109.122C48.9038 109.283 49.7714 109.498 50.6806 109.498C51.504 109.498 52.1767 110.187 52.8712 110.228C53.5747 110.269 54.7787 110.65 55.2444 111.232C56.2363 112.472 57.0211 113.992 56.4817 115.745C56.0243 117.232 54.5676 119.356 52.8712 119.356" stroke="white" stroke-width="0.25" stroke-linecap="round" stroke-linejoin="round"/>
<path d="M53.6014 119.538C54.1788 120.897 55.3543 121.779 56.2383 122.915C56.4271 123.158 56.8873 123.717 56.8873 124.011C56.8873 124.372 56.742 125.307 56.8873 125.38" stroke="white" stroke-width="0.25" stroke-linecap="round" stroke-linejoin="round"/>
<path d="M54.8792 126.11C57.6535 126.058 60.3381 125.745 63.0941 125.745C65.4814 125.745 67.8509 125.927 70.2137 125.927C71.1709 125.927 72.0449 126.399 72.952 126.658C74.0414 126.969 74.3336 127.627 75.0006 128.443C75.442 128.982 75.8761 130.275 76.0655 130.938C76.2533 131.595 76.7798 132.221 76.096 132.905C75.3942 133.607 74.2435 133.595 73.3171 133.595C72.7115 133.595 72.0964 133.628 71.4916 133.595C71.0692 133.571 70.6361 133.253 70.2137 133.23C68.0954 133.112 66.1518 131.668 64.0475 131.587C62.3335 131.521 60.6466 131.222 58.8954 131.222C57.8787 131.222 56.8495 131.039 55.8833 131.039C55.4054 131.039 53.8031 130.818 53.6014 131.222" stroke="white" stroke-width="0.25" stroke-linecap="round" stroke-linejoin="round"/>
<path d="M50.6805 113.696C50.2157 114.074 49.493 115.146 50.0923 115.745C50.3845 116.037 50.7639 116.418 51.2282 116.212C51.8055 115.955 52.1409 115.394 52.1409 114.792C52.1409 114.083 51.8341 114.081 51.2282 113.879" stroke="white" stroke-width="0.25" stroke-linecap="round" stroke-linejoin="round"/>
<path d="M43.9261 113.696C42.1142 113.431 42.1943 115.942 43.4798 116.526C45.0668 117.247 45.8626 114.062 44.4737 114.062" stroke="white" stroke-width="0.25" stroke-linecap="round" stroke-linejoin="round"/>
<path d="M35.3461 114.427C33.6406 115.759 35.6697 118.346 36.9891 117.165C37.5492 116.664 37.6939 116.001 37.5266 115.248C37.3809 114.592 36.3763 114.792 35.8938 114.792" stroke="white" stroke-width="0.25" stroke-linecap="round" stroke-linejoin="round"/>
<path d="M28.2266 116.252C29.1259 116.252 29.8957 116.116 30.4983 116.891C30.6895 117.137 30.932 117.908 30.6707 118.169C29.6556 119.184 28.8632 118.256 28.4091 117.348" stroke="white" stroke-width="0.25" stroke-linecap="round" stroke-linejoin="round"/>
<path d="M33.1555 121.729C35.0609 121.729 36.0763 122.212 36.0763 124.102" stroke="white" stroke-width="0.25" stroke-linecap="round" stroke-linejoin="round"/>
<path d="M39.5448 120.086C40.6297 120.973 40.4576 122.111 40.4576 123.372" stroke="white" stroke-width="0.25" stroke-linecap="round" stroke-linejoin="round"/>
<path d="M47.3946 119.903C48.7006 119.934 49.3082 120.478 49.7272 121.688C49.8723 122.107 49.542 122.985 49.9503 123.189" stroke="white" stroke-width="0.25" stroke-linecap="round" stroke-linejoin="round"/>
<path d="M23.8453 112.053C25.2149 112.053 27.5203 112.491 28.044 114.062" stroke="white" stroke-width="0.25" stroke-linecap="round" stroke-linejoin="round"/>
<path d="M31.5125 110.228C32.5217 110.228 33.0916 110.267 33.5206 111.232C33.744 111.735 33.8857 112.043 33.8857 112.601" stroke="white" stroke-width="0.25" stroke-linecap="round" stroke-linejoin="round"/>
<path d="M48.3074 109.68C47.5028 110.775 47.3946 111.317 47.3946 112.601" stroke="white" stroke-width="0.25" stroke-linecap="round" stroke-linejoin="round"/>
<path d="M38.9971 109.498C39.1725 110.472 39.3622 111.26 39.3622 112.236" stroke="white" stroke-width="0.25" stroke-linecap="round" stroke-linejoin="round"/>
<path d="M36.4414 142.905C38.5412 142.011 40.5129 141.019 42.6583 140.268C43.952 139.815 45.361 139.671 46.7049 139.396C49.5101 138.822 52.6037 138.904 55.4269 139.345C58.3782 139.806 61.2716 140.147 64.1894 140.856C66.5315 141.426 69.2866 141.627 71.6944 141.627C73.3078 141.627 75.474 141.556 76.7856 142.722C77.8049 143.628 77.8916 145.016 79.1689 145.734C80.0265 146.217 81.0201 146.5 81.8971 146.962C82.3925 147.222 83.4784 147.715 83.7632 148.199C84.4687 149.398 85.4718 150.653 84.8179 152.124C84.4267 153.004 83.2907 153.086 82.6273 153.676C81.9427 154.284 80.7147 154.669 79.8789 155.045C77.614 156.064 74.97 156.059 72.7289 156.921C70.8692 157.636 69.4962 159.205 67.7492 160.146C65.7918 161.2 63.3882 161.708 61.1875 161.708C59.4727 161.708 57.7763 161.76 56.076 161.525C54.6916 161.334 53.2629 160.978 51.8671 160.978C49.6779 160.978 47.394 161.421 45.5285 162.621C43.2222 164.103 34.6125 163.533 37.3542 163.533" stroke="white" stroke-width="0.25" stroke-linecap="round" stroke-linejoin="round"/>
<path d="M258.078 140.12C258.078 138.448 258.299 136.116 259.298 134.672C260.316 133.202 261.082 131.469 262.596 130.363C263.169 129.944 263.293 129.261 263.851 128.827C264.291 128.485 264.681 128.141 264.981 127.671C265.848 126.308 265.616 124.215 265.559 122.684C265.452 119.8 261.958 117.678 259.379 117.678C257.936 117.678 256.541 118.166 255.151 118.166C254.624 118.166 254.27 118.329 253.769 118.329C253.238 118.329 253.027 117.91 252.621 117.678C250.433 116.428 248.532 115.239 245.891 115.239C243.993 115.239 242.086 115.293 240.19 115.239C239.509 115.22 238.763 114.818 238.112 114.625C237.406 114.416 236.737 114.426 235.998 114.426C235.186 114.426 234.492 114.643 233.757 114.986C232.76 115.451 231.366 115.225 230.432 115.808C230.008 116.073 228.992 115.889 228.481 115.889C227.961 115.889 227.537 116.052 227.017 116.052C224.506 116.052 222.039 115.889 219.536 115.889C216.948 115.889 214.577 115.618 212.462 117.263C211.664 117.884 210.518 118.684 210.43 119.829C210.287 121.683 209.71 123.556 209.463 125.412C209.244 127.054 208.966 128.837 208.966 130.489C208.966 131.866 208.315 133.171 208.315 134.501C208.315 134.86 208.51 135.95 208.279 136.181C208.079 136.382 206.999 136.217 206.689 136.217C204.691 136.217 202.75 136.83 200.799 137.229C199.876 137.418 198.835 137.681 197.898 137.681C197.234 137.681 196.335 137.646 195.721 137.925C195.331 138.102 194.592 138.144 194.167 138.169C193.755 138.193 193.255 138.652 192.83 138.783C192.229 138.968 191.212 138.887 190.599 138.81C189.698 138.698 188.834 138.657 187.906 138.657C186.969 138.657 185.919 138.855 185.051 139.235C184.056 139.671 182.933 139.65 182.061 140.364C180.78 141.412 180.122 144.153 180.633 145.686C181.156 147.254 182.264 147.961 183.759 148.496C184.445 148.74 184.888 148.629 185.349 149.263C185.702 149.748 185.548 150.772 185.548 151.341C185.548 152.48 185.548 153.618 185.548 154.757" stroke="white" stroke-width="0.25" stroke-linecap="round" stroke-linejoin="round"/>
<path d="M261.331 126.135C261.903 125.301 262.197 124.212 261.24 123.777C259.964 123.197 258.031 124.194 257.509 125.412C257.206 126.119 256.783 127.279 257.428 127.924C257.899 128.395 258.775 128.249 259.379 128.249" stroke="white" stroke-width="0.25" stroke-linecap="round" stroke-linejoin="round"/>
<path d="M184.735 145.812C183.739 145.812 183.434 145.297 183.434 144.349C183.434 143.765 183.925 142.824 184.572 142.731C185.047 142.664 185.951 142.573 186.28 142.975C186.902 143.735 187.146 145.176 187.174 146.137C187.216 147.555 187.6 149.044 187.816 150.447C187.965 151.419 187.815 153.618 189.288 153.618" stroke="white" stroke-width="0.25" stroke-linecap="round" stroke-linejoin="round"/>
<path d="M206.364 136.38C208.413 136.38 208.929 136.887 209.707 138.666C210.367 140.175 210.43 142.054 210.43 143.689C210.43 146.184 210.755 148.676 210.755 151.179" stroke="white" stroke-width="0.25" stroke-linecap="round" stroke-linejoin="round"/>
<path d="M226.204 165.002C226.459 163.496 227.068 161.913 227.577 160.457C227.875 159.608 228.034 158.68 228.282 157.81C228.504 157.034 228.481 155.742 228.481 154.928C228.481 153.969 228.643 152.982 228.643 152.001C228.643 150.067 228.472 147.569 230.306 146.3C231.314 145.602 232.207 145.529 233.35 145.243C234.659 144.916 236.016 144.556 237.244 143.942C238.918 143.105 240.794 143.53 242.475 142.795C244.667 141.836 247.318 142.105 249.586 141.458C251.19 140.999 252.953 140.817 254.582 140.455C255.612 140.226 256.861 139.958 257.916 139.958" stroke="white" stroke-width="0.25" stroke-linecap="round" stroke-linejoin="round"/>
<path d="M248.483 154.431C247.248 154.46 245.962 154.991 244.779 155.371C243.752 155.701 242.699 155.774 241.653 156.021C240.863 156.209 239.89 156.353 239.087 156.383C238.759 156.395 237.714 156.401 237.552 156.708C236.873 157.99 237.254 159.898 236.648 161.261C236.172 162.333 235.799 165.85 235.799 164.677" stroke="white" stroke-width="0.25" stroke-linecap="round" stroke-linejoin="round"/>
<path d="M233.522 150.691C233.845 152.126 234.986 151.509 234.986 150.366C234.986 149.364 233.158 149.077 232.456 149.652C231.851 150.147 231.532 150.601 231.327 151.341C231.231 151.686 231.025 153.088 231.417 153.284C232.677 153.914 233.35 154.1 234.697 153.582C235.923 153.11 236.449 151.337 236.449 150.167C236.449 149.014 235.628 148.067 234.579 147.601C233 146.899 231.285 147.684 230.595 149.065" stroke="white" stroke-width="0.25" stroke-linecap="round" stroke-linejoin="round"/>
<path d="M193.679 138.819C195.86 138.819 197.401 139.399 198.197 141.548C198.464 142.27 198.716 143 199.01 143.698C199.226 144.211 199.07 144.873 199.371 145.324" stroke="white" stroke-width="0.25" stroke-linecap="round" stroke-linejoin="round"/>
</svg>
