<svg width="170" height="117" viewBox="0 0 170 117" fill="none" xmlns="http://www.w3.org/2000/svg">
<path d="M20.2316 4.51038C17.006 4.51038 13.6192 3.92162 10.9597 5.99013C8.45232 7.94032 7.30004 11.1786 8.05638 14.288C9.40665 19.8391 16.5912 19.8511 21.0932 19.8511C23.5597 19.8511 25.7609 18.5438 27.6491 17.0602C29.4733 15.6269 29.9119 13.3275 29.6627 11.085C29.4325 9.01361 26.7603 6.99753 25.1204 5.94331C23.7859 5.08539 22.335 4.3418 20.7373 4.3418" stroke="white" stroke-width="0.25" stroke-linecap="round" stroke-linejoin="round"/>
<path d="M18.0401 0.295837C13.4892 0.295837 8.80349 1.60026 5.05944 4.30429C1.85133 6.62126 1.31329 11.3804 1.85643 15.0466C2.15633 17.0709 3.8163 19.3693 5.32168 20.694C7.20773 22.3537 9.42851 23.2759 11.8401 23.897C13.4932 24.3228 15.3331 24.2342 17.0286 24.2342C18.1962 24.2342 19.4898 24.3855 20.6437 24.1967C22.5914 23.878 24.6344 23.3956 26.4597 22.6233C28.2412 21.8696 30.5024 20.7291 31.9386 19.4297C32.5999 18.8313 33.1113 18.1323 33.718 17.491C34.2481 16.9306 35.0989 15.9604 35.3102 15.2058C36.3011 11.6668 34.3459 8.36803 32.3694 5.55928C29.1392 0.969044 23.6783 0.295837 18.5458 0.295837" stroke="white" stroke-width="0.25" stroke-linecap="round" stroke-linejoin="round"/>
<path d="M1.18207 15.2995C1.18207 17.6824 0.819165 20.4354 1.65035 22.6796C2.04792 23.753 3.15539 24.47 4.04793 25.1146C4.6879 25.5768 5.3516 25.9881 6.03343 26.3883C6.67037 26.7622 7.3797 27.37 8.09385 27.5684C9.5741 27.9796 10.9421 28.782 12.4395 29.2167C13.6722 29.5746 15.0388 29.7974 16.3168 29.7974C17.9673 29.7974 19.6318 29.8584 21.2805 29.7974C23.52 29.7144 25.2719 28.3365 27.2745 27.6433C28.1543 27.3387 29.2349 26.6632 29.8032 25.92C30.3738 25.1739 30.8112 24.2003 31.4515 23.5599C32.5997 22.4117 33.9128 21.4171 35.0666 20.2632C36.2361 19.0938 35.5724 17.4825 35.5724 15.9738" stroke="white" stroke-width="0.25" stroke-linecap="round" stroke-linejoin="round"/>
<path d="M29.3349 26.0886C31.565 30.6381 35.4948 33.6229 39.6183 36.3719C41.3847 37.5495 43.2008 38.785 44.8817 40.0807C46.5914 41.3985 48.614 42.2567 50.4074 43.4523C51.4244 44.1303 52.4781 44.7385 53.4793 45.4378C54.3124 46.0197 55.002 46.6817 55.8019 47.2922C57.5184 48.6021 59.4346 49.3971 61.3651 50.3266C62.4292 50.839 63.3695 51.4238 64.437 51.8813C65.6446 52.3989 66.5735 53.3345 67.64 54.0728C68.6491 54.7715 69.7093 55.3791 70.8056 55.9272C72.2138 56.6313 73.427 57.512 74.7953 58.2873C77.4148 59.7717 80.1755 61.049 82.8122 62.5393C85.4211 64.0139 88.0422 65.3884 90.698 66.7163C92.0889 67.4118 93.6135 68.2501 95.0811 68.7393" stroke="white" stroke-width="0.25" stroke-linecap="round" stroke-linejoin="round"/>
<path d="M35.741 19.1768C38.7755 19.8665 41.2445 22.2658 44.0014 23.6442C45.6458 24.4664 47.2427 25.3349 49.0588 25.7889C52.6355 26.6831 55.9436 28.1156 59.3796 29.4602C61.0086 30.0976 62.6201 30.7818 64.231 31.4082C65.8273 32.029 67.0806 33.3289 68.6515 34.0118C71.5256 35.2615 74.6341 36.8289 76.8745 39.0692C77.7458 39.9406 79.3014 40.6199 80.4146 41.1765C81.6336 41.786 83.4189 42.5573 84.4231 43.4898C85.5984 44.5812 87.3052 45.2188 88.6751 46.0559C90.0898 46.9205 91.593 47.7341 93.0581 48.5097C94.294 49.164 95.4231 50.0301 96.5983 50.7855C97.5192 51.3776 98.1836 52.4998 99.127 53.0239C99.9202 53.4646 100.63 54.4037 101.403 54.7472C101.93 54.9817 103.099 56.1166 103.341 56.6016" stroke="white" stroke-width="0.25" stroke-linecap="round" stroke-linejoin="round"/>
<path d="M73.1656 95.8807C76.7539 95.2725 78.8067 93.186 80.4146 90.149C81.1848 88.6941 82.1515 87.0654 83.4397 86.0188C84.6261 85.0548 85.3681 83.3718 86.3149 82.1882C86.8094 81.57 87.3891 81.0334 87.8696 80.4088C88.0812 80.1337 88.0645 79.6865 88.1693 79.3598C88.3784 78.7078 88.7254 78.1122 89.0871 77.5336C90.0253 76.0324 90.9351 74.5454 91.7094 72.9538C92.2868 71.7671 92.9592 70.6689 93.8073 69.6665C94.6164 68.7104 95.6689 67.8081 96.336 66.7164C98.1245 63.7898 100.253 61.1253 102.414 58.4653C102.815 57.9721 103.308 57.4783 103.763 57.023C104.41 56.3762 104.806 55.5075 105.364 54.7846C106.512 53.2993 108.003 51.9806 108.98 50.3828C109.851 48.9574 110.827 48.0064 112.033 46.8239C112.751 46.1197 113.555 45.4407 114.337 44.801C114.987 44.269 116.281 43.3017 116.472 42.4408C116.772 41.0896 117.564 39.7721 118.345 38.601C119.04 37.5586 119.65 36.4619 120.537 35.5291C121.962 34.0287 124.167 32.3678 124.714 30.3031C124.914 29.5459 124.848 28.7317 125.173 28.0179C125.451 27.4059 125.594 26.8049 126.025 26.2572C126.559 25.5778 127.291 25.0722 127.823 24.4028C128.548 23.4897 129.567 22.8126 130.146 21.7992C130.424 21.3114 132.57 23.4674 132.88 23.7659C134.693 25.5084 137.134 25.9895 139.258 27.1844C139.887 27.5378 141.248 27.5466 140.598 28.5798C139.888 29.7071 138.803 30.5267 137.994 31.5674C137.402 32.3286 136.478 32.9989 136.008 33.8433C135.653 34.484 135.318 35.1202 134.95 35.7819C134.597 36.4177 133.622 35.2315 133.18 34.9859C132.18 34.4303 131.055 33.9753 129.977 33.5904C128.412 33.0314 126.042 32.0412 125.257 30.4717" stroke="white" stroke-width="0.25" stroke-linecap="round" stroke-linejoin="round"/>
<path d="M72.3227 95.8807C71.2399 97.5213 70.0926 99.125 69.0354 100.769C68.469 101.651 67.7152 102.372 67.2279 103.298C66.8091 104.094 64.3697 106.378 65.5046 107.101C66.7502 107.893 68.0367 108.5 69.2508 109.367C70.4182 110.201 71.4688 111.177 72.6505 111.989C73.6088 112.648 74.2906 113.539 75.3572 114.087C75.8768 114.355 77.2628 115.407 77.8859 115.061C78.3103 114.826 78.8338 113.842 79.0659 113.413C79.4887 112.631 79.9535 111.895 80.4146 111.137C81.1501 109.929 81.9982 108.57 82.9807 107.55C83.2736 107.246 86.2595 104.026 85.2191 103.795C84.7583 103.692 84.2152 103.26 83.7862 103.045C83.1507 102.728 82.4872 102.576 81.8569 102.287C80.4612 101.645 79.1124 101.042 77.7829 100.254C76.3641 99.4136 75.0358 98.3587 73.84 97.2293C73.4976 96.906 73.0772 96.4265 72.6599 96.2178" stroke="white" stroke-width="0.25" stroke-linecap="round" stroke-linejoin="round"/>
<path d="M83.4491 102.961C83.4491 99.5892 84.1376 96.2928 85.9684 93.455C87.2011 91.5443 88.6097 89.1002 90.3234 87.6202C92.4006 85.8263 94.0145 83.5336 96.3361 82.0477C97.2839 81.4412 98.1636 80.4918 98.9584 79.697C99.7295 78.9259 100.545 78.2872 101.412 77.6366C103.044 76.4129 104.644 75.3089 106.451 74.3118C107.156 73.9227 108.204 73.1376 108.989 72.9632C109.855 72.7707 110.728 72.7353 111.602 72.4855C112.593 72.2025 113.815 72.1052 114.73 71.6894C115.825 71.1916 117.22 70.7622 118.439 70.7622C118.941 70.7622 119.444 70.7622 119.947 70.7622C120.508 70.7622 119.915 68.9393 119.825 68.5707C119.503 67.2473 119.188 65.8919 119.188 64.5342C119.188 62.3662 118.851 60.2398 118.851 58.0813C118.851 55.8016 118.496 53.507 119.778 51.5348C120.953 49.7271 122.424 47.9522 123.196 45.9435C123.871 44.1907 125.458 42.5767 126.774 41.2608C128.006 40.0286 129.052 38.5674 130.651 37.7206C131.603 37.2166 132.747 36.1303 133.517 35.3605" stroke="white" stroke-width="0.25" stroke-linecap="round" stroke-linejoin="round"/>
<path d="M102.33 78.5169C106.723 79.1536 110.639 82.0627 114.477 84.1737C115.618 84.8015 116.78 85.3421 117.839 86.1124C119.332 87.1979 121.126 87.8646 122.56 89.0063C124.104 90.2363 125.953 91.177 127.654 92.1719C129.054 92.9904 130.538 93.6934 131.916 94.532C134.476 96.0904 136.947 97.9111 139.418 99.5894C140.424 100.273 141.525 100.845 142.583 101.444C143.659 102.052 144.527 102.886 145.524 103.598C146.247 104.114 147.083 104.435 147.809 104.946C148.504 105.436 149.134 105.982 149.869 106.417C151.275 107.248 152.703 107.937 154.15 108.683C155.709 109.488 157.493 109.935 158.973 110.884C161.157 112.285 163.657 113.378 165.969 114.584C166.76 114.996 168.486 115.582 168.919 116.447" stroke="white" stroke-width="0.25" stroke-linecap="round" stroke-linejoin="round"/>
<path d="M119.357 58.1188C121.964 58.1809 123.512 59.6655 125.631 61.0783C127.007 61.9951 128.529 62.6301 129.883 63.5883C132.988 65.7844 136.25 67.9159 139.586 69.7508C142.144 71.1575 144.913 72.1694 147.425 73.6281C149.051 74.5723 150.602 75.7333 152.23 76.5689C153.964 77.4593 155.246 79.1111 156.912 80.1278C158.37 81.0171 159.695 82.2328 161.089 83.2372C162.535 84.2782 164.002 85.2647 165.463 86.281C166.215 86.8037 167.943 87.3904 168.245 88.2946" stroke="white" stroke-width="0.25" stroke-linecap="round" stroke-linejoin="round"/>
<path d="M5.68966 13.1671C4.9791 13.1671 4.45955 13.7755 4.69879 14.4932C4.89245 15.0742 5.57848 15.3127 6.12549 15.3127C6.42045 15.3127 6.66368 14.857 6.81463 14.6422C7.02254 14.3463 7.09773 13.9883 7.09773 13.6365C7.09773 13.372 7.16874 13.0522 6.97853 12.8467C6.70493 12.5512 6.39007 12.1508 6.17392 11.8112C5.82316 11.26 5.41595 10.666 5.116 10.0827C4.78036 9.43011 4.96543 9.13088 5.15325 8.47351C5.46552 7.38058 6.67163 7.67683 7.50004 7.4007" stroke="white" stroke-width="0.25" stroke-linecap="round" stroke-linejoin="round"/>
<path d="M7.50002 5.92558C7.04412 5.92558 6.75436 5.92162 6.46445 6.29436C6.3987 6.37889 6.39384 6.70073 6.4421 6.79724C6.63762 7.18828 7.28094 7.51146 7.70117 7.53481C8.21233 7.5632 8.60795 7.31724 8.89319 6.87919C9.28919 6.27105 9.80351 5.5991 9.91013 4.85276C9.99235 4.27727 9.95615 3.63781 10.5173 3.27706C10.983 2.97769 11.4455 2.57108 11.9962 2.50225C12.2914 2.46534 13.3022 2.24891 13.5346 2.5395C13.691 2.73497 14.122 2.93378 14.3392 3.04238" stroke="white" stroke-width="0.25" stroke-linecap="round" stroke-linejoin="round"/>
<path d="M16.0156 2.37184C15.8807 1.83245 14.2964 1.30094 14.0562 2.02168C13.7962 2.80151 14.5464 3.44466 15.2929 3.44466C15.6952 3.44466 16.0975 3.44466 16.4998 3.44466C16.9383 3.44466 17.3453 3.3423 17.7738 3.31056C18.3639 3.26684 19.0371 2.66564 19.4352 2.26754C19.7004 2.00225 20.1222 1.70133 20.508 1.70133C21.0995 1.70133 21.7911 1.60843 22.3705 1.71623C23.1057 1.853 23.4031 2.42542 23.8605 2.90825C24.1737 3.23883 24.47 3.62331 24.7322 3.99597C24.8578 4.17442 25.1123 4.58453 25.3357 4.58453" stroke="white" stroke-width="0.25" stroke-linecap="round" stroke-linejoin="round"/>
<path d="M26.3414 3.71286C27.1781 3.67204 26.6602 3.05567 26.2744 2.80767C25.9926 2.62656 25.3038 2.33116 25.0824 2.77414C24.7744 3.39013 25.1416 3.72386 25.4362 4.18222C25.7933 4.73761 26.6448 4.71495 27.2131 4.83783C28.3392 5.08131 29.5493 4.75591 30.4315 5.68714C30.5892 5.85361 30.7369 6.03885 30.8674 6.22728C31.0345 6.46869 31.0719 6.72952 31.2026 6.96484C31.2781 7.10076 31.2362 7.31637 31.2362 7.46772C31.2362 7.5575 31.2569 7.87003 31.2362 7.87003" stroke="white" stroke-width="0.25" stroke-linecap="round" stroke-linejoin="round"/>
<path d="M32.4431 10.2839C32.9863 9.87237 32.7191 9.53255 32.309 9.14405C32.0648 8.91271 31.8622 8.571 31.5342 8.47726C31.3875 8.43535 31.1474 8.71547 31.1021 8.82369C30.9727 9.13261 30.968 9.48618 30.968 9.81456C30.968 10.5015 30.8662 11.1848 31.2362 11.7926C31.5307 12.2764 32.0144 12.7856 32.5139 13.0665C32.8625 13.2626 33.308 13.605 33.501 13.9717C33.6215 14.2006 33.8316 14.5434 33.6835 14.8099C33.6602 14.8518 33.4488 15.4475 33.4488 15.1786" stroke="white" stroke-width="0.25" stroke-linecap="round" stroke-linejoin="round"/>
<path d="M31.3032 17.6595C31.9365 17.6595 32.2296 17.4159 32.5101 16.8549C32.6779 16.5192 32.7113 16.2845 32.7113 15.9162C32.7113 15.149 31.8372 15.1947 31.3032 15.4468C30.7067 15.7285 30.2013 16.0957 29.8951 16.691C29.5047 17.4502 29.4483 18.1858 29.2767 19.0006C29.1926 19.4004 29.1887 20.0795 28.8744 20.3937C28.5898 20.6784 27.9561 21.0791 27.5483 21.0791C26.6543 21.0791 25.7603 21.0791 24.8663 21.0791" stroke="white" stroke-width="0.25" stroke-linecap="round" stroke-linejoin="round"/>
<path d="M21.6478 22.4872C22.3398 22.4872 23.0979 22.5699 23.7897 22.4835C24.3615 22.412 24.4808 21.5301 24.1287 21.2132C23.6983 20.8259 22.7245 20.7614 22.1842 20.9115C21.487 21.1052 20.8978 21.2418 20.3329 21.7198C19.8142 22.1587 19.2146 22.5171 18.6976 22.9565C18.2735 23.317 17.6867 23.3589 17.1591 23.3589C16.5452 23.3589 15.9763 23.2315 15.3972 23.0385C15.1253 22.9479 14.8769 22.7567 14.6745 22.5542C14.5187 22.3985 14.3949 22.1127 14.2051 22.0178" stroke="white" stroke-width="0.25" stroke-linecap="round" stroke-linejoin="round"/>
<path d="M18.3623 22.1519C18.3445 21.2783 17.3895 21.0928 16.6488 21.0791C16.0359 21.0678 15.2549 20.9577 14.6745 21.1834C13.7853 21.5292 13.0111 21.8167 12.0446 21.8167C11.7051 21.8167 11.1952 21.7436 11.0016 21.4144C10.8331 21.128 10.8489 20.8026 10.7185 20.5092C10.5015 20.0209 9.36576 20.0121 8.97516 20.2074" stroke="white" stroke-width="0.25" stroke-linecap="round" stroke-linejoin="round"/>
<path d="M5.8908 15.2457C5.8908 16.1549 5.79545 16.9522 6.33036 17.7303C6.68335 18.2437 7.60211 18.5312 8.20407 18.5312C8.84916 18.5312 8.84105 17.6198 8.84105 17.1231C8.84105 16.6662 7.6774 15.9205 7.50003 16.4526" stroke="white" stroke-width="0.25" stroke-linecap="round" stroke-linejoin="round"/>
<path d="M33.747 24.1107C33.747 25.4683 33.5728 26.6358 34.2965 27.82C34.7074 28.4924 35.3842 29.4629 36.0652 29.8635C36.239 29.9657 36.5204 30.2934 36.6835 30.4474C37.0391 30.7833 37.4201 30.9068 37.8426 31.1343C38.3771 31.4221 39.0488 31.648 39.62 31.8384" stroke="white" stroke-width="0.25" stroke-linecap="round" stroke-linejoin="round"/>
<path d="M40.2382 25.6562C40.2382 27.8567 40.1736 29.6712 41.011 31.7182C41.5057 32.9276 42.3929 34.3967 43.4924 35.1527C44.0557 35.5399 44.5216 36.0232 45.0379 36.4749C45.4921 36.8723 46.1914 37.0645 46.7294 37.3336C47.4381 37.6879 48.1636 38.2409 48.8932 38.4841" stroke="white" stroke-width="0.25" stroke-linecap="round" stroke-linejoin="round"/>
<path d="M49.5114 30.7565C49.5114 32.7943 49.5114 34.8321 49.5114 36.8699C49.5114 37.9531 49.6126 38.9779 50.0952 39.9609C50.9763 41.7557 52.1207 43.0994 53.8045 44.2026C54.9538 44.9556 56.9295 45.3887 58.2865 45.439C58.6908 45.454 60.2414 45.5379 59.8664 44.9753" stroke="white" stroke-width="0.25" stroke-linecap="round" stroke-linejoin="round"/>
<path d="M59.5573 36.3204C59.5573 39.2054 59.5573 42.0903 59.5573 44.9753C59.5573 46.9057 61.3618 48.3991 62.8029 49.423C64.345 50.5188 66.0382 51.6703 67.9031 52.0848C68.3301 52.1797 70.2628 52.7747 70.5305 52.2393" stroke="white" stroke-width="0.25" stroke-linecap="round" stroke-linejoin="round"/>
<path d="M69.6032 42.5025C69.6032 44.9856 69.1187 48.0569 70.2214 50.3847C71.0098 52.0492 71.8849 54.1047 73.6215 55.0213C74.3749 55.4189 75.0114 55.8812 75.7853 56.2577C76.5884 56.6484 77.3989 56.8781 78.2238 57.185C79.0203 57.4814 81.5809 57.6487 80.731 57.6487" stroke="white" stroke-width="0.25" stroke-linecap="round" stroke-linejoin="round"/>
<path d="M80.4219 48.8392C80.4219 51.8021 79.8162 55.155 81.8043 57.6401C82.9335 59.0516 84.0666 60.3268 85.754 61.1261C87.0211 61.7263 88.1167 62.147 89.5062 62.4055C89.9216 62.4828 91.9291 62.7349 91.8588 62.5944" stroke="white" stroke-width="0.25" stroke-linecap="round" stroke-linejoin="round"/>
<path d="M91.2405 54.8667C91.2405 56.7058 91.0375 58.8117 92.2365 60.3533C92.617 60.8425 92.9615 61.3542 93.4043 61.8216C93.7042 62.1381 94.308 62.7018 94.4861 63.058" stroke="white" stroke-width="0.25" stroke-linecap="round" stroke-linejoin="round"/>
<path d="M35.7561 21.947C35.7561 23.4725 35.4368 25.2422 36.9239 26.1886C37.62 26.6316 38.6767 26.429 39.4654 26.429" stroke="white" stroke-width="0.25" stroke-linecap="round" stroke-linejoin="round"/>
<path d="M45.493 25.1926C45.493 27.0615 45.1777 29.0901 46.2658 30.7221C46.5228 31.1077 48.5489 32.5268 48.7386 32.1474" stroke="white" stroke-width="0.25" stroke-linecap="round" stroke-linejoin="round"/>
<path d="M54.7661 29.0564C54.7661 31.4281 54.6526 33.8377 56.2343 35.7709C56.488 36.0809 58.939 37.3354 58.939 37.2477" stroke="white" stroke-width="0.25" stroke-linecap="round" stroke-linejoin="round"/>
<path d="M66.3576 35.5476C66.3576 37.4554 66.3119 39.3791 66.6324 41.2661C66.7248 41.8102 66.8464 42.6874 67.1304 43.155C67.512 43.7836 68.4724 44.8208 69.2941 44.8208" stroke="white" stroke-width="0.25" stroke-linecap="round" stroke-linejoin="round"/>
<path d="M75.9398 42.1934C75.9398 44.4519 75.9009 46.4119 77.2964 48.2209C77.9312 49.0438 79.1513 50.2301 80.2673 50.2301" stroke="white" stroke-width="0.25" stroke-linecap="round" stroke-linejoin="round"/>
<path d="M86.7585 48.3755C86.7585 50.6805 86.9251 53.3833 87.7631 55.5622C88.1864 56.6626 89.4811 56.5668 90.4678 56.5668" stroke="white" stroke-width="0.25" stroke-linecap="round" stroke-linejoin="round"/>
<path d="M96.8045 54.5576C96.8045 56.1445 96.734 57.9962 97.9207 59.2285C98.1075 59.4225 99.0602 60.4013 99.2774 59.967" stroke="white" stroke-width="0.25" stroke-linecap="round" stroke-linejoin="round"/>
<path d="M92.7861 64.2944C94.2894 64.2944 96.2613 63.9426 97.1823 62.6029C97.5352 62.0896 97.9562 61.5474 98.35 61.066C98.7916 60.5263 99.0148 59.9021 99.4319 59.3659C99.9822 58.6584 100.514 57.5175 100.514 56.6011C100.514 56.253 100.665 55.3285 100.359 55.1758" stroke="white" stroke-width="0.25" stroke-linecap="round" stroke-linejoin="round"/>
<path d="M37.3016 25.8108C39.4132 25.1069 41.872 24.4198 44.102 24.4198" stroke="white" stroke-width="0.25" stroke-linecap="round" stroke-linejoin="round"/>
<path d="M45.8021 29.52C48.1836 29.52 50.5305 29.3655 52.9116 29.3655C53.3904 29.3655 55.9445 29.6363 56.1572 29.2109" stroke="white" stroke-width="0.25" stroke-linecap="round" stroke-linejoin="round"/>
<path d="M58.4753 36.9386C60.3357 35.5109 63.048 35.3931 65.3444 35.3931C66.4006 35.3931 66.9787 35.5486 67.9031 35.8567" stroke="white" stroke-width="0.25" stroke-linecap="round" stroke-linejoin="round"/>
<path d="M66.8213 42.3479C68.5144 41.3859 70.4769 41.0027 72.3938 40.811C73.1767 40.7327 74.2348 40.6866 74.9782 40.9569C75.5751 41.174 76.1088 41.3204 76.644 41.661C76.8503 41.7923 77.7751 42.4636 77.64 42.1934" stroke="white" stroke-width="0.25" stroke-linecap="round" stroke-linejoin="round"/>
<path d="M77.0217 49.3028C79.2512 47.1252 82.4914 46.0513 85.5994 46.5294C86.2993 46.6371 86.9136 47.0903 87.4455 47.5254C87.6941 47.7288 88.6251 48.6876 87.995 48.53" stroke="white" stroke-width="0.25" stroke-linecap="round" stroke-linejoin="round"/>
<path d="M87.5314 56.1031C89.4604 53.9169 92.2536 52.9972 95.1388 53.5101C96.2173 53.7018 97.3597 53.9213 98.3501 54.4031C99.063 54.7499 99.5817 55.4825 100.205 55.794" stroke="white" stroke-width="0.25" stroke-linecap="round" stroke-linejoin="round"/>
<path d="M56.6207 29.6746C58.4367 29.6746 59.7503 29.6262 61.4033 30.3701C62.3314 30.7877 63.1295 31.2976 64.0393 31.7525C64.9616 32.2136 65.4951 32.6366 66.203 33.3839C66.6074 33.8107 66.7837 34.8334 67.2849 35.0839" stroke="white" stroke-width="0.25" stroke-linecap="round" stroke-linejoin="round"/>
<path d="M70.0669 35.5476C71.1346 35.5476 72.3315 35.6445 73.2438 36.1658C74.2271 36.7277 74.8611 37.8938 75.7853 38.5614C76.7356 39.2477 77.0599 40.1359 77.7945 40.957C78.0744 41.2698 78.1036 41.7638 78.1036 42.159C78.1036 42.6385 78.3414 42.6309 77.7945 42.1934" stroke="white" stroke-width="0.25" stroke-linecap="round" stroke-linejoin="round"/>
<path d="M88.1495 46.83C88.3275 47.082 89.0888 48.6549 88.3041 48.0664" stroke="white" stroke-width="0.25" stroke-linecap="round" stroke-linejoin="round"/>
</svg>
