<svg width="51" height="52" viewBox="0 0 51 52" fill="none" xmlns="http://www.w3.org/2000/svg">
<path d="M22.6691 1.04228C21.1028 1.11038 18.1715 1.60815 16.9221 2.73258C16.2102 3.37334 14.9067 3.55068 14.0674 4.08482C13.3468 4.54335 12.5896 4.97769 11.9357 5.53097C11.1543 6.1922 10.2729 6.85377 9.44722 7.46542C8.88276 7.88354 8.54078 8.57846 8.03864 9.0806C7.42984 9.68939 6.94656 10.5148 6.23565 11.015C5.53824 11.5058 5.3034 12.2617 4.75195 12.8744C4.24954 13.4326 3.85338 14.2558 3.48422 14.9121C3.06697 15.6539 2.57471 16.4529 2.34796 17.2692C2.09835 18.1678 1.58692 19.08 1.27744 19.9642C0.914258 21.0019 0.632258 22.158 0.535588 23.2697C0.354486 25.3524 0.388202 27.0732 0.826695 29.1013C1.0171 29.9819 1.01685 30.9324 1.28683 31.7963C1.55823 32.6648 1.87704 33.5215 2.04747 34.4163C2.55848 37.0991 4.85641 39.2959 6.14175 41.6095C7.24177 43.5895 9.0555 45.0521 11.0061 46.1357C15.7012 48.7442 21.0012 50.4672 26.3878 51.0658C27.806 51.2233 29.6168 51.2417 30.961 50.8216C32.6784 50.2849 34.6698 49.7532 36.1539 48.7087C37.9567 47.4401 39.525 46.2955 41.0934 44.7271C41.9218 43.8987 43.2533 43.1306 43.873 42.1166C44.3288 41.3707 45.0127 40.4331 45.6572 39.8347C46.8682 38.7102 48.1683 36.915 48.7748 35.3554C49.3697 33.8258 49.5449 32.2905 49.5449 30.6225C49.5449 27.4079 50.5185 23.908 49.5449 20.7437C48.5141 17.3935 47.4381 13.7913 44.9059 11.2592C43.7244 10.0776 42.8798 8.74402 41.469 7.80348C40.0433 6.85302 38.66 5.74358 37.2057 4.85485C34.7563 3.35802 32.5539 2.30322 29.7684 1.58694C28.3056 1.21078 26.9814 0.704224 25.4581 0.704224C24.5505 0.704224 23.8754 1.04228 23.0072 1.04228" stroke="white" stroke-width="0.25" stroke-linecap="round" stroke-linejoin="round"/>
<path d="M12.0309 15.9408C14.7787 14.2547 17.2801 12.1444 19.8489 10.2178C20.2677 9.90373 20.6923 9.61765 21.12 9.32359C21.3106 9.19253 22.0312 8.81266 22.142 8.64654C23.0229 7.32518 20.8165 11.5581 19.8745 12.8366C19.4178 13.4564 18.9565 14.2002 18.6417 14.8997C18.4695 15.2824 18.1244 15.9178 18.1244 16.3432C18.1244 16.5096 18.0234 17.1242 18.3543 16.95C19.252 16.4776 19.924 15.4434 20.6793 14.7911C21.3725 14.1924 21.9201 13.4502 22.6018 12.8366C23.1513 12.3421 23.8095 11.9089 24.2753 11.3356C24.9155 10.5477 26.0189 9.93684 26.9771 9.61741" stroke="white" stroke-width="0.25" stroke-linecap="round" stroke-linejoin="round"/>
<path d="M25.3676 14.6761C23.7848 15.2253 22.0567 16.3359 21.318 17.8953C20.5159 19.5888 22.1271 19.6199 23.4131 19.6199C25.4599 19.6199 26.8062 17.5411 28.6442 16.9756C29.4581 16.7251 31.461 15.6204 31.461 17.2055" stroke="white" stroke-width="0.25" stroke-linecap="round" stroke-linejoin="round"/>
<path d="M26.2873 18.4702C25.8711 18.7954 25.7124 18.9287 25.7124 19.4475C25.7124 19.5872 25.6418 20.0029 25.7763 20.0798C26.1686 20.304 27.067 20.5139 27.4881 20.2459C28.1496 19.825 28.7861 19.3764 29.4554 18.9748C29.8318 18.749 30.2514 18.4617 30.5923 18.1828C30.8265 17.9912 31.0083 17.675 31.2885 17.5504C31.4999 17.4565 31.654 17.1586 31.8698 17.0969C32.0959 17.0323 31.31 17.4619 31.1736 17.5568C30.4083 18.0892 29.7207 18.7103 28.9316 19.2175C27.8245 19.9293 27.0331 21.0586 26.1148 21.9768C25.0972 22.9945 24.4071 24.177 22.9787 24.6531C22.1515 24.9288 21.8941 24.5397 22.1739 23.7844C22.4562 23.0221 23.3769 22.4461 24.1028 22.2387C25.3185 21.8914 26.5623 21.4315 27.7564 20.9996C28.5319 20.7191 29.4973 20.7632 30.3113 20.5652C31.1255 20.3672 31.9004 19.922 32.7001 19.6199C33.6075 19.2771 34.5029 19.0322 35.2551 18.3552C36.4164 17.31 37.6819 16.3909 38.8703 15.3724C39.0016 15.2598 39.7741 14.2729 39.6751 14.2163C39.0513 13.8599 38.6712 15.054 38.3082 15.4171C36.9012 16.824 35.674 18.3363 34.1053 19.5688C33.5025 20.0425 33.138 20.8033 32.5468 21.287C32.2682 21.515 32.0053 21.72 31.7484 21.9768C31.6074 22.1179 31.233 22.2554 31.5249 22.1493C32.4467 21.8141 33.1349 20.9912 33.9904 20.5397C34.6669 20.1826 35.3761 19.9494 36.0599 19.6455C36.7875 19.3221 37.0265 19.8626 36.6347 20.4503C36.2178 21.0757 35.4902 21.6759 35.2295 22.3537C34.9141 23.1738 35.3025 23.3128 36.2131 23.5034C37.311 23.7332 38.0292 22.8242 38.7042 22.1493C39.6782 21.1753 41.0047 20.6247 41.9489 19.6455C42.3581 19.2211 43.1304 18.2403 43.7629 18.2403" stroke="white" stroke-width="0.25" stroke-linecap="round" stroke-linejoin="round"/>
<path d="M41.4635 20.1948C40.0093 21.1836 38.3593 22.5776 38.3593 24.4487C38.3593 25.9356 41.0813 23.8738 41.4635 23.8738" stroke="white" stroke-width="0.25" stroke-linecap="round" stroke-linejoin="round"/>
<path d="M38.5892 20.4247C39.667 20.4247 40.7158 20.3096 41.6935 20.7441C42.2172 20.9768 42.9495 21.1145 43.533 21.1145" stroke="white" stroke-width="0.25" stroke-linecap="round" stroke-linejoin="round"/>
<path d="M27.552 12.6067C27.1509 13.6764 27.9982 13.0022 27.667 12.8366" stroke="white" stroke-width="0.25" stroke-linecap="round" stroke-linejoin="round"/>
<path d="M19.274 27.323C17.8979 27.323 16.5988 27.2389 15.5375 28.3003C15.1089 28.7289 13.9621 30.347 14.5027 30.9957C15.1441 31.7653 16.7103 30.7614 17.3195 30.3698C18.1237 29.8528 18.8222 29.2941 19.5615 28.7027C20.0386 28.3209 19.9274 26.9377 19.1591 26.9781C18.2991 27.0234 18.1291 28.797 18.3798 29.3925C18.7671 30.3123 19.4922 30.5422 20.4238 30.5422C21.0242 30.5422 21.6956 30.2779 22.2058 29.9674C22.6166 29.7173 23.4822 29.415 23.6429 28.9326" stroke="white" stroke-width="0.25" stroke-linecap="round" stroke-linejoin="round"/>
<path d="M23.413 29.2775C22.1781 29.3069 21.4022 30.3558 20.5962 31.1617C20.2213 31.5367 19.5092 32.6117 20.4238 32.6117C21.6176 32.6117 22.6136 31.4304 23.643 30.8871C23.9984 30.6995 24.6494 30.4626 24.9077 30.1398C25.2208 29.7483 24.2085 30.8587 23.8474 31.2065C23.5243 31.5175 22.8676 31.7374 22.8382 32.2667C22.8261 32.4837 22.7287 33.0715 23.0106 33.0715C23.3364 33.0715 23.6621 33.0715 23.9879 33.0715C24.5227 33.0715 24.9893 32.7396 25.4825 32.5478C25.9998 32.3466 26.3985 31.9391 26.8622 31.6663C26.9851 31.5941 27.2127 31.1298 27.3668 31.1298C27.4677 31.1298 27.2183 31.2677 27.156 31.347C27.0293 31.5082 26.9144 31.688 26.8111 31.8643C26.677 32.0931 26.5173 32.342 26.5173 32.6117C26.5173 32.9435 26.9163 33.1306 27.2135 33.1801C28.4066 33.379 29.426 32.8214 30.5157 32.4711C31.6047 32.1211 32.6637 31.8009 33.7604 31.4875C34.2292 31.3536 34.5954 31.0302 35.0507 30.8615C35.4459 30.7152 36.0448 30.4422 36.3473 30.1398C36.5866 29.9004 36.9796 29.7818 36.9796 29.3925C36.9796 29.0494 36.8741 28.7026 36.4623 28.7026C34.9207 28.7026 33.6938 29.2536 32.3552 30.0567C31.0495 30.8402 29.7452 32.0349 28.9317 33.327C28.6764 33.7324 28.2823 35.3435 28.8167 35.6265C29.4531 35.9634 30.8616 35.7857 31.461 35.4859" stroke="white" stroke-width="0.25" stroke-linecap="round" stroke-linejoin="round"/>
</svg>
