<svg width="188" height="123" viewBox="0 0 188 123" fill="none" xmlns="http://www.w3.org/2000/svg">
<path d="M1.5628 74.2328C0.122228 78.6446 -0.412184 85.3051 1.70452 89.5385C2.81293 91.7553 3.91021 93.9499 5.02076 96.171C5.4551 97.0397 6.02815 98.0132 6.55134 98.8353C7.46001 100.263 7.1749 98.1955 7.1749 97.4465" stroke="white" stroke-width="0.25" stroke-linecap="round" stroke-linejoin="round"/>
<path d="M3.34845 77.549C3.34845 83.118 5.50129 87.3014 7.30243 92.3445C7.94699 94.1493 8.76464 95.983 9.66915 97.7015C10.5652 99.404 11.7398 100.674 12.9004 102.166C13.8569 103.396 14.8054 104.513 15.9898 105.482C16.701 106.064 17.7346 106.63 18.6542 106.63C19.6095 106.63 19.4195 106.193 19.4195 105.354C19.4195 103.721 18.9183 102.526 18.0306 101.131C17.0538 99.5962 16.8685 97.9743 16.8685 96.171" stroke="white" stroke-width="0.25" stroke-linecap="round" stroke-linejoin="round"/>
<path d="M6.15448 99.9974C7.08616 104.242 10.4788 108.003 13.6656 110.711C14.3652 111.306 17.1236 113.017 17.1236 110.966C17.1236 109.118 16.6134 107.498 16.6134 105.609" stroke="white" stroke-width="0.25" stroke-linecap="round" stroke-linejoin="round"/>
<path d="M8.45037 81.1204C8.45037 83.5056 7.42999 85.5173 7.42999 87.7528C7.42999 89.9462 10.5746 90.814 12.2768 90.814" stroke="white" stroke-width="0.25" stroke-linecap="round" stroke-linejoin="round"/>
<path d="M9.21562 68.8757C9.21562 72.7111 8.13098 76.6859 8.97469 80.4826C9.58775 83.2413 10.467 85.933 11.5115 88.5748C12.173 90.2479 12.9054 92.2362 14.1758 93.5066C15.343 94.6738 16.7156 95.6354 18.144 96.5536C19.9464 97.7123 24.2662 98.1849 24.2662 95.1506" stroke="white" stroke-width="0.25" stroke-linecap="round" stroke-linejoin="round"/>
<path d="M16.1032 84.6917C17.5993 88.2657 23.6358 95.976 28.3478 93.62" stroke="white" stroke-width="0.25" stroke-linecap="round" stroke-linejoin="round"/>
<path d="M10.4911 84.9467C12.025 84.9467 17.2456 85.8122 17.3787 83.4162C17.4916 81.3845 18.144 79.3077 18.144 77.2939" stroke="white" stroke-width="0.25" stroke-linecap="round" stroke-linejoin="round"/>
<path d="M8.19523 63.5187C8.11205 67.7613 8.92325 70.0514 12.1492 72.5605C13.0824 73.2863 14.3208 73.4689 15.3379 73.921C16.249 74.3259 17.601 74.2109 18.399 74.7429" stroke="white" stroke-width="0.25" stroke-linecap="round" stroke-linejoin="round"/>
<path d="M18.144 55.1006C18.144 57.5193 18.144 59.938 18.144 62.3567C18.144 63.7885 17.9231 65.4269 18.2716 66.8208C18.7415 68.7007 18.824 70.9783 19.7313 72.7022C21.4341 75.9376 24.0906 74.1418 24.8332 71.1716C25.6705 67.8224 25.6033 64.1888 27.129 60.9678C27.6174 59.9369 28.2703 58.6805 28.9714 57.7791C30.0119 56.4413 30.3886 55.5011 30.3886 53.8251" stroke="white" stroke-width="0.25" stroke-linecap="round" stroke-linejoin="round"/>
<path d="M21.7153 75.5082C23.2604 76.7256 24.2969 78.7331 24.8332 80.6101C25.1007 81.5465 26.0107 82.3 26.3637 83.2178C27.1551 85.2753 29.2334 86.3768 31.2672 86.7466C32.0523 86.8893 32.745 86.9875 33.5773 86.9875C34.5852 86.9875 34.7844 86.4217 35.618 86.2364C36.2559 86.0947 35.7456 82.484 35.7456 81.6305" stroke="white" stroke-width="0.25" stroke-linecap="round" stroke-linejoin="round"/>
<path d="M31.9191 55.1006C31.9191 58.653 31.9191 62.2055 31.9191 65.7579C31.9191 68.4564 31.9077 70.8179 32.7411 73.4108C33.5398 75.8955 34.5739 77.8612 36.0007 80.0432C37.0071 81.5825 38.7551 82.6277 40.068 83.9405C42.5309 86.4034 45.7236 88.1732 47.8768 90.9415C50.1681 93.8875 53.4308 95.2927 56.9185 94.1302" stroke="white" stroke-width="0.25" stroke-linecap="round" stroke-linejoin="round"/>
<path d="M48.2452 64.0289C48.2452 67.6836 48.2595 70.8333 49.2089 74.3461C49.9867 77.2238 51.7653 79.8267 53.3471 82.3391C54.5881 84.3101 55.124 86.7901 56.4083 88.7165C57.2142 89.9253 58.2826 92.1217 58.4491 93.62C58.5864 94.8565 61.5249 92.2249 61.7653 91.891C62.9263 90.2786 63.5633 88.4075 64.0045 86.4773C64.637 83.7098 64.0146 80.8197 64.628 78.0592C65.0985 75.9419 66.8672 73.8523 66.8672 71.6818" stroke="white" stroke-width="0.25" stroke-linecap="round" stroke-linejoin="round"/>
<path d="M34.9803 87.7528C34.9803 94.4597 40.6467 98.0152 45.8218 100.89C47.7039 101.936 49.9975 103.112 51.5615 104.589C53.2444 106.178 54.4371 105.609 56.4083 105.609" stroke="white" stroke-width="0.25" stroke-linecap="round" stroke-linejoin="round"/>
<path d="M53.092 95.6608C53.653 98.3408 54.9602 100.39 56.4083 102.605C56.8812 103.328 57.4125 104.576 58.0664 105.099C58.245 105.242 59.087 104.348 59.4694 104.136C60.9098 103.335 62.2756 100.762 62.8424 99.2888C63.4367 97.7435 63.2959 96.1033 63.2959 94.3853" stroke="white" stroke-width="0.25" stroke-linecap="round" stroke-linejoin="round"/>
<path d="M32.1743 95.1506C33.4581 100.543 39.1119 103.594 42.8316 106.942C44.238 108.207 46.8229 108.671 48.6279 108.671C51.3078 108.671 50.9628 106.291 52.837 105.354" stroke="white" stroke-width="0.25" stroke-linecap="round" stroke-linejoin="round"/>
<path d="M26.5621 86.2222C27.1 89.5837 29.4768 92.5888 31.9191 94.8955C32.8204 95.7466 34.2825 96.4635 35.3629 97.0638C36.126 97.4877 37.6832 97.1913 38.5516 97.1913" stroke="white" stroke-width="0.25" stroke-linecap="round" stroke-linejoin="round"/>
<path d="M23.2459 97.7015C24.6015 101.542 28.1299 105.087 31.8058 106.757C32.6879 107.158 35.2726 107.667 36.0007 106.757C36.6505 105.945 38.3424 105.354 39.3169 105.354" stroke="white" stroke-width="0.25" stroke-linecap="round" stroke-linejoin="round"/>
<path d="M28.0927 105.609C30.178 108.446 31.2113 112.498 34.2717 114.538C35.7118 115.498 37.5425 116.48 39.3169 116.579C40.0716 116.621 43.421 117.434 43.1433 116.324" stroke="white" stroke-width="0.25" stroke-linecap="round" stroke-linejoin="round"/>
<path d="M39.572 106.63C43.228 111.254 44.9817 117.367 50.6687 119.895C51.4342 120.235 52.1419 121.259 52.9787 121.411C54.4002 121.67 55.8687 122.191 57.3153 122.191C58.3735 122.191 59.4317 122.191 60.4898 122.191C61.1146 122.191 63.782 121.17 63.0408 121.17" stroke="white" stroke-width="0.25" stroke-linecap="round" stroke-linejoin="round"/>
<path d="M61.5102 93.1098C64.4895 95.3317 66.6715 98.527 69.5599 100.89C71.8777 102.787 74.259 104.189 76.8159 105.751C79.9489 107.666 84.2243 109.241 87.9267 109.436C89.1928 109.503 90.3789 110.011 91.6114 110.187C92.3424 110.291 93.8256 110.63 93.142 109.946" stroke="white" stroke-width="0.25" stroke-linecap="round" stroke-linejoin="round"/>
<path d="M77.071 73.2124C77.071 77.9476 79.2131 81.5274 81.5352 85.457C83.5275 88.8286 85.395 92.3233 87.2181 95.7742C88.0777 97.4012 89.0112 98.9429 89.9675 100.508C90.7312 101.757 91.2992 102.942 91.9799 104.206C92.4673 105.112 92.8486 106.559 92.8869 107.594C92.8947 107.805 93.5633 109.411 93.8506 109.124C94.2831 108.692 94.2769 107.45 94.5592 106.885C94.9698 106.064 95.1889 105.276 95.5654 104.447C96.0511 103.379 96.1406 101.919 96.2031 100.763C96.2773 99.3914 96.7133 98.0615 96.7133 96.6812C96.7133 92.9077 97.2235 89.0621 97.2235 85.2019" stroke="white" stroke-width="0.25" stroke-linecap="round" stroke-linejoin="round"/>
<path d="M77.5812 107.14C79.23 110.372 82.1712 113.166 85.5033 114.665C88.8789 116.184 92.2924 117.75 95.948 118.563C98.9515 119.23 102.061 119.13 105.131 119.13C106.1 119.13 106.843 118.936 107.682 118.563C108.186 118.339 110.362 117.642 109.468 117.344" stroke="white" stroke-width="0.25" stroke-linecap="round" stroke-linejoin="round"/>
<path d="M96.7133 103.059C99.6502 105.421 102.809 107.374 105.769 109.691C107.376 110.948 108.334 112.599 109.596 114.141C110.324 115.031 110.233 115.995 110.233 117.089C110.233 118.04 111 117.183 111.367 116.834C112.213 116.028 112.632 115.562 113.039 114.424C114.429 110.548 116.523 105.474 114.953 101.287C113.491 97.3883 112.591 93.2336 110.744 89.5385" stroke="white" stroke-width="0.25" stroke-linecap="round" stroke-linejoin="round"/>
<path d="M14.8278 113.517C15.1992 115.292 15.8678 117.146 16.8685 118.676C17.3158 119.36 18.2515 119.817 18.5975 120.405C19.2662 121.542 21.1674 121.605 21.7153 122.701" stroke="white" stroke-width="0.25" stroke-linecap="round" stroke-linejoin="round"/>
<path d="M27.3274 105.865C27.3274 108.661 27.364 110.865 28.2911 113.461C28.7808 114.832 29.8792 115.818 30.6436 117.032C31.5633 118.493 32.8779 120.884 34.4701 121.68" stroke="white" stroke-width="0.25" stroke-linecap="round" stroke-linejoin="round"/>
<path d="M36.7659 40.05C37.3073 42.5764 39.3142 45.7311 41.8678 46.6825C43.3728 47.2431 44.9026 47.6796 46.4029 48.213C47.5661 48.6266 48.8744 48.4509 50.0876 48.6665C51.3836 48.897 54.5499 49.1911 55.643 48.213C56.4147 47.5226 59.5452 45.4638 58.449 44.6417" stroke="white" stroke-width="0.25" stroke-linecap="round" stroke-linejoin="round"/>
<path d="M20.95 34.9481C23.676 35.4529 26.325 36.2235 29.1131 36.2235C30.8326 36.2235 32.5521 36.2235 34.2717 36.2235C35.6997 36.2235 37.4154 36.4942 38.8067 36.1668C39.8657 35.9177 40.6278 35.2764 41.6127 34.9481" stroke="white" stroke-width="0.25" stroke-linecap="round" stroke-linejoin="round"/>
<path d="M41.3577 31.3767C43.8074 34.5803 46.4312 37.0392 50.5411 37.9525C53.3557 38.578 56.3104 38.6173 58.4491 36.4786C60.6522 34.2755 59.7245 32.0609 59.7245 29.336C59.7245 28.0647 59.798 26.7471 59.3277 25.5379C58.9553 24.5802 58.752 22.7354 57.9389 22.1933" stroke="white" stroke-width="0.25" stroke-linecap="round" stroke-linejoin="round"/>
<path d="M56.9185 17.3465C57.0008 22.4517 58.8965 30.6115 65.4642 30.6115C67.8836 30.6115 69.6697 29.9847 71.9691 29.1943C73.1042 28.8041 74.4322 28.0605 75.6538 28.0605C77.0355 28.0605 76.6343 27.8909 75.5404 27.0401" stroke="white" stroke-width="0.25" stroke-linecap="round" stroke-linejoin="round"/>
<path d="M64.3162 16.5812C65.8089 19.7087 69.9552 22.1038 72.6068 24.3475C73.4894 25.0943 74.3216 25.8213 75.1436 26.6433C75.6469 27.1467 76.1262 28.5802 76.5041 27.2952C76.9652 25.7277 78.3465 24.1459 78.3465 22.4484C78.3465 20.6344 77.8363 18.9117 77.8363 17.0914" stroke="white" stroke-width="0.25" stroke-linecap="round" stroke-linejoin="round"/>
<path d="M61.5102 33.9277C61.5384 35.7355 61.7479 44.5161 65.1382 44.6417C66.6859 44.699 68.2577 44.5217 69.8008 44.6558C71.1688 44.7748 72.6038 45.1019 73.9532 45.1519C74.777 45.1824 75.6088 45.1519 76.4333 45.1519C77.4573 45.1519 77.6073 44.6824 78.4032 44.1315C79.397 43.4434 79.8708 42.3272 80.5148 41.3254C80.9484 40.651 82.4602 40.1465 82.1729 39.2847" stroke="white" stroke-width="0.25" stroke-linecap="round" stroke-linejoin="round"/>
<path d="M68.1426 31.8869C70.9225 35.1927 76.1862 37.9543 80.4014 36.1102C82.1929 35.3264 83.1158 35.1051 84.4687 33.6726C85.4604 32.6226 85.6032 31.8644 86.2544 30.7248C86.8335 29.7114 88.3396 29.0365 89.188 28.188C90.4309 26.9451 90.8461 25.4584 90.8461 23.7239C90.8461 21.6954 90.3507 20.8113 88.692 19.7557C87.9778 19.3013 85.5131 19.1802 85.234 18.6219" stroke="white" stroke-width="0.25" stroke-linecap="round" stroke-linejoin="round"/>
<path d="M77.3261 26.785C80.7463 27.5451 83.8004 29.0282 87.0197 30.1013" stroke="white" stroke-width="0.25" stroke-linecap="round" stroke-linejoin="round"/>
<path d="M49.7758 50.764C49.7758 54.959 49.723 58.6552 51.0513 62.6401C51.3677 63.5893 51.7734 65.4601 52.8369 65.8146" stroke="white" stroke-width="0.25" stroke-linecap="round" stroke-linejoin="round"/>
<path d="M54.8777 54.3353C54.8777 57.0862 54.8019 59.6061 55.3879 62.2433C55.5413 62.9337 55.9082 63.7502 56.6634 63.9723C59.7814 64.8893 62.9631 64.6508 66.0877 65.432C67.3544 65.7486 70.2133 66.9563 70.6936 65.0352C71.2361 62.8654 72.5573 60.8119 73.4997 58.927" stroke="white" stroke-width="0.25" stroke-linecap="round" stroke-linejoin="round"/>
<path d="M58.9592 47.1926C59.7837 50.3532 61.7418 53.4561 64.8264 54.718C67.2072 55.6919 69.3565 56.1961 71.8274 56.6453C72.9714 56.8534 72.7625 57.1424 73.7548 56.121C74.9457 54.8951 75.6669 53.4026 76.3057 51.8411C76.8503 50.5098 77.8104 49.4645 78.4032 48.213C78.7904 47.3955 78.6016 46.3033 78.6016 45.407" stroke="white" stroke-width="0.25" stroke-linecap="round" stroke-linejoin="round"/>
<path d="M63.0408 65.8146C63.0976 68.2582 64.0627 71.5312 66.3712 72.8298C68.625 74.0975 71.4062 73.7226 73.8965 73.7226C75.205 73.7226 76.5136 73.7226 77.8221 73.7226C79.0282 73.7226 78.6928 73.4441 78.9134 72.3904C79.0651 71.6653 80.9058 67.9871 80.6423 67.8554" stroke="white" stroke-width="0.25" stroke-linecap="round" stroke-linejoin="round"/>
<path d="M76.0506 51.0191C76.0506 53.5132 75.457 56.8653 76.1924 59.2814C76.5956 60.6063 77.8487 61.8433 78.8567 62.7393C80.8583 64.5185 83.4777 65.7326 86.1127 66.0839C86.9206 66.1916 87.7978 66.4615 88.5503 66.7783C89.466 67.1639 89.6767 65.8222 90.0809 65.2478C90.8398 64.1692 92.1379 63.3553 93.0853 62.4417C93.6723 61.8757 94.6726 61.3516 94.6726 60.4576" stroke="white" stroke-width="0.25" stroke-linecap="round" stroke-linejoin="round"/>
<path d="M93.142 48.7232C93.142 51.9279 92.0942 56.9516 95.5512 58.927C96.2007 59.2982 96.9462 59.1821 97.7337 59.1821C99.8501 59.1821 101.948 58.4168 104.111 58.4168C105.726 58.4168 107.363 58.3412 108.901 58.927C109.281 59.0717 110.904 59.5943 111.254 59.3805C112.21 58.7962 112.959 55.4009 113.295 54.3353C113.588 53.4045 113.598 52.4442 114.116 51.5859C114.446 51.0407 115.027 50.8598 114.825 50.2538" stroke="white" stroke-width="0.25" stroke-linecap="round" stroke-linejoin="round"/>
<path d="M81.4077 42.0908C81.6613 47.6705 87.8397 48.2539 91.9799 49.035C94.4248 49.4963 96.764 50.2958 99.2643 50.5231C101.305 50.7086 103.295 50.764 105.358 50.764C107.226 50.764 107.713 50.2004 108.703 48.4681C109.544 46.9965 110.295 45.5955 111.126 44.1174C112.645 41.4182 114.06 39.4225 114.06 36.2236" stroke="white" stroke-width="0.25" stroke-linecap="round" stroke-linejoin="round"/>
<path d="M79.8771 66.0697C80.0218 72.4358 83.0594 76.1438 88.8054 78.0592C89.9516 78.4412 97.1891 81.5075 97.8613 80.3125C99.0155 78.2607 100.244 76.3206 101.56 74.3461C102.92 72.3071 104.616 70.5832 105.5 68.2522C106.117 66.6263 108.734 60.3456 106.407 59.1821" stroke="white" stroke-width="0.25" stroke-linecap="round" stroke-linejoin="round"/>
<path d="M90.8461 80.6102C94.1218 81.1472 97.0085 82.8264 100.157 83.7847C101.794 84.2827 103.53 84.6412 104.99 85.5703C106.801 86.7229 110.01 87.6237 112.019 86.6191C115.469 84.8941 116.149 81.8121 117.631 78.5694C118.349 76.9995 118.506 75.1151 118.963 73.4675C119.159 72.7648 120.008 71.8444 119.672 71.1716" stroke="white" stroke-width="0.25" stroke-linecap="round" stroke-linejoin="round"/>
<path d="M107.682 64.5391C113.171 65.3967 118.697 67.6487 123.753 69.8961C125.12 70.5035 126.575 70.4063 128.033 70.4063C129.414 70.4063 130.259 69.258 131.165 68.3514C133.666 65.8503 133.896 61.7349 136.508 59.3097C137.809 58.102 137.673 56.0434 138.025 54.4629C138.201 53.6683 138.546 53.0694 138.804 52.2946" stroke="white" stroke-width="0.25" stroke-linecap="round" stroke-linejoin="round"/>
<path d="M118.652 76.0184C120.949 79.0048 123.452 81.8924 126.616 83.9264C128.622 85.216 130.913 84.9468 133.192 84.9468C136.031 84.9468 138.776 84.4366 141.61 84.4366C144.475 84.4366 147.07 84.9905 149.787 85.8396C151.212 86.2847 154.638 86.4309 155.754 85.3152C157.278 83.7911 158.237 81.4844 159.977 80.2275C161.764 78.937 163.761 77.8181 165.32 76.2594C167.128 74.4513 167.63 71.5875 167.63 69.1309" stroke="white" stroke-width="0.25" stroke-linecap="round" stroke-linejoin="round"/>
<path d="M135.233 122.191C135.233 117.841 134.908 113.439 134.978 109.124C135.018 106.625 136.432 104.542 137.529 102.407C138.639 100.245 140.163 98.3576 140.845 95.9725C141.305 94.3627 141.225 90.6885 142.375 89.5385" stroke="white" stroke-width="0.25" stroke-linecap="round" stroke-linejoin="round"/>
<path d="M168.395 122.701C168.278 119.176 167.136 115.868 166.879 112.398C166.787 111.165 166.639 110.009 166.354 108.798C165.433 104.882 163.072 103.082 160.501 100.125C159.237 98.6704 158.512 96.9743 157.426 95.4057C156.258 93.7193 154.476 92.2173 152.891 90.9274C151.506 89.8 149.748 89.258 148.498 88.0079" stroke="white" stroke-width="0.25" stroke-linecap="round" stroke-linejoin="round"/>
<path d="M166.099 109.946C169.861 109.946 173.005 110.652 176.416 112.114C178.016 112.8 180.185 113.929 181.915 114.028C183.073 114.094 184.172 114.283 185.359 114.283C185.677 114.283 186.073 114.018 186.309 113.829C186.823 113.418 187.522 114.263 187.272 113.262" stroke="white" stroke-width="0.25" stroke-linecap="round" stroke-linejoin="round"/>
<path d="M156.406 85.9671C159.067 88.4882 162.852 90.9167 166.553 89.5951C167.262 89.3418 168.582 88.5942 169.033 87.9937C170.403 86.1666 171.855 84.5412 173.625 83.0335C175.55 81.3931 179.535 79.5897 182.17 79.5897C183.033 79.5897 183.794 79.4254 184.466 78.8245C184.737 78.582 185.216 78.6575 185.231 78.2576C185.25 77.7678 185.231 77.274 185.231 76.7837" stroke="white" stroke-width="0.25" stroke-linecap="round" stroke-linejoin="round"/>
<path d="M134.212 43.3662C135.196 45.7489 136.667 48.8823 138.549 50.764C139.742 51.9571 141.808 52.0395 143.452 52.0395C145.324 52.0395 147.188 50.685 148.951 50.0554C149.506 49.8574 152.099 49.7511 151.049 49.4885" stroke="white" stroke-width="0.25" stroke-linecap="round" stroke-linejoin="round"/>
<path d="M141.355 38.5194C144.258 40.8943 146.258 43.9759 148.809 46.6258C149.691 47.5415 151.78 50.2959 153.345 48.9783C154.091 48.3501 154.959 47.9605 155.697 47.2493C156.78 46.2069 157.713 45.0741 158.645 43.8764C159.973 42.1682 161.45 40.4944 163.548 39.7949" stroke="white" stroke-width="0.25" stroke-linecap="round" stroke-linejoin="round"/>
<path d="M125.284 29.0809C127.006 30.2728 127.976 31.504 129.167 33.1624C129.953 34.2567 130.446 35.2618 131.605 36.0251C132.452 36.5836 133.062 37.4285 133.901 38.0092C134.396 38.3519 135.05 38.661 135.488 39.0296C136.374 39.7759 137.598 39.7006 138.492 39.0296C139.025 38.63 142.552 36.8318 142.375 36.4786" stroke="white" stroke-width="0.25" stroke-linecap="round" stroke-linejoin="round"/>
<path d="M138.039 23.979C143.958 23.979 150.038 23.7616 155.329 26.785C157.632 28.1011 160.741 27.8054 163.293 27.8054" stroke="white" stroke-width="0.25" stroke-linecap="round" stroke-linejoin="round"/>
<path d="M147.477 52.0395C150.175 58.9349 156.091 59.8278 162.67 59.9474C164.14 59.9742 165.519 60.2025 166.992 60.2025C168.058 60.2025 168.623 59.493 169.302 58.8137C170.089 58.0268 170.615 58.3954 170.436 57.1414" stroke="white" stroke-width="0.25" stroke-linecap="round" stroke-linejoin="round"/>
<path d="M162.528 61.2229C164.87 67.009 170.616 67.8554 176.19 67.8554C177.611 67.8554 179.489 67.5281 180.767 68.238C181.817 68.8212 184.043 68.3656 185.231 68.3656C186.095 68.3656 187.092 68.4718 187.527 67.6003" stroke="white" stroke-width="0.25" stroke-linecap="round" stroke-linejoin="round"/>
<path d="M158.191 44.6417C160.395 46.5022 161.678 48.9964 163.662 51.0191C164.973 52.3562 166.592 53.6359 167.743 55.1006C168.29 55.7964 168.752 56.561 169.302 57.269C170.177 58.3933 170.15 56.3801 170.634 55.5541C171.775 53.6102 172.361 51.6736 173.044 49.5452C173.41 48.4018 173.964 47.0163 173.738 45.7755C173.548 44.7287 172.47 43.875 172.108 42.8419C171.702 41.6808 171.335 40.4519 170.946 39.2847" stroke="white" stroke-width="0.25" stroke-linecap="round" stroke-linejoin="round"/>
<path d="M155.895 30.1012C157.972 32.1396 160.13 34.1632 162.018 36.3653C163.051 37.5703 164.506 39.1133 165.787 40.05C166.623 40.6606 167.265 41.7256 168.012 42.4734C168.994 43.455 169.16 43.7496 169.798 42.3317C171.166 39.2925 169.933 35.9835 168.523 33.1624C167.63 31.3779 168.596 28.5435 166.609 27.5503" stroke="white" stroke-width="0.25" stroke-linecap="round" stroke-linejoin="round"/>
<path d="M143.906 16.5812C147.33 18.0969 150.507 20.299 153.727 22.2075C154.946 22.9295 156.154 23.6154 157.426 24.2341C158.15 24.5863 159.06 25.3739 159.849 25.4954C161.056 25.681 162.706 25.4752 163.803 25.963C165.718 26.814 165.15 24.3901 164.767 23.157C164.039 20.8099 164.151 18.8921 165.717 16.978C167.541 14.7481 166.345 11.1715 164.569 9.19761C162.078 6.43005 157.577 5.40343 155.895 2.04077" stroke="white" stroke-width="0.25" stroke-linecap="round" stroke-linejoin="round"/>
<path d="M95.4379 18.3669C95.4379 21.2391 95.4379 24.1113 95.4379 26.9834C95.4379 28.8596 95.8912 29.8797 97.096 31.3626C98.6835 33.3164 101.984 32.142 104.111 32.142C107.315 32.142 109.954 33.6632 112.912 34.8205C114.726 35.5305 115.975 35.7134 117.9 35.7134C119.181 35.7134 122.534 35.1344 123.442 34.1261C123.77 33.7615 123.447 32.4733 123.555 32.0003C123.773 31.0454 124.063 30.2031 124.533 29.3218C125.248 27.9815 125.998 26.8362 127.07 25.7646C127.63 25.2048 128.522 24.3902 128.855 23.7239" stroke="white" stroke-width="0.25" stroke-linecap="round" stroke-linejoin="round"/>
<path d="M101.56 7.1427C101.56 10.7942 101.305 14.4169 101.305 18.0551C101.305 20.7439 102.993 22.9542 105.5 24.0782C107.74 25.0823 109.342 24.8076 111.509 23.7239C115.021 21.9679 118.204 21.428 122.095 21.428C123.943 21.428 125.237 22.0554 126.942 22.4342C127.764 22.6169 125.525 19.6044 125.341 19.3873C124.201 18.0456 123.147 16.9115 121.769 15.8159C119.197 13.7696 116.422 11.7665 113.45 10.3456C111.942 9.62409 110.15 8.84463 108.958 7.65289" stroke="white" stroke-width="0.25" stroke-linecap="round" stroke-linejoin="round"/>
<path d="M128.855 22.9586C130.344 20.5885 131.985 18.5562 133.192 16.071C134.13 14.1392 133.058 11.7746 134.085 9.72197C134.79 8.31129 135.233 7.07832 135.233 5.49872C135.233 4.7848 133.786 3.48644 133.334 2.94777C132.709 2.20462 132.079 1.34544 131.661 0.510193" stroke="white" stroke-width="0.25" stroke-linecap="round" stroke-linejoin="round"/>
<path d="M175.028 84.6917C176.543 86.6774 177.919 88.7962 179.874 90.3604C181.323 91.5193 182.039 93.2829 183.247 94.5837C184.893 96.3564 185.073 99.0736 186.762 100.763" stroke="white" stroke-width="0.25" stroke-linecap="round" stroke-linejoin="round"/>
<path d="M117.376 42.0908C117.376 44.2044 117.413 47.2306 118.283 49.2193C119.284 51.5079 120.269 53.8437 121.203 56.1777C122.268 58.8408 123.639 61.4724 124.264 64.2841C124.423 65.0031 125.028 65.8417 125.426 66.4665C125.756 66.9858 126.529 67.5851 126.049 67.3452" stroke="white" stroke-width="0.25" stroke-linecap="round" stroke-linejoin="round"/>
<path d="M141.1 57.1414C141.214 59.822 142.282 62.6828 143.197 65.191C143.88 67.0612 144.461 69.0602 145.437 70.8031C146.835 73.3008 147.719 76.0653 149.135 78.5835C149.964 80.0562 150.947 81.4469 151.757 82.906C152.068 83.4658 152.204 83.9319 152.707 84.3232C152.955 84.5164 154.12 85.4783 153.855 84.9468" stroke="white" stroke-width="0.25" stroke-linecap="round" stroke-linejoin="round"/>
<path d="M127.58 88.7732C127.58 93.369 128.33 98.0037 130.131 102.237C130.668 103.5 131.458 104.558 132.285 105.609C132.68 106.113 133.474 106.639 132.682 106.375" stroke="white" stroke-width="0.25" stroke-linecap="round" stroke-linejoin="round"/>
<path d="M104.111 73.7226C104.162 76.4432 104.333 80.3131 106.662 82.2541C107.694 83.114 108.53 84.1562 109.709 84.8192C110.059 85.0161 110.985 86.1951 110.744 85.7121" stroke="white" stroke-width="0.25" stroke-linecap="round" stroke-linejoin="round"/>
<path d="M92.6318 66.3248C92.6318 69.029 92.0641 72.4174 93.6522 74.7997C94.5079 76.0832 95.6323 77.0753 96.4583 78.3143" stroke="white" stroke-width="0.25" stroke-linecap="round" stroke-linejoin="round"/>
<path d="M85.4891 50.764C85.8072 52.1951 86.1891 53.475 86.2686 54.9447C86.306 55.636 86.3859 56.6158 86.6371 57.2689C86.9819 58.1655 87.4623 59.7097 87.5299 60.656C87.5689 61.2025 88.5871 65.5595 88.2952 65.5595" stroke="white" stroke-width="0.25" stroke-linecap="round" stroke-linejoin="round"/>
<path d="M96.9684 31.6318C96.9684 35.9172 98.3554 39.5307 100.795 43.0544C101.689 44.3458 102.41 45.7916 103.147 47.1927C103.488 47.8393 104.011 49.1836 104.621 49.4885" stroke="white" stroke-width="0.25" stroke-linecap="round" stroke-linejoin="round"/>
</svg>
