<svg width="189" height="145" viewBox="0 0 189 145" fill="none" xmlns="http://www.w3.org/2000/svg">
<path d="M36.8425 19.1396C36.9663 13.8173 41.8832 10.8484 46.7385 10.8484" stroke="white" stroke-width="0.25" stroke-linecap="round" stroke-linejoin="round"/>
<path d="M38.7148 20.2095C38.7148 16.0834 42.5921 12.9881 46.4711 12.9881" stroke="white" stroke-width="0.25" stroke-linecap="round" stroke-linejoin="round"/>
<path d="M40.3195 22.8841C40.795 21.7374 41.8327 20.1118 42.9941 19.4665C43.7315 19.0569 44.024 17.9483 44.7475 17.5349C46.4935 16.5371 48.5755 15.7636 50.483 15.1277" stroke="white" stroke-width="0.25" stroke-linecap="round" stroke-linejoin="round"/>
<path d="M42.4592 23.9539C43.0011 21.1763 44.9075 20.1683 46.7385 18.3372C47.7469 17.3289 48.8879 16.3726 50.2155 15.9301" stroke="white" stroke-width="0.25" stroke-linecap="round" stroke-linejoin="round"/>
<path d="M44.8663 27.1634C46.2119 23.7152 50.3356 19.4071 54.2274 19.4071" stroke="white" stroke-width="0.25" stroke-linecap="round" stroke-linejoin="round"/>
<path d="M46.7385 27.9658C47.8125 24.8702 51.8078 21.2793 55.2972 21.2793" stroke="white" stroke-width="0.25" stroke-linecap="round" stroke-linejoin="round"/>
<path d="M49.4131 31.4428C49.8848 29.2938 51.5173 27.3087 53.4399 26.2273C55.2948 25.1839 56.5561 23.9539 58.7742 23.9539" stroke="white" stroke-width="0.25" stroke-linecap="round" stroke-linejoin="round"/>
<path d="M51.2853 31.9777C52.1129 29.4431 53.256 28.1097 55.5647 26.9554C56.8145 26.3305 58.2776 26.2591 59.5766 25.8261" stroke="white" stroke-width="0.25" stroke-linecap="round" stroke-linejoin="round"/>
<path d="M53.9599 35.9896C56.2645 33.6849 60.3487 29.838 63.8559 29.838" stroke="white" stroke-width="0.25" stroke-linecap="round" stroke-linejoin="round"/>
<path d="M55.8322 37.3269C56.3321 35.1047 58.9575 33.5502 60.9139 32.572C61.883 32.0874 63.0624 31.1753 64.1234 31.1753" stroke="white" stroke-width="0.25" stroke-linecap="round" stroke-linejoin="round"/>
<path d="M59.3091 40.5364C60.7441 38.1829 62.1837 36.2165 64.6583 34.9792C65.9009 34.3579 70.0594 33.8499 68.6702 33.8499" stroke="white" stroke-width="0.25" stroke-linecap="round" stroke-linejoin="round"/>
<path d="M60.3789 41.8737C61.8772 39.8567 63.1848 38.1158 65.3269 36.9257C65.9264 36.5926 66.8501 36.538 67.3477 36.1233C67.754 35.7847 69.4797 35.1872 70.0075 35.1872" stroke="white" stroke-width="0.25" stroke-linecap="round" stroke-linejoin="round"/>
<path d="M64.3908 45.0832C66.5936 40.6776 69.8041 38.3967 74.8217 38.3967" stroke="white" stroke-width="0.25" stroke-linecap="round" stroke-linejoin="round"/>
<path d="M66.5305 46.153C67.7929 44.5023 69.7166 42.5636 71.6122 41.6657C72.581 41.2067 74.058 40.2689 75.0892 40.2689" stroke="white" stroke-width="0.25" stroke-linecap="round" stroke-linejoin="round"/>
<path d="M69.74 50.6998C70.9277 47.9285 72.9996 47.1071 75.6835 46.2125C77.4713 45.6165 78.4927 44.8157 80.4384 44.8157" stroke="white" stroke-width="0.25" stroke-linecap="round" stroke-linejoin="round"/>
<path d="M71.3448 50.6998C72.6521 49.0908 75.1383 48.2411 76.9614 47.4309C77.8837 47.021 80 46.2274 80.4384 45.3506" stroke="white" stroke-width="0.25" stroke-linecap="round" stroke-linejoin="round"/>
<path d="M75.0892 55.2466C76.6006 52.9515 79.4284 51.5728 81.7162 50.1649C82.9326 49.4164 84.3837 49.3625 85.7875 49.3625" stroke="white" stroke-width="0.25" stroke-linecap="round" stroke-linejoin="round"/>
<path d="M76.9614 56.049C78.7616 54.7253 80.6714 52.9439 82.7118 52.0371C83.7199 51.589 85.223 50.6998 86.3225 50.6998" stroke="white" stroke-width="0.25" stroke-linecap="round" stroke-linejoin="round"/>
<path d="M82.0431 61.6657C82.2129 58.1014 87.8929 55.2466 91.1367 55.2466" stroke="white" stroke-width="0.25" stroke-linecap="round" stroke-linejoin="round"/>
<path d="M83.113 62.2006C84.9044 59.789 87.5739 56.8514 90.8693 56.8514" stroke="white" stroke-width="0.25" stroke-linecap="round" stroke-linejoin="round"/>
<path d="M88.1947 67.0148C90.0666 63.9449 92.6332 63.0029 95.951 63.0029" stroke="white" stroke-width="0.25" stroke-linecap="round" stroke-linejoin="round"/>
<path d="M90.0669 67.8172C91.977 67.0718 93.4149 66.0007 95.0149 64.7563C95.7976 64.1475 96.8809 63.8053 97.8232 63.8053" stroke="white" stroke-width="0.25" stroke-linecap="round" stroke-linejoin="round"/>
<path d="M92.7415 72.6315C95.6221 70.5134 98.606 68.0847 102.37 68.0847" stroke="white" stroke-width="0.25" stroke-linecap="round" stroke-linejoin="round"/>
<path d="M95.6835 73.4338C98.0628 71.9952 100.482 70.6293 103.172 69.9568" stroke="white" stroke-width="0.25" stroke-linecap="round" stroke-linejoin="round"/>
<path d="M102.103 78.5155C104.244 77.8155 108.174 76.8039 109.324 74.5037" stroke="white" stroke-width="0.25" stroke-linecap="round" stroke-linejoin="round"/>
<path d="M103.172 80.1203C105.817 79.6886 108.931 78.892 109.859 76.1085" stroke="white" stroke-width="0.25" stroke-linecap="round" stroke-linejoin="round"/>
<path d="M107.184 85.202C109.093 84.7365 110.874 83.3677 112.474 82.26C113.385 81.6295 114.152 80.4723 115.208 80.1203" stroke="white" stroke-width="0.25" stroke-linecap="round" stroke-linejoin="round"/>
<path d="M109.057 85.202C112.279 85.1253 113.526 82.3378 115.476 80.3878" stroke="white" stroke-width="0.25" stroke-linecap="round" stroke-linejoin="round"/>
<path d="M115.208 91.0862C118.591 91.0862 121.613 89.9036 123.499 87.0743" stroke="white" stroke-width="0.25" stroke-linecap="round" stroke-linejoin="round"/>
<path d="M115.743 92.4234C116.857 92.4234 117.972 92.4234 119.086 92.4234C119.973 92.4234 120.295 91.7833 120.958 91.6359C121.912 91.424 123.767 89.4352 123.767 88.4116" stroke="white" stroke-width="0.25" stroke-linecap="round" stroke-linejoin="round"/>
<path d="M121.895 97.7726C124.182 97.7726 126.027 98.1614 127.793 96.8365C128.568 96.2556 129.765 95.1372 130.186 94.2957" stroke="white" stroke-width="0.25" stroke-linecap="round" stroke-linejoin="round"/>
<path d="M122.697 99.6448C124.171 99.6448 125.767 99.8127 127.229 99.63C127.995 99.5342 128.71 98.793 129.383 98.4561C130.655 97.8203 131.033 96.7689 131.791 95.6329" stroke="white" stroke-width="0.25" stroke-linecap="round" stroke-linejoin="round"/>
<path d="M126.976 104.727C129.165 104.674 130.172 103.574 131.909 102.468C132.888 101.845 134.211 101.236 135 100.447" stroke="white" stroke-width="0.25" stroke-linecap="round" stroke-linejoin="round"/>
<path d="M129.116 106.331C132.674 106.331 133.095 102.603 135.802 101.25" stroke="white" stroke-width="0.25" stroke-linecap="round" stroke-linejoin="round"/>
<path d="M42.7266 9.24364C45.6149 3.7765 51.3458 2.75129 56.7682 1.10099C61.0936 -0.215414 66.4538 0.805602 70.8098 1.42789C73.3502 1.7908 76.013 1.99116 78.5661 2.27484C80.5452 2.49474 82.4425 3.17511 84.4354 3.3744C87.8617 3.71703 91.1648 3.97242 94.6731 3.89446C98.8129 3.80246 102.419 1.50363 106.382 0.937547C107.375 0.795731 108.287 0.684947 109.324 0.684947C110.681 0.684947 111.387 1.50829 112.533 2.08168C113.317 2.47329 113.716 3.26123 114.539 3.627C115.45 4.03193 116.487 3.89446 117.481 3.89446C119.646 3.89446 121.252 0.952406 123.499 0.952406C126.21 0.952406 128.79 1.91462 131.389 2.70575C133.317 3.29233 135.263 3.79619 137.199 4.36994C139.211 4.96617 141.301 5.76237 143.351 6.24215C146.474 6.97318 149.173 9.06399 152.132 9.92715C155.738 10.9787 158.711 13.5471 162.221 14.8008C163.341 15.2007 164.75 15.9509 165.758 16.5988C167.02 17.4101 168.442 18.0412 169.621 19.0059C171.901 20.871 175.007 21.9272 177.259 23.9539C179.459 25.9342 181.462 28.2599 183.93 29.9569C185.563 31.0794 187.086 33.2809 188.759 34.1173" stroke="white" stroke-width="0.25" stroke-linecap="round" stroke-linejoin="round"/>
<path d="M36.3076 15.3952C31.4727 15.3952 26.475 15.8317 21.746 16.7325C20.5833 16.954 19.1741 17.0088 18.061 17.3269C16.5652 17.7542 14.6582 18.2795 13.0981 18.3373C10.8116 18.4219 8.45108 19.4071 6.21848 19.4071C4.42147 19.4071 2.56172 20.4769 0.735565 20.4769" stroke="white" stroke-width="0.25" stroke-linecap="round" stroke-linejoin="round"/>
<path d="M139.279 106.599C144.718 106.599 150.156 106.599 155.594 106.599C159.343 106.599 163.213 107.134 166.961 107.134C168.653 107.134 170.834 107.508 172.459 107C174.607 106.329 176.781 105.791 178.848 104.86C180.553 104.093 182.404 103.48 184.064 102.706C184.668 102.424 185.232 102.042 185.877 101.844C186.283 101.719 187.63 101.517 186.352 101.517" stroke="white" stroke-width="0.25" stroke-linecap="round" stroke-linejoin="round"/>
<path d="M136.07 113.285C131.3 113.285 126.53 113.285 121.761 113.285C118.688 113.285 116.369 113.793 113.588 115.009C111.766 115.806 109.599 115.957 107.719 116.629C105.577 117.393 103.509 117.687 101.508 118.902C100.576 119.468 99.3769 119.389 98.4176 119.972C97.4991 120.529 96.3458 120.644 95.4012 121.175C93.5509 122.216 91.3179 123.088 89.324 123.776C85.2498 125.18 81.1574 126.89 77.214 128.664C74.3688 129.945 71.4479 131.696 68.4621 132.542C67.6728 132.766 66.1751 132.868 65.5201 133.404C64.7747 134.014 63.196 133.808 62.2512 134.281C58.5729 136.12 54.7423 137.684 51.0179 139.496C48.8512 140.55 46.5451 141.149 44.4651 142.305C43.3036 142.95 42.4525 144.314 41.3893 144.845" stroke="white" stroke-width="0.25" stroke-linecap="round" stroke-linejoin="round"/>
</svg>
