<svg width="242" height="178" viewBox="0 0 242 178" fill="none" xmlns="http://www.w3.org/2000/svg">
<path d="M41.4734 137.384C41.4734 134.181 41.7481 130.938 41.7481 127.785C41.7481 123.7 42.8469 119.774 42.8469 115.683C42.8469 110.895 43.1216 106.013 43.1216 101.184C43.1216 97.0702 43.9457 93.0867 43.9457 88.9756C43.9457 86.3863 43.9457 83.797 43.9457 81.2077C43.9457 80.1375 43.7068 78.7949 44.2204 77.8961C44.8116 76.8614 45.8686 77.0082 45.8686 75.7137C45.8686 74.6149 45.8686 73.5161 45.8686 72.4173C45.8686 71.1678 44.9677 71.0648 44.0831 70.3571C43.112 69.5803 45.3199 64.7921 45.5939 63.9017C46.4727 61.0457 47.572 58.144 48.9514 55.5233C50.1957 53.159 52.564 50.8519 54.3843 48.9305C56.4928 46.7049 59.0566 45.2351 61.2518 43.1618C61.97 42.4835 63.6002 41.9016 64.5482 41.4526C65.9241 40.8008 67.449 40.0075 68.8823 39.5297C71.3193 38.7174 73.5893 37.7345 76.0856 37.3779C78.7029 37.004 81.2488 36.8438 83.9298 36.8438C89.2955 36.8438 94.1795 38.4586 98.8856 40.8116C101.103 41.9202 102.752 43.9361 104.929 45.1458C106.954 46.2709 107.59 49.4581 109.599 50.6398C111.001 51.4643 112.247 53.1039 112.895 54.5619C113.807 56.6121 115.976 58.4658 116.451 60.6053C116.633 61.4215 117.748 62.1609 117.84 62.9402C117.93 63.7029 118.144 65.2732 118.45 65.9619C118.846 66.8524 118.664 68.0084 118.664 68.9836C118.664 70.195 118.14 70.4851 117.626 71.4559C117.212 72.2376 116.247 72.9413 116.192 73.9282C116.124 75.1418 116.974 75.7209 117.504 76.6752C117.831 77.2632 118.907 78.2992 118.939 78.8728C118.996 79.8995 118.664 80.8393 118.664 81.8945C118.664 83.9598 118.664 86.0251 118.664 88.0905C118.664 90.6239 119.488 92.9968 119.488 95.4921C119.488 97.8243 119.763 100.26 119.763 102.65C119.763 105.518 119.488 108.286 119.488 111.135C119.488 113.319 119.213 115.39 119.213 117.605C119.213 118.837 119.488 119.907 119.488 121.115C119.488 122.099 119.548 123.845 119.824 124.809C120.168 126.014 120.037 127.345 120.037 128.593C120.037 129.915 120.312 131.086 120.312 132.378C120.312 134.779 120.312 137.18 120.312 139.581" stroke="white" stroke-width="0.25" stroke-linecap="round" stroke-linejoin="round"/>
<path d="M46.1433 74.4776C48.7906 76.0273 51.8508 76.5853 54.7963 77.2399C55.4438 77.3837 56.0654 77.6439 56.7192 77.7893C57.2439 77.9059 58.1821 77.9305 58.6421 78.186C59.8575 78.8612 61.7521 78.2473 63.0221 78.8117C64.1258 79.3023 66.3818 78.8728 67.5699 78.8728C69.0129 78.8728 70.5806 79.1475 72.1024 79.1475C75.2088 79.1475 78.3111 79.4222 81.4575 79.4222C84.1536 79.4222 86.8497 79.4222 89.5458 79.4222C92.2701 79.4222 95.8151 79.9977 98.4736 79.4069C104.347 78.1017 110.716 78.3172 116.466 76.4005" stroke="white" stroke-width="0.25" stroke-linecap="round" stroke-linejoin="round"/>
<path d="M97.5121 89.8608C97.5121 88.1268 96.1195 82.5867 98.4888 81.9097C99.5806 81.5978 101.159 80.7369 101.907 82.0471C102.494 83.0733 103.011 84.7321 103.266 85.8776C103.483 86.8543 104.304 88.1105 104.715 89.0367C105.198 90.1229 106.059 90.3804 106.791 91.2953C108.12 92.9561 108.927 96.567 109.05 98.6511C109.174 100.767 110.663 102.993 111.262 105.091C111.572 106.176 112.895 106.961 112.895 108.128C112.895 109.174 113.741 110.764 111.674 110.173C110.142 109.735 108.315 106.852 108.225 105.244C108.162 104.096 107.133 102.444 106.638 101.398C106.117 100.298 106.028 98.1736 106.028 97.0029" stroke="white" stroke-width="0.25" stroke-linecap="round" stroke-linejoin="round"/>
<path d="M106.302 102.497C106.302 108.197 108.394 113.902 109.614 119.391C110.142 121.767 110.741 124.185 111.262 126.533C111.516 127.675 112.365 128.75 112.605 129.83C112.744 130.455 113.194 131.902 113.719 132.164" stroke="white" stroke-width="0.25" stroke-linecap="round" stroke-linejoin="round"/>
<path d="M97.5121 89.8608C95.4289 92.6939 94.9499 94.5084 96.0776 97.766C96.3324 98.5023 96.8327 103.024 98.3973 101.459C99.6881 100.168 100.921 98.8881 102.182 97.5524C103.378 96.2861 103.645 94.3178 105.478 93.7066" stroke="white" stroke-width="0.25" stroke-linecap="round" stroke-linejoin="round"/>
<path d="M97.5121 93.1571C97.5121 94.4202 97.7299 95.6362 98.0768 96.8503C98.2778 97.554 100.054 95.5597 100.259 95.3547C101.274 94.3395 103.825 93.1668 104.38 92.0583" stroke="white" stroke-width="0.25" stroke-linecap="round" stroke-linejoin="round"/>
<path d="M91.7434 132.439C92.1383 130.416 93.1235 129.252 94.002 127.495C94.4455 126.608 94.6924 125.113 95.2535 124.412C95.3892 124.242 95.5756 122.794 95.5892 122.55C95.6264 121.88 95.8639 121.331 95.8639 120.627C95.8639 119.301 96.4133 118.112 96.4133 116.781C96.4133 115.452 96.6137 114.199 96.688 112.936C96.7564 111.773 97.4738 110.627 97.5121 109.364C97.5487 108.155 98.2686 107.01 98.3362 105.793C98.4069 104.52 98.3362 103.223 98.3362 101.948" stroke="white" stroke-width="0.25" stroke-linecap="round" stroke-linejoin="round"/>
<path d="M98.4607 85.9701C98.5947 86.6566 99.2536 87.6562 99.9313 87.9574C100.451 88.1881 100.88 88.0955 101.084 87.4848C101.206 87.1172 101.55 86.7876 101.72 86.447" stroke="white" stroke-width="0.25" stroke-linecap="round" stroke-linejoin="round"/>
<path d="M88.9764 135.449C88.3334 134.946 88.3027 134.652 88.3027 133.899C88.3027 133.365 89.1197 133.116 89.5154 132.919C90.3862 132.483 91.5115 132.619 92.4796 132.619C95.089 132.619 97.6735 132.754 100.264 132.754C103.453 132.754 106.642 132.754 109.831 132.754C111.201 132.754 112.524 132.484 113.903 132.484C114.986 132.484 116.292 133.037 117.211 133.562C117.748 133.869 118.08 134.31 118.08 134.91C118.08 135.317 117.636 135.552 117.533 135.913C117.307 136.706 116.202 137.47 115.385 137.47C113.856 137.47 112.599 137.607 111.081 137.133C109.642 136.683 107.93 136.796 106.425 136.796C104.519 136.796 102.612 136.796 100.706 136.796C98.9249 136.796 97.2372 137.335 95.4513 137.335C93.9478 137.335 92.4466 137.47 90.9301 137.47C90.4169 137.47 89.5999 137.65 89.5154 136.931C89.4903 136.718 89.2547 135.79 89.1112 135.718" stroke="white" stroke-width="0.25" stroke-linecap="round" stroke-linejoin="round"/>
<path d="M93.4227 137.739C93.4227 139.837 93.5575 141.856 93.5575 143.937" stroke="white" stroke-width="0.25" stroke-linecap="round" stroke-linejoin="round"/>
<path d="M81.6761 34.6157C82.8612 34.1244 83.934 33.4363 84.836 32.5844C85.6348 31.83 86.287 31.9717 86.8172 30.7787C87.2444 29.8175 86.2063 29.3081 87.043 28.4715C87.7074 27.807 87.9959 26.831 87.9959 25.926C87.9959 24.6351 87.2415 25.0336 86.5414 24.3335C85.935 23.7271 85.5248 22.9521 84.8862 22.3774C84.4347 21.9711 83.4048 21.7923 82.8047 21.4745C82.4185 21.2701 81.8098 21.0448 81.5006 20.7974C81.2472 20.5947 80.8201 20.9793 80.4473 21.0858C79.1329 21.4613 77.2925 22.4134 76.1463 23.3303C75.8495 23.5677 76.0514 24.2153 75.6949 24.5717C75.3704 24.8963 74.6792 24.79 74.6792 25.2489C74.6792 26.179 74.1544 27.121 74.629 28.0702C74.8178 28.4478 75.2073 29.0505 75.582 29.2489C75.8712 29.402 76.4598 29.4501 76.4849 29.8759C76.5298 30.6391 75.8209 31.6874 76.8234 32.1329C77.7671 32.5524 78.4261 33.2171 79.2937 33.7129C79.8979 34.0582 80.5884 34.2976 81.2247 34.6157" stroke="white" stroke-width="0.25" stroke-linecap="round" stroke-linejoin="round"/>
<path d="M34.0518 63.9577C34.0518 62.7041 34.038 61.5937 34.2901 60.4593C34.4798 59.6054 34.729 58.7595 34.729 57.8636C34.729 56.0592 36.0832 54.3637 36.0832 52.6724" stroke="white" stroke-width="0.25" stroke-linecap="round" stroke-linejoin="round"/>
<path d="M39.9202 43.1926C40.3621 41.1797 42.1021 39.5771 43.5315 38.2271C45.3001 36.5568 46.6871 34.8574 48.61 33.3618C50.5936 31.819 52.0405 29.6952 54.3655 28.4715C55.2427 28.0098 56.1786 26.9736 56.9611 26.3649C57.5789 25.8844 58.4005 25.7041 59.1054 25.3617C59.8887 24.9813 60.7003 24.2939 61.4878 24.0075C62.755 23.5467 64.8701 23.0494 65.8766 22.2018C66.5207 21.6594 68.2607 21.1039 69.0866 21.0733C71.6204 20.9795 74.0362 20.3962 76.5977 20.3962C78.335 20.3962 80.2736 20.1705 82.1275 20.1705C83.9036 20.1705 85.7788 20.3962 87.6574 20.3962C89.4586 20.3962 91.5462 20.9218 93.3 21.3115C94.1982 21.5111 95.2706 21.6481 96.1214 22.0263C96.8718 22.3598 98.0415 23.1047 98.8299 23.1047C100.684 23.1047 102.625 24.8339 104.473 25.3617C106.445 25.9253 108.356 27.2686 110.115 28.2458C110.949 28.709 111.785 29.7399 112.485 30.4402C113.289 31.2443 114.198 31.902 114.98 32.6847C116.363 34.0674 117.09 36.3065 118.918 37.2741C119.422 37.5412 119.2 37.8131 119.419 38.2271C119.604 38.5752 120.059 38.8825 120.272 39.2553C120.622 39.8672 121.798 41.6457 122.429 41.8258C123.837 42.2282 125.078 44.2278 125.689 45.4497" stroke="white" stroke-width="0.25" stroke-linecap="round" stroke-linejoin="round"/>
<path d="M39.9202 145.664C40.1608 144.431 40.6624 142.955 39.0174 142.955C38.0681 142.955 37.3916 142.928 36.5346 143.357C34.5436 144.352 34.9547 146.438 34.9547 148.372C34.9547 152.704 41.3494 154.015 44.7604 154.015C50.5138 154.015 56.2973 154.466 62.0521 154.466C67.9247 154.466 73.934 154.692 79.8579 154.692C85.6385 154.692 91.4191 154.692 97.1998 154.692C100.476 154.692 103.683 154.466 106.955 154.466C108.107 154.466 109.294 154.015 110.454 154.015C111.084 154.015 112.476 153.994 113.049 153.739C113.807 153.403 114.711 153.609 115.532 153.564C116.394 153.516 117.25 152.842 117.902 152.335C118.299 152.026 119.144 151.266 119.144 150.742C119.144 150.192 119.538 149.988 119.595 149.501C119.611 149.368 119.797 148.515 119.871 148.422C120.264 147.93 120.046 146.758 120.046 146.115C120.046 144.929 119.648 144.339 118.579 143.745C117.883 143.358 116.887 143.407 116.096 143.407C115.063 143.407 115.081 144.393 115.081 145.212" stroke="white" stroke-width="0.25" stroke-linecap="round" stroke-linejoin="round"/>
<path d="M109.212 154.918C109.212 157.312 109.165 159.387 110.692 161.351C111.733 162.689 113.451 163.244 114.855 163.946" stroke="white" stroke-width="0.25" stroke-linecap="round" stroke-linejoin="round"/>
<path d="M45.3372 155.369C45.6691 157.112 45.9071 159.969 44.3215 161.238C43.7764 161.674 43.546 162.493 42.9673 162.943C42.2769 163.48 41.7898 164.027 41.0488 164.398" stroke="white" stroke-width="0.25" stroke-linecap="round" stroke-linejoin="round"/>
<path d="M136.523 59.4436C135.219 58.4951 133.964 57.5788 133.601 55.9451C133.276 54.4805 134.115 53.2911 135.394 52.7225C136.559 52.2051 137.559 51.5072 138.68 50.8667C140.323 49.928 141.713 48.3839 143.746 48.3839C145.347 48.3839 146.695 47.858 147.921 46.9043C148.936 46.1151 150.517 45.0329 150.517 43.6441C150.517 43.0042 150.743 42.5262 150.743 41.8384C150.743 40.9596 150.247 40.6452 149.84 39.9324C149.075 38.5942 147.513 38.344 146.341 39.2553C145.715 39.7422 145.022 40.1676 144.31 40.4842C143.681 40.7636 142.748 40.7324 142.216 41.2114C141.522 41.8362 139.408 42.2898 138.442 42.2898C137.002 42.2898 136.329 43.9418 135.394 44.7726C134.201 45.8338 132.791 46.3526 131.219 46.3526C130.767 46.3526 129.344 46.1283 129.075 46.4654C128.876 46.7137 128.569 46.959 128.347 47.2052C128.076 47.5068 128.279 47.805 128.122 48.1582C127.436 49.7014 128.128 50.9429 129.413 51.6567C129.934 51.9462 130.315 52.5077 130.642 52.9984C131.059 53.6242 131.017 51.5242 131.382 50.8667C131.745 50.2137 132.375 49.8731 132.686 49.1739C132.901 48.6906 132.741 47.4536 133.137 47.2554" stroke="white" stroke-width="0.25" stroke-linecap="round" stroke-linejoin="round"/>
<path d="M127.269 46.5783C125.964 45.6291 124.683 45.6127 123.256 45.1739C122.258 44.8667 121.106 44.5469 120.046 44.5469C118.274 44.5469 115.137 43.6898 113.777 42.4654C113.299 42.0351 111.813 41.7637 111.294 42.34C110.764 42.9292 111.018 44.3547 111.018 45.1112C111.018 47.443 110.77 49.6779 113.049 50.6912C113.762 51.0077 115.046 51.0077 115.758 50.6912C116.581 50.3252 118.145 50.641 119.031 50.641C120.007 50.641 120.715 50.5971 121.513 51.2178C122.208 51.7579 123.23 52.3978 124.109 52.4467C124.517 52.4693 124.884 52.8772 125.238 52.8981C125.717 52.9263 126.205 52.7799 126.592 53.1238C127.422 53.8615 128.297 54.5882 129.188 55.2805C129.766 55.7303 130.644 56.4962 131.432 56.2711C132.241 56.04 132.826 54.4079 133.589 54.0266" stroke="white" stroke-width="0.25" stroke-linecap="round" stroke-linejoin="round"/>
<path d="M127.946 54.9294C128.393 56.325 129.068 58.4543 128.347 59.895C127.596 61.3985 129.182 61.2493 130.429 61.2493C132.216 61.2493 135.821 61.5257 136.749 59.6693" stroke="white" stroke-width="0.25" stroke-linecap="round" stroke-linejoin="round"/>
<path d="M32.0205 49.061C32.0205 51.2672 30.7377 51.7413 29.312 53.1238C28.8029 52.8692 28.2991 52.0344 27.6192 51.6567C26.605 51.0932 26.6035 50.5853 26.6035 49.5124C26.6035 49.0364 26.5788 47.5459 26.9421 47.2554C27.7535 46.6062 27.9854 46.5782 29.0863 46.5782C30.9044 46.5782 32.0205 47.1103 32.0205 49.061Z" stroke="white" stroke-width="0.25" stroke-linecap="round" stroke-linejoin="round"/>
<path d="M31.7948 47.2554C33.3456 47.2184 35.0933 46.3486 36.0832 45.1111C36.629 44.4289 39.1256 43.8697 39.9202 43.8697C41.5907 43.8697 42.7899 43.2947 44.3215 42.9544C44.7482 42.8596 44.8649 42.3822 45.2243 42.3023C45.626 42.2131 45.9773 42.0459 46.3403 41.8384C47.0191 41.4505 47.5731 41.387 48.3843 41.387C49.6883 41.387 50.0771 43.766 50.0771 44.7726C50.0771 46.5107 50.2995 48.0317 48.4971 48.8855C46.8356 49.6725 44.5819 50.4153 42.7416 50.4153C40.8358 50.4153 38.9594 50.7484 37.3246 51.6567C36.0316 52.375 34.9207 53.2774 33.6004 53.9764C32.1538 54.7423 32.2462 55.4008 32.2462 57.0736C32.2462 58.5135 33.9736 59.8714 32.0205 60.848C30.7663 61.475 28.9096 61.3272 27.5063 61.2492C26.6943 61.2041 24.095 59.9487 23.9075 59.105C23.6944 58.1459 25.4109 56.0601 26.2524 55.8197C26.7495 55.6777 27.1155 54.9488 27.6819 55.6567C28.0404 56.1049 28.1781 56.7308 28.685 57.1363C29.7434 57.983 31.1957 54.9786 32.0205 54.7037" stroke="white" stroke-width="0.25" stroke-linecap="round" stroke-linejoin="round"/>
<path d="M26.8292 46.804C25.147 45.5806 22.4866 45.2151 21.5878 43.1926C20.779 41.3728 18.2944 41.8384 16.6724 41.8384C14.5545 41.8384 13.3473 41.3637 11.4811 40.5343C9.5271 39.6659 9.90114 44.1643 9.90114 45.3996C9.90114 48.4273 12.0343 48.3839 14.4654 48.3839C16.5331 48.3839 18.4989 48.0859 20.2335 49.2867C21.9046 50.4437 22.3134 52.2209 24.5721 52.2209C26.397 52.2209 26.7038 54.5282 27.9577 55.1551" stroke="white" stroke-width="0.25" stroke-linecap="round" stroke-linejoin="round"/>
<path d="M146.68 129.187C143.642 127.896 146.885 126.682 148.147 125.701C148.798 125.195 149.884 125.25 150.642 125.112C151.722 124.916 152.574 124.673 153.677 124.673C155.526 124.673 157.039 124.542 158.529 125.701C159.859 126.736 160.984 129.151 161.526 130.717C162.358 133.12 163.608 135.381 163.608 137.99C163.608 139.043 164.059 140.094 164.059 141.15C164.059 142.213 164.034 143.47 164.335 144.485C164.599 145.374 164.701 146.717 164.736 147.645C164.775 148.635 164.962 149.684 164.962 150.629C164.962 151.999 165.478 154.708 164.736 155.821" stroke="white" stroke-width="0.25" stroke-linecap="round" stroke-linejoin="round"/>
<path d="M155.934 129.639C154.942 129.615 153.488 129.439 154.178 128.059C154.562 127.292 155.412 127.156 156.16 127.156C157.476 127.156 158.414 127.278 159.37 128.234C161.067 129.932 163.468 132.532 163.608 135.056C163.707 136.839 164.442 138.729 164.511 140.523C164.545 141.421 164.736 142.241 164.736 143.131C164.736 143.834 164.497 145.013 164.787 145.664C165.42 147.09 164.962 149.502 164.962 151.081C164.962 152.661 164.962 154.241 164.962 155.821" stroke="white" stroke-width="0.25" stroke-linecap="round" stroke-linejoin="round"/>
<path d="M146.906 129.864C146.906 130.263 146.468 135.096 147.244 135.269C148.177 135.476 148.111 135.385 148.435 136.36C148.732 137.251 148.711 138.09 148.711 139.018C148.711 141.248 148.519 144.987 151.533 144.987C154.153 144.987 153.225 138.384 153.225 136.636C153.225 135.678 153.451 134.774 153.451 133.802C153.451 133.282 153.286 132.381 153.501 131.896C153.961 130.86 153.708 129.479 154.354 128.51" stroke="white" stroke-width="0.25" stroke-linecap="round" stroke-linejoin="round"/>
<path d="M150.968 145.438C150.968 148.165 151.42 150.967 151.42 153.789C151.42 155.35 152.703 156.139 154.003 156.51C155.108 156.826 156.28 157.715 157.514 157.852C158.119 157.919 158.584 158.529 159.207 158.529C159.877 158.529 160.775 159.066 161.476 159.194C162.371 159.356 163.367 158.981 164.285 158.981C164.887 158.981 165.489 158.981 166.091 158.981C168.81 158.981 171.39 158.755 174.103 158.755C176.89 158.755 179.616 158.078 182.455 158.078C183.176 158.078 183.47 158.203 183.47 157.401C183.47 156.802 183.505 156.192 183.47 155.595C183.406 154.511 181.317 154.692 180.649 154.692C175.452 154.692 170.446 156.272 165.188 156.272" stroke="white" stroke-width="0.25" stroke-linecap="round" stroke-linejoin="round"/>
<path d="M155.031 129.413C156.728 129.413 158.868 130.498 158.868 132.573C158.868 134.623 159.771 136.679 159.771 138.717C159.771 139.777 159.779 141.069 160.172 142.053C160.52 142.922 160.049 144.058 160.335 144.974C161.048 147.254 160.35 149.858 160.686 152.209C160.823 153.163 160.899 154.049 160.899 155.031C160.899 155.398 159.309 154.938 158.868 154.742C158.229 154.458 157.499 154.259 156.837 153.965C156.019 153.601 155.289 153.782 154.479 153.551C152.998 153.128 154.242 145.892 153.451 144.31" stroke="white" stroke-width="0.25" stroke-linecap="round" stroke-linejoin="round"/>
<path d="M164.736 151.532C165.991 151.532 167.162 151.147 168.348 151.081C168.968 151.046 169.947 151.291 170.429 150.905C171.435 150.101 174.086 151.479 175.019 151.745C176.427 152.148 178.035 152.435 179.52 152.435C180.17 152.435 181.213 152.46 181.777 152.774C182.778 153.329 181.731 154.241 183.019 154.241" stroke="white" stroke-width="0.25" stroke-linecap="round" stroke-linejoin="round"/>
<path d="M178.956 158.981C180.187 163.252 181.213 167.058 181.213 171.507C181.213 172.729 181.166 173.961 181.213 175.181C181.271 176.698 183.019 176.522 183.019 175.006C183.019 172.26 183.019 169.514 183.019 166.767C183.019 165.273 183.47 163.88 183.47 162.416C183.47 161.765 183.803 159.034 183.244 158.755" stroke="white" stroke-width="0.25" stroke-linecap="round" stroke-linejoin="round"/>
<path d="M170.379 159.206C170.379 161.148 170.465 163.008 170.605 164.899C170.704 166.243 171.206 167.5 171.495 168.799C171.708 169.757 171.822 170.877 172.298 171.733C172.517 172.129 172.553 172.658 172.649 173.087C172.714 173.38 173.492 174.444 173.539 173.652C173.593 172.728 173.99 171.966 173.99 170.943C173.99 169.631 173.99 168.318 173.99 167.006C173.99 164.551 174.442 162.159 174.442 159.658" stroke="white" stroke-width="0.25" stroke-linecap="round" stroke-linejoin="round"/>
<path d="M152.323 156.272C152.323 159.462 153.451 162.506 153.451 165.639C153.451 166.812 154.236 168.556 154.567 169.714C154.875 170.792 155.031 172.08 155.031 173.2C155.031 173.519 155.193 174.969 155.884 174.279C156.174 173.989 156.16 172.882 156.16 172.473C156.16 170.801 156.16 169.129 156.16 167.457C156.16 165.551 156.385 163.685 156.385 161.802C156.385 161.092 156.737 158.141 156.16 157.852" stroke="white" stroke-width="0.25" stroke-linecap="round" stroke-linejoin="round"/>
<path d="M159.771 159.206C159.968 160.243 160.391 161.56 160.448 162.592C160.484 163.243 160.99 163.85 161.113 164.523C161.375 165.964 162.028 167.575 162.028 169.037C162.028 170.747 162.254 172.456 162.254 174.216C162.254 174.768 162.061 175.775 162.429 176.184C162.582 176.354 163.457 178.022 163.834 177.363C164.455 176.275 164.442 173.987 164.511 172.749C164.598 171.17 164.736 169.492 164.736 167.959C164.736 164.891 164.736 161.823 164.736 158.755" stroke="white" stroke-width="0.25" stroke-linecap="round" stroke-linejoin="round"/>
<path d="M40.5159 146.028C42.4725 146.028 47.4466 147.001 47.4466 143.981C47.4466 142.845 47.7617 141.718 47.7617 140.515C47.7617 139.605 46.3835 139.003 45.8015 138.538C44.5955 137.573 40.7243 136.868 39.5707 138.31C38.87 139.186 37.0398 139.106 36.1754 139.798C35.3869 140.428 34.189 140.706 33.5851 141.46C31.8631 143.613 31.0648 144.969 31.0648 147.919C31.0648 150.557 31.1827 152.452 33.7251 153.904C35.6279 154.992 38.3068 155.164 40.5159 155.164C42.815 155.164 45.1344 155.218 47.1316 154.219" stroke="white" stroke-width="0.25" stroke-linecap="round" stroke-linejoin="round"/>
<path d="M114.476 146.304C113.944 146.304 111.138 146.644 110.8 146.22C110.2 145.47 109.728 144.52 109.333 143.631C108.354 141.428 108.879 139.259 111.208 138.2C112.152 137.771 113.443 137.172 114.476 137.114C115.015 137.084 117.335 136.795 117.78 137.151C118.449 137.687 119.242 138.037 119.906 138.701C120.757 139.553 121.679 140.156 122.412 141.134C123.621 142.745 124.608 145.68 124.157 147.706C123.929 148.734 122.874 149.894 122.162 150.648C121.271 151.591 120.275 152.14 119.321 152.988C117.264 154.816 113.882 155.16 111.217 155.16C109.943 155.16 108.646 155.04 107.421 154.993C106.83 154.97 104.318 155.063 104.116 154.658" stroke="white" stroke-width="0.25" stroke-linecap="round" stroke-linejoin="round"/>
<path d="M46.4705 145.803C47.9587 146.114 49.2718 146.638 50.7776 146.638C52.2938 146.638 53.81 146.638 55.3262 146.638C56.8366 146.638 58.3473 146.137 59.8376 146.137C61.3398 146.137 62.8301 145.97 64.349 145.97C67.3442 145.97 70.3394 145.97 73.3346 145.97C74.6535 145.97 75.8794 146.137 77.2148 146.137C78.6222 146.137 80.0002 145.803 81.392 145.803C83.6032 145.803 85.7466 145.301 87.992 145.301C89.0471 145.301 90.1023 145.301 91.1574 145.301C92.5278 145.301 94.2128 145.347 95.5574 145.097C98.1931 144.607 101.186 144.633 103.865 144.633C104.773 144.633 105.494 144.466 106.381 144.466C106.9 144.466 108.922 144.712 109.129 144.299" stroke="white" stroke-width="0.25" stroke-linecap="round" stroke-linejoin="round"/>
<path d="M205.981 99.1613C205.981 96.0292 205.71 93.0849 204.986 90.043C204.783 89.194 205.018 88.3017 204.832 87.4487C204.67 86.6996 204.603 85.8329 204.603 85.0671C204.603 83.2995 204.143 81.599 204.143 79.87C204.143 76.2354 203.837 72.704 203.837 69.0761C203.837 67.3539 203.704 65.6736 203.157 64.0321C202.536 62.1697 202.774 60.1132 202.34 58.2141C202.122 57.2609 202.447 56.217 202.272 55.2541C202.097 54.2877 202.034 53.2588 202 52.277C201.941 50.554 201.694 48.8353 201.694 47.0969C201.694 45.004 201.081 42.9572 201.081 40.8366C201.081 40.1224 200.775 39.4507 200.775 38.7612C200.775 37.5619 200.775 36.3625 200.775 35.1632C200.775 34.5508 200.775 33.9384 200.775 33.326C200.775 32.604 201.081 31.9144 201.081 31.1825C201.081 29.0497 202.315 27.3906 202.766 25.3645C202.965 24.4678 203.384 23.6021 203.523 22.7021C203.617 22.0864 204.009 21.0676 204.373 20.5417C205.521 18.8834 206.58 17.1349 207.665 15.4466C208.592 14.0045 209.091 12.2131 210.234 10.9385C210.876 10.2217 211.334 9.21425 211.884 8.4038C212.435 7.59103 213.149 6.88882 213.704 6.0817C214.009 5.63789 214.455 4.96592 214.929 4.69524C215.259 4.50656 215.145 3.44819 215.55 3.85316C216.297 4.60041 217.07 5.30545 217.804 6.03917C218.592 6.82755 220.018 7.31039 220.951 7.91046C222.285 8.76808 223.648 9.76881 224.889 10.7344C226.179 11.7372 227.593 12.8788 228.411 14.3324C229.323 15.9536 230.709 17.2532 231.549 18.934C232.313 20.4613 232.608 22.2012 233.2 23.7994C233.454 24.4868 233.652 25.0798 233.88 25.7898C234.079 26.4085 234.591 27.0138 234.756 27.593C235.532 30.3094 237.59 32.6261 237.674 35.5545C237.723 37.2732 238.78 38.9253 238.898 40.641C239.005 42.1902 239.346 43.9988 239.741 45.4978C240.024 46.5755 240.088 47.7201 240.268 48.7981C240.358 49.3408 240.453 51.6338 240.889 51.8517" stroke="white" stroke-width="0.25" stroke-linecap="round" stroke-linejoin="round"/>
<path d="M198.632 105.286C197.944 104.111 197.421 102.116 198.019 100.769C198.377 99.9644 199.864 99.6209 200.631 99.4675C201.579 99.2778 202.409 99.1613 203.378 99.1613C205.396 99.1613 207.315 99.4675 209.349 99.4675C210.457 99.4675 211.554 99.6206 212.632 99.6206C213.922 99.6206 215.121 99.8915 216.392 99.9268C218.305 99.98 220.235 99.9268 222.142 99.9268C223.365 99.9268 224.657 99.751 225.876 99.6291C227.183 99.4984 228.729 99.7071 229.984 99.3484C230.947 99.0733 232.072 99.331 233.046 99.0422C234.141 98.7178 235.458 98.8551 236.593 98.8551C237.974 98.8551 239.355 98.8551 240.736 98.8551" stroke="white" stroke-width="0.25" stroke-linecap="round" stroke-linejoin="round"/>
<path d="M198.632 105.898C202.865 105.898 207.125 106.051 211.339 106.051C216.046 106.051 220.635 105.241 225.306 105.132C226.968 105.094 228.644 104.979 230.325 104.979C231.618 104.979 233.045 105.14 234.305 104.86C234.979 104.711 235.59 104.761 236.262 104.554C236.718 104.413 237.19 104.367 237.674 104.367C238.252 104.367 240.002 104.125 240.276 104.673" stroke="white" stroke-width="0.25" stroke-linecap="round" stroke-linejoin="round"/>
<path d="M198.325 99.7737C198.325 97.9761 198.325 96.1786 198.325 94.381C198.325 93.3717 198.505 92.1871 198.291 91.1998C198.057 90.1146 197.862 89.0581 197.594 87.9846C197.371 87.0944 197.15 85.9917 197.101 85.0756C197.005 83.3086 196.641 81.4705 196.641 79.7169C196.641 77.1765 196.641 74.6361 196.641 72.0957C196.641 69.9038 195.616 67.8499 195.57 65.6652C195.529 63.7705 194.957 62.0214 194.957 60.1194C194.957 57.63 194.57 55.0918 194.345 52.6172C194.258 51.6629 194.039 50.808 194.039 49.8273C194.039 48.6167 194.039 47.406 194.039 46.1953C194.039 44.381 193.426 42.6594 193.426 40.8196C193.426 38.7478 192.814 36.6881 192.814 34.6104C192.814 29.5584 192.161 24.4015 194.26 19.6315C194.722 18.5803 195.15 17.3356 195.485 16.2377C195.693 15.5535 195.789 14.2269 196.412 13.7285C196.605 13.5737 196.686 12.7359 196.794 12.4696C196.996 11.9763 197.214 11.4269 197.492 10.9726C198.003 10.1367 198.282 9.24011 198.717 8.36978C199.061 7.68145 199.308 6.94352 199.618 6.23481C199.879 5.63805 200.312 5.00886 200.469 4.38053C200.799 3.06015 202.051 2.09145 202.459 0.867615" stroke="white" stroke-width="0.25" stroke-linecap="round" stroke-linejoin="round"/>
<path d="M229.406 0.255188C231.121 1.16505 232.029 2.73535 233.302 4.08282C234.507 5.35929 235.384 6.93101 236.602 8.21667C237.716 9.3925 238.577 11.1664 239.086 12.6908C239.315 13.3778 239.686 13.9309 239.97 14.5705C240.124 14.9178 240.346 16.213 240.583 16.3313" stroke="white" stroke-width="0.25" stroke-linecap="round" stroke-linejoin="round"/>
<path d="M0.957336 116.256C4.72231 116.256 8.4866 115.989 12.3106 115.989C13.8688 115.989 15.4271 115.989 16.9854 115.989C18.2391 115.989 19.9064 116.265 20.9924 115.722" stroke="white" stroke-width="0.25" stroke-linecap="round" stroke-linejoin="round"/>
<path d="M0.957336 110.379C4.92458 110.379 9.05962 110.101 12.9784 110.661C16.0076 111.094 18.7913 110.913 21.7938 110.913" stroke="white" stroke-width="0.25" stroke-linecap="round" stroke-linejoin="round"/>
<path d="M139.6 109.845C145.427 109.845 151.694 109.298 157.439 110.32C160.093 110.791 163.216 110.379 165.913 110.379C168.958 110.379 171.992 110.169 175.01 110.112C180.296 110.012 185.486 109.043 190.831 109.043C195.436 109.043 200.042 109.043 204.648 109.043C207.486 109.043 210.212 109.578 213.062 109.578C216.476 109.578 219.721 108.598 223.065 107.99C225.638 107.522 229.091 107.341 231.762 107.723C234.373 108.096 237.098 107.975 239.776 107.975" stroke="white" stroke-width="0.25" stroke-linecap="round" stroke-linejoin="round"/>
<path d="M139.333 116.523C146.298 116.523 153.264 116.523 160.229 116.523C164.295 116.523 168.362 116.523 172.428 116.523C175.285 116.523 178.484 116.919 181.273 116.315C183.071 115.927 185.022 116.257 186.824 115.93C188.393 115.644 190.093 115.455 191.691 115.455C193.918 115.455 196.144 115.455 198.37 115.455C202.648 115.455 206.874 115.722 211.192 115.722" stroke="white" stroke-width="0.25" stroke-linecap="round" stroke-linejoin="round"/>
<path d="M231.762 114.92C232.699 114.92 239.349 114.335 239.776 115.188" stroke="white" stroke-width="0.25" stroke-linecap="round" stroke-linejoin="round"/>
</svg>
