<svg width="987" height="833" viewBox="0 0 987 833" fill="none" xmlns="http://www.w3.org/2000/svg">
<path d="M659.807 602.512C659.807 589.954 661.638 581.236 668.098 570.334C675.203 558.345 685.277 549.792 696.777 542.265C702.511 538.511 743.331 522.103 743.331 538.841C743.331 543.386 737.408 545.064 733.747 543.33C727.799 540.512 727.397 533.131 728.574 527.507C729.96 520.886 740.072 514.031 744.625 509.479C750.744 503.359 756.761 498.001 763.946 492.971C777.238 483.667 796.044 474.646 804.263 460.033C813.364 443.853 807.308 430.15 790.951 423.139C774.934 416.275 765.239 422.447 765.239 439.57C765.239 444.358 771.445 447.786 775.889 447.786C782.15 447.786 781.67 442.688 781.67 438.201" stroke="#485727" stroke-linecap="round" stroke-linejoin="round"/>
<path d="M275.046 325.922C275.046 342.61 276.542 359.976 265.385 373.922C251.646 391.096 231.159 404.674 208.637 406.632C195.804 407.748 187.414 404.006 187.414 390.277C187.414 385.063 191.12 384.299 195.629 384.8C200.195 385.308 201.012 396.583 201.106 399.862C201.503 413.738 189.449 419.887 180.643 428.693C166.67 442.666 155.85 459.962 154.475 479.888C153.835 489.17 151.026 500.234 153.943 509.403C156.026 515.949 161.609 525.662 168.929 527.203C173.813 528.231 181.972 530.73 186.196 526.975C189.126 524.371 195.586 519.179 194.184 514.271C193.281 511.112 186.672 514.385 185.74 516.249C183.594 520.542 183.306 523.778 183.306 528.572C183.306 539.971 196.098 546.133 206.887 546.372C213.922 546.529 223.102 547.762 229.86 545.612C240.523 542.219 250.446 537.641 261.429 534.734C275.224 531.082 293.445 524.091 307.908 529.257C317.048 532.521 327.078 542.54 327.078 553.219C327.078 565.949 321.7 570.195 310.647 575.431C298.64 581.118 292.846 570.173 292.846 560.065C292.846 554.945 292.951 554.588 298.323 554.588C299.816 554.588 305.486 555.957 303.8 555.957" stroke="#485727" stroke-linejoin="round"/>
<path d="M573.355 320.34C581.434 308.964 589.936 301.499 602.245 297.607C611.613 294.645 626.025 298.329 635.678 298.726C652.79 299.43 664.74 292.048 678.693 280.859C687.988 273.405 694.04 268.304 691.683 256.641C689.546 246.069 685.144 235.896 678.575 227.703C671.227 218.541 662.362 212.762 650.399 223.347C647.509 225.903 650.034 233.054 653.305 233.188C656.579 233.323 663.525 227.244 665.754 224.618C670.321 219.234 664.332 200.072 663.179 194.515C659.722 177.841 654.144 162.698 660.792 144.591C664.511 134.462 679 109.326 693.023 114.832C698.783 117.094 693.584 124.461 689.907 127.112C686.038 129.902 680.465 123.733 678.702 121.535C663.253 102.269 696.185 70.6107 715.533 61.136C726.708 55.6639 745.577 49.458 752.538 37.3296C756.242 30.876 757.031 22.4961 759.923 15.7589C762.269 10.2907 758.798 2.91503 762.183 14.3808C763.279 18.0918 768.564 28.2949 767.212 24.6933C765.393 19.849 764.11 10.8137 766.2 5.39971C769.58 -3.35391 761.492 5.15488 758.093 7.88051C753.996 11.1659 749.899 14.4512 745.802 17.7366" stroke="#485727" stroke-linecap="round" stroke-linejoin="round"/>
<path d="M353.866 530C358.486 555.479 357.638 584.064 334.615 600.927C319.936 611.679 302.661 613.144 285.221 616.306C269.292 619.195 253.461 620.763 237.527 623.349C218.458 626.443 198.995 625.023 184.388 640.21C178.66 646.166 171.824 673.72 183.177 677.805C187.377 679.317 191.759 678.211 195.957 677.45C198.842 676.927 200.414 672.005 197.075 670.825C190.87 668.632 183.901 670.002 177.512 671.161C168.251 672.84 163.136 681.968 158.843 689.711C153.972 698.493 144.277 705.434 138.287 713.597C129.241 725.926 109.385 741.548 92.697 736.672C84.8083 734.367 79.2689 732.605 73.916 726.073C68.2403 719.147 65.6044 737.791 65.2994 736.109C64.4746 731.561 63.6499 727.013 62.8251 722.464C62.2829 719.474 59.2096 711.28 64.0137 715.737C69.7975 721.103 77.6465 719.777 84.5882 718.518" stroke="#485727" stroke-linecap="round" stroke-linejoin="round"/>
<circle cx="660" cy="183" r="4" fill="#D7A99B"/>
<circle cx="724" cy="57" r="4" fill="#D7A99B"/>
<circle cx="210" cy="406" r="4" fill="#D7A99B"/>
<circle cx="153" cy="508" r="4" fill="#D7A99B"/>
<circle cx="315" cy="534" r="4" fill="#D7A99B"/>
<circle cx="738" cy="515" r="4" fill="#D7A99B"/>
<circle cx="629" cy="297" r="4" fill="#D7A99B"/>
<circle cx="777" cy="420" r="4" fill="#D7A99B"/>
<circle cx="195" cy="633" r="4" fill="#D7A99B"/>
<circle cx="342" cy="595" r="4" fill="#D7A99B"/>
<path d="M195.377 290.53C191.034 291.859 191.462 289.687 191.462 286.099C191.462 283.093 192.962 280.35 195.893 279.03C201.773 276.385 206.549 279.581 208.344 285.365C210.194 291.326 210.877 298.282 205.191 302.219C199.201 306.366 191.774 307.185 185.509 303.198C176.776 297.641 168.841 292.622 158.623 290.068C150.781 288.107 141.151 287.653 133.151 288.844C128.989 289.464 125.003 291.934 123.717 296.157C123.371 297.294 122.787 301.561 123.717 302.491C124.711 303.484 127.896 302.734 128.828 302.002C130.635 300.582 131.275 298.602 131.275 296.429C131.275 295.601 131.727 292.854 130.976 292.27C127.355 289.453 119.766 289.062 115.399 289.062C110.711 289.062 106.052 289.551 101.426 289.551C91.6337 289.551 81.5092 291.471 72.0931 287.594C67.4179 285.669 63.5343 282.756 59.8598 279.275C56.4923 276.085 51.4288 272.755 50.3179 267.993C48.1785 258.824 53.0223 252.807 61.0288 248.964C62.7334 248.146 70.2385 248.455 67.3901 252.117C65.5686 254.459 61.019 254.02 60.0773 251.383C58.9452 248.214 57.1977 242.87 58.6637 239.612C61.784 232.678 67.9279 228.387 72.0659 222.295C79.285 211.667 84.4751 200.057 85.6584 187.172C86.5766 177.174 80.6617 166.486 70.5979 163.793C68.3025 163.179 63.6828 161.795 61.3006 162.923C60.2764 163.409 59.3867 165.682 59.9414 166.729C61.2543 169.209 66.0887 164.46 66.6832 163.304C69.6999 157.438 68.7124 153.538 64.4541 148.461C60.3082 143.518 55.447 136.81 49.5567 133.944C42.8486 130.681 34.031 131.596 29.4942 124.538C25.6819 118.608 29.2318 112.424 35.3661 110.456C38.4936 109.453 46.1416 110.06 44.0653 115.458C42.9908 118.252 38.087 120.807 35.7467 122.69C31.4213 126.169 27.0389 129.339 22.5348 132.585C15.5613 137.61 6.91594 148.398 9.64916 157.813C10.8801 162.053 15.17 164.119 17.7503 167.327C20.7714 171.083 22.1542 174.76 22.1542 179.561C22.1542 181.911 22.643 184.878 21.5834 187.064C20.4637 189.373 18.6116 190.958 16.7716 192.664C13.4349 195.758 7.9087 196.724 3.55972 197.448C-0.0626688 198.052 0.623745 196.183 0.623745 193.153C0.623745 190.005 0.308187 188.538 2.6898 186.411C5.62657 183.789 8.45302 185.437 8.45302 188.749" stroke="#485727" stroke-linecap="round" stroke-linejoin="round"/>
<path d="M438.966 321.964C445.665 321.964 450.336 322.892 455.126 318.103C459.23 313.998 463.448 310.194 466.638 305.232C469.177 301.282 469.855 297.654 469.855 293.005C469.855 290.104 465.171 286.31 462.419 288.787C453.767 296.574 471.488 296.084 474.932 294.936C480.054 293.229 484.57 289.309 490.376 287.857C497.413 286.098 504.13 285.927 511.326 285.927C518.507 285.927 526.43 296.223 515.545 296.223C508.53 296.223 510.502 282.604 513.614 279.492C519.214 273.892 528.382 271.693 532.205 264.047C536.327 255.803 538.141 237.942 534.779 229.297C521.919 196.23 457.879 208.267 462.204 165.017C463.705 150.01 482.434 152.075 493.022 152.075C508.424 152.075 491.76 172.466 484.728 163.516C474.783 150.859 489.831 139.341 499.457 134.343C505.773 131.063 511.763 125.938 518.762 124.047C527.301 121.739 534.596 119.236 542.573 115.395C563.655 105.244 575.832 82.2995 575.392 59.4089C575.155 47.0648 563.885 37.5293 552.225 37.5293" stroke="#485727" stroke-linecap="round" stroke-linejoin="round"/>
<path d="M733.697 441.658C720.567 436.534 713.941 425.179 711.174 411.341C709.701 403.976 709.062 392.435 710.816 385.028C713.156 375.149 722.367 371.271 729.764 365.723C736.063 360.999 770.152 345.825 775.883 356.714C779.174 362.966 775.488 379.654 770.735 367.296C769.428 363.899 760.836 350.801 767.803 347.704C777.951 343.195 789.738 333.79 796.047 324.538C805.285 310.988 809.963 278.205 785.822 278.205C779.857 278.205 781.317 285.511 781.317 289.788C781.317 296.111 792.907 295.198 797.405 294.865C809.65 293.958 819.564 285.325 832.155 284.711C846.123 284.03 857.752 286.021 868.836 295.222C876.347 301.458 881.706 309.253 881.706 319.318C881.706 324.604 879.909 330.777 872.983 328.113C869.129 326.631 868.897 320.109 872.697 319.104C880.12 317.139 887.011 316.816 894.648 316.816C911.294 316.816 918.649 331.964 930.613 341.269C941.023 349.366 956.269 355.427 969.51 355.427C983.127 355.427 985.956 344.017 985.956 332.546C985.956 322.078 972.431 318.95 964.076 319.39C960.979 319.553 960.215 325.285 960.215 327.755C960.215 330.521 964.37 330.973 966.65 330.973" stroke="#485727" stroke-linecap="round" stroke-linejoin="round"/>
<path d="M409.584 588C409.584 610.494 399.587 613.368 385.37 628.678C372.73 642.291 364.425 643.68 365.031 665.483C365.562 684.593 392.994 679.042 405.602 679.042C427.186 679.042 440.064 689.335 440.577 712.403C440.635 715.024 442.473 729.18 438.639 729.406C433.497 729.708 430.891 730.201 430.891 724.563C430.891 709.943 441.225 710.035 454.136 710.035C470.335 710.035 477.543 720.38 490.079 729.406C518.614 749.951 553.85 759.828 588.654 762.228C602.715 763.198 621.972 758.497 622.661 740.598C622.937 733.418 625.522 721.657 615.881 721.657C606.044 721.657 606.95 733.065 612.975 739.091C620.344 746.46 629.007 752.81 638.372 757.493C653.035 764.824 672.431 764.715 688.09 770.514C700.336 775.05 708.23 795.073 709.721 806.996C710.784 815.498 709.953 831.417 698.206 832.07C689.871 832.533 680.553 822.385 692.395 822.385" stroke="#485727" stroke-linecap="round" stroke-linejoin="round"/>
</svg>
