<svg width="1201" height="783" viewBox="0 0 1201 783" fill="none" xmlns="http://www.w3.org/2000/svg">
<path d="M754.807 601.512C754.807 588.954 756.638 580.236 763.098 569.334C770.203 557.346 780.277 548.792 791.777 541.265C797.511 537.511 838.331 521.103 838.331 537.842C838.331 542.386 832.408 544.064 828.747 542.33C822.799 539.512 822.397 532.131 823.574 526.507C824.96 519.886 835.072 513.031 839.625 508.479C845.744 502.359 851.761 497.001 858.946 491.972C872.238 482.667 891.044 473.646 899.263 459.033C908.364 442.853 902.308 429.15 885.951 422.139C869.934 415.275 860.239 421.447 860.239 438.571C860.239 443.358 866.445 446.786 870.889 446.786C877.15 446.786 876.67 441.689 876.67 437.201" stroke="#485727" stroke-linecap="round" stroke-linejoin="round"/>
<path d="M370.046 324.922C370.046 341.61 371.542 358.976 360.385 372.922C346.646 390.096 326.159 403.674 303.637 405.632C290.804 406.748 282.414 403.006 282.414 389.277C282.414 384.063 286.12 383.299 290.629 383.8C295.195 384.308 296.012 395.583 296.106 398.862C296.503 412.737 284.449 418.887 275.643 427.693C261.67 441.666 250.85 458.962 249.475 478.887C248.835 488.17 246.026 499.234 248.943 508.403C251.026 514.949 256.609 524.662 263.929 526.203C268.813 527.231 276.972 529.729 281.196 525.975C284.126 523.371 290.586 518.179 289.184 513.271C288.281 510.112 281.672 513.385 280.74 515.249C278.594 519.542 278.306 522.778 278.306 527.572C278.306 538.971 291.099 545.133 301.887 545.372C308.922 545.529 318.102 546.762 324.861 544.612C335.523 541.219 345.446 536.641 356.429 533.734C370.224 530.082 388.445 523.091 402.908 528.257C412.048 531.521 422.078 541.54 422.078 552.219C422.078 564.949 416.7 569.195 405.647 574.431C393.64 580.118 387.846 569.173 387.846 559.065C387.846 553.945 387.951 553.588 393.323 553.588C394.816 553.588 400.486 554.957 398.8 554.957" stroke="#485727" stroke-linejoin="round"/>
<path d="M650.639 228.916C658.263 218.432 663.187 199.981 657.485 187.153C654.421 180.26 648.383 178.928 641.739 176.884C636.004 175.119 631.973 172.392 626.677 170.038C623.566 168.655 618.059 159.492 624.015 157.79C631.134 155.756 631.469 162.529 631.469 167.984C631.469 178.005 606.417 178.646 602.715 172.168C595.941 160.314 571.196 156.447 563.007 168.973C561.229 171.692 561.319 184.809 566.81 179.318C573.528 172.6 556.946 172.776 555.095 172.776C540.769 172.776 522.07 177.418 516.756 160.149C514.65 153.303 516.979 146.877 523.298 143.717C529.747 140.493 530.986 149.078 527.406 150.868" stroke="#485727" stroke-linecap="round" stroke-linejoin="round"/>
<path d="M668.355 319.34C676.434 307.964 684.936 300.499 697.245 296.607C706.613 293.645 721.025 297.329 730.678 297.726C747.79 298.43 759.74 291.048 773.693 279.859C782.988 272.405 789.04 267.304 786.683 255.641C784.546 245.069 780.144 234.896 773.575 226.704C766.227 217.541 757.362 211.762 745.399 222.347C742.509 224.903 745.034 232.054 748.305 232.188C751.579 232.323 758.525 226.244 760.754 223.618C765.321 218.234 759.332 199.072 758.179 193.515C754.722 176.841 749.144 161.698 755.792 143.591C759.511 133.462 774 108.326 788.023 113.832C793.783 116.094 788.584 123.461 784.907 126.112C781.038 128.902 775.465 122.733 773.702 120.535C758.253 101.269 791.185 69.6107 810.533 60.136C821.708 54.6639 840.577 48.4581 847.538 36.3297C851.242 29.876 852.031 21.4961 854.923 14.759C857.269 9.29079 853.798 1.91509 857.183 13.3809C858.279 17.0919 863.564 27.295 862.212 23.6934C860.393 18.849 859.11 9.8138 861.2 4.39977C864.58 -4.35385 856.492 4.15494 853.093 6.88057C848.996 10.1659 844.899 13.4513 840.802 16.7366" stroke="#485727" stroke-linecap="round" stroke-linejoin="round"/>
<path d="M448.866 529C453.486 554.479 452.638 583.064 429.615 599.927C414.936 610.679 397.661 612.144 380.221 615.306C364.292 618.195 348.461 619.763 332.527 622.349C313.458 625.443 293.995 624.023 279.388 639.21C273.66 645.166 266.824 672.72 278.177 676.805C282.377 678.317 286.759 677.211 290.957 676.45C293.842 675.927 295.414 671.005 292.075 669.825C285.87 667.632 278.901 669.002 272.512 670.161C263.251 671.84 258.136 680.968 253.843 688.711C248.972 697.493 239.277 704.434 233.287 712.597C224.241 724.926 204.385 740.548 187.697 735.672C179.808 733.367 174.269 731.605 168.916 725.073C163.24 718.147 160.604 736.791 160.299 735.109C159.475 730.561 158.65 726.013 157.825 721.464C157.283 718.474 154.21 710.28 159.014 714.737C164.797 720.103 172.646 718.777 179.588 717.518" stroke="#485727" stroke-linecap="round" stroke-linejoin="round"/>
<circle cx="755" cy="182" r="4" fill="#D7A99B"/>
<circle cx="819" cy="56" r="4" fill="#D7A99B"/>
<circle cx="642" cy="177" r="4" fill="#D7A99B"/>
<circle cx="305" cy="405" r="4" fill="#D7A99B"/>
<circle cx="248" cy="507" r="4" fill="#D7A99B"/>
<circle cx="410" cy="533" r="4" fill="#D7A99B"/>
<circle cx="833" cy="514" r="4" fill="#D7A99B"/>
<circle cx="724" cy="296" r="4" fill="#D7A99B"/>
<circle cx="872" cy="419" r="4" fill="#D7A99B"/>
<circle cx="575" cy="162" r="4" fill="#D7A99B"/>
<circle cx="290" cy="632" r="4" fill="#D7A99B"/>
<circle cx="437" cy="594" r="4" fill="#D7A99B"/>
<path d="M115.412 138.852C99.0661 138.852 73.4768 126.693 73.4768 106.527C73.4768 82.5908 86.6254 67.1793 107.064 55.3705C136.118 38.5834 206.024 32.7979 192.681 84.6862C183.363 120.922 196.314 171.069 238.11 179.428C267.088 185.224 301.754 171.345 304.022 138.464C304.278 134.756 302.017 124.258 295.771 130.504C293.478 132.797 299.805 142 301.498 143.317C310.668 150.449 338.129 145.841 349.16 145.841C369.669 145.841 387.219 140.608 401.094 159.82C411.124 173.707 415.151 186.35 414.199 203.502C413.636 213.625 395.238 220.82 387.116 222.625C371.385 226.121 350.05 226.949 337.706 238.836C330.844 245.444 315.285 259.433 322.563 270.87C333.308 287.756 352.024 284.058 368.381 288.731C379.705 291.967 389.736 288.722 389.736 303.098" stroke="#485727" stroke-linecap="round" stroke-linejoin="round"/>
<path d="M562.802 543C562.214 572.969 546.744 604.442 561.055 633.859C571.753 655.85 587.399 659.796 608.231 668.805C627.05 676.943 660.307 667.618 674.629 654.05C679.349 649.578 679.87 646.163 679.87 639.878C679.87 633.174 674.302 630.953 670.746 637.354C649.795 675.066 703.856 672.3 727.436 672.3C752.013 672.3 779.716 665.412 803.54 673.659C816.378 678.103 838.417 686.836 843.727 700.644C847.011 709.181 851.105 716.336 851.105 725.592C851.105 734.274 846.202 735.413 840.233 740.056C839.312 740.772 837.239 729.054 839.845 728.31C846.155 726.507 854.953 728.213 861.589 728.213C875.112 728.213 879.215 741.799 889.545 747.433C908.933 758.008 927.391 773.104 951.089 773.642C964.423 773.945 974.458 772.695 984.676 763.159C992.716 755.654 1003.71 747.779 1013.6 742.968C1027.67 736.125 1049.31 735.529 1059.03 749.569C1066.58 760.465 1070.75 774.286 1057.29 781.02C1047.98 785.672 1030.65 773.856 1041.56 768.401" stroke="#485727" stroke-linecap="round" stroke-linejoin="round"/>
<path d="M800.35 334.549C816.545 361.108 824.867 332.064 835.296 317.464C838.701 312.696 847.498 303.472 854.516 306.98C858.872 309.159 862.476 320.425 865 324.842C871.489 336.199 889.587 309.962 893.83 305.718C907.173 292.375 929.24 272.743 949.258 287.372C963.675 297.908 956.913 329.415 960.712 345.033C967.039 371.041 997.899 369.817 1014.39 354.546C1022.95 346.618 1053.23 304.52 1026.72 299.7C1016.5 297.841 1013 314.106 1024 315.329C1034.82 316.53 1046.78 320.765 1053.32 308.339C1056.96 301.429 1062.44 296.837 1064.58 289.119C1067.17 279.78 1070.84 267.69 1075.55 259.318C1083.88 244.497 1093.7 224.032 1111.37 218.354C1124.19 214.233 1138.64 209.901 1145.93 224.469C1148.46 229.53 1150.73 246.725 1158.54 247.184C1172.32 247.994 1183.36 246.615 1192.52 234.953C1199.18 226.48 1203.8 205.188 1193.39 197.386C1183.09 189.66 1172.52 190.256 1172.52 205.249" stroke="#485727" stroke-linecap="round" stroke-linejoin="round"/>
<path d="M249.585 570.454C266.042 573.103 265.546 581.246 263.226 595.656C261.42 606.879 247.43 606.1 239.35 601.056C215.19 585.972 213.815 556.127 203.596 531.196C197.515 516.359 184.221 508.61 168.794 506.128C156.953 504.222 156.608 510.372 154.944 520.711C149.617 553.81 118.749 521.456 100.492 529.154C90.4325 533.395 95.1072 545.977 89.8716 553.598C82.6749 564.074 68.4117 569.612 55.7659 567.576C50.8965 566.793 41.5957 567.167 38.4093 563.013C33.209 556.234 33.8712 546.906 31.6681 538.921C25.673 517.192 39.4258 498.207 52.3365 481.977C68.6554 461.462 79.6164 422.754 45.0653 417.193C36.7234 415.85 25.1879 414.242 23.4221 425.213C21.8782 434.806 29.6336 446.695 37.6985 435.475" stroke="#485727" stroke-linecap="round" stroke-linejoin="round"/>
</svg>
