<svg width="833" height="745" viewBox="0 0 833 745" fill="none" xmlns="http://www.w3.org/2000/svg">
<path d="M622.807 602.512C622.807 589.954 624.638 581.236 631.098 570.334C638.203 558.346 648.277 549.792 659.777 542.265C665.511 538.511 706.331 522.103 706.331 538.842C706.331 543.386 700.408 545.064 696.747 543.33C690.799 540.512 690.397 533.131 691.574 527.507C692.96 520.886 703.072 514.031 707.625 509.479C713.744 503.359 719.761 498.001 726.946 492.972C740.238 483.667 759.044 474.646 767.263 460.033C776.364 443.853 770.308 430.15 753.951 423.139C737.934 416.275 728.239 422.447 728.239 439.571C728.239 444.358 734.445 447.786 738.889 447.786C745.15 447.786 744.67 442.689 744.67 438.201" stroke="#32361A" stroke-linecap="round" stroke-linejoin="round"/>
<path d="M238.046 325.922C238.046 342.61 239.542 359.976 228.385 373.922C214.646 391.096 194.159 404.674 171.637 406.632C158.804 407.748 150.414 404.006 150.414 390.277C150.414 385.063 154.12 384.299 158.629 384.8C163.195 385.308 164.012 396.583 164.106 399.862C164.503 413.737 152.449 419.887 143.643 428.693C129.67 442.666 118.85 459.962 117.475 479.887C116.835 489.17 114.026 500.234 116.943 509.403C119.026 515.949 124.609 525.662 131.929 527.203C136.813 528.231 144.972 530.729 149.196 526.975C152.126 524.371 158.586 519.179 157.184 514.271C156.281 511.112 149.672 514.385 148.74 516.249C146.594 520.542 146.306 523.778 146.306 528.572C146.306 539.971 159.099 546.133 169.887 546.372C176.922 546.529 186.102 547.762 192.861 545.612C203.523 542.219 213.446 537.641 224.429 534.734C238.224 531.082 256.445 524.091 270.908 529.257C280.048 532.521 290.078 542.54 290.078 553.219C290.078 565.949 284.7 570.195 273.647 575.431C261.64 581.118 255.846 570.173 255.846 560.065C255.846 554.945 255.951 554.588 261.323 554.588C262.816 554.588 268.486 555.957 266.8 555.957" stroke="#32361A" stroke-linejoin="round"/>
<path d="M518.639 229.916C526.263 219.432 531.187 200.981 525.485 188.153C522.421 181.26 516.383 179.928 509.739 177.884C504.004 176.119 499.973 173.392 494.677 171.038C491.566 169.655 486.059 160.492 492.015 158.79C499.134 156.756 499.469 163.529 499.469 168.984C499.469 179.005 474.417 179.646 470.715 173.168C463.941 161.314 439.196 157.447 431.007 169.973C429.229 172.692 429.319 185.809 434.81 180.318C441.528 173.6 424.946 173.776 423.095 173.776C408.769 173.776 390.07 178.418 384.756 161.149C382.65 154.303 384.979 147.877 391.298 144.717C397.747 141.493 398.986 150.078 395.406 151.868" stroke="#32361A" stroke-linecap="round" stroke-linejoin="round"/>
<path d="M536.355 320.34C544.434 308.964 552.936 301.499 565.245 297.607C574.613 294.645 589.025 298.329 598.678 298.726C615.79 299.43 627.74 292.048 641.693 280.859C650.988 273.405 657.04 268.304 654.683 256.641C652.546 246.069 648.144 235.896 641.575 227.704C634.227 218.541 625.362 212.762 613.399 223.347C610.509 225.903 613.034 233.054 616.305 233.188C619.579 233.323 626.525 227.244 628.754 224.618C633.321 219.234 627.332 200.072 626.179 194.515C622.722 177.841 617.144 162.698 623.792 144.591C627.511 134.462 642 109.326 656.023 114.832C661.783 117.094 656.584 124.461 652.907 127.112C649.038 129.902 643.465 123.733 641.702 121.535C626.253 102.269 659.185 70.6107 678.533 61.136C689.708 55.6639 708.577 49.4581 715.538 37.3297C719.242 30.876 720.031 22.4961 722.923 15.759C725.269 10.2908 721.798 2.91509 725.183 14.3809C726.279 18.0919 731.564 28.295 730.212 24.6934C728.393 19.849 727.11 10.8138 729.2 5.39977C732.58 -3.35385 724.492 5.15494 721.093 7.88057C716.996 11.1659 712.899 14.4513 708.802 17.7366" stroke="#32361A" stroke-linecap="round" stroke-linejoin="round"/>
<path d="M316.866 530C321.486 555.479 320.638 584.064 297.615 600.927C282.936 611.679 265.661 613.144 248.221 616.306C232.292 619.195 216.461 620.763 200.527 623.349C181.458 626.443 161.995 625.023 147.388 640.21C141.66 646.166 134.824 673.72 146.177 677.805C150.377 679.317 154.759 678.211 158.957 677.45C161.842 676.927 163.414 672.005 160.075 670.825C153.87 668.632 146.901 670.002 140.512 671.161C131.251 672.84 126.136 681.968 121.843 689.711C116.972 698.493 107.277 705.434 101.287 713.597C92.2408 725.926 72.3854 741.548 55.697 736.672C47.8083 734.367 42.2689 732.605 36.916 726.073C31.2403 719.147 28.6044 737.791 28.2994 736.109C27.4746 731.561 26.6499 727.013 25.8251 722.464C25.2829 719.474 22.2096 711.28 27.0137 715.737C32.7975 721.103 40.6465 719.777 47.5882 718.518" stroke="#32361A" stroke-linecap="round" stroke-linejoin="round"/>
</svg>
