<svg width="139" height="168" viewBox="0 0 139 168" fill="none" xmlns="http://www.w3.org/2000/svg">
<path d="M16.0508 63.9171C17.605 64.7101 18.4066 66.3124 19.1635 67.8261C19.7278 68.9546 20.407 70.0236 20.9732 71.1559C21.9761 73.1619 23.2754 75.0901 24.4397 77.0113C25.1887 78.247 25.9304 79.4713 26.6194 80.7433C27.4579 82.2913 28.0992 83.9788 29.0082 85.4806C30.5821 88.081 31.6749 90.833 33.5365 93.2744C35.3233 95.6178 36.1611 98.4258 37.7671 100.835C39.0235 102.719 39.5415 104.773 40.164 106.907C40.3551 107.563 40.7743 108.317 41.0648 108.942C41.6436 110.189 42.0662 111.476 42.6815 112.706C43.4906 114.325 44.4414 115.871 45.2633 117.484C46.4751 119.863 48.1918 121.959 49.4859 124.289C50.7695 126.599 51.6564 128.912 52.6468 131.35C53.4977 133.445 54.4649 135.48 55.285 137.576C56.1601 139.812 56.2661 142.161 57.8186 144.058C58.4302 144.806 59.2598 145.337 59.773 146.182C60.1514 146.805 60.0439 147.95 60.7864 148.321" stroke="white" stroke-width="0.25" stroke-linecap="round" stroke-linejoin="round"/>
<path d="M15.0374 64.641C15.5071 63.0753 16.3584 61.852 17.9329 61.1664C18.7152 60.8257 19.5271 60.4677 20.2493 60.0082C21.0227 59.516 21.8864 59.1725 22.6783 58.7052C23.5927 58.1655 24.427 57.5051 25.3325 56.9518C27.6783 55.5182 30.1321 54.3041 32.523 52.9463C34.605 51.764 36.6256 50.3794 38.8127 49.4074C43.4051 47.3663 47.8952 45.2849 52.1643 42.6351C53.1308 42.0352 54.1253 41.55 55.1402 41.0426C56.0564 40.5845 56.9014 39.9372 57.8266 39.5224C59.1807 38.9154 60.6649 38.331 61.9366 37.5679C64.104 36.2675 66.1907 34.9076 68.4596 33.8038C69.0113 33.5353 69.6944 33.3983 70.1245 32.9351C70.3919 32.6471 70.809 32.3854 71.1781 32.2434C71.9191 31.9584 72.4655 31.9217 73.2693 31.9217C74.1627 31.9217 74.5613 32.7954 75.1273 33.3614C76.3301 34.5642 77.0505 35.7498 77.6609 37.3588C78.2583 38.9339 78.5351 40.6001 79.0925 42.1927C79.5636 43.5387 80.107 44.8153 80.6931 46.1177C81.1848 47.2104 81.8322 48.214 82.358 49.2948C82.9817 50.5767 83.3612 52.1038 84.3527 53.1715C85.0894 53.9649 85.3665 55.1411 85.8326 56.0992C86.4366 57.3407 87.0165 58.6324 87.6825 59.8312C89.1729 62.5138 90.8195 65.0177 92.5567 67.5445C92.9356 68.0957 93.3398 68.6334 93.7953 69.129C94.3165 69.6962 94.5483 70.4612 95.0983 71.0111C96.3438 72.2566 96.9458 74.1632 97.8571 75.6439C98.9 77.3387 99.941 79.0422 101.066 80.6789C102.575 82.8734 103.513 85.2035 104.444 87.6764C105.301 89.9509 106.711 91.982 107.919 94.0787C108.939 95.8491 110.347 97.4786 111.168 99.355C111.457 100.014 111.861 100.543 112.214 101.157C112.686 101.979 112.972 102.998 113.348 103.875C113.689 104.671 114.634 105.31 115.077 106.095C115.421 106.704 115.619 107.388 115.946 108.017C116.635 109.346 117.033 110.807 117.764 112.135C118.39 113.273 118.756 114.611 119.493 115.674C120.178 116.663 119.455 117.72 118.761 118.433C117.253 119.984 115.514 121.378 113.533 122.294C108.577 124.586 103.496 126.599 98.5005 128.793C94.3644 130.609 90.4914 133.052 86.5887 135.291C84.5936 136.436 82.6658 137.68 80.6529 138.798C78.3952 140.053 75.8293 140.858 73.8163 142.498C72.3734 143.674 70.1103 144.833 68.2344 144.983C67.1754 145.068 66.3438 145.362 65.5077 146.069C64.0417 147.31 62.394 148.669 60.7221 149.624C60.5854 149.702 60.2865 149.984 60.2073 150.123C60.1178 150.28 59.7522 150.191 59.5961 150.316C59.0448 150.757 58.0984 149.078 57.8588 148.756C56.8234 147.362 56.0765 145.753 54.9633 144.412C53.3935 142.522 52.32 140.474 51.2313 138.267C50.2388 136.256 49.3937 134.17 48.4242 132.147C47.4138 130.038 46.1426 128.038 45.3678 125.833C44.4408 123.194 42.6919 120.882 41.1694 118.57C39.8265 116.531 38.6001 114.458 37.6304 112.216C36.987 110.728 36.4741 109.163 35.7724 107.704C35.3928 106.914 34.968 106.216 34.5258 105.468C34.1987 104.914 34.3832 104.332 34.2282 103.746C33.9834 102.822 33.4438 101.801 33.0539 100.915C32.7787 100.29 32.1516 99.8668 31.8313 99.2424C31.1472 97.9083 30.4001 96.6089 29.7401 95.2691C29.0354 93.8383 28.2079 92.5538 27.3513 91.2154C26.4374 89.7874 25.7744 88.2447 24.8901 86.8077C23.9231 85.2363 22.8282 83.7769 21.8338 82.2232C21.2055 81.2415 20.6927 80.2548 20.1367 79.2311C19.8731 78.7459 19.6881 78.2205 19.3806 77.7593C19.2072 77.4992 18.8886 77.2804 18.7935 76.9791C18.4234 75.8072 18.1483 74.459 17.4985 73.408C16.6809 72.0853 15.8172 70.5598 15.2947 69.0969C14.7357 67.5317 14.603 65.8668 14.603 64.2067" stroke="white" stroke-width="0.25" stroke-linecap="round" stroke-linejoin="round"/>
<path d="M72.2237 98.6311C71.066 99.21 70.1139 100.184 68.8939 100.69C69.8679 100.69 70.8437 100.605 71.7089 100.111C71.8504 100.03 72.6851 99.5181 72.7948 99.9019C72.9163 100.327 72.6788 100.824 72.5133 101.197C72.0925 102.144 71.6605 103.099 71.355 104.092C71.0383 105.122 71.2103 106.349 71.2103 107.422C71.2103 108.229 70.9161 109.656 71.2424 110.39C71.4921 110.952 71.4587 111.61 71.6124 112.208C71.7734 112.834 72.045 113.432 72.2559 114.042C73.1124 116.516 75.5726 118.286 78.0147 118.964C80.6716 119.702 82.7961 121.538 85.6798 121.538H87.8514C88.3899 121.538 89.3687 121.601 89.822 121.313C90.4658 120.903 91.4163 120.642 92.1384 120.38C92.7939 120.141 93.3268 119.608 93.94 119.302C94.9794 118.782 95.8675 118.018 96.6908 117.195C97.1672 116.718 97.8542 116.33 98.3959 115.892C98.9904 115.41 99.4971 114.853 100.021 114.299C101.625 112.601 103.206 110.87 103.206 108.395V105.106C103.206 104.073 103.368 102.877 103.198 101.856C102.94 100.311 102.7 98.0128 101.541 96.8536C101.182 96.4947 101.17 95.968 100.857 95.6552C100.54 95.3378 100.186 95.0819 99.8758 94.7543C99.5582 94.419 99.4206 93.8066 98.8624 93.7409C98.4638 93.694 98.0601 93.1628 97.7042 92.9849C96.7503 92.5079 95.6851 92.0846 94.6317 92.0036C93.7466 91.9355 92.3267 91.9047 91.6236 91.2797C90.5622 90.3363 91.5482 90.0629 91.7765 89.0357C91.8193 88.8429 92.3759 88.3519 92.5727 88.2394C92.7383 88.1448 92.8726 87.7421 92.6371 87.9499C92.4969 88.0735 92.2706 88.2995 92.1223 88.3842C89.6842 89.7774 87.128 90.9809 84.6664 92.3655C83.1851 93.1988 81.6467 93.9999 80.2185 94.8991C79.5893 95.2953 78.6578 95.7286 77.9504 95.9447C77.1327 96.1946 76.4732 96.8845 75.6661 97.1834C74.5451 97.5985 73.2938 98.096 72.2237 98.6311Z" stroke="white" stroke-width="0.25" stroke-linecap="round" stroke-linejoin="round"/>
<path d="M88.4386 121.972C88.5939 122.768 88.7786 123.886 88.4386 124.651C88.1773 125.238 87.4252 125.791 87.4252 126.46" stroke="white" stroke-width="0.25" stroke-linecap="round" stroke-linejoin="round"/>
<path d="M96.1117 118.497C96.1117 119.735 95.9592 120.863 96.5138 121.972C96.8707 122.686 98.5581 124.419 97.9937 123.854" stroke="white" stroke-width="0.25" stroke-linecap="round" stroke-linejoin="round"/>
<path d="M93.361 119.945C94.7714 119.979 95.77 121.134 96.4334 122.262C96.738 122.779 97.71 123.193 97.841 123.782C97.937 124.214 97.1775 124.754 96.8356 124.868" stroke="white" stroke-width="0.25" stroke-linecap="round" stroke-linejoin="round"/>
<path d="M100.021 115.023C100.452 115.72 101.044 116.332 101.645 116.873C102.269 117.435 102.539 116.782 103.206 116.615" stroke="white" stroke-width="0.25" stroke-linecap="round" stroke-linejoin="round"/>
<path d="M81.9237 93.7409C83.0291 91.8837 84.0252 90.0376 85.1811 88.2394C86.1019 86.8071 87.0828 85.5372 87.6021 83.864C88.0142 82.5361 88.1258 80.5038 87.5056 79.2633C86.5182 77.2886 84.3764 76.8672 82.5028 76.0783C81.5597 75.6812 79.6575 75.6122 78.6662 75.8692C77.5308 76.1635 76.4095 76.5212 75.256 76.6654C74.1804 76.7999 73.1287 77.3029 72.0789 77.5582C70.8645 77.8536 69.6008 78.177 68.4595 78.6842C67.6575 79.0407 66.7535 79.1101 65.934 79.4081C65.136 79.6983 64.3579 80.0423 63.5372 80.2768C62.8767 80.4655 62.1996 80.5242 61.5425 80.7433C60.9032 80.9564 60.1634 81.2544 59.4835 81.2902C58.0626 81.365 56.6294 81.8693 55.2045 81.8693C54.4967 81.8693 53.7889 81.8693 53.0812 81.8693C52.4 81.8693 51.7848 81.6044 51.1186 81.5797C49.6201 81.5242 48.4038 80.7631 47.4027 79.762C46.2547 78.614 46.3089 77.3849 46.3089 75.8209C46.3089 72.607 48.5805 69.4136 50.4752 66.9574C51.8465 65.1797 53.6434 63.7382 54.9874 61.8903C55.628 61.0094 56.0478 60.2278 57.0223 59.6865C57.3671 59.4949 58.4967 58.9413 58.6148 58.7052" stroke="white" stroke-width="0.25" stroke-linecap="round" stroke-linejoin="round"/>
<path d="M73.8162 97.7946C76.1883 95.8744 77.7947 92.9956 79.5751 90.5558C79.9808 89.9998 80.2409 89.2886 80.5483 88.6738C80.814 88.1423 81.2492 87.6939 81.4893 87.1536C81.852 86.3376 82.5853 85.5894 82.1006 84.62C81.9361 84.2911 81.3442 83.9912 81.055 83.7433C80.5727 83.3299 80.2045 83.1684 79.6072 82.9551C78.7227 82.6392 77.0466 82.7603 76.1326 82.9953C74.5852 83.3932 73.1823 84.3731 71.9341 85.3439C70.8448 86.1912 69.505 86.6692 68.3871 87.4432C65.9337 89.1417 62.9588 90.3523 60.2797 91.6336C57.8154 92.8122 55.3314 94.2749 52.679 95.0117C51.3703 95.3752 50.1196 95.8796 48.762 96.0493C47.5867 96.1962 46.3044 96.0573 45.1185 96.0573C42.8787 96.0573 40.774 95.6224 39.2872 93.8053C38.3065 92.6066 37.474 91.6433 36.8984 90.1537C36.4487 88.9897 36.3193 87.727 36.3193 86.4941C36.3193 84.4958 35.9651 82.3801 36.826 80.4859C37.1584 79.7546 37.4342 78.9801 37.7993 78.2499C38.1512 77.546 38.8784 76.9938 39.432 76.4402C40.053 75.8192 40.3984 74.8729 40.9843 74.2284C41.6503 73.4957 42.2989 72.7447 42.979 72.0246C43.7481 71.2103 44.2538 70.0066 45.0783 69.2738C45.9744 68.4773 46.7348 67.4806 47.5797 66.6357C48.4952 65.7201 49.2691 64.7256 50.2178 63.8447C51.2506 62.8857 52.3865 62.2223 53.4752 61.3755C54.0849 60.9014 54.715 60.4034 55.2849 59.8634C56.006 59.1803 57.1269 59.0188 57.8105 58.3352C58.4778 57.6679 59.2554 57.0898 59.9499 56.421C60.6543 55.7426 60.9805 55.1567 61.5103 54.3619" stroke="white" stroke-width="0.25" stroke-linecap="round" stroke-linejoin="round"/>
<path d="M78.8014 99.009C78.8014 103.528 74.642 110.792 80.146 113.849C82.0245 114.893 83.7462 115.92 85.7485 116.763C87.4433 117.476 89.5182 117.609 91.3511 117.609" stroke="white" stroke-width="0.25" stroke-linecap="round" stroke-linejoin="round"/>
<path d="M78.3531 36.4845C82.5123 32.3254 85.3003 26.6751 85.3003 20.7476C85.3003 17.1758 85.435 13.5719 84.9019 10.0405C84.7143 8.79772 84.8485 7.18089 84.3541 6.00668C84.1466 5.51393 84.381 4.4265 83.9557 4.21387" stroke="white" stroke-width="0.25" stroke-linecap="round" stroke-linejoin="round"/>
<path d="M87.9896 28.4169C87.9896 26.2475 88.3139 24.0141 89.6828 22.2541C90.226 21.5556 91.087 21.2873 91.7868 20.7974C93.0736 19.8967 94.4103 19.2592 95.858 18.656C98.7355 17.457 101.281 15.4019 103.951 13.8005C104.829 13.2731 105.672 12.7404 106.59 12.2815C107.037 12.0578 108.19 11.7702 108.383 11.3851" stroke="white" stroke-width="0.25" stroke-linecap="round" stroke-linejoin="round"/>
<path d="M133.258 8.24768C128.988 8.24768 124.84 10.255 120.982 11.8333C119.641 12.3822 118.331 13.0393 117.011 13.6261C115.62 14.2443 113.743 14.6902 112.529 15.531C109.774 17.4383 106.201 18.5624 103.004 19.5026C101.822 19.8504 100.63 21.4869 99.9915 22.4906C99.6717 22.9931 99.6429 23.587 99.6429 24.1589C99.6429 24.7856 100.155 24.6071 100.651 24.6071C102.141 24.6071 103.653 23.3982 104.797 22.5404C106.198 21.4902 107.602 20.943 109.155 20.2371C112.329 18.7942 115.838 18.3615 119.015 16.9877C120.817 16.2087 122.713 15.6766 124.531 14.8587C126.195 14.1098 127.976 13.4892 129.673 12.8293C131.892 11.9661 134.331 11.2968 136.396 10.2646" stroke="white" stroke-width="0.25" stroke-linecap="round" stroke-linejoin="round"/>
<path d="M79.2496 41.1907C81.4564 41.2445 83.3627 42.8387 84.8521 44.3281C86.3528 45.8288 88.4882 46.5461 90.1185 47.8141C91.7139 49.055 93.9031 49.3943 95.609 50.4909C97.6115 51.7782 100.062 52.7247 102.332 53.2922" stroke="white" stroke-width="0.25" stroke-linecap="round" stroke-linejoin="round"/>
<path d="M89.5583 60.0153C92.1768 60.0153 94.7752 60.2394 97.4019 60.2394C99.6166 60.2394 102.209 60.5681 104.337 59.9032C105.276 59.6097 106.3 59.4517 107.262 59.1687C108.459 58.8166 109.649 58.4436 110.848 58.1104C112.963 57.5229 114.876 56.3985 116.949 55.7075C117.743 55.4429 118.291 54.8653 119.04 54.5248C119.949 54.1115 120.851 53.8873 121.779 53.5661C123.791 52.8698 125.744 52.6199 127.867 52.6199C129.918 52.6199 131.836 51.9476 133.818 51.9476C135.047 51.9476 136.892 51.6355 137.964 52.1717" stroke="white" stroke-width="0.25" stroke-linecap="round" stroke-linejoin="round"/>
<path d="M53.0297 41.1907C53.0297 39.2023 53.6304 36.1729 52.4818 34.368C51.7045 33.1465 51.109 31.709 50.1163 30.6579C49.3194 29.8141 48.2846 28.0733 47.8753 26.9477C47.6098 26.2177 47.0676 25.5788 46.6552 24.9308C46.4492 24.6071 45.6715 23.5974 45.6343 23.2625C45.5608 22.6011 44.9179 22.0403 44.6881 21.4199C44.4632 20.8128 44.2204 20.1394 43.9535 19.5524C43.2361 17.9741 43.6174 15.5146 43.6174 13.8004C43.6174 10.7242 42.9451 7.71072 42.9451 4.66205" stroke="white" stroke-width="0.25" stroke-linecap="round" stroke-linejoin="round"/>
<path d="M52.1333 41.4148C52.1333 38.6193 51.4676 36.9393 49.5561 35.0279C47.9317 33.4035 46.4984 32.0339 45.3604 29.9856C44.3508 28.1683 43.3103 26.3605 42.9326 24.2834C42.6554 22.7586 42.0873 20.6938 40.8161 19.6769C39.4711 18.6008 37.9193 17.5847 36.72 16.2655C36.2372 15.7345 35.6321 14.584 34.9895 14.2984C34.078 13.8933 32.7868 12.656 32.0761 11.9454C31.0422 10.9114 30.1552 9.95029 29.2749 8.74567C28.846 8.15888 28.0022 7.87139 27.482 7.35126C27.0338 6.90306 26.5856 6.45485 26.1374 6.00665C25.3488 5.21805 24.5417 4.4535 23.7221 3.71583C23.2855 3.32286 22.5742 2.91394 22.3277 2.42102" stroke="white" stroke-width="0.25" stroke-linecap="round" stroke-linejoin="round"/>
<path d="M67.148 33.7953C66.4155 31.9855 64.7271 30.0182 62.8403 29.2635C62.2536 29.0288 61.5318 28.1473 60.9852 27.7446C60.4644 27.3608 59.776 26.9647 59.4788 26.4C58.7862 25.0842 57.3302 24.4485 56.7896 22.9886C56.0014 20.8606 55.3358 18.715 54.5485 16.5893C54.2145 15.6875 53.8239 15.2222 53.5899 14.286C53.3474 13.3161 53.0539 12.5015 52.6312 11.6092C51.9732 10.2201 51.5145 8.70342 50.8384 7.35131C50.2572 6.18891 49.8431 4.91259 49.2697 3.76568C48.8001 2.82643 48.7914 1.7881 48.3235 0.852356" stroke="white" stroke-width="0.25" stroke-linecap="round" stroke-linejoin="round"/>
<path d="M44.962 45.8968C43.3245 44.6563 42.1037 42.7569 41.0278 41.0662C40.0695 39.5603 39.3567 38.5816 38.0148 37.381C37.2089 36.6598 36.1106 36.3318 35.3256 35.5881C34.6088 34.9091 33.9194 34.2199 33.0846 33.6833C31.9215 32.9356 30.9992 31.8589 29.9347 30.9941C29.3871 30.5491 28.6677 29.57 28.1544 29.3133" stroke="white" stroke-width="0.25" stroke-linecap="round" stroke-linejoin="round"/>
<path d="M27.7062 53.5163C24.4625 53.4409 21.9524 51.2619 19.1903 49.8809C16.606 48.5887 14.3209 46.6282 11.9194 45.1C11.5672 44.8759 11.0992 44.3047 10.7865 43.992C10.3999 43.6054 9.86716 43.4139 9.44186 43.0831C8.54872 42.3885 7.56212 41.8787 6.64059 41.3028C5.74433 40.7426 4.73337 40.4548 3.83931 39.9581C3.20587 39.6062 2.29101 39.4387 1.93445 38.7256" stroke="white" stroke-width="0.25" stroke-linecap="round" stroke-linejoin="round"/>
<path d="M110.848 96.0956C114.205 98.6136 116.878 101.678 119.812 104.612C120.905 105.704 121.707 106.955 122.825 108.073C123.963 109.211 125.169 110.259 126.423 111.235C128.61 112.936 131.17 113.98 133.37 115.692C134.245 116.373 135.44 117.029 136.396 117.56C137.178 117.994 137.877 118.574 138.637 118.954" stroke="white" stroke-width="0.25" stroke-linecap="round" stroke-linejoin="round"/>
<path d="M118.467 120.747C122.632 123.325 126.264 126.975 129.673 130.383C131.359 132.07 133.46 133.671 134.926 135.538C135.471 136.231 135.857 137.076 136.445 137.729C136.756 138.074 137.372 138.162 137.516 138.451" stroke="white" stroke-width="0.25" stroke-linecap="round" stroke-linejoin="round"/>
<path d="M112.193 124.333C114.688 124.333 116.812 124.579 118.99 125.901C120.351 126.728 122.05 127.269 123.51 127.918C124.676 128.436 125.78 129.591 126.983 129.935C128.35 130.326 129.397 131.816 130.569 132.574C131.516 133.187 131.689 135.225 131.689 136.21C131.689 137.721 132.334 139.141 132.598 140.592C132.759 141.478 133.393 143.573 134.491 143.817C135.646 144.074 136.605 145.398 137.74 145.398" stroke="white" stroke-width="0.25" stroke-linecap="round" stroke-linejoin="round"/>
<path d="M76.3362 142.933C76.2917 144.802 75.861 145.633 74.5434 146.743C73.6502 147.495 72.2286 147.97 71.1321 148.361C69.6249 148.9 68.368 149.969 66.8742 150.503C65.6862 150.927 64.5243 151.188 63.4504 151.785C61.569 152.83 59.7309 153.881 57.6237 154.35C55.2713 154.872 54.1924 153.415 52.3573 152.395C51.9187 152.151 51.3782 151.794 51.0127 151.449C50.515 150.979 49.9131 150.748 49.444 150.328C48.5448 149.524 47.2689 148.986 46.2568 148.311C45.3115 147.681 44.2897 146.561 44.2897 145.348C44.2897 143.909 43.9852 142.82 43.6049 141.489C43.5163 141.179 42.7934 140.638 42.5965 140.244C42.3279 139.707 41.8534 138.797 41.4884 138.351C40.6369 137.311 39.9966 136.175 39.0233 135.201C38.1697 134.348 37.2269 133.345 36.1099 132.848C35.4004 132.533 33.8634 131.269 33.5328 130.607" stroke="white" stroke-width="0.25" stroke-linecap="round" stroke-linejoin="round"/>
<path d="M79.0255 140.916C78.9224 143.237 77.717 145.59 77.0584 147.813C76.7174 148.964 76.9637 150.735 77.0086 151.947C77.0852 154.016 78.6836 155.885 78.8014 157.948C78.8826 159.368 79.0255 160.762 79.0255 162.206" stroke="white" stroke-width="0.25" stroke-linecap="round" stroke-linejoin="round"/>
<path d="M0.589783 131.952C4.49082 131.952 8.39185 131.952 12.2929 131.952C14.4565 131.952 16.6003 132.624 18.742 132.624C19.3826 132.624 21.2127 132.407 21.6554 132.96C21.9098 133.278 24.189 134.151 24.5687 134.193C25.7501 134.324 26.8484 135.538 28.0547 135.538C28.4796 135.538 29.4454 135.698 29.7728 135.936C30.1613 136.219 29.4929 136.434 28.9387 136.434C27.8446 136.434 26.8546 137.106 25.6892 137.106C24.6807 137.106 23.6723 137.106 22.6638 137.106C21.6297 137.106 20.611 137.279 19.6384 137.33C19.007 137.364 18.4016 137.549 17.7958 137.729C17.2264 137.898 16.7368 138.311 16.1649 138.438C14.9796 138.702 14.266 138.74 13.1395 138.177C11.9715 137.593 11.0714 136.536 9.76551 136.21C7.98393 135.765 3.91192 135.168 2.8308 137.33" stroke="white" stroke-width="0.25" stroke-linecap="round" stroke-linejoin="round"/>
<path d="M31.74 101.25C29.799 101.25 25.7603 101.287 24.1703 99.8556C22.7691 98.5945 21.7131 96.5438 19.514 96.5438C17.9983 96.5438 17.0968 96.744 15.7042 97.4402C14.3513 98.1167 13.3055 98.9643 11.7824 99.3451C9.61993 99.8857 4.48929 101.071 3.50311 98.1125" stroke="white" stroke-width="0.25" stroke-linecap="round" stroke-linejoin="round"/>
<path d="M31.9641 104.836C30.7111 105.074 29.3727 104.831 28.1544 105.11C27.4396 105.273 26.8256 105.704 26.1374 105.906C25.5107 106.091 24.9291 106.286 24.3446 106.579C23.841 106.83 23.5934 107.311 23.1121 107.525C21.9288 108.051 20.8703 110.303 20.4228 111.447C19.8767 112.842 19.4323 114.194 18.9662 115.593" stroke="white" stroke-width="0.25" stroke-linecap="round" stroke-linejoin="round"/>
<path d="M112.865 64.4973C115.23 66.2621 117.458 68.16 119.812 69.9255C121.723 71.3587 123.76 72.6283 125.626 74.1212C126.568 74.8749 130.508 78.2178 131.864 76.9972C132.635 76.3027 132.138 73.675 132.138 72.7392C132.138 70.921 131.969 69.0075 132.15 67.1989C132.331 65.3865 133.431 64.178 134.267 62.692C134.795 61.7535 135.912 60.4634 137.068 60.4634" stroke="white" stroke-width="0.25" stroke-linecap="round" stroke-linejoin="round"/>
<path d="M113.537 46.5691C117.101 43.0055 119.653 38.5938 123.124 34.9656C124.225 33.814 125.039 32.6894 126.299 31.6663C127.267 30.8797 128.205 29.7056 129 28.7406C130.466 26.9601 132.526 25.7878 134.155 24.1589C135.384 22.929 137.261 21.7406 138.188 20.3492" stroke="white" stroke-width="0.25" stroke-linecap="round" stroke-linejoin="round"/>
<path d="M83.7316 37.1568C86.1944 37.1568 88.5099 37.2099 90.9029 36.7584C93.4965 36.2691 96.0531 35.1634 98.4228 34.0194C99.4019 33.5467 100.461 33.2692 101.386 32.6748C101.887 32.3529 102.805 31.8014 103.403 31.7784C104.588 31.7328 105.979 31.6107 107.15 31.7908C108.595 32.0131 109.055 33.2427 109.055 34.48C109.055 35.1438 109.168 35.9351 109.005 36.5841C108.77 37.5246 108.141 38.2499 107.885 39.1737C107.373 41.0165 106.134 42.7922 105.37 44.5397C105.122 45.1056 104.778 45.7585 104.623 46.345C104.423 47.1011 104.642 47.8518 103.677 47.4655" stroke="white" stroke-width="0.25" stroke-linecap="round" stroke-linejoin="round"/>
<path d="M109.055 45.4486C109.879 43.5574 110.952 41.7963 111.744 39.8959C112.017 39.2407 112.577 38.1922 113.089 37.7171C114.122 36.7581 115.211 35.0148 115.89 33.8078C117.006 31.8234 115.821 29.6088 116.5 27.5703C117.172 25.5556 120.155 24.3635 121.829 23.3746C124.145 22.0058 126.412 20.6613 128.876 19.5773C130.916 18.6793 132.799 17.6137 134.877 16.7636C135.727 16.4158 136.818 15.6431 137.74 15.6431" stroke="white" stroke-width="0.25" stroke-linecap="round" stroke-linejoin="round"/>
<path d="M55.7189 39.6219C55.7189 38.2438 55.5811 36.7985 55.9554 35.4885C56.2416 34.4867 56.8507 34.6867 57.7358 34.2933C58.8647 33.7916 61.6829 34.2001 62.666 34.6917" stroke="white" stroke-width="0.25" stroke-linecap="round" stroke-linejoin="round"/>
<path d="M1.03802 52.1717C4.62314 52.8747 7.5701 55.3053 10.5499 57.2015C11.1152 57.5613 12.1602 58.3238 12.517 58.8947C12.7342 59.2422 15.031 60.8191 14.26 59.7912" stroke="white" stroke-width="0.25" stroke-linecap="round" stroke-linejoin="round"/>
<path d="M0.813904 73.0132C3.59443 73.0132 6.37495 73.0132 9.15547 73.0132C10.191 73.0132 11.3021 72.9857 12.2431 72.5152C12.8822 72.1956 14.132 72.1702 13.5877 71.4445" stroke="white" stroke-width="0.25" stroke-linecap="round" stroke-linejoin="round"/>
<path d="M19.8625 81.3049C19.8625 82.5868 20.0645 83.8524 19.4143 84.9902C18.9992 85.7167 17.8593 85.7506 17.3974 86.5589C16.6252 87.9104 19.6866 88.2174 20.4353 88.9244C21.7311 90.1483 22.4695 91.6519 23.5727 93.0703C24.3462 94.0648 26.3957 95.4234 27.7061 95.4234" stroke="white" stroke-width="0.25" stroke-linecap="round" stroke-linejoin="round"/>
<path d="M115.106 127.022C117.196 129.858 118.461 132.877 119.7 136.098C120.36 137.813 120.578 139.715 121.381 141.364C122.314 143.282 123.31 145.214 124.17 147.178C124.997 149.07 126.319 150.579 127.319 152.358C128.949 155.255 132.291 157.127 133.046 160.525C133.276 161.559 133.647 162.713 133.706 163.774C133.746 164.496 133.981 166.825 134.603 167.136" stroke="white" stroke-width="0.25" stroke-linecap="round" stroke-linejoin="round"/>
</svg>
