<svg width="56" height="113" viewBox="0 0 56 113" fill="none" xmlns="http://www.w3.org/2000/svg">
<path d="M16.4594 6.68221C15.5179 6.65925 12.8969 6.11133 12.8969 4.90098C12.8969 3.79965 13.4321 1.86241 14.8994 1.86241C16.2321 1.86241 18.5144 1.46704 19.7192 0.9194C20.478 0.574493 22.0593 0.605065 22.9091 0.605065C24.3181 0.605065 25.7057 0.395508 27.1352 0.395508C30.8499 0.395508 34.5816 0.411816 38.2533 0.605065C39.7902 0.685953 43.8813 3.03735 41.9788 4.74963C41.7879 4.92141 40.6255 5.39233 40.3489 5.42487C39.8706 5.48114 39.5609 5.97144 39.1963 6.2631C38.7929 6.58581 39.6567 6.55751 39.9763 6.8452C40.6336 7.4367 40.5584 7.79875 40.5584 8.67301C40.5584 9.97396 40.7662 11.9211 38.9868 11.9211C38.1769 11.9211 38.0373 14.9364 37.8459 15.7979C37.2461 18.4969 37.6247 21.7061 37.6247 24.4946C37.6247 25.6024 37.2003 27.6285 38.0903 28.4296C38.8928 29.1518 39.8189 30.2322 40.768 30.7347C41.9968 31.3852 43.6467 31.9834 44.6448 32.9816C45.882 34.2188 47.7362 34.9355 48.8243 36.3345C50.7842 38.8544 54.5988 40.5658 54.5988 44.2045C54.5988 47.7955 54.8898 51.5489 55.0179 55.1364C55.1779 59.6168 54.8083 64.0563 54.8083 68.5481C54.8083 73.3016 55.2274 77.9854 55.2274 82.7514C55.2274 87.3931 55.0179 92.0875 55.0179 96.6869C55.0179 98.1189 55.0179 99.5508 55.0179 100.983C55.0179 102.204 55.3497 104.061 54.8549 105.174C54.6528 105.629 54.5367 106.491 54.4008 106.967C54.2365 107.542 53.5399 108.071 53.0853 108.48C51.986 109.47 51.3758 110.529 49.779 110.622C48.1422 110.719 46.3007 110.832 44.5517 110.832C42.3031 110.832 40.0144 111.251 37.8342 111.251C36.9337 111.251 36.0837 111.67 35.1565 111.67C34.0583 111.67 32.9601 111.67 31.8618 111.67C29.5567 111.67 27.2516 111.67 24.9465 111.67C23.408 111.67 21.2079 111.88 19.3932 111.88C18.7136 111.88 17.9702 111.964 17.2976 111.868C16.34 111.731 15.3984 111.251 14.4104 111.251C12.3792 111.251 10.3088 110.413 8.28669 110.413C7.60729 110.413 6.55369 110.342 5.87678 110.192C4.97086 109.99 4.66415 109.66 3.88599 109.202C3.06627 108.72 2.26798 106.964 1.79042 106.129C1.09692 104.915 1.37131 103.121 1.37131 101.716C1.37131 97.672 0.742638 93.5121 0.742638 89.4455C0.742638 81.4716 0.533081 73.5879 0.533081 65.6143C0.533081 61.7772 0.742638 57.6777 0.742638 53.7277C0.742638 52.0164 0.742638 50.305 0.742638 48.5936C0.742638 47.9945 0.551879 46.9379 0.905627 46.4515C1.16158 46.0995 1.48615 44.7662 1.56922 44.3093C1.77296 43.1888 2.89473 42.1646 3.42031 41.166C4.15604 39.7681 5.5481 38.4328 6.6568 37.3241C7.79971 36.1812 8.70642 34.9953 10.1727 34.1807C10.8713 33.7926 11.2959 33.1376 11.9539 32.772C12.5316 32.4511 13.4342 32.0369 13.8982 31.5729C14.6817 30.7893 15.8187 30.3926 16.5758 29.4191C17.5356 28.1852 18.3454 27.0481 18.3454 25.4376C18.3454 23.8901 18.555 22.3366 18.555 20.8273C18.555 19.5336 18.8236 17.8974 18.5433 16.6362C18.2851 15.4742 18.531 14.0916 17.7633 13.1319C17.5209 12.8289 17.8922 12.647 17.4024 12.5382C17.1129 12.4738 16.6105 12.3776 16.3546 12.2355C15.7469 11.8979 15.2644 11.5102 14.9459 10.8734C14.6557 10.2928 14.783 9.52608 14.783 8.88256C14.783 8.68996 14.6858 8.12981 14.8295 7.98612C15.0246 7.79101 15.5968 7.93478 15.6212 7.52044C15.6522 6.99383 14.7691 6.38808 14.2591 6.27474C13.536 6.11406 13.5256 5.1915 13.5256 4.58665" stroke="white" stroke-width="0.25" stroke-linecap="round" stroke-linejoin="round"/>
<path d="M3.25732 100.564C7.106 102.066 11.0155 102.659 15.2952 102.659C17.2695 102.659 19.2681 102.869 21.2792 102.869C23.6078 102.869 25.9822 102.37 28.1946 102.24C30.0357 102.132 31.9148 102.24 33.7595 102.24C36.3824 102.24 38.8342 101.611 41.4782 101.611C42.4661 101.611 43.3309 101.402 44.3305 101.402C45.1805 101.402 46.5033 101.368 47.2643 101.029C47.9581 100.721 49.2205 100.564 49.9885 100.564C50.8619 100.564 51.6357 100.145 52.5032 100.145" stroke="white" stroke-width="0.25" stroke-linecap="round" stroke-linejoin="round"/>
<path d="M3.04779 100.354C7.32047 99.585 10.9754 97.2107 15.4 97.2107C17.8622 97.2107 20.3776 96.3725 22.8509 96.3725C24.7585 96.3725 26.4983 95.9534 28.4042 95.9534C30.5696 95.9534 32.735 95.9534 34.9004 95.9534C37.1514 95.9534 40.1072 96.1365 42.2349 96.8964C43.1823 97.2347 44.2425 97.05 45.1687 97.4668C46.0913 97.882 47.31 97.8955 48.3004 98.0606C49.1951 98.2097 50.1029 98.7938 51.0363 98.8872C51.4771 98.9312 52.9743 99.4103 53.1319 99.7254" stroke="white" stroke-width="0.25" stroke-linecap="round" stroke-linejoin="round"/>
</svg>
