<svg width="101" height="91" viewBox="0 0 101 91" fill="none" xmlns="http://www.w3.org/2000/svg">
<path d="M17.175 89.6998C17.175 88.1781 17.3228 86.6861 17.8038 85.2432C18.1147 84.3106 18.19 83.1823 18.5897 82.303C18.9976 81.4055 19.1996 80.4353 19.542 79.5108C19.9181 78.4952 20.5778 77.411 20.8364 76.3764C21.0894 75.3644 21.6214 74.241 22.1679 73.353C22.6887 72.5066 22.7632 71.3846 23.1664 70.4775C23.7319 69.2051 24.8307 67.5959 24.8307 66.1504C24.8307 65.3193 25.0866 64.4594 24.9879 63.5708C24.8406 62.2458 24.1041 60.9629 23.4993 59.8169C22.7951 58.4827 22.2203 56.8777 21.761 55.4343C21.4416 54.4304 21.0372 53.5526 20.7995 52.5126C20.1732 49.7728 19.6504 46.9998 19.0427 44.2652C18.6597 42.5415 19.0057 40.3859 19.0057 38.6067" stroke="white" stroke-width="0.25" stroke-linecap="round" stroke-linejoin="round"/>
<path d="M2.5295 40.6039C2.5295 46.9209 2.31631 53.2896 2.68668 59.5858C2.93126 63.7438 2.36814 68.2574 3.82393 72.188C4.36629 73.6524 5.77402 74.9702 6.8566 76.0528C8.22619 77.4224 9.56976 78.9349 10.7584 80.4631C11.7966 81.7979 12.3683 83.4842 13.3472 84.8827C14.4466 86.4532 15.1703 88.353 16.0101 90.0326" stroke="white" stroke-width="0.25" stroke-linecap="round" stroke-linejoin="round"/>
<path d="M0.365967 32.2825C2.42076 31.6802 4.13967 30.376 6.15393 29.6566C7.96715 29.0091 9.8223 28.7219 11.683 28.205C12.73 27.9142 14.0563 28.1218 15.141 28.1218C16.3114 28.1218 17.4518 28.1038 18.599 28.3807C20.4279 28.8222 21.8652 29.5813 23.1665 30.9511C23.9297 31.7545 25.1636 32.8959 25.1636 34.0762C25.1636 34.5824 25.2171 35.1185 25.1543 35.6203C25.0695 36.2991 24.3283 36.8648 23.9986 37.4417C23.3831 38.5188 21.9815 39.0723 21.2433 40.0213C20.8247 40.5595 20.2559 41.643 19.6715 41.9353" stroke="white" stroke-width="0.25" stroke-linecap="round" stroke-linejoin="round"/>
<path d="M3.19519 39.7717C4.58084 38.9469 5.95001 38.112 7.30039 37.2291C7.88208 36.8487 8.49125 36.9282 9.10335 36.6928C10.0775 36.3181 11.6521 36.6096 12.6815 36.6096C14.9671 36.6096 16.7437 37.2425 18.8393 37.941" stroke="white" stroke-width="0.25" stroke-linecap="round" stroke-linejoin="round"/>
<path d="M24.8307 31.7832C24.8307 28.7251 23.3399 25.7846 22.7966 22.7962C22.5273 21.3151 22.1331 19.8718 21.9182 18.3674C21.6858 16.7406 21.6574 15.0887 21.4189 13.467C21.1232 11.4557 21.1851 9.06925 21.4929 7.06882C21.7445 5.43327 22.1679 3.64116 22.1679 1.9928" stroke="white" stroke-width="0.25" stroke-linecap="round" stroke-linejoin="round"/>
<path d="M34.8163 37.2753C34.8163 44.2244 34.5461 51.0335 33.0688 57.8291C32.6613 59.7036 32.2201 61.4819 31.6542 63.3211C31.2199 64.7325 30.8703 66.0629 31.7374 67.3154C32.8477 68.9191 34.5943 70.0311 35.6115 71.6887C36.187 72.6267 36.7057 73.6633 37.3497 74.555C38.0397 75.5103 38.4776 76.6939 39.3098 77.5506C40.046 78.3085 40.7425 79.1875 41.307 80.084C41.7761 80.8292 41.9287 81.7405 42.435 82.4695C43.0172 83.3079 43.2747 84.3981 43.6369 85.3357C43.8966 86.0079 44.3026 86.637 44.3026 87.3698" stroke="white" stroke-width="0.25" stroke-linecap="round" stroke-linejoin="round"/>
<path d="M34.8163 35.9439C36.3493 35.9439 37.4098 35.2792 38.8105 34.9084C39.9324 34.6114 41.2274 34.7789 42.3887 34.7789C43.068 34.7789 44.3139 35.2794 44.8944 35.6111C45.2402 35.8087 45.6179 35.9626 45.9669 36.1473C46.6043 36.4848 46.2997 37.685 46.2997 38.3109C46.2997 40.3263 46.2075 42.468 46.6696 44.4317C47.0426 46.0169 47.7789 47.5098 48.1304 49.0916C48.4706 50.6225 49.4626 52.2901 50.1923 53.6684C50.5567 54.3567 50.877 55.3177 51.0891 56.0816C51.3266 56.9366 51.7696 57.7257 51.9952 58.578C52.2441 59.5181 53.1232 60.6036 53.1232 61.5737C53.1232 62.6 53.1232 63.6263 53.1232 64.6526C53.1232 65.6387 52.2325 66.9166 51.7086 67.7315C50.9845 68.8578 50.4132 70.1903 49.7947 71.3928C49.4376 72.0872 48.9034 72.6946 48.5558 73.39C48.2292 74.0431 48.0091 74.8017 47.6312 75.4241C46.9641 76.5227 46.5696 77.9411 46.1333 79.1409C45.3555 81.2798 44.6355 83.927 44.6355 86.2048" stroke="white" stroke-width="0.25" stroke-linecap="round" stroke-linejoin="round"/>
<path d="M6.19089 59.2437C5.90757 60.5658 5.39705 62.7413 6.06144 64.0701C6.61322 65.1736 7.59557 65.8381 8.59483 66.474C9.64515 67.1424 10.7916 68.0565 11.9326 68.5636C12.7411 68.9229 13.2806 69.834 14.013 70.2648C15.9975 71.4322 16.1313 74.231 16.3522 76.2192C16.4266 76.8895 16.9137 78.4854 16.1765 78.9191C15.3098 79.4289 14.2777 79.1821 13.6893 78.2996C13.4112 77.8824 13.2681 77.9125 13.1438 77.3842C13.0124 76.8254 12.7717 76.2867 12.6908 75.72C12.5066 74.4305 12.8124 73.02 13.5137 71.9291C14.7433 70.0163 16.3843 67.9166 18.0904 66.4C19.565 65.0893 20.8365 62.8927 20.8365 60.908C20.8365 59.2987 19.329 57.5762 17.8408 57.0801" stroke="white" stroke-width="0.25" stroke-linecap="round" stroke-linejoin="round"/>
<path d="M11.1837 74.0557C9.9813 74.0557 9.18654 74.2659 9.18654 72.8537C9.18654 71.4035 10.0099 70.8268 10.8508 69.6916C11.5397 68.7615 12.5505 67.9094 13.3472 67.0657C13.7096 66.6821 14.1419 66.3473 14.429 65.9008C14.7474 65.4054 15.474 65.2022 15.6772 64.6433C16.157 63.3239 17.9799 61.1764 16.0933 59.9186C15.2335 59.3455 14.692 58.8562 13.6801 58.4948C13.0325 58.2635 12.0371 58.3734 11.3501 58.4115C9.92958 58.4905 8.3564 62.4683 8.89067 63.7372C9.60869 65.4425 12.1445 66.2281 13.6061 67.1582C15.0828 68.0979 16.7157 68.9048 17.8407 70.3111C18.2575 70.832 18.6729 71.0591 18.6729 71.8089C18.6729 72.0435 18.7844 72.668 18.6359 72.8537C18.3948 73.155 17.9913 72.9225 17.8407 73.2235" stroke="white" stroke-width="0.25" stroke-linecap="round" stroke-linejoin="round"/>
<path d="M2.52948 63.7372C2.52948 65.1117 2.85727 67.0747 4.19375 67.8609C5.67223 68.7306 7.00506 69.7999 8.52085 70.5977C9.92004 71.3341 11.0936 72.1348 12.1822 73.2235C12.7013 73.7426 13.2011 74.1861 13.6801 74.7214C13.9176 74.9868 14.045 75.3596 14.3088 75.5905C14.3855 75.6576 14.349 75.2747 14.355 75.2206C14.3885 74.9199 14.5599 74.6745 14.6417 74.3885C14.9975 73.1431 16.0604 70.9121 17.175 70.1909C17.7855 69.7959 18.165 69.0714 18.6729 68.5636C19.076 68.1605 19.5939 67.7098 19.8749 67.2322C20.2999 66.5095 21.2107 66.1923 21.6686 65.5309C22.0438 64.9889 22.9639 64.0546 23 63.4043C23.054 62.4328 23.6657 61.6113 23.6657 60.5751" stroke="white" stroke-width="0.25" stroke-linecap="round" stroke-linejoin="round"/>
<path d="M62.9425 37.941C62.9425 42.6944 62.1951 47.3395 60.6957 51.8377C59.7894 54.5564 59.0547 57.3291 58.1993 60.0665C57.7582 61.4779 57.2839 63.1744 57.2839 64.6433C57.2839 66.1348 58.7015 66.8105 59.5307 67.8239C63.4195 72.5769 67.1031 78.3444 67.1031 84.707" stroke="white" stroke-width="0.25" stroke-linecap="round" stroke-linejoin="round"/>
<path d="M68.601 86.0384C68.601 83.8164 68.7341 81.7708 69.2667 79.6402C69.737 77.7591 70.3692 76.0604 71.0974 74.2591C71.7032 72.7604 72.5092 71.4463 73.261 70.0614C73.8227 69.0265 74.6913 67.6198 75.6279 66.8993C76.3689 66.3293 77.0648 65.5903 77.6805 64.9022C78.3962 64.1023 78.6761 63.4378 78.2538 62.2763C78.0191 61.6311 78.0237 60.912 77.8377 60.2422C77.663 59.6132 77.3375 59.0626 77.1258 58.4485C76.6547 57.0824 76.4063 55.6449 75.9238 54.2878C75.333 52.6261 74.9252 50.5637 74.9252 48.7958C74.9252 46.6967 74.6877 44.4617 75.0547 42.3976C75.1688 41.7556 74.9787 41.0745 75.1749 40.4467C75.2501 40.2058 75.3937 39.6485 75.2951 39.4389C74.8739 38.544 73.4834 38.0467 72.5952 37.8116C70.1414 37.162 67.6685 36.776 65.106 36.776C64.2797 36.776 63.4668 36.6962 62.85 37.3493C62.2903 37.942 62.0404 38.8432 61.4446 39.4389" stroke="white" stroke-width="0.25" stroke-linecap="round" stroke-linejoin="round"/>
<path d="M27.9928 36.9424C27.9928 35.2743 28.8361 33.766 29.8605 32.4489C30.3867 31.7724 31.4029 30.7957 32.1627 30.3778C33.7561 29.5015 36.1433 28.4547 37.9784 28.4547C39.8361 28.4547 41.9843 27.958 43.8034 28.3715C45.6216 28.7847 47.5468 29.3515 49.129 30.3686C50.2283 31.0753 51.3607 32.0177 52.2911 32.9482C53.3224 33.9795 52.6962 34.4157 51.9583 35.4816C51.2224 36.5445 50.3428 37.6739 49.4619 38.6067C48.8844 39.2182 47.9237 40.4374 46.9655 40.4374" stroke="white" stroke-width="0.25" stroke-linecap="round" stroke-linejoin="round"/>
<path d="M28.3257 37.1089C29.9679 37.1089 30.8994 38.2317 32.3569 38.7362C32.7718 38.8798 33.2148 39.2239 33.6513 39.2724C33.8077 39.2898 34.4561 39.4389 34.3171 39.4389" stroke="white" stroke-width="0.25" stroke-linecap="round" stroke-linejoin="round"/>
<path d="M27.3271 33.7804C27.3271 29.3201 26.9943 24.8693 26.9943 20.3922C26.9943 16.1325 28.1593 11.9116 28.1593 7.65134" stroke="white" stroke-width="0.25" stroke-linecap="round" stroke-linejoin="round"/>
<path d="M52.624 32.2825C52.624 29.4101 52.624 26.5377 52.624 23.6653C52.624 22.5194 52.7441 21.3051 52.587 20.1703C52.3946 18.7808 52.1199 17.4001 51.9213 16.0096C51.759 14.8738 51.3923 13.7008 51.3018 12.5702C51.1508 10.6824 50.9597 8.80787 50.9597 6.91164C50.9597 6.07375 51.023 5.30906 51.2094 4.4892C51.2969 4.10417 51.3202 2.81113 51.6254 2.65851" stroke="white" stroke-width="0.25" stroke-linecap="round" stroke-linejoin="round"/>
<path d="M61.1118 40.271C58.5452 40.271 57.5062 39.7195 56.5443 37.3585C56.0174 36.0652 55.9465 34.422 55.7491 33.0407C55.432 30.8211 55.428 28.6331 55.4533 26.3836C55.4764 24.3209 56.0816 22.3191 56.2854 20.2813C56.4928 18.2069 56.5081 16.1122 56.8586 14.0588C57.1105 12.5839 57.1294 11.0454 57.3209 9.556C57.4339 8.67719 57.6168 7.87285 57.6168 6.98563" stroke="white" stroke-width="0.25" stroke-linecap="round" stroke-linejoin="round"/>
<path d="M75.5909 39.7717C77.4036 39.7286 78.753 38.2646 79.1691 36.6004C79.5312 35.1517 79.2523 33.3611 79.2523 31.8757C79.2523 29.6216 79.0187 27.3946 78.9287 25.1446C78.8411 22.9561 78.9775 20.7601 78.9102 18.5708C78.8391 16.2609 78.4201 13.993 78.4201 11.6826C78.4201 9.34025 78.4201 6.99794 78.4201 4.65564" stroke="white" stroke-width="0.25" stroke-linecap="round" stroke-linejoin="round"/>
<path d="M59.614 29.6197C59.6606 28.5944 60.0895 27.754 60.4646 26.8089C61.1267 25.1408 61.775 23.518 62.2768 21.7976C62.8135 19.9575 63.2363 17.9298 63.525 16.0374C64.1708 11.8039 65.4389 7.45426 65.4389 3.15781" stroke="white" stroke-width="0.25" stroke-linecap="round" stroke-linejoin="round"/>
<path d="M73.7602 27.4561C71.546 24.4755 69.6426 21.6176 69.4424 17.8126C69.3308 15.6926 69.1003 13.6312 69.1003 11.4976C69.1003 9.99364 69.1003 8.48963 69.1003 6.98563" stroke="white" stroke-width="0.25" stroke-linecap="round" stroke-linejoin="round"/>
<path d="M86.0758 40.1046C86.0758 42.8873 85.9094 45.6537 85.9094 48.4259C85.9094 50.9936 85.3663 53.4099 84.9108 55.9151C84.5803 57.7327 84.0512 59.4885 83.413 61.2038C83.0017 62.3092 82.248 63.812 82.248 64.9854C82.248 66.814 82.4025 68.492 83.413 70.0799C84.4666 71.7355 85.114 73.6598 86.1128 75.3501C86.6276 76.2213 86.9454 77.1507 87.4072 78.0499C87.9562 79.119 88.6582 80.0994 89.1547 81.2028C89.7132 82.444 90.148 83.8644 90.7358 85.0399" stroke="white" stroke-width="0.25" stroke-linecap="round" stroke-linejoin="round"/>
<path d="M98.7243 41.1031C98.7243 46.5149 98.3914 51.833 98.3914 57.2466C98.3914 60.6063 100.056 63.7167 100.056 67.075C100.056 69.7261 97.7416 71.8305 96.3943 73.9262C95.2505 75.7056 94.0589 77.6696 93.1027 79.5478C92.3752 80.9769 91.4015 82.9069 91.4015 84.5406" stroke="white" stroke-width="0.25" stroke-linecap="round" stroke-linejoin="round"/>
<path d="M83.413 41.7688C82.7065 41.2336 81.6863 40.2081 81.5823 39.2724C81.5023 38.5527 80.5837 38.1604 80.5837 37.525C80.5837 36.4456 81.7589 35.4977 82.5439 34.9453C83.9333 33.9676 85.3901 33.7103 86.8987 33.0314C89.697 31.7722 92.8749 31.4504 95.932 31.4504C96.7258 31.4504 98.8581 32.2174 99.2236 32.9482" stroke="white" stroke-width="0.25" stroke-linecap="round" stroke-linejoin="round"/>
<path d="M84.2451 41.1031C86.3682 39.8194 88.6768 39.4234 91.0686 39.069C92.0271 38.927 94.2166 38.5316 95.1461 39.032C95.9665 39.4738 96.9457 39.7209 97.8089 40.1046C98.3228 40.333 98.7586 40.7043 99.2235 40.9367" stroke="white" stroke-width="0.25" stroke-linecap="round" stroke-linejoin="round"/>
<path d="M80.9166 35.6111C80.9166 27.1893 80.9041 18.76 81.083 10.3512C81.1037 9.37967 81.2226 8.45002 81.2494 7.48491C81.2788 6.42843 81.854 5.36518 82.0816 4.34129C82.3407 3.17521 82.7473 1.84555 82.7473 0.661407" stroke="white" stroke-width="0.25" stroke-linecap="round" stroke-linejoin="round"/>
<path d="M86.908 27.1233C89.1236 22.1176 90.4029 16.817 90.4029 11.322C90.4029 9.46009 90.2365 7.59448 90.2365 5.74667C90.2365 4.87516 90.1298 3.97708 90.4029 3.15781" stroke="white" stroke-width="0.25" stroke-linecap="round" stroke-linejoin="round"/>
<path d="M23.1664 28.6211C21.8205 25.9293 18.7819 24.4449 16.1765 23.092C14.5455 22.2452 12.4836 21.2983 10.6012 21.2983C10.0362 21.2983 9.60923 21.2085 9.18654 21.6312C8.4068 22.4109 7.62706 23.1907 6.84732 23.9704C5.54869 25.269 3.6202 27.0132 3.02875 28.7875" stroke="white" stroke-width="0.25" stroke-linecap="round" stroke-linejoin="round"/>
<path d="M31.4878 4.15635C31.4878 9.30178 31.4242 14.452 31.4878 19.5971C31.5067 21.1329 31.6555 24.6269 33.901 24.6269C36.3516 24.6269 37.6932 21.8502 38.2373 19.7727C38.892 17.2728 39.4763 14.9137 39.4763 12.3113C39.4763 10.2563 39.438 7.98931 39.9386 5.98704C40.189 4.98533 40.9672 5.26288 41.5104 5.98704C42.4357 7.22077 42.4665 9.5498 42.6754 11.0538C42.9372 12.9395 43.4683 14.7974 43.7664 16.6754C43.9983 18.1364 44.226 20.0537 45.2087 21.2151C45.6853 21.7783 46.0973 22.579 46.8083 21.7791C48.3625 20.0306 48.0306 17.0603 47.9548 14.9001C47.8672 12.4039 47.9592 9.69796 47.5387 7.23524C47.2293 5.42283 46.9655 3.50313 46.9655 1.65994" stroke="white" stroke-width="0.25" stroke-linecap="round" stroke-linejoin="round"/>
<path d="M59.1146 59.5765C62.1732 60.656 64.3611 63.8219 66.1046 66.437C67.0134 67.8002 67.6024 69.2407 67.6024 70.8936" stroke="white" stroke-width="0.25" stroke-linecap="round" stroke-linejoin="round"/>
<path d="M75.9238 59.4101C74.6141 60.9817 73.1801 62.4155 72.1329 64.1995C71.4994 65.2789 71.45 66.5635 71.0974 67.7314C70.8151 68.6666 70.6417 69.8769 70.5981 70.8566C70.5655 71.5914 70.2653 72.3354 70.2653 73.0571" stroke="white" stroke-width="0.25" stroke-linecap="round" stroke-linejoin="round"/>
<path d="M91.0686 61.2408C91.0686 60.5926 90.9814 59.4468 91.9377 59.4101C92.445 59.3906 93.0002 59.2874 93.1952 59.8724C93.5291 60.8742 92.9684 62.1586 92.0672 62.6092C90.7871 63.2492 89.4991 62.9547 88.942 61.5366C88.3133 59.9361 88.9556 58.4819 90.4122 57.6626C91.5856 57.0025 93.2602 56.9745 94.3047 57.829C95.6521 58.9314 95.5621 61.1832 95.5621 62.7386C95.5621 64.0695 94.7354 65.8688 93.2229 66.0579C92.0793 66.2008 89.7372 66.8434 89.7372 65.0686" stroke="white" stroke-width="0.25" stroke-linecap="round" stroke-linejoin="round"/>
<path d="M83.5794 63.5708C84.2284 64.4274 84.6945 65.4339 85.4101 66.2336C85.78 66.647 86.295 67.1488 86.5751 67.639C87.1223 68.5966 88.3416 69.1007 88.9421 70.0615C89.1478 70.3906 89.6609 70.5644 89.8666 70.8936C90.0912 71.2529 90.3279 71.9653 90.6526 72.225C90.8327 72.3691 91.1797 73.3954 91.2258 73.6489C91.3602 74.3883 91.235 75.2636 91.235 76.0158C91.235 76.6609 91.1416 77.3842 90.4029 77.3842C89.6661 77.3842 89.5708 76.7219 89.5708 76.0436C89.5708 74.0286 90.7356 72.5581 92.0672 71.1525C93.1124 70.0491 94.0692 68.8915 95.1461 67.8147C96.0541 66.9066 97.4718 66.2422 98.0585 65.0686" stroke="white" stroke-width="0.25" stroke-linecap="round" stroke-linejoin="round"/>
<path d="M35.1492 53.2523C36.5858 53.2173 37.6393 52.3096 38.1818 51.0888C38.406 50.5844 38.472 50.0708 37.812 50.0902C37.0322 50.1131 36.9799 51.0676 36.9799 51.662C36.9799 52.2536 37.6075 53.7211 38.0616 54.0845C38.7386 54.626 37.6523 56.5137 36.8504 55.7117C36.084 54.9453 38.3895 53.8093 38.8106 53.6222C39.6454 53.2511 41.6398 52.1021 41.6398 51.0056C41.6398 50.5939 41.7288 50.1598 41.4734 49.8406C41.1946 49.4921 40.431 49.8455 40.3084 50.1827C40.1249 50.6872 40.142 51.142 40.142 51.6713C40.142 52.1692 41.1122 52.4006 41.4734 52.5866C42.0325 52.8746 43.1846 54.1506 42.6014 54.8796C41.8035 55.877 41.1467 55.2713 41.3162 54.0845C41.3887 53.5773 42.2103 53.1811 42.5552 52.8363C43.0132 52.3783 43.6111 52.1132 44.053 51.6713C44.5505 51.1737 45.8678 49.4245 44.4691 49.4245C44.0099 49.4245 43.3041 49.5356 43.3041 50.0902C43.3041 50.7252 43.6126 50.6975 44.1362 50.9593C45.066 51.4242 45.6341 52.11 45.6341 53.1691C45.6341 54.1725 43.5559 54.1054 44.543 52.8363C45.2032 51.9875 46.2795 51.262 47.2983 50.9223" stroke="white" stroke-width="0.25" stroke-linecap="round" stroke-linejoin="round"/>
<path d="M32.4863 64.2365C33.8646 66.0557 35.3299 67.7458 36.9429 69.3587C38.2121 70.628 39.1628 72.1435 40.4748 73.3899C41.5037 74.3673 42.5133 75.4694 43.1746 76.7185C43.4752 77.2863 43.9084 79.9561 42.8788 78.6324C41.9092 77.3857 42.5189 74.98 43.2209 73.732C43.7222 72.8407 44.716 72.0886 45.3752 71.3096C46.1527 70.3906 46.7495 69.2846 47.4648 68.3139C47.9052 67.7162 48.5217 67.3402 49.0458 66.8161C49.7138 66.1481 50.0457 65.2633 50.5344 64.4953C51.2448 63.379 51.2926 62.3477 51.2926 61.0743" stroke="white" stroke-width="0.25" stroke-linecap="round" stroke-linejoin="round"/>
</svg>
