<svg width="299" height="137" viewBox="0 0 299 137" fill="none" xmlns="http://www.w3.org/2000/svg">
<path d="M116.083 112.104C116.083 105.743 115.735 99.3203 115.735 93.0165C115.735 84.2265 116.453 74.4808 119.9 66.2945C120.491 64.8896 121.128 62.9559 121.288 61.4359C121.463 59.7777 123.486 58.3317 123.737 56.5774C124.025 54.5597 125.322 51.6063 126.32 49.8101C127.206 48.2148 127.528 46.6945 129 45.5492C129.066 45.4979 131.543 49.5429 131.776 49.9836C134.113 54.3974 136.836 58.2622 137.618 63.3446C138.062 66.2266 137.925 69.8359 139.064 72.5412C139.634 73.8954 139.988 75.7528 140.375 77.2069C140.756 78.6329 141.416 80.159 141.416 81.6413C141.416 87.8637 141.219 94.2022 142.091 100.304C142.476 102.997 142.11 105.991 142.11 108.71C142.11 109.845 141.774 114.701 140.722 115.227" stroke="white" stroke-width="0.25" stroke-linecap="round" stroke-linejoin="round"/>
<path d="M128.923 38.1843C128.923 44.4103 124.637 48.7091 122.522 54.1481C121.139 57.7036 119.73 61.4384 118.088 64.9063C117.367 66.4284 116.599 67.9233 115.813 69.4178C115.105 70.7618 114.421 72.5698 113.499 73.7558C111.267 76.6251 110.117 80.403 107.214 82.7788C105.938 83.8225 104.956 85.2571 103.743 86.2492C102.862 86.9706 101.193 87.7689 100.543 88.5821C99.9748 89.2921 100.466 92.0842 100.466 93.0165C100.466 94.2605 100.124 96.2398 100.639 97.3738C101.326 98.8854 100.813 101.584 100.813 103.254C100.813 104.701 101.16 106.089 101.16 107.592C101.16 110.129 101.507 112.623 101.507 115.227" stroke="white" stroke-width="0.25" stroke-linecap="round" stroke-linejoin="round"/>
<path d="M128.576 40.2665C128.576 46.2162 132.752 50.4446 135.864 55.1121C137.896 58.1599 138.929 62.4056 141.397 65.0798C142.454 66.2248 142.991 68.1658 143.846 69.4949C144.724 70.862 145.182 73.0092 145.581 74.6041C146.356 77.7061 148.057 81.582 149.745 84.2634C150.826 85.9796 151.653 88.959 153.563 89.9703C154.1 90.2546 154.526 90.2402 155.124 90.2402C155.663 90.2402 155.772 89.2385 155.819 89.2569C156.615 89.5756 155.298 95.6773 155.298 96.6411C155.298 100.047 154.951 103.448 154.951 106.917C154.951 108.29 155.032 109.692 154.951 111.063C154.888 112.128 154.257 113.344 154.257 114.533" stroke="white" stroke-width="0.25" stroke-linecap="round" stroke-linejoin="round"/>
<path d="M145.581 113.839C145.581 109.439 145.928 105.007 145.928 100.651C145.928 98.385 146.495 95.2679 145.851 93.0936C144.886 89.8377 145.888 86.1552 147.316 83.2994" stroke="white" stroke-width="0.25" stroke-linecap="round" stroke-linejoin="round"/>
<path d="M110.183 115.227C110.183 108.055 110.183 100.883 110.183 93.7106C110.183 91.2813 110.183 88.852 110.183 86.4227C110.183 85.5823 110.294 84.7556 109.913 83.9935C109.618 83.4028 109.142 82.9063 109.142 82.2583" stroke="white" stroke-width="0.25" stroke-linecap="round" stroke-linejoin="round"/>
<path d="M166.992 126.371C166.992 121.323 166.992 116.275 166.992 111.227C166.992 108.987 167.272 106.739 167.397 104.499C167.557 101.619 167.802 98.4929 167.802 95.5432C167.802 89.4153 167.776 83.2173 168.657 77.1592C169.161 73.6916 168.551 70.077 169.062 66.6283C169.522 63.5235 169.28 60.1945 169.422 57.065C169.497 55.4177 170.232 53.9256 170.232 52.2496C170.232 51.6324 169.887 49.542 170.277 49.0544C170.463 48.822 170.651 47.8702 170.761 48.0418C171.402 49.0392 172.118 49.9753 172.662 51.0345C173.392 52.4537 174.156 53.7433 175.295 54.8823C176.956 56.5432 178.331 58.7651 179.39 60.8453C180.816 63.6429 182.618 66.0627 183.598 69.0585C184.127 70.6732 184.731 72.1843 185.128 73.8289C185.575 75.6797 185.663 77.695 186.231 79.4994C186.833 81.4126 187.298 83.5155 187.446 85.5074C187.542 86.8026 188.655 87.76 189.021 88.9502C189.452 90.3505 188.94 91.1329 190.686 91.1329C191.174 91.1329 191.744 91.2938 192.003 90.8291C192.305 90.2841 192.073 89.397 192.149 88.7927C192.265 87.8636 192.694 87.0165 192.711 86.0699C192.767 83.0573 193.126 79.9334 193.567 76.9567C193.993 74.0779 193.844 71.1407 194.174 68.2485C194.522 65.2 195.017 62.1842 195.502 59.1802C195.72 57.8236 196.077 56.7359 196.165 55.3661C196.303 53.2406 196.696 50.7145 197.369 48.6943C197.798 47.4076 198.287 45.9586 198.888 44.7565C199.262 44.009 199.284 43.2443 199.642 42.5288C199.983 41.8461 199.868 41.0289 200.711 41.9213C201.375 42.6247 201.881 43.3201 202.432 44.1039C203.24 45.2522 204.457 46.0335 205.166 47.288C205.476 47.8353 205.995 48.1242 206.325 48.6493C206.695 49.238 206.974 49.87 207.45 50.382C208.495 51.5039 209.478 53.1201 210.218 54.4661C210.786 55.4987 211.375 56.599 211.748 57.7176C212.739 60.6907 213.774 63.7405 214.336 66.8308C214.731 69.002 215.427 71.6459 216.406 73.6039C217.162 75.1163 218.364 76.7836 218.431 78.5318C218.479 79.7824 218.97 80.9856 219.039 82.2221C219.069 82.768 219.433 85.2544 219.849 85.4624" stroke="white" stroke-width="0.25" stroke-linecap="round" stroke-linejoin="round"/>
<path d="M188.256 130.826C188.256 125.879 190.025 120.922 190.788 116.042C191.405 112.093 190.889 107.688 190.889 103.689C190.889 102.149 190.83 100.656 190.698 99.1323C190.587 97.8656 190.281 96.528 190.281 95.262C190.281 93.9116 189.876 92.5633 189.876 91.3354" stroke="white" stroke-width="0.25" stroke-linecap="round" stroke-linejoin="round"/>
<path d="M168.207 101.866C168.283 98.5155 169.494 95.2758 169.827 91.9429C170.061 89.6032 170.888 87.3555 171.335 85.0574C172.032 81.471 173.141 78.4092 174.687 75.134C175.706 72.9761 176.116 70.6844 177.421 68.6535C178.171 67.4879 179.185 66.3835 180.155 65.4132" stroke="white" stroke-width="0.25" stroke-linecap="round" stroke-linejoin="round"/>
<path d="M134.792 14.784C136.501 14.784 137.471 15.0201 138.808 16.1904C139.76 17.0228 140.501 18.0787 141.317 19.0369C142.863 20.8513 144.189 22.6861 145.536 24.6398C147.014 26.7821 148.364 29.0069 149.778 31.1879C151.07 33.1812 151.478 35.6812 152.624 37.7584C154.685 41.4934 156.234 45.3489 157.361 49.4594C157.835 51.1877 158.368 52.9144 158.689 54.6798C159.038 56.6036 160.213 58.309 160.826 60.1478C162.093 63.9488 162.941 68.1779 162.941 72.1863C162.941 73.7887 163.346 75.3588 163.346 76.9567C163.346 78.3414 163.211 80.0029 163.65 81.3221C164.3 83.2719 164.562 85.9939 164.562 88.0501C164.562 89.6515 165.169 91.159 165.169 92.753" stroke="white" stroke-width="0.25" stroke-linecap="round" stroke-linejoin="round"/>
<path d="M134.589 38.0735C138.277 38.1964 140.617 41.8179 142.296 44.7565C143.032 46.0449 144.196 47.0899 145.12 48.2443C146.225 49.6251 147.119 51.1881 148.36 52.4521C153.603 57.7921 157.025 64.7459 159.949 71.5337C161.16 74.3456 162.252 77.1121 163.256 79.9832C163.867 81.7281 164.68 84.0668 164.764 85.9124C164.902 88.9522 165.574 92.0178 165.574 94.9807" stroke="white" stroke-width="0.25" stroke-linecap="round" stroke-linejoin="round"/>
<path d="M163.347 127.788C163.347 122.93 163.281 118.066 163.347 113.207C163.379 110.821 163.728 108.387 163.909 106.007C164.054 104.1 163.648 102.017 164.055 100.145C164.256 99.2209 164.562 98.1384 164.562 97.1971C164.562 96.6728 164.458 96.0034 164.573 95.487C164.752 94.6803 166.479 94.7659 166.789 95.3857" stroke="white" stroke-width="0.25" stroke-linecap="round" stroke-linejoin="round"/>
<path d="M133.779 1.01288C133.779 7.32465 133.779 13.6364 133.779 19.9482C133.779 24.6703 134.645 29.4968 134.173 34.2144C134.026 35.6856 133.402 37.1725 132.969 38.5797C132.657 39.5928 132.405 40.5847 131.911 41.5162C131.399 42.4851 131.612 43.3017 131.248 44.2502C131.025 44.8285 131.146 45.5637 131.146 46.1741C131.146 46.6534 131.423 47.3039 130.944 46.9842" stroke="white" stroke-width="0.25" stroke-linecap="round" stroke-linejoin="round"/>
<path d="M132.361 14.784C128.844 15.2566 126.982 18.0333 125.318 20.927C124.518 22.3197 123.336 23.4393 122.348 24.6961C121.254 26.0884 120.196 27.543 119.198 29.0052C117.756 31.116 115.951 33.1576 114.787 35.4407C113.835 37.3101 113.078 39.2536 111.907 41.01C110.585 42.9929 109.106 44.8284 107.868 46.8717C106.477 49.1664 105.486 51.3579 103.514 53.251C101.727 54.9665 100.609 57.2143 99.2387 59.2365C97.8171 61.335 96.563 63.6016 95.9084 66.0658C95.3803 68.0541 95.0983 70.3975 95.0983 72.4563C95.0983 74.9496 93.1345 77.6953 92.0606 79.9044C90.9084 82.2746 90.1132 84.9027 89.4279 87.4426C88.7293 90.0314 88.0103 93.1216 88.0103 95.802C88.0103 99.8486 88.0103 103.895 88.0103 107.942C88.0103 109.01 87.8077 110.027 87.8077 111.081C87.8077 112.012 87.8968 112.94 87.6052 113.815" stroke="white" stroke-width="0.25" stroke-linecap="round" stroke-linejoin="round"/>
<path d="M130.134 6.27832C122.844 6.27832 117.344 11.2338 112.234 15.8866C106.972 20.6774 102.078 25.7561 97.6185 31.3004C95.0948 34.438 92.7239 37.7641 91.1605 41.5162C90.6357 42.7757 90.0618 43.969 89.5854 45.2516C89.4105 45.7224 89.0238 47.5912 88.6178 47.7943" stroke="white" stroke-width="0.25" stroke-linecap="round" stroke-linejoin="round"/>
<path d="M110.692 10.5312C107.484 11.3644 104.662 13.7488 102.006 15.6391C99.2534 17.5991 96.4165 19.698 94.1083 22.1759C90.157 26.4178 86.8285 31.1571 84.275 36.3521C82.782 39.3896 81.2806 42.4271 79.9096 45.5216C79.3817 46.7132 79.0515 48.0928 78.492 49.2119" stroke="white" stroke-width="0.25" stroke-linecap="round" stroke-linejoin="round"/>
<path d="M48.9245 76.5517C48.9245 73.729 48.8738 70.9015 48.9358 68.0797C48.9921 65.5162 49.8063 63.056 50.3309 60.5641C51.3311 55.8134 52.6545 51.1431 53.9875 46.4779C56.3083 38.3549 58.1767 29.935 62.0769 22.3784C63.7443 19.1478 65.4006 15.9886 67.5111 13.0064C68.7576 11.2449 69.127 9.60318 69.8288 7.60593C70.2608 6.37641 70.6062 4.94888 71.4039 3.89313C71.7895 3.38273 72.2575 2.90763 72.619 2.3855C73.1115 1.67416 73.8758 0.929416 74.2391 0.20282" stroke="white" stroke-width="0.25" stroke-linecap="round" stroke-linejoin="round"/>
<path d="M37.1786 80.197C40.0244 80.197 42.4679 81.291 45.2793 81.6033C47.6326 81.8648 50.9315 82.1483 52.3674 79.9944" stroke="white" stroke-width="0.25" stroke-linecap="round" stroke-linejoin="round"/>
<path d="M39.2037 92.5505C41.0281 92.5505 42.6394 92.5602 44.3679 92.9443C45.1781 93.1243 47.097 92.9652 47.5069 92.1454" stroke="white" stroke-width="0.25" stroke-linecap="round" stroke-linejoin="round"/>
<path d="M45.2792 91.9429C45.2792 90.4199 45.6646 88.9426 46.5956 87.7013C47.034 87.1167 47.5067 85.9688 48.1145 85.6649" stroke="white" stroke-width="0.25" stroke-linecap="round" stroke-linejoin="round"/>
<path d="M43.0515 92.1455C43.1005 90.0408 43.4565 87.9878 43.4565 85.8674" stroke="white" stroke-width="0.25" stroke-linecap="round" stroke-linejoin="round"/>
<path d="M40.8239 91.7404C40.8239 90.2644 41.2349 88.3443 40.4638 87.0825C40.1341 86.543 39.3445 85.5328 38.7987 85.2599" stroke="white" stroke-width="0.25" stroke-linecap="round" stroke-linejoin="round"/>
<path d="M37.7861 85.4624C36.6828 84.6512 35.7609 84.0932 35.7609 82.6384C35.7609 81.9586 35.5867 80.8626 36.3685 80.602" stroke="white" stroke-width="0.25" stroke-linecap="round" stroke-linejoin="round"/>
<path d="M39.2037 85.4624C40.7885 85.4624 43.5048 84.997 44.9192 85.8674C45.7552 86.3819 46.936 86.6775 47.912 86.6775C50.8253 86.6775 51.1522 84.0541 51.1522 81.6146" stroke="white" stroke-width="0.25" stroke-linecap="round" stroke-linejoin="round"/>
<path d="M41.8365 79.1844C41.8365 69.8924 42.039 60.6289 42.039 51.3383C42.039 47.8734 42.2415 44.3889 42.2415 40.9087C42.2415 36.916 42.5276 32.706 41.8815 28.7577C41.3616 25.5805 40.7566 22.4595 40.4189 19.2506C40.1325 16.5303 39.9716 13.6447 39.1025 11.0375C38.5807 9.47197 38.184 7.87834 37.6286 6.32332C37.2823 5.35352 36.7736 4.49003 36.7736 3.44308" stroke="white" stroke-width="0.25" stroke-linecap="round" stroke-linejoin="round"/>
<path d="M38.7987 77.7668C38.7987 74.6044 39.1677 71.5155 38.5962 68.3722C38.0607 65.4269 37.1354 62.5798 36.616 59.6303C36.3108 57.8973 36.0711 56.0857 35.0634 54.6461C34.6083 53.996 34.872 52.2625 34.7033 51.4846C34.0705 48.5666 32.8981 45.6848 31.7893 42.9226C30.6759 40.1489 29.4092 37.4385 28.3803 34.6307C27.6276 32.5765 27.1779 30.3107 26.2426 28.3302C25.303 26.3403 23.642 24.736 22.2823 23.0422C20.0507 20.2621 18.1314 17.275 16.0268 14.4128C15.3146 13.4442 15.4758 12.8082 15.003 11.7575C14.4343 10.4938 13.1885 9.8474 12.3815 8.8098C11.5476 7.73772 11.2087 6.28422 10.2438 5.26575C9.61216 4.59901 8.76886 4.02962 8.21864 3.34184C7.82866 2.85437 7.57854 2.11047 7.00354 1.82297" stroke="white" stroke-width="0.25" stroke-linecap="round" stroke-linejoin="round"/>
<path d="M39.0012 93.3606C38.6937 95.2823 38.7292 95.3857 40.5201 95.3857C41.6639 95.3857 42.8078 95.3857 43.9516 95.3857C45.0911 95.3857 46.8994 95.8597 46.8994 94.3731" stroke="white" stroke-width="0.25" stroke-linecap="round" stroke-linejoin="round"/>
<path d="M39.8113 96.8033C39.8113 105.271 40.0138 113.755 40.0138 122.208C40.0138 123.86 39.8133 125.653 40.1151 127.282C40.4025 128.834 40.8239 130.37 40.8239 131.963C40.8239 133.121 40.8239 134.28 40.8239 135.439C40.8239 135.995 41.0845 136.866 40.4188 136.699" stroke="white" stroke-width="0.25" stroke-linecap="round" stroke-linejoin="round"/>
<path d="M42.0389 96.8033C42.0389 102.011 41.6828 107.353 42.399 112.51C42.9102 116.19 42.849 119.825 42.849 123.536C42.849 126.064 43.254 128.511 43.254 131.029C43.254 132.514 43.254 133.999 43.254 135.484" stroke="white" stroke-width="0.25" stroke-linecap="round" stroke-linejoin="round"/>
<path d="M44.8742 97.4109C44.8742 104.026 44.8742 110.642 44.8742 117.258C44.8742 120.313 45.0353 123.36 44.5142 126.371C44.203 128.169 43.8616 130.01 43.8616 131.839C43.8616 132.851 43.8616 135.889 43.8616 134.876" stroke="white" stroke-width="0.25" stroke-linecap="round" stroke-linejoin="round"/>
<path d="M106.642 1.41791C102.009 2.81511 98.9079 6.54347 94.8846 9.01229C90.0556 11.9756 85.4312 15.5256 81.2372 19.3294C77.8243 22.4248 74.9931 25.503 72.4165 29.3202C69.9653 32.9516 67.8708 36.8805 65.8909 40.7962C64.8219 42.9105 63.5779 44.9454 62.4481 47.0292C61.0279 49.6488 60.1722 52.5339 59.0504 55.2874C57.371 59.4095 55.8789 63.5973 54.3025 67.7534C53.9009 68.8122 53.6896 69.9322 53.2786 70.9824C52.91 71.9245 52.4411 73.2823 52.3673 74.279C52.2416 75.9762 52.1648 77.6584 52.1648 79.3869" stroke="white" stroke-width="0.25" stroke-linecap="round" stroke-linejoin="round"/>
<path d="M136.614 6.48083C137.89 6.53085 138.68 6.99399 139.787 7.60593C141.547 8.57896 143.373 9.50772 145.03 10.6549C147.193 12.1524 149.017 14.091 150.858 15.9541C154.614 19.7558 158.604 23.7092 161.209 28.3977C163.249 32.0693 165.507 35.4634 167.194 39.3336C167.764 40.641 168.128 42.0261 168.713 43.3276C168.897 43.7351 169.267 44.7801 169.625 44.959" stroke="white" stroke-width="0.25" stroke-linecap="round" stroke-linejoin="round"/>
<path d="M136.817 4.25314C140.637 4.25314 144.78 5.47336 148.45 6.48083C153.189 7.7817 158.056 8.28702 162.784 9.56358C166.925 10.6817 171.047 11.9161 174.699 14.1765C176.721 15.4284 178.501 16.9214 180.459 18.2268C181.758 19.0929 182.703 20.3072 183.913 21.2758C189.391 25.6581 194.834 30.0697 199.788 35.0244C200.714 35.9506 201.205 37.1234 201.87 38.231C202.587 39.4262 203.483 40.6011 204.052 41.8763C205.945 46.1123 208.869 49.8071 210.735 54.0723" stroke="white" stroke-width="0.25" stroke-linecap="round" stroke-linejoin="round"/>
<path d="M169.422 0.607849C173.149 2.13704 176.351 4.48809 179.548 6.90837C183.312 9.75787 186.612 12.5852 189.55 16.2691C190.759 17.7855 192.435 19.154 193.431 20.8145C193.877 21.5563 193.965 21.9926 194.579 22.6822C198.254 26.8096 201.678 31.1972 204.435 35.992C205.365 37.6095 206.8 39.4255 206.888 41.3587C206.95 42.7259 208.119 44.6828 208.8 45.8591C209.371 46.8449 209.66 47.8788 210.128 48.8969C210.921 50.624 211.488 52.7234 211.737 54.5898C211.87 55.5921 212.158 56.4558 212.401 57.4251C212.691 58.5854 213.454 59.376 213.874 60.4516C214.639 62.4047 215.798 64.4868 215.798 66.6396C215.798 68.1815 215.957 70.2488 216.518 71.6913C217.076 73.1238 217.824 75.2172 217.824 76.7542" stroke="white" stroke-width="0.25" stroke-linecap="round" stroke-linejoin="round"/>
<path d="M156.056 9.31607C158.73 11.3395 161.481 13.4163 164.022 15.5941C165.561 16.914 166.682 19.1015 167.723 20.8145C171.257 26.6286 175.277 32.0662 178.085 38.321C179.017 40.3964 179.592 42.626 180.56 44.7115C181.529 46.7969 182.319 48.8994 183.193 51.0233C184.473 54.132 185.293 57.3264 186.276 60.5303C188.238 66.9255 189.269 73.6478 189.269 80.3545C189.269 82.4621 189.269 84.5698 189.269 86.6775C189.269 87.1789 189.508 89.3929 189.269 89.5127" stroke="white" stroke-width="0.25" stroke-linecap="round" stroke-linejoin="round"/>
<path d="M214.786 86.07C217.977 86.07 221.169 86.07 224.36 86.07C226.194 86.07 227.649 85.4869 229.367 85.0574" stroke="white" stroke-width="0.25" stroke-linecap="round" stroke-linejoin="round"/>
<path d="M214.583 88.5002C214.583 89.518 214.107 91.3558 215.191 91.8979C216.408 92.5066 216.001 90.3406 216.001 89.7153" stroke="white" stroke-width="0.25" stroke-linecap="round" stroke-linejoin="round"/>
<path d="M217.824 87.6901C217.824 88.7613 217.555 91.3354 219.342 91.3354C221.004 91.3354 221.198 88.0951 219.444 88.0951" stroke="white" stroke-width="0.25" stroke-linecap="round" stroke-linejoin="round"/>
<path d="M223.899 87.4876C223.899 88.7037 223.229 91.5379 225.159 91.5379C226.38 91.5379 226.532 88.9537 226.532 88.0951" stroke="white" stroke-width="0.25" stroke-linecap="round" stroke-linejoin="round"/>
<path d="M219.849 85.2599C219.849 80.8152 219.965 76.3575 219.804 71.9163C219.728 69.8279 219.331 67.7843 219.162 65.7057C218.985 63.5146 219.039 61.3089 219.039 59.1127C219.039 56.5381 218.901 54.0886 218.476 51.5296C217.393 45.0029 216.53 38.4341 215.506 31.8967C215.16 29.6869 214.542 27.3245 214.381 25.1124C214.256 23.392 213.122 21.3965 212.558 19.7457C211.958 17.9884 211.128 16.3712 210.229 14.7728C209.501 13.4781 208.691 12.2373 207.9 10.9812C207.528 10.39 207.457 9.56461 207.203 8.91103C206.919 8.18091 206.589 7.46848 206.325 6.72835C205.869 5.45061 204.789 4.41906 204.3 3.19556C204.008 2.46463 203.297 1.98553 203.04 1.21539" stroke="white" stroke-width="0.25" stroke-linecap="round" stroke-linejoin="round"/>
<path d="M225.114 85.2599C224.702 82.0116 225.346 78.8527 225.868 75.6403C227.004 68.654 228.188 61.6757 229.333 54.6911C230.009 50.5675 230.374 46.4376 231.032 42.3263C231.85 37.2173 232.862 32.1414 233.991 27.0926C234.493 24.8511 234.595 22.0125 235.544 19.9032C236.312 18.1968 236.381 16.0173 236.86 14.1765C237.486 11.7712 238.339 9.24368 239.695 7.1334C240.271 6.23834 240.601 5.24037 241.214 4.35442C241.595 3.80501 242.041 3.20762 242.328 2.63303" stroke="white" stroke-width="0.25" stroke-linecap="round" stroke-linejoin="round"/>
<path d="M228.557 83.8423C231.626 65.7665 238.579 49.1702 246.401 32.7405C248.872 27.5508 250.768 22.2103 254.637 17.9118C256.672 15.6506 258.924 13.6139 260.96 11.3525C261.979 10.2202 263.47 9.52633 264.605 8.51727C265.699 7.54454 266.816 6.36145 268.048 5.56952C269.517 4.62514 270.665 3.38617 272.098 2.43051" stroke="white" stroke-width="0.25" stroke-linecap="round" stroke-linejoin="round"/>
<path d="M266.09 115.129C266.09 103.14 266.09 91.1508 266.09 79.1619C266.09 72.3857 268.927 64.6448 271.152 58.3193C273.342 52.0966 276.324 45.9687 278.715 39.8204C280.82 34.4055 283.246 30.0279 286.589 25.165C287.407 23.9747 292 15.4147 292.089 15.5718C293.505 18.0903 294.669 20.3599 296.463 22.6027C297.445 23.8293 297.69 27.4343 298.713 27.9461" stroke="white" stroke-width="0.25" stroke-linecap="round" stroke-linejoin="round"/>
<path d="M287.464 6.00986C287.464 15.6011 283.407 23.685 276.902 30.6334C273.132 34.6602 269.515 41.2008 263.309 41.9765C258.65 42.5589 250.683 44.3785 248.091 39.1954" stroke="white" stroke-width="0.25" stroke-linecap="round" stroke-linejoin="round"/>
<path d="M254.841 46.5075C254.841 55.6087 256.205 65.2559 250.904 73.0685C248.172 77.0946 245.217 82.6927 240.342 84.3179C237.241 85.3514 238.198 86.7976 239.092 89.5676C240.364 93.5103 241.262 97.5654 242.029 101.629C242.732 105.353 243.595 109.352 244.966 112.879C245.863 115.184 245.306 117.996 246.404 120.191" stroke="white" stroke-width="0.25" stroke-linecap="round" stroke-linejoin="round"/>
<path d="M253.716 69.5687C255.791 73.546 256.149 78.5528 256.966 82.9429C257.575 86.2183 257.903 89.5847 258.341 92.9423C259.208 99.5945 260.466 105.574 260.466 112.316" stroke="white" stroke-width="0.25" stroke-linecap="round" stroke-linejoin="round"/>
<path d="M0.605591 8.25974C6.24531 10.5982 10.73 18.3328 10.73 24.4463C10.73 30.8469 11.0346 38.1265 11.9799 44.5076C12.9176 50.8367 12.3308 59.2128 15.1048 65.069C16.511 68.0376 18.0311 70.8473 20.8544 72.6623C22.7947 73.9096 24.5419 73.9402 26.4791 74.7559C26.9402 74.95 28.4545 75.1364 28.604 75.5684C29.3432 77.704 27.9162 80.6174 27.604 82.7242C27.0943 86.1652 25.7421 89.9717 24.6667 93.3173C22.8167 99.073 24.8906 103.114 28.1665 107.941C29.7569 110.285 30.9179 112.818 32.9475 114.847C34.0687 115.969 34.9161 117.533 34.9161 119.066C34.9161 123.809 35.4786 128.407 35.4786 133.128" stroke="white" stroke-width="0.25" stroke-linecap="round" stroke-linejoin="round"/>
<path d="M2.85547 114.004C2.85547 103.618 3.56092 94.2363 5.7928 84.1929C7.35243 77.1745 8.72003 69.6514 11.8549 63.3816" stroke="white" stroke-width="0.25" stroke-linecap="round" stroke-linejoin="round"/>
<path d="M171.883 86.4023C176.63 86.4023 181.49 85.7697 186.116 85.7697" stroke="white" stroke-width="0.25" stroke-linecap="round" stroke-linejoin="round"/>
<path d="M172.516 80.7089C174.982 80.7089 177.457 80.3926 179.861 80.3926C181.105 80.3926 182.529 80.2884 183.586 79.76" stroke="white" stroke-width="0.25" stroke-linecap="round" stroke-linejoin="round"/>
<path d="M170.618 93.0446C175.784 93.0446 180.95 93.0446 186.116 93.0446" stroke="white" stroke-width="0.25" stroke-linecap="round" stroke-linejoin="round"/>
<path d="M168.72 101.268C173.959 101.268 179.065 101.26 184.201 100.618C186.24 100.363 188.139 100.003 190.228 100.003" stroke="white" stroke-width="0.25" stroke-linecap="round" stroke-linejoin="round"/>
<path d="M169.353 107.911C175.679 107.911 182.005 107.911 188.331 107.911" stroke="white" stroke-width="0.25" stroke-linecap="round" stroke-linejoin="round"/>
<path d="M168.72 130.052C168.72 126.88 169.036 123.736 169.036 120.563C169.036 119.561 169.036 118.56 169.036 117.558C169.036 116.78 170.241 117.083 170.793 117.083C175.135 117.083 179.375 116.451 183.727 116.451C185.275 116.451 185.726 116.284 186.362 117.716C186.931 118.996 186.749 120.922 186.749 122.32C186.749 125.214 186.749 128.107 186.749 131.001" stroke="white" stroke-width="0.25" stroke-linecap="round" stroke-linejoin="round"/>
<path d="M170.717 108.764C170.586 109.447 170.594 110.112 170.421 110.784C170.251 111.444 170.257 112.079 170.257 112.758C170.257 113.845 170.257 114.931 170.257 116.018" stroke="white" stroke-width="0.25" stroke-linecap="round" stroke-linejoin="round"/>
<path d="M171.818 108.948C171.818 111.335 171.818 113.722 171.818 116.11" stroke="white" stroke-width="0.25" stroke-linecap="round" stroke-linejoin="round"/>
<path d="M172.737 108.856C173.021 110.349 172.828 112.02 172.828 113.544C172.828 114.399 172.828 115.254 172.828 116.11" stroke="white" stroke-width="0.25" stroke-linecap="round" stroke-linejoin="round"/>
<path d="M174.481 110.142C174.481 112.162 174.481 114.182 174.481 116.202" stroke="white" stroke-width="0.25" stroke-linecap="round" stroke-linejoin="round"/>
<path d="M175.399 110.417C175.399 112.315 175.491 114.241 175.491 116.11" stroke="white" stroke-width="0.25" stroke-linecap="round" stroke-linejoin="round"/>
<path d="M176.501 110.417C176.501 111.498 176.501 112.58 176.501 113.661C176.501 114.081 176.67 114.481 176.685 114.896C176.7 115.325 176.732 115.885 176.868 116.293" stroke="white" stroke-width="0.25" stroke-linecap="round" stroke-linejoin="round"/>
<path d="M178.705 109.223C178.705 111.519 178.705 113.814 178.705 116.11" stroke="white" stroke-width="0.25" stroke-linecap="round" stroke-linejoin="round"/>
<path d="M179.715 108.948C179.715 111.125 179.384 113.74 180.082 115.834" stroke="white" stroke-width="0.25" stroke-linecap="round" stroke-linejoin="round"/>
<path d="M180.817 109.132C180.817 110.87 180.731 112.633 180.903 114.36C180.954 114.864 181 115.429 181 115.926" stroke="white" stroke-width="0.25" stroke-linecap="round" stroke-linejoin="round"/>
<path d="M182.194 108.672C182.194 110.845 182.194 113.019 182.194 115.192" stroke="white" stroke-width="0.25" stroke-linecap="round" stroke-linejoin="round"/>
<path d="M182.928 108.764C182.928 110.539 182.928 112.315 182.928 114.09C182.928 114.553 182.908 115.092 183.041 115.538C183.077 115.66 183.224 115.936 183.02 115.834" stroke="white" stroke-width="0.25" stroke-linecap="round" stroke-linejoin="round"/>
<path d="M184.398 109.04C184.398 110.844 184.264 112.696 184.535 114.488C184.62 115.049 184.673 115.633 184.673 116.202" stroke="white" stroke-width="0.25" stroke-linecap="round" stroke-linejoin="round"/>
<path d="M185.499 108.764C185.499 109.856 185.377 111.018 185.591 112.09C185.742 112.845 185.958 113.636 185.958 114.411C185.958 114.966 186.05 115.473 186.05 116.018" stroke="white" stroke-width="0.25" stroke-linecap="round" stroke-linejoin="round"/>
<path d="M186.877 110.784C186.877 112.712 186.877 118.497 186.877 116.569" stroke="white" stroke-width="0.25" stroke-linecap="round" stroke-linejoin="round"/>
<path d="M187.887 109.04C187.887 110.886 187.824 112.755 187.984 114.595C188.031 115.145 188.162 115.639 188.162 116.202" stroke="white" stroke-width="0.25" stroke-linecap="round" stroke-linejoin="round"/>
<path d="M170.717 101.878C170.717 102.893 170.563 104.051 170.762 105.051C170.871 105.595 170.9 106.28 170.9 106.836" stroke="white" stroke-width="0.25" stroke-linecap="round" stroke-linejoin="round"/>
<path d="M172.186 101.97C172.186 103.508 172.277 105.171 172.277 106.652" stroke="white" stroke-width="0.25" stroke-linecap="round" stroke-linejoin="round"/>
<path d="M173.563 102.245C173.563 103.795 173.655 105.411 173.655 106.928" stroke="white" stroke-width="0.25" stroke-linecap="round" stroke-linejoin="round"/>
<path d="M174.94 101.97C174.94 102.69 174.93 103.412 174.94 104.132C174.948 104.655 175.124 105.165 175.124 105.688C175.124 105.904 175.002 106.821 175.216 106.928" stroke="white" stroke-width="0.25" stroke-linecap="round" stroke-linejoin="round"/>
<path d="M176.134 101.786C176.134 103.231 176.134 104.677 176.134 106.122C176.134 106.387 176.173 107.374 176.134 107.295" stroke="white" stroke-width="0.25" stroke-linecap="round" stroke-linejoin="round"/>
<path d="M177.328 103.163C177.328 104.541 177.328 105.918 177.328 107.295" stroke="white" stroke-width="0.25" stroke-linecap="round" stroke-linejoin="round"/>
<path d="M178.154 103.347C178.154 104.663 178.154 105.979 178.154 107.295" stroke="white" stroke-width="0.25" stroke-linecap="round" stroke-linejoin="round"/>
<path d="M178.797 103.347C178.797 104.452 178.888 105.547 178.888 106.652" stroke="white" stroke-width="0.25" stroke-linecap="round" stroke-linejoin="round"/>
<path d="M179.807 103.806C179.807 105.03 179.807 108.703 179.807 107.479" stroke="white" stroke-width="0.25" stroke-linecap="round" stroke-linejoin="round"/>
<path d="M181 103.714C181 104.727 181.092 105.734 181.092 106.744C181.092 106.823 181.064 107.351 181.184 107.112" stroke="white" stroke-width="0.25" stroke-linecap="round" stroke-linejoin="round"/>
<path d="M180.908 102.521C182.573 102.521 184.203 102.429 185.867 102.429" stroke="white" stroke-width="0.25" stroke-linecap="round" stroke-linejoin="round"/>
<path d="M182.286 103.714C182.286 104.677 182.561 105.619 182.561 106.561" stroke="white" stroke-width="0.25" stroke-linecap="round" stroke-linejoin="round"/>
<path d="M183.663 103.531C183.663 104.541 183.663 107.571 183.663 106.561" stroke="white" stroke-width="0.25" stroke-linecap="round" stroke-linejoin="round"/>
<path d="M184.306 103.622C184.306 105.061 184.398 109.377 184.398 107.938" stroke="white" stroke-width="0.25" stroke-linecap="round" stroke-linejoin="round"/>
<path d="M185.132 103.898C185.132 105.061 185.132 108.55 185.132 107.387" stroke="white" stroke-width="0.25" stroke-linecap="round" stroke-linejoin="round"/>
<path d="M186.05 103.714C186.05 104.755 186.05 107.877 186.05 106.836" stroke="white" stroke-width="0.25" stroke-linecap="round" stroke-linejoin="round"/>
<path d="M187.152 101.878C187.152 103.437 187.244 105.017 187.244 106.561C187.244 106.797 187.215 107.28 187.428 107.387" stroke="white" stroke-width="0.25" stroke-linecap="round" stroke-linejoin="round"/>
<path d="M170.057 94.0918C170.057 95.1072 169.903 96.2652 170.103 97.2647C170.211 97.8092 170.24 98.4944 170.24 99.05" stroke="white" stroke-width="0.25" stroke-linecap="round" stroke-linejoin="round"/>
<path d="M171.526 94.1836C171.526 95.7216 171.618 97.3852 171.618 98.8664" stroke="white" stroke-width="0.25" stroke-linecap="round" stroke-linejoin="round"/>
<path d="M172.903 94.4591C172.903 96.0086 172.995 97.6251 172.995 99.1419" stroke="white" stroke-width="0.25" stroke-linecap="round" stroke-linejoin="round"/>
<path d="M174.28 94.1836C174.28 94.9043 174.27 95.6259 174.28 96.3465C174.288 96.8686 174.464 97.3789 174.464 97.9023C174.464 98.1185 174.342 99.0348 174.556 99.1418" stroke="white" stroke-width="0.25" stroke-linecap="round" stroke-linejoin="round"/>
<path d="M175.474 94C175.474 95.4453 175.474 96.8906 175.474 98.3359C175.474 98.6013 175.513 99.5882 175.474 99.5091" stroke="white" stroke-width="0.25" stroke-linecap="round" stroke-linejoin="round"/>
<path d="M176.668 95.3773C176.668 96.7546 176.668 98.1319 176.668 99.5091" stroke="white" stroke-width="0.25" stroke-linecap="round" stroke-linejoin="round"/>
<path d="M177.494 95.5609C177.494 96.877 177.494 98.1931 177.494 99.5091" stroke="white" stroke-width="0.25" stroke-linecap="round" stroke-linejoin="round"/>
<path d="M178.137 95.5609C178.137 96.6659 178.229 97.7614 178.229 98.8664" stroke="white" stroke-width="0.25" stroke-linecap="round" stroke-linejoin="round"/>
<path d="M179.147 96.02C179.147 97.2443 179.147 100.917 179.147 99.6928" stroke="white" stroke-width="0.25" stroke-linecap="round" stroke-linejoin="round"/>
<path d="M180.34 95.9282C180.34 96.9405 180.432 97.948 180.432 98.9582C180.432 99.037 180.404 99.5648 180.524 99.3255" stroke="white" stroke-width="0.25" stroke-linecap="round" stroke-linejoin="round"/>
<path d="M181.626 95.9282C181.626 96.8911 181.901 97.8327 181.901 98.7746" stroke="white" stroke-width="0.25" stroke-linecap="round" stroke-linejoin="round"/>
<path d="M183.003 95.7446C183.003 96.7546 183.003 99.7846 183.003 98.7746" stroke="white" stroke-width="0.25" stroke-linecap="round" stroke-linejoin="round"/>
<path d="M183.646 95.8364C183.646 97.2752 183.738 101.591 183.738 100.152" stroke="white" stroke-width="0.25" stroke-linecap="round" stroke-linejoin="round"/>
<path d="M184.472 96.1118C184.472 97.2749 184.472 100.764 184.472 99.601" stroke="white" stroke-width="0.25" stroke-linecap="round" stroke-linejoin="round"/>
<path d="M185.39 95.9282C185.39 96.9688 185.39 100.091 185.39 99.05" stroke="white" stroke-width="0.25" stroke-linecap="round" stroke-linejoin="round"/>
<path d="M186.492 94.0918C186.492 95.6508 186.584 97.2305 186.584 98.7746C186.584 99.0105 186.555 99.4944 186.768 99.601" stroke="white" stroke-width="0.25" stroke-linecap="round" stroke-linejoin="round"/>
<path d="M187.711 87.0918C187.711 88.1072 187.865 89.2652 187.665 90.2647C187.556 90.8092 187.527 91.4944 187.527 92.05" stroke="white" stroke-width="0.25" stroke-linecap="round" stroke-linejoin="round"/>
<path d="M186.242 87.1836C186.242 88.7216 186.15 90.3852 186.15 91.8664" stroke="white" stroke-width="0.25" stroke-linecap="round" stroke-linejoin="round"/>
<path d="M184.865 87.4591C184.865 89.0086 184.773 90.6251 184.773 92.1419" stroke="white" stroke-width="0.25" stroke-linecap="round" stroke-linejoin="round"/>
<path d="M183.487 87.1836C183.487 87.9043 183.498 88.6259 183.487 89.3465C183.48 89.8686 183.304 90.3789 183.304 90.9023C183.304 91.1185 183.426 92.0348 183.212 92.1418" stroke="white" stroke-width="0.25" stroke-linecap="round" stroke-linejoin="round"/>
<path d="M182.294 87C182.294 88.4453 182.294 89.8906 182.294 91.3359C182.294 91.6013 182.254 92.5882 182.294 92.5091" stroke="white" stroke-width="0.25" stroke-linecap="round" stroke-linejoin="round"/>
<path d="M181.1 88.3773C181.1 89.7546 181.1 91.1319 181.1 92.5091" stroke="white" stroke-width="0.25" stroke-linecap="round" stroke-linejoin="round"/>
<path d="M180.274 88.5609C180.274 89.877 180.274 91.1931 180.274 92.5091" stroke="white" stroke-width="0.25" stroke-linecap="round" stroke-linejoin="round"/>
<path d="M179.631 88.5609C179.631 89.6659 179.539 90.7614 179.539 91.8664" stroke="white" stroke-width="0.25" stroke-linecap="round" stroke-linejoin="round"/>
<path d="M178.621 89.02C178.621 90.2443 178.621 93.917 178.621 92.6928" stroke="white" stroke-width="0.25" stroke-linecap="round" stroke-linejoin="round"/>
<path d="M177.427 88.9282C177.427 89.9405 177.336 90.948 177.336 91.9582C177.336 92.037 177.363 92.5648 177.244 92.3255" stroke="white" stroke-width="0.25" stroke-linecap="round" stroke-linejoin="round"/>
<path d="M176.142 88.9282C176.142 89.8911 175.866 90.8327 175.866 91.7746" stroke="white" stroke-width="0.25" stroke-linecap="round" stroke-linejoin="round"/>
<path d="M174.765 88.7446C174.765 89.7546 174.765 92.7846 174.765 91.7746" stroke="white" stroke-width="0.25" stroke-linecap="round" stroke-linejoin="round"/>
<path d="M174.122 88.8364C174.122 90.2752 174.03 94.5907 174.03 93.1519" stroke="white" stroke-width="0.25" stroke-linecap="round" stroke-linejoin="round"/>
<path d="M173.295 89.1118C173.295 90.2749 173.295 93.764 173.295 92.601" stroke="white" stroke-width="0.25" stroke-linecap="round" stroke-linejoin="round"/>
<path d="M172.377 88.9282C172.377 89.9688 172.377 93.0906 172.377 92.05" stroke="white" stroke-width="0.25" stroke-linecap="round" stroke-linejoin="round"/>
<path d="M171.275 87.0918C171.275 88.6508 171.184 90.2305 171.184 91.7746C171.184 92.0105 171.213 92.4944 171 92.601" stroke="white" stroke-width="0.25" stroke-linecap="round" stroke-linejoin="round"/>
<path d="M173.563 81.9531C173.563 83.1009 173.563 84.2486 173.563 85.3963C173.563 85.7267 173.513 86.0777 173.655 86.3604" stroke="white" stroke-width="0.25" stroke-linecap="round" stroke-linejoin="round"/>
<path d="M174.848 81.2186C174.848 82.5193 174.848 83.8201 174.848 85.1209C174.848 85.2886 174.901 86.1111 175.032 86.1768" stroke="white" stroke-width="0.25" stroke-linecap="round" stroke-linejoin="round"/>
<path d="M176.042 81.2186C176.042 82.351 176.042 83.4834 176.042 84.6159C176.042 84.9343 175.998 85.2616 176.134 85.5341" stroke="white" stroke-width="0.25" stroke-linecap="round" stroke-linejoin="round"/>
<path d="M176.96 81.3104C176.96 82.8101 176.96 84.3098 176.96 85.8095" stroke="white" stroke-width="0.25" stroke-linecap="round" stroke-linejoin="round"/>
<path d="M177.787 82.4122C177.787 83.6059 177.787 84.7995 177.787 85.9932" stroke="white" stroke-width="0.25" stroke-linecap="round" stroke-linejoin="round"/>
<path d="M178.521 82.4122C178.521 83.4835 178.521 84.5547 178.521 85.6259" stroke="white" stroke-width="0.25" stroke-linecap="round" stroke-linejoin="round"/>
<path d="M179.531 82.5959C179.531 83.4222 179.531 84.2486 179.531 85.075" stroke="white" stroke-width="0.25" stroke-linecap="round" stroke-linejoin="round"/>
<path d="M180.725 82.3204C180.725 83.1009 180.725 83.8813 180.725 84.6618C180.725 84.8115 180.812 85.4509 180.908 85.2586" stroke="white" stroke-width="0.25" stroke-linecap="round" stroke-linejoin="round"/>
<path d="M181.918 82.6877C181.831 83.5073 181.827 84.3234 181.827 85.1464C181.827 85.3241 181.751 85.6339 181.918 85.7177" stroke="white" stroke-width="0.25" stroke-linecap="round" stroke-linejoin="round"/>
<path d="M182.928 82.045C182.928 82.9325 182.928 83.8201 182.928 84.7077" stroke="white" stroke-width="0.25" stroke-linecap="round" stroke-linejoin="round"/>
<path d="M183.847 80.8513C183.847 81.8001 183.847 82.7489 183.847 83.6977C183.847 83.925 183.788 84.2498 183.852 84.473C183.896 84.6279 184.184 85.09 184.03 85.1668" stroke="white" stroke-width="0.25" stroke-linecap="round" stroke-linejoin="round"/>
<path d="M184.765 81.7695C184.765 83.0549 184.765 84.3404 184.765 85.6259" stroke="white" stroke-width="0.25" stroke-linecap="round" stroke-linejoin="round"/>
<path d="M174.94 76.9949C174.94 77.8825 174.94 78.7701 174.94 79.6577" stroke="white" stroke-width="0.25" stroke-linecap="round" stroke-linejoin="round"/>
<path d="M175.858 75.8931C175.858 77.1173 175.858 78.3416 175.858 79.5658" stroke="white" stroke-width="0.25" stroke-linecap="round" stroke-linejoin="round"/>
<path d="M176.318 76.444C176.318 77.8638 176.868 82.0875 176.868 80.6677" stroke="white" stroke-width="0.25" stroke-linecap="round" stroke-linejoin="round"/>
<path d="M177.328 75.434C177.328 76.9449 177.878 81.444 177.878 79.9331" stroke="white" stroke-width="0.25" stroke-linecap="round" stroke-linejoin="round"/>
<path d="M178.521 74.6076C178.521 76.2038 178.888 80.9784 178.888 79.3822" stroke="white" stroke-width="0.25" stroke-linecap="round" stroke-linejoin="round"/>
<path d="M179.623 74.6994C179.623 75.9101 179.623 77.1207 179.623 78.3314C179.623 78.5215 179.618 78.6582 179.694 78.8313C179.76 78.9782 179.899 79.6564 179.99 79.474" stroke="white" stroke-width="0.25" stroke-linecap="round" stroke-linejoin="round"/>
<path d="M180.725 75.0667C180.725 76.3127 180.631 77.5969 180.837 78.8313C180.863 78.9882 181.092 79.9567 181.092 79.3822" stroke="white" stroke-width="0.25" stroke-linecap="round" stroke-linejoin="round"/>
<path d="M181.918 74.6994C181.918 75.9833 181.955 77.2572 182.01 78.5354C182.017 78.6988 182.196 79.4693 182.286 79.2904" stroke="white" stroke-width="0.25" stroke-linecap="round" stroke-linejoin="round"/>
<path d="M182.928 75.8931C182.928 77.0442 182.928 78.1953 182.928 79.3465C182.928 79.527 183.018 79.9343 182.837 80.0249" stroke="white" stroke-width="0.25" stroke-linecap="round" stroke-linejoin="round"/>
<path d="M183.938 76.9949C183.938 77.4846 183.938 78.9537 183.938 78.464" stroke="white" stroke-width="0.25" stroke-linecap="round" stroke-linejoin="round"/>
</svg>
