<svg width="102" height="49" viewBox="0 0 102 49" fill="none" xmlns="http://www.w3.org/2000/svg">
<path d="M10.4885 14.9486C11.2947 13.2524 12.2106 11.4263 14.2898 12.4965C15.3748 13.055 15.5724 14.3438 15.6197 15.4546C15.7276 17.9917 12.9699 19.9062 10.6571 20.0603C8.06332 20.2333 5.98812 17.5629 5.41563 15.2729C4.59928 12.0075 6.74663 9.33477 9.72948 8.25403C12.3404 7.30803 15.686 7.53982 18.3118 8.3189C21.2827 9.20038 22.9184 10.9146 25.0323 13.0285C28.4599 16.456 31.6999 20.265 34.8925 23.9136C36.5736 25.8349 38.7426 27.1838 40.7892 28.6686C41.7657 29.377 42.7003 30.1501 43.6564 30.8871C44.8804 31.8306 46.319 32.1829 47.62 32.9565C49.6501 34.1636 52.1937 35.0431 54.4573 35.7264C56.5377 36.3545 58.8559 37.1341 61.048 37.1341C63.6363 37.1341 66.9196 37.2566 67.9956 34.5069C68.854 32.3131 67.8324 29.5661 65.2516 31.179" stroke="#F4F3EA" stroke-linecap="round" stroke-linejoin="round"/>
<path d="M10.9556 40.7538C12.2737 42.5645 13.1143 43.3573 14.9257 41.7788C15.9225 40.9102 16.6642 39.9025 16.6642 38.5288C16.6642 34.8435 12.1563 34.1096 9.33389 34.6885C6.26327 35.3184 4.22513 37.3356 4.18323 40.5203C4.15087 42.9797 5.03639 45.5106 7.3359 46.7089C13.7035 50.0272 21.5074 46.0959 26.4855 41.9734C30.082 38.995 33.8049 36.192 37.2539 33.0473C41.2334 29.4189 45.7336 26.0098 50.5392 23.5633C56.4861 20.5358 62.4867 18.292 69.1504 17.4591C75.1736 16.7062 81.7216 15.4816 87.7032 17.1607C90.7581 18.0182 93.055 19.4428 95.7535 21.0204C97.8756 22.261 98.8858 23.823 99.6976 26.0673C100.529 28.3659 101.784 30.3334 100.34 32.5802C99.9682 33.1584 99.2528 34.2545 98.6467 34.5912C98.1923 34.8437 96.7379 35.2303 96.545 35.6162" stroke="#F4F3EA" stroke-linecap="round" stroke-linejoin="round"/>
<path d="M6.16814 24.6402C4.0665 21.8592 1.23832 19.8321 1.03044 16.0903C0.738564 10.8365 2.53451 6.32676 6.89468 3.18122C11.2305 0.0532112 17.4744 0.717532 22.191 2.50657C26.0257 3.96113 29.4568 7.61041 32.2977 10.4856C35.4411 13.6668 38.4226 16.9608 41.5741 20.1123C44.3493 22.8874 49.0156 19.905 51.8754 18.5748C54.2826 17.4552 56.7161 16.2897 59.1798 15.2989C61.6986 14.2859 64.3815 12.8871 67.1199 12.6133C69.7019 12.3551 72.2989 11.8979 74.8783 11.5624C77.3129 11.2457 79.7943 11.5624 82.2345 11.5624C85.4822 11.5624 90.2933 12.2395 92.8083 14.4751C93.7078 15.2746 95.3475 15.8927 96.454 16.3498C97.0346 16.5896 98.611 17.6084 98.7634 18.2181" stroke="#F4F3EA" stroke-linecap="round" stroke-linejoin="round"/>
<path d="M16.9106 29.3108C19.6357 30.6826 21.6118 32.0159 20.6212 35.3307C20.4546 35.8882 19.3918 39.7339 21.2375 38.8726C22.4088 38.326 23.3543 37.0719 24.4874 36.3881C25.9741 35.491 27.4276 34.5729 28.7624 33.456C30.2403 32.2194 32.8434 30.2449 34.8926 30.2449" stroke="#F4F3EA" stroke-linecap="round" stroke-linejoin="round"/>
</svg>
