<svg width="1451" height="830" viewBox="0 0 1451 830" fill="none" xmlns="http://www.w3.org/2000/svg">
<path d="M2 574.788C10.0088 586.099 16.154 591.848 25.2998 600.655C31.4805 606.607 36.6482 613.874 43.7494 618.439C49.8433 622.357 58.8714 628.988 66.3834 629.566C73.5877 630.12 77.0293 641.006 84.3575 641.549C97.6904 642.536 113.074 650.609 123.539 638.981C134.76 626.514 119.059 593.251 102.997 601.131C82.8022 611.038 97.5918 640.107 110.51 627.188C115.384 622.314 113.348 607.248 104.899 612.448C97.705 616.875 104.44 625.753 110.701 620.151C126.095 606.377 102.997 593.929 102.997 580.969C102.997 565.116 120.344 552.606 135.522 556.623C152.89 561.221 169.009 574.905 184.119 584.203C200.676 594.392 214.889 604.161 229.006 617.773C234.904 623.461 244.341 627.521 251.26 632.134C257.447 636.258 262.038 641.549 270.09 641.549C277.416 641.549 287.046 641.562 291.107 633.845C296.234 624.106 292.627 613.03 281.883 608.358C272.205 604.151 254.069 613.5 261.341 625.477C266.375 633.769 278.432 628.63 280.836 620.817C283.371 612.58 265.123 609.848 265.62 619.295C266.116 628.72 279.873 618.343 281.883 614.825C287.677 604.685 281.191 596.422 273.133 591.05C265.186 585.752 263.255 575.748 267.332 567.084C274.789 551.239 295.212 554.84 307.56 563.851C317.452 571.07 330.519 572.723 340.75 579.923C349.518 586.093 357.307 592.954 365.762 599.419C384.666 613.875 403.347 633.101 426.721 640.027C437.546 643.234 455.141 647.457 460.958 633.18C464.697 624.001 468.946 617.524 460.577 608.834C454.937 602.976 438.511 596.449 431.477 603.223C425.742 608.745 426.189 622.853 434.234 626.998C442.814 631.418 452.79 621.112 445.361 613.684C439.526 607.849 430.272 614.802 434.425 621.863C438.245 628.357 448.513 615.757 449.831 612.828C453.318 605.078 443.312 594.482 439.37 588.672C433.236 579.633 431.96 575.116 437.848 564.517C441.31 558.286 452.962 556.589 459.246 556.814C468.534 557.145 476.63 564.662 484.923 567.94C497.378 572.864 509.182 580.156 520.111 587.912C527.517 593.167 534.182 600.547 542.079 604.935C559.431 614.574 571.206 638.151 593.624 638.981C603.445 639.345 609.906 640.35 619.111 635.747C626.583 632.012 629.816 616.861 624.912 610.26C604.895 583.315 582.433 628.429 603.705 627.854C612.564 627.615 618.892 615.525 607.984 612.638C598.652 610.168 595.677 622.719 605.416 622.719C610.472 622.719 616.589 618.64 617.352 613.304C618.189 607.441 615.872 606.603 613.31 602.177C609.231 595.132 601.989 590.112 598.379 582.491C594.205 573.678 598.944 563.724 606.272 558.335C615.751 551.366 625.692 552.781 635.849 557.86C650.831 565.351 667.709 571.737 680.071 583.537C688.375 591.463 697.798 599.135 706.937 606.123C713.394 611.061 717.91 616.872 724.958 621.197C728.603 623.433 732.481 625.029 735.943 627.426C743.672 632.777 755.333 637.528 764.568 639.837C773.013 641.948 779.426 644.712 786.394 637.745C795.079 629.059 799.052 613.751 787.678 605.22C777.254 597.402 760.2 598.835 758.672 614.112C757.434 626.494 763.51 637.22 776.979 629.138C786.389 623.492 776.581 606.19 767.611 613.779C757.178 622.607 773.9 626.997 779.594 618.772C784.253 612.043 778.991 600.859 776.218 594.521C772.131 585.181 767.725 580.154 769.704 569.272C771.071 561.75 782.957 556.818 789.865 556.005C800.739 554.726 816.139 563.015 824.482 569.272C837.603 579.112 850.109 590.394 862.665 600.94C875.167 611.442 889.418 619.669 902.037 629.994C906.153 633.362 912.22 633.904 917.158 634.892C922.565 635.973 927.249 639.4 932.422 640.693C941.535 642.971 951.47 642.139 958.479 635.129C974.609 618.999 939.85 587.106 927.619 615.063C924.476 622.248 930.591 633.588 939.744 630.802C957.122 625.513 943.422 609.308 933.705 615.491C927.397 619.506 943.16 628.412 946.924 618.059C950.198 609.056 949.34 604.034 943.976 596.233C932.532 579.586 929.904 550.848 958.384 554.198C978.157 556.524 996.868 572.991 1011.93 584.536C1019.3 590.191 1026.61 594.563 1033.18 601.131C1037.8 605.748 1041.8 609.799 1047.49 613.304C1065.29 624.255 1085.36 642.405 1107.46 642.405C1123.48 642.405 1135.1 622.366 1119.82 610.355C1106.58 599.954 1082.51 613.654 1096.28 627.426C1101.32 632.469 1117.81 629.441 1112.54 621.007C1106.84 611.884 1097.9 620.085 1106.46 622.719C1116.78 625.894 1119.82 613.945 1119.82 605.696C1119.82 595.063 1110.94 584.925 1108.69 574.788C1106.78 566.176 1111.16 558.912 1120.72 557.717C1129.12 556.667 1137.51 560.799 1145.4 563.471C1157.45 567.55 1161.54 574.429 1171.03 581.968C1181.27 590.101 1190.8 599.042 1201.08 607.265C1210.18 614.545 1223.14 627.06 1234.42 629.566C1249.44 632.905 1292.71 657.983 1292.71 623.622C1292.71 610.908 1276.11 588.877 1263.18 604.792C1257.78 611.44 1259.16 623.49 1267.03 627.426C1278.53 633.175 1286.95 614.16 1273.45 614.16C1265.62 614.16 1262.79 624.43 1271.74 624.43C1298.89 624.43 1271.83 587.922 1269.17 577.308C1263.78 555.737 1283.48 546.681 1300.46 557.717C1307.91 562.559 1316.17 563.703 1323.91 567.465C1332.3 571.549 1339.76 577.998 1347.2 583.585C1359.66 592.923 1370.36 603.553 1381.25 614.445C1393.96 627.153 1413.56 644.116 1431.42 644.116C1447.56 644.116 1453.67 637.269 1451.1 620.579C1448.99 606.835 1439.41 600.7 1425.85 605.22C1414.44 609.023 1423.11 628.71 1433.08 628.71C1436.62 628.71 1440.78 629.212 1440.78 624.43C1440.78 621.463 1441.15 617.365 1437.79 615.871C1434.26 614.304 1432.24 611.824 1427.95 613.969C1425.07 615.406 1425.37 620.487 1428.47 621.863C1434.59 624.585 1440.78 620.741 1440.78 614.112C1440.78 604.604 1440.24 602.893 1434.37 595.71C1429.7 590.014 1425.79 577.93 1427.95 570.936C1431.67 558.83 1440.19 556.775 1451.06 561.949" stroke="#7F5A85" stroke-linecap="round" stroke-linejoin="round"/>
<path d="M0 758.788C8.00885 770.099 14.154 775.848 23.2998 784.655C29.4805 790.607 34.6482 797.874 41.7494 802.439C47.8433 806.357 56.8714 812.988 64.3834 813.566C71.5877 814.12 75.0293 825.006 82.3575 825.549C95.6904 826.536 111.074 834.609 121.539 822.981C132.76 810.514 117.059 777.251 100.997 785.131C80.8022 795.038 95.5918 824.107 108.51 811.188C113.384 806.314 111.348 791.248 102.899 796.448C95.705 800.875 102.44 809.753 108.701 804.151C124.095 790.377 100.997 777.929 100.997 764.969C100.997 749.116 118.344 736.606 133.522 740.623C150.89 745.221 167.009 758.905 182.119 768.203C198.676 778.392 212.889 788.161 227.006 801.773C232.904 807.461 242.341 811.521 249.26 816.134C255.447 820.258 260.038 825.549 268.09 825.549C275.416 825.549 285.046 825.562 289.107 817.845C294.234 808.106 290.627 797.03 279.883 792.358C270.205 788.151 252.069 797.5 259.341 809.477C264.375 817.769 276.432 812.63 278.836 804.817C281.371 796.58 263.123 793.848 263.62 803.295C264.116 812.72 277.873 802.343 279.883 798.825C285.677 788.685 279.191 780.422 271.133 775.05C263.186 769.752 261.255 759.748 265.332 751.084C272.789 735.239 293.212 738.84 305.56 747.851C315.452 755.07 328.519 756.723 338.75 763.923C347.518 770.093 355.307 776.954 363.762 783.419C382.666 797.875 401.347 817.101 424.721 824.027C435.546 827.234 453.141 831.457 458.958 817.18C462.697 808.001 466.946 801.524 458.577 792.834C452.937 786.976 436.511 780.449 429.477 787.223C423.742 792.745 424.189 806.853 432.234 810.998C440.814 815.418 450.79 805.112 443.361 797.684C437.526 791.849 428.272 798.802 432.425 805.863C436.245 812.357 446.513 799.757 447.831 796.828C451.318 789.078 441.312 778.482 437.37 772.672C431.236 763.633 429.96 759.116 435.848 748.517C439.31 742.286 450.962 740.589 457.246 740.814C466.534 741.145 474.63 748.662 482.923 751.94C495.378 756.864 507.182 764.156 518.111 771.912C525.517 777.167 532.182 784.547 540.079 788.935C557.431 798.574 569.206 822.151 591.624 822.981C601.445 823.345 607.906 824.35 617.111 819.747C624.583 816.012 627.816 800.861 622.912 794.26C602.895 767.315 580.433 812.429 601.705 811.854C610.564 811.615 616.892 799.525 605.984 796.638C596.652 794.168 593.677 806.719 603.416 806.719C608.472 806.719 614.589 802.64 615.352 797.304C616.189 791.441 613.872 790.603 611.31 786.177C607.231 779.132 599.989 774.112 596.379 766.491C592.205 757.678 596.944 747.724 604.272 742.335C613.751 735.366 623.692 736.781 633.849 741.86C648.831 749.351 665.709 755.737 678.071 767.537C686.375 775.463 695.798 783.135 704.937 790.123C711.394 795.061 715.91 800.872 722.958 805.197C726.603 807.433 730.481 809.029 733.943 811.426C741.672 816.777 753.333 821.528 762.568 823.837C771.013 825.948 777.426 828.712 784.394 821.745C793.079 813.059 797.052 797.751 785.678 789.22C775.254 781.402 758.2 782.835 756.672 798.112C755.434 810.494 761.51 821.22 774.979 813.138C784.389 807.492 774.581 790.19 765.611 797.779C755.178 806.607 771.9 810.997 777.594 802.772C782.253 796.043 776.991 784.859 774.218 778.521C770.131 769.181 765.725 764.154 767.704 753.272C769.071 745.75 780.957 740.818 787.865 740.005C798.739 738.726 814.139 747.015 822.482 753.272C835.603 763.112 848.109 774.394 860.665 784.94C873.167 795.442 887.418 803.669 900.037 813.994C904.153 817.362 910.22 817.904 915.158 818.892C920.565 819.973 925.249 823.4 930.422 824.693C939.535 826.971 949.47 826.139 956.479 819.129C972.609 802.999 937.85 771.106 925.619 799.063C922.476 806.248 928.591 817.588 937.744 814.802C955.122 809.513 941.422 793.308 931.705 799.491C925.397 803.506 941.16 812.412 944.924 802.059C948.198 793.056 947.34 788.034 941.976 780.233C930.532 763.586 927.904 734.848 956.384 738.198C976.157 740.524 994.868 756.991 1009.93 768.536C1017.3 774.191 1024.61 778.563 1031.18 785.131C1035.8 789.748 1039.8 793.799 1045.49 797.304C1063.29 808.255 1083.36 826.405 1105.46 826.405C1121.48 826.405 1133.1 806.366 1117.82 794.355C1104.58 783.954 1080.51 797.654 1094.28 811.426C1099.32 816.469 1115.81 813.441 1110.54 805.007C1104.84 795.884 1095.9 804.085 1104.46 806.719C1114.78 809.894 1117.82 797.945 1117.82 789.696C1117.82 779.063 1108.94 768.925 1106.69 758.788C1104.78 750.176 1109.16 742.912 1118.72 741.717C1127.12 740.667 1135.51 744.799 1143.4 747.471C1155.45 751.55 1159.54 758.429 1169.03 765.968C1179.27 774.101 1188.8 783.042 1199.08 791.265C1208.18 798.545 1221.14 811.06 1232.42 813.566C1247.44 816.905 1290.71 841.983 1290.71 807.622C1290.71 794.908 1274.11 772.877 1261.18 788.792C1255.78 795.44 1257.16 807.49 1265.03 811.426C1276.53 817.175 1284.95 798.16 1271.45 798.16C1263.62 798.16 1260.79 808.43 1269.74 808.43C1296.89 808.43 1269.83 771.922 1267.17 761.308C1261.78 739.737 1281.48 730.681 1298.46 741.717C1305.91 746.559 1314.17 747.703 1321.91 751.465C1330.3 755.549 1337.76 761.998 1345.2 767.585C1357.66 776.923 1368.36 787.553 1379.25 798.445C1391.96 811.153 1411.56 828.116 1429.42 828.116C1445.56 828.116 1451.67 821.269 1449.1 804.579C1446.99 790.835 1437.41 784.7 1423.85 789.22C1412.44 793.023 1421.11 812.71 1431.08 812.71C1434.62 812.71 1438.78 813.212 1438.78 808.43C1438.78 805.463 1439.15 801.365 1435.79 799.871C1432.26 798.304 1430.24 795.824 1425.95 797.969C1423.07 799.406 1423.37 804.487 1426.47 805.863C1432.59 808.585 1438.78 804.741 1438.78 798.112C1438.78 788.604 1438.24 786.893 1432.37 779.71C1427.7 774.014 1423.79 761.93 1425.95 754.936C1429.67 742.83 1438.19 740.775 1449.06 745.949" stroke="#7F5A85" stroke-linecap="round" stroke-linejoin="round"/>
<path d="M0 390.788C8.00885 402.099 14.154 407.848 23.2998 416.655C29.4805 422.607 34.6482 429.874 41.7494 434.439C47.8433 438.357 56.8714 444.988 64.3834 445.566C71.5877 446.12 75.0293 457.006 82.3575 457.549C95.6904 458.536 111.074 466.609 121.539 454.981C132.76 442.514 117.059 409.251 100.997 417.131C80.8022 427.038 95.5918 456.107 108.51 443.188C113.384 438.314 111.348 423.248 102.899 428.448C95.705 432.875 102.44 441.753 108.701 436.151C124.095 422.377 100.997 409.929 100.997 396.969C100.997 381.116 118.344 368.606 133.522 372.623C150.89 377.221 167.009 390.905 182.119 400.203C198.676 410.392 212.889 420.161 227.006 433.773C232.904 439.461 242.341 443.521 249.26 448.134C255.447 452.258 260.038 457.549 268.09 457.549C275.416 457.549 285.046 457.562 289.107 449.845C294.234 440.106 290.627 429.03 279.883 424.358C270.205 420.151 252.069 429.5 259.341 441.477C264.375 449.769 276.432 444.63 278.836 436.817C281.371 428.58 263.123 425.848 263.62 435.295C264.116 444.72 277.873 434.343 279.883 430.825C285.677 420.685 279.191 412.422 271.133 407.05C263.186 401.752 261.255 391.748 265.332 383.084C272.789 367.239 293.212 370.84 305.56 379.851C315.452 387.07 328.519 388.723 338.75 395.923C347.518 402.093 355.307 408.954 363.762 415.419C382.666 429.875 401.347 449.101 424.721 456.027C435.546 459.234 453.141 463.457 458.958 449.18C462.697 440.001 466.946 433.524 458.577 424.834C452.937 418.976 436.511 412.449 429.477 419.223C423.742 424.745 424.189 438.853 432.234 442.998C440.814 447.418 450.79 437.112 443.361 429.684C437.526 423.849 428.272 430.802 432.425 437.863C436.245 444.357 446.513 431.757 447.831 428.828C451.318 421.078 441.312 410.482 437.37 404.672C431.236 395.633 429.96 391.116 435.848 380.517C439.31 374.286 450.962 372.589 457.246 372.814C466.534 373.145 474.63 380.662 482.923 383.94C495.378 388.864 507.182 396.156 518.111 403.912C525.517 409.167 532.182 416.547 540.079 420.935C557.431 430.574 569.206 454.151 591.624 454.981C601.445 455.345 607.906 456.35 617.111 451.747C624.583 448.012 627.816 432.861 622.912 426.26C602.895 399.315 580.433 444.429 601.705 443.854C610.564 443.615 616.892 431.525 605.984 428.638C596.652 426.168 593.677 438.719 603.416 438.719C608.472 438.719 614.589 434.64 615.352 429.304C616.189 423.441 613.872 422.603 611.31 418.177C607.231 411.132 599.989 406.112 596.379 398.491C592.205 389.678 596.944 379.724 604.272 374.335C613.751 367.366 623.692 368.781 633.849 373.86C648.831 381.351 665.709 387.737 678.071 399.537C686.375 407.463 695.798 415.135 704.937 422.123C711.394 427.061 715.91 432.872 722.958 437.197C726.603 439.433 730.481 441.029 733.943 443.426C741.672 448.777 753.333 453.528 762.568 455.837C771.013 457.948 777.426 460.712 784.394 453.745C793.079 445.059 797.052 429.751 785.678 421.22C775.254 413.402 758.2 414.835 756.672 430.112C755.434 442.494 761.51 453.22 774.979 445.138C784.389 439.492 774.581 422.19 765.611 429.779C755.178 438.607 771.9 442.997 777.594 434.772C782.253 428.043 776.991 416.859 774.218 410.521C770.131 401.181 765.725 396.154 767.704 385.272C769.071 377.75 780.957 372.818 787.865 372.005C798.739 370.726 814.139 379.015 822.482 385.272C835.603 395.112 848.109 406.394 860.665 416.94C873.167 427.442 887.418 435.669 900.037 445.994C904.153 449.362 910.22 449.904 915.158 450.892C920.565 451.973 925.249 455.4 930.422 456.693C939.535 458.971 949.47 458.139 956.479 451.129C972.609 434.999 937.85 403.106 925.619 431.063C922.476 438.248 928.591 449.588 937.744 446.802C955.122 441.513 941.422 425.308 931.705 431.491C925.397 435.506 941.16 444.412 944.924 434.059C948.198 425.056 947.34 420.034 941.976 412.233C930.532 395.586 927.904 366.848 956.384 370.198C976.157 372.524 994.868 388.991 1009.93 400.536C1017.3 406.191 1024.61 410.563 1031.18 417.131C1035.8 421.748 1039.8 425.799 1045.49 429.304C1063.29 440.255 1083.36 458.405 1105.46 458.405C1121.48 458.405 1133.1 438.366 1117.82 426.355C1104.58 415.954 1080.51 429.654 1094.28 443.426C1099.32 448.469 1115.81 445.441 1110.54 437.007C1104.84 427.884 1095.9 436.085 1104.46 438.719C1114.78 441.894 1117.82 429.945 1117.82 421.696C1117.82 411.063 1108.94 400.925 1106.69 390.788C1104.78 382.176 1109.16 374.912 1118.72 373.717C1127.12 372.667 1135.51 376.799 1143.4 379.471C1155.45 383.55 1159.54 390.429 1169.03 397.968C1179.27 406.101 1188.8 415.042 1199.08 423.265C1208.18 430.545 1221.14 443.06 1232.42 445.566C1247.44 448.905 1290.71 473.983 1290.71 439.622C1290.71 426.908 1274.11 404.877 1261.18 420.792C1255.78 427.44 1257.16 439.49 1265.03 443.426C1276.53 449.175 1284.95 430.16 1271.45 430.16C1263.62 430.16 1260.79 440.43 1269.74 440.43C1296.89 440.43 1269.83 403.922 1267.17 393.308C1261.78 371.737 1281.48 362.681 1298.46 373.717C1305.91 378.559 1314.17 379.703 1321.91 383.465C1330.3 387.549 1337.76 393.998 1345.2 399.585C1357.66 408.923 1368.36 419.553 1379.25 430.445C1391.96 443.153 1411.56 460.116 1429.42 460.116C1445.56 460.116 1451.67 453.269 1449.1 436.579C1446.99 422.835 1437.41 416.7 1423.85 421.22C1412.44 425.023 1421.11 444.71 1431.08 444.71C1434.62 444.71 1438.78 445.212 1438.78 440.43C1438.78 437.463 1439.15 433.365 1435.79 431.871C1432.26 430.304 1430.24 427.824 1425.95 429.969C1423.07 431.406 1423.37 436.487 1426.47 437.863C1432.59 440.585 1438.78 436.741 1438.78 430.112C1438.78 420.604 1438.24 418.893 1432.37 411.71C1427.7 406.014 1423.79 393.93 1425.95 386.936C1429.67 374.83 1438.19 372.775 1449.06 377.949" stroke="#7F5A85" stroke-linecap="round" stroke-linejoin="round"/>
<path d="M0 206.788C8.00885 218.099 14.154 223.848 23.2998 232.655C29.4805 238.607 34.6482 245.874 41.7494 250.439C47.8433 254.357 56.8714 260.988 64.3834 261.566C71.5877 262.12 75.0293 273.006 82.3575 273.549C95.6904 274.536 111.074 282.609 121.539 270.981C132.76 258.514 117.059 225.251 100.997 233.131C80.8022 243.038 95.5918 272.107 108.51 259.188C113.384 254.314 111.348 239.248 102.899 244.448C95.705 248.875 102.44 257.753 108.701 252.151C124.095 238.377 100.997 225.929 100.997 212.969C100.997 197.116 118.344 184.606 133.522 188.623C150.89 193.221 167.009 206.905 182.119 216.203C198.676 226.392 212.889 236.161 227.006 249.773C232.904 255.461 242.341 259.521 249.26 264.134C255.447 268.258 260.038 273.549 268.09 273.549C275.416 273.549 285.046 273.562 289.107 265.845C294.234 256.106 290.627 245.03 279.883 240.358C270.205 236.151 252.069 245.5 259.341 257.477C264.375 265.769 276.432 260.63 278.836 252.817C281.371 244.58 263.123 241.848 263.62 251.295C264.116 260.72 277.873 250.343 279.883 246.825C285.677 236.685 279.191 228.422 271.133 223.05C263.186 217.752 261.255 207.748 265.332 199.084C272.789 183.239 293.212 186.84 305.56 195.851C315.452 203.07 328.519 204.723 338.75 211.923C347.518 218.093 355.307 224.954 363.762 231.419C382.666 245.875 401.347 265.101 424.721 272.027C435.546 275.234 453.141 279.457 458.958 265.18C462.697 256.001 466.946 249.524 458.577 240.834C452.937 234.976 436.511 228.449 429.477 235.223C423.742 240.745 424.189 254.853 432.234 258.998C440.814 263.418 450.79 253.112 443.361 245.684C437.526 239.849 428.272 246.802 432.425 253.863C436.245 260.357 446.513 247.757 447.831 244.828C451.318 237.078 441.312 226.482 437.37 220.672C431.236 211.633 429.96 207.116 435.848 196.517C439.31 190.286 450.962 188.589 457.246 188.814C466.534 189.145 474.63 196.662 482.923 199.94C495.378 204.864 507.182 212.156 518.111 219.912C525.517 225.167 532.182 232.547 540.079 236.935C557.431 246.574 569.206 270.151 591.624 270.981C601.445 271.345 607.906 272.35 617.111 267.747C624.583 264.012 627.816 248.861 622.912 242.26C602.895 215.315 580.433 260.429 601.705 259.854C610.564 259.615 616.892 247.525 605.984 244.638C596.652 242.168 593.677 254.719 603.416 254.719C608.472 254.719 614.589 250.64 615.352 245.304C616.189 239.441 613.872 238.603 611.31 234.177C607.231 227.132 599.989 222.112 596.379 214.491C592.205 205.678 596.944 195.724 604.272 190.335C613.751 183.366 623.692 184.781 633.849 189.86C648.831 197.351 665.709 203.737 678.071 215.537C686.375 223.463 695.798 231.135 704.937 238.123C711.394 243.061 715.91 248.872 722.958 253.197C726.603 255.433 730.481 257.029 733.943 259.426C741.672 264.777 753.333 269.528 762.568 271.837C771.013 273.948 777.426 276.712 784.394 269.745C793.079 261.059 797.052 245.751 785.678 237.22C775.254 229.402 758.2 230.835 756.672 246.112C755.434 258.494 761.51 269.22 774.979 261.138C784.389 255.492 774.581 238.19 765.611 245.779C755.178 254.607 771.9 258.997 777.594 250.772C782.253 244.043 776.991 232.859 774.218 226.521C770.131 217.181 765.725 212.154 767.704 201.272C769.071 193.75 780.957 188.818 787.865 188.005C798.739 186.726 814.139 195.015 822.482 201.272C835.603 211.112 848.109 222.394 860.665 232.94C873.167 243.442 887.418 251.669 900.037 261.994C904.153 265.362 910.22 265.904 915.158 266.892C920.565 267.973 925.249 271.4 930.422 272.693C939.535 274.971 949.47 274.139 956.479 267.129C972.609 250.999 937.85 219.106 925.619 247.063C922.476 254.248 928.591 265.588 937.744 262.802C955.122 257.513 941.422 241.308 931.705 247.491C925.397 251.506 941.16 260.412 944.924 250.059C948.198 241.056 947.34 236.034 941.976 228.233C930.532 211.586 927.904 182.848 956.384 186.198C976.157 188.524 994.868 204.991 1009.93 216.536C1017.3 222.191 1024.61 226.563 1031.18 233.131C1035.8 237.748 1039.8 241.799 1045.49 245.304C1063.29 256.255 1083.36 274.405 1105.46 274.405C1121.48 274.405 1133.1 254.366 1117.82 242.355C1104.58 231.954 1080.51 245.654 1094.28 259.426C1099.32 264.469 1115.81 261.441 1110.54 253.007C1104.84 243.884 1095.9 252.085 1104.46 254.719C1114.78 257.894 1117.82 245.945 1117.82 237.696C1117.82 227.063 1108.94 216.925 1106.69 206.788C1104.78 198.176 1109.16 190.912 1118.72 189.717C1127.12 188.667 1135.51 192.799 1143.4 195.471C1155.45 199.55 1159.54 206.429 1169.03 213.968C1179.27 222.101 1188.8 231.042 1199.08 239.265C1208.18 246.545 1221.14 259.06 1232.42 261.566C1247.44 264.905 1290.71 289.983 1290.71 255.622C1290.71 242.908 1274.11 220.877 1261.18 236.792C1255.78 243.44 1257.16 255.49 1265.03 259.426C1276.53 265.175 1284.95 246.16 1271.45 246.16C1263.62 246.16 1260.79 256.43 1269.74 256.43C1296.89 256.43 1269.83 219.922 1267.17 209.308C1261.78 187.737 1281.48 178.681 1298.46 189.717C1305.91 194.559 1314.17 195.703 1321.91 199.465C1330.3 203.549 1337.76 209.998 1345.2 215.585C1357.66 224.923 1368.36 235.553 1379.25 246.445C1391.96 259.153 1411.56 276.116 1429.42 276.116C1445.56 276.116 1451.67 269.269 1449.1 252.579C1446.99 238.835 1437.41 232.7 1423.85 237.22C1412.44 241.023 1421.11 260.71 1431.08 260.71C1434.62 260.71 1438.78 261.212 1438.78 256.43C1438.78 253.463 1439.15 249.365 1435.79 247.871C1432.26 246.304 1430.24 243.824 1425.95 245.969C1423.07 247.406 1423.37 252.487 1426.47 253.863C1432.59 256.585 1438.78 252.741 1438.78 246.112C1438.78 236.604 1438.24 234.893 1432.37 227.71C1427.7 222.014 1423.79 209.93 1425.95 202.936C1429.67 190.83 1438.19 188.775 1449.06 193.949" stroke="#7F5A85" stroke-linecap="round" stroke-linejoin="round"/>
<path d="M2 22.7877C10.0088 34.0991 16.154 39.8482 25.2998 48.6552C31.4805 54.6069 36.6482 61.874 43.7494 66.4391C49.8433 70.3566 58.8714 76.9881 66.3834 77.5659C73.5877 78.1201 77.0293 89.0058 84.3575 89.5486C97.6904 90.5363 113.074 98.6086 123.539 86.9809C134.76 74.5135 119.059 41.2512 102.997 49.1307C82.8022 59.0378 97.5918 88.107 110.51 75.1884C115.384 70.3143 113.348 55.2483 104.899 60.4477C97.705 64.875 104.44 73.7527 110.701 68.1509C126.095 54.3773 102.997 41.9286 102.997 28.9692C102.997 13.1158 120.344 0.605594 135.522 4.62337C152.89 9.2209 169.009 22.9046 184.119 32.2027C200.676 42.3917 214.889 52.1606 229.006 65.7734C234.904 71.4608 244.341 75.5209 251.26 80.1336C257.447 84.2584 262.038 89.5486 270.09 89.5486C277.416 89.5486 287.046 89.562 291.107 81.8455C296.234 72.1056 292.627 61.0298 281.883 56.3584C272.205 52.1506 254.069 61.4996 261.341 73.4766C266.375 81.7689 278.432 76.6296 280.836 68.8166C283.371 60.5796 265.123 57.848 265.62 67.295C266.116 76.72 279.873 66.3425 281.883 62.8252C287.677 52.6848 281.191 44.422 273.133 39.05C265.186 33.752 263.255 23.7482 267.332 15.0845C274.789 -0.760946 295.212 2.84037 307.56 11.8511C317.452 19.0697 330.519 20.7234 340.75 27.9231C349.518 34.0933 357.307 40.9536 365.762 47.4189C384.666 61.8752 403.347 81.1013 426.721 88.027C437.546 91.2343 455.141 95.4568 460.958 81.1797C464.697 72.0008 468.946 65.5243 460.577 56.8339C454.937 50.9762 438.511 44.4488 431.477 51.2229C425.742 56.745 426.189 70.8533 434.234 74.9982C442.814 79.418 452.79 69.1123 445.361 61.684C439.526 55.8492 430.272 62.8025 434.425 69.8627C438.245 76.3569 448.513 63.7572 449.831 60.8281C453.318 53.0785 443.312 42.482 439.37 36.6724C433.236 27.633 431.96 23.1157 437.848 12.5168C441.31 6.28584 452.962 4.58914 459.246 4.81357C468.534 5.14529 476.63 12.6617 484.923 15.9404C497.378 20.8644 509.182 28.1559 520.111 35.9116C527.517 41.1673 534.182 48.5473 542.079 52.9347C559.431 62.5745 571.206 86.1506 593.624 86.9809C603.445 87.3447 609.906 88.3499 619.111 83.7475C626.583 80.0117 629.816 64.8614 624.912 58.2604C604.895 31.3148 582.433 76.429 603.705 75.8541C612.564 75.6146 618.892 63.5254 607.984 60.6379C598.652 58.1676 595.677 70.7186 605.416 70.7186C610.472 70.7186 616.589 66.6404 617.352 61.3036C618.189 55.4406 615.872 54.6032 613.31 50.1768C609.231 43.1316 601.989 38.1118 598.379 30.4909C594.205 21.6785 598.944 11.7237 606.272 6.33519C615.751 -0.634353 625.692 0.781403 635.849 5.85968C650.831 13.3508 667.709 19.7374 680.071 31.537C688.375 39.4633 697.798 47.1351 706.937 54.1235C713.394 59.0611 717.91 64.8716 724.958 69.197C728.603 71.4331 732.481 73.0293 735.943 75.4261C743.672 80.7772 755.333 85.5281 764.568 87.8368C773.013 89.9481 779.426 92.712 786.394 85.7446C795.079 77.0594 799.052 61.7507 787.678 53.22C777.254 45.4022 760.2 46.8353 758.672 62.112C757.434 74.494 763.51 85.2195 776.979 77.138C786.389 71.4918 776.581 54.1898 767.611 61.7791C757.178 70.6072 773.9 74.9965 779.594 66.7719C784.253 60.0425 778.991 48.8588 776.218 42.5212C772.131 33.1805 767.725 28.1537 769.704 17.2718C771.071 9.75004 782.957 4.81792 789.865 4.00521C800.739 2.72595 816.139 11.0145 824.482 17.2718C837.603 27.1124 850.109 38.3938 862.665 48.9405C875.167 59.4421 889.418 67.6692 902.037 77.9939C906.153 81.3616 912.22 81.904 917.158 82.8916C922.565 83.973 927.249 87.3996 932.422 88.6927C941.535 90.9711 951.47 90.139 958.479 83.1293C974.609 66.9992 939.85 35.1062 927.619 63.063C924.476 70.248 930.591 81.5881 939.744 78.8022C957.122 73.5133 943.422 57.3075 933.705 63.4909C927.397 67.5055 943.16 76.4115 946.924 66.0587C950.198 57.0562 949.34 52.0341 943.976 44.233C932.532 27.586 929.904 -1.1523 958.384 2.19829C978.157 4.5245 996.868 20.9909 1011.93 32.5355C1019.3 38.1907 1026.61 42.563 1033.18 49.1307C1037.8 53.7485 1041.8 57.7994 1047.49 61.3036C1065.29 72.2549 1085.36 90.4046 1107.46 90.4046C1123.48 90.4046 1135.1 70.3662 1119.82 58.3555C1106.58 47.9536 1082.51 61.6544 1096.28 75.4261C1101.32 80.4688 1117.81 77.4412 1112.54 69.0068C1106.84 59.8842 1097.9 68.0853 1106.46 70.7186C1116.78 73.8939 1119.82 61.9446 1119.82 53.6955C1119.82 43.063 1110.94 32.9252 1108.69 22.7877C1106.78 14.1758 1111.16 6.91227 1120.72 5.71703C1129.12 4.66679 1137.51 8.79866 1145.4 11.4706C1157.45 15.5498 1161.54 22.4295 1171.03 29.9678C1181.27 38.1007 1190.8 47.0423 1201.08 55.2647C1210.18 62.5451 1223.14 75.0597 1234.42 77.5659C1249.44 80.9054 1292.71 105.983 1292.71 71.6221C1292.71 58.9084 1276.11 36.8774 1263.18 52.7921C1257.78 59.4399 1259.16 71.4904 1267.03 75.4261C1278.53 81.1751 1286.95 62.1595 1273.45 62.1595C1265.62 62.1595 1262.79 72.4305 1271.74 72.4305C1298.89 72.4305 1271.83 35.9221 1269.17 25.3079C1263.78 3.737 1283.48 -5.3192 1300.46 5.71703C1307.91 10.5588 1316.17 11.703 1323.91 15.4649C1332.3 19.5495 1339.76 25.9977 1347.2 31.5845C1359.66 40.9233 1370.36 51.553 1381.25 62.4448C1393.96 75.1527 1413.56 92.1164 1431.42 92.1164C1447.56 92.1164 1453.67 85.2691 1451.1 68.5789C1448.99 54.8352 1439.41 48.6997 1425.85 53.22C1414.44 57.0232 1423.11 76.71 1433.08 76.71C1436.62 76.71 1440.78 77.2119 1440.78 72.4305C1440.78 69.4629 1441.15 65.3655 1437.79 63.8714C1434.26 62.3036 1432.24 59.8245 1427.95 61.9693C1425.07 63.4055 1425.37 68.487 1428.47 69.8627C1434.59 72.5851 1440.78 68.7405 1440.78 62.112C1440.78 52.6039 1440.24 50.893 1434.37 43.7099C1429.7 38.0138 1425.79 25.9297 1427.95 18.9361C1431.67 6.82998 1440.19 4.7749 1451.06 9.94903" stroke="#7F5A85" stroke-linecap="round" stroke-linejoin="round"/>
</svg>
